<svg xmlns="http://www.w3.org/2000/svg" viewBox="0 0 166.48 233.07"><defs><style>.cls-1{fill:#fff;}.cls-2{fill:#65a7dd;}.cls-3{fill:#a43e32;}.cls-4{fill:#af0f07;}</style></defs><g id="Calque_2" data-name="Calque 2"><g id="Objects"><rect class="cls-1" x="0.12" y="0.11" width="166.25" height="232.84" rx="5.94"/><path class="cls-2" d="M160.43,233.07H6.05a6.06,6.06,0,0,1-6-6V6.05A6.05,6.05,0,0,1,6.05,0H160.43a6.05,6.05,0,0,1,6,6.05V227A6.06,6.06,0,0,1,160.43,233.07ZM6.05.23A5.83,5.83,0,0,0,.23,6.05V227a5.83,5.83,0,0,0,5.82,5.82H160.43a5.83,5.83,0,0,0,5.82-5.82V6.05A5.83,5.83,0,0,0,160.43.23Z"/><path class="cls-3" d="M14.17,23.45H16a.62.62,0,0,0,.42-.12.5.5,0,0,0,.12-.39V13.42h-2.4v-.7h1.06a2.52,2.52,0,0,0,1.7-.56,2.39,2.39,0,0,0,.81-1.36h.62V22.94a.5.5,0,0,0,.12.39.62.62,0,0,0,.42.12h1.86v.62H14.17Z"/><path class="cls-3" d="M26.27,23.39a6.62,6.62,0,0,1-1.66-2.59,9.89,9.89,0,0,1,0-6.73,6.62,6.62,0,0,1,1.66-2.59,3.5,3.5,0,0,1,4.88,0,6.53,6.53,0,0,1,1.67,2.59,9.89,9.89,0,0,1,0,6.73,6.53,6.53,0,0,1-1.67,2.59,3.5,3.5,0,0,1-4.88,0Zm4.57-1.45a17,17,0,0,0,.51-4.51,17,17,0,0,0-.51-4.5,2.15,2.15,0,0,0-4.25,0,17,17,0,0,0-.51,4.51A17,17,0,0,0,26.59,22a2.15,2.15,0,0,0,4.25,0Z"/><path class="cls-4" d="M152.92,206.9h-1.86a.64.64,0,0,0-.42.11.54.54,0,0,0-.13.39v9.53h2.41v.7h-1.07a2.45,2.45,0,0,0-1.69.56,2.3,2.3,0,0,0-.81,1.36h-.62V207.4a.5.5,0,0,0-.13-.39.63.63,0,0,0-.41-.11h-1.87v-.62h6.6Z"/><path class="cls-4" d="M140.82,207a6.53,6.53,0,0,1,1.65,2.6,9.74,9.74,0,0,1,0,6.73,6.56,6.56,0,0,1-1.65,2.59,3.5,3.5,0,0,1-4.88,0,6.49,6.49,0,0,1-1.67-2.59,9.75,9.75,0,0,1-.59-3.37,9.66,9.66,0,0,1,.59-3.36,6.46,6.46,0,0,1,1.67-2.6,3.5,3.5,0,0,1,4.88,0Zm-4.57,1.46a19.73,19.73,0,0,0,0,9,2.15,2.15,0,0,0,4.25,0,20.2,20.2,0,0,0,0-9,2.15,2.15,0,0,0-4.25,0Z"/><path class="cls-4" d="M148.68,201.75a2.27,2.27,0,0,1-2.44-2.11,2.25,2.25,0,0,1-2.43,2.11c-2.5-.06-2.83-2.87-2-4.28a12.56,12.56,0,0,1,2.2-2.77,20.44,20.44,0,0,0,2.16-2.4s0-.07,0-.05,0,.05,0,.05a21.63,21.63,0,0,0,2.17,2.4,12.56,12.56,0,0,1,2.2,2.77C151.51,198.88,151.18,201.69,148.68,201.75Z"/><path class="cls-4" d="M24.05,29.31a2.25,2.25,0,0,0-2.44,2.1,2.25,2.25,0,0,0-2.44-2.1c-2.5.06-2.83,2.86-2,4.28a13.38,13.38,0,0,0,2.2,2.77,22.62,22.62,0,0,1,2.17,2.39s0,.07,0,0,0,0,0,0a21.32,21.32,0,0,1,2.16-2.39A13.06,13.06,0,0,0,26,33.59C26.88,32.17,26.54,29.37,24.05,29.31Z"/><path class="cls-4" d="M55.82,27.18c-5.48-.14-6.74,4.05-7,6.06-.29-2-1.56-6.2-7-6.06-7.21.17-8.16,8.25-5.65,12.33a37.85,37.85,0,0,0,6.34,8c2.37,2.45,5.2,5.21,6.25,6.9,0,0,.06.2.09.15s.08-.15.08-.15c1.05-1.69,3.88-4.45,6.25-6.9a37.85,37.85,0,0,0,6.34-8C64,35.43,63,27.35,55.82,27.18Z"/><path class="cls-4" d="M90.36,50.31c-5.48-.13-6.74,4.06-7,6.07-.29-2-1.56-6.2-7-6.07-7.21.18-8.16,8.25-5.65,12.33a37.6,37.6,0,0,0,6.34,8c2.37,2.46,5.2,5.22,6.25,6.91,0,0,.06.2.09.14s.08-.14.08-.14c1-1.69,3.88-4.45,6.25-6.91a37.6,37.6,0,0,0,6.34-8C98.52,58.56,97.56,50.49,90.36,50.31Z"/><path class="cls-4" d="M90.69,183.64c-5.48.13-6.74-4.06-7-6.07-.29,2-1.55,6.2-7,6.07-7.21-.18-8.16-8.25-5.64-12.33a37.33,37.33,0,0,1,6.33-8c2.37-2.46,5.21-5.22,6.25-6.91,0,0,.06-.2.09-.14s.09.14.09.14c1,1.69,3.88,4.45,6.25,6.91a37.33,37.33,0,0,1,6.33,8C98.85,175.39,97.9,183.46,90.69,183.64Z"/><path class="cls-4" d="M55.82,77.69c-5.48-.13-6.74,4.06-7,6.07-.29-2-1.56-6.2-7-6.07-7.21.18-8.16,8.25-5.65,12.33a37.34,37.34,0,0,0,6.34,8c2.37,2.46,5.2,5.22,6.25,6.91,0,0,.06.2.09.14s.08-.14.08-.14c1.05-1.69,3.88-4.45,6.25-6.91a37.34,37.34,0,0,0,6.34-8C64,85.94,63,77.87,55.82,77.69Z"/><path class="cls-4" d="M55.82,206.1c-5.48.14-6.74-4-7-6.06-.29,2-1.56,6.2-7,6.06-7.21-.17-8.16-8.24-5.65-12.33a37.51,37.51,0,0,1,6.34-8c2.37-2.46,5.2-5.22,6.25-6.91,0,0,.06-.2.09-.14s.08.14.08.14c1.05,1.69,3.88,4.45,6.25,6.91a37.51,37.51,0,0,1,6.34,8C64,197.86,63,205.93,55.82,206.1Z"/><path class="cls-4" d="M55.82,155.59c-5.48.13-6.74-4.06-7-6.07-.29,2-1.56,6.2-7,6.07-7.21-.18-8.16-8.25-5.65-12.33a37.6,37.6,0,0,1,6.34-8c2.37-2.46,5.2-5.22,6.25-6.91,0,0,.06-.2.09-.14s.08.14.08.14c1.05,1.69,3.88,4.45,6.25,6.91a37.6,37.6,0,0,1,6.34,8C64,147.34,63,155.41,55.82,155.59Z"/><path class="cls-4" d="M129.71,27.18c-5.48-.14-6.74,4.05-7,6.06-.29-2-1.56-6.2-7-6.06-7.21.17-8.16,8.25-5.65,12.33a37.85,37.85,0,0,0,6.34,8c2.37,2.45,5.2,5.21,6.25,6.9,0,0,.06.2.09.15s.08-.15.08-.15c1-1.69,3.88-4.45,6.25-6.9a37.85,37.85,0,0,0,6.34-8C137.87,35.43,136.91,27.35,129.71,27.18Z"/><path class="cls-4" d="M129.71,77.69c-5.48-.13-6.74,4.06-7,6.07-.29-2-1.56-6.2-7-6.07-7.21.18-8.16,8.25-5.65,12.33a37.34,37.34,0,0,0,6.34,8c2.37,2.46,5.2,5.22,6.25,6.91,0,0,.06.2.09.14s.08-.14.08-.14c1-1.69,3.88-4.45,6.25-6.91a37.34,37.34,0,0,0,6.34-8C137.87,85.94,136.91,77.87,129.71,77.69Z"/><path class="cls-4" d="M129.71,206.1c-5.48.14-6.74-4-7-6.06-.29,2-1.56,6.2-7,6.06-7.21-.17-8.16-8.24-5.65-12.33a37.51,37.51,0,0,1,6.34-8c2.37-2.46,5.2-5.22,6.25-6.91,0,0,.06-.2.09-.14s.08.14.08.14c1,1.69,3.88,4.45,6.25,6.91a37.51,37.51,0,0,1,6.34,8C137.87,197.86,136.91,205.93,129.71,206.1Z"/><path class="cls-4" d="M129.71,155.59c-5.48.13-6.74-4.06-7-6.07-.29,2-1.56,6.2-7,6.07-7.21-.18-8.16-8.25-5.65-12.33a37.6,37.6,0,0,1,6.34-8c2.37-2.46,5.2-5.22,6.25-6.91,0,0,.06-.2.09-.14s.08.14.08.14c1,1.69,3.88,4.45,6.25,6.91a37.6,37.6,0,0,1,6.34,8C137.87,147.34,136.91,155.41,129.71,155.59Z"/><circle class="cls-1" cx="148.53" cy="18.47" r="0.57"/><circle class="cls-1" cx="121.42" cy="18.47" r="0.57"/><circle class="cls-1" cx="96.48" cy="18.47" r="0.57"/><path class="cls-1" d="M72,18.66a.58.58,0,0,1-.57.57.57.57,0,0,1-.57-.57.56.56,0,0,1,.57-.57A.57.57,0,0,1,72,18.66Z"/><circle class="cls-1" cx="148.53" cy="39.61" r="0.57"/><circle class="cls-1" cx="148.53" cy="58.9" r="0.57"/><circle class="cls-1" cx="148.53" cy="79.11" r="0.57"/><circle class="cls-1" cx="148.53" cy="91.89" r="0.57"/><circle class="cls-1" cx="148.53" cy="104.72" r="0.57"/><circle class="cls-1" cx="18.32" cy="19.04" r="0.57"/><path class="cls-1" d="M46.31,18.66a.57.57,0,0,1-.57.57.58.58,0,0,1-.57-.57.57.57,0,0,1,.57-.57A.56.56,0,0,1,46.31,18.66Z"/><path class="cls-1" d="M18.89,39.16a.56.56,0,0,1-.57.57.57.57,0,0,1-.57-.57.58.58,0,0,1,.57-.57A.57.57,0,0,1,18.89,39.16Z"/><circle class="cls-1" cx="18.32" cy="59.03" r="0.57"/><circle class="cls-1" cx="18.32" cy="78.97" r="0.57"/><circle class="cls-1" cx="18.32" cy="91.89" r="0.57"/><circle class="cls-1" cx="18.32" cy="105.28" r="0.57"/><circle class="cls-1" cx="18.32" cy="118.21" r="0.57"/><circle class="cls-1" cx="18.32" cy="131.13" r="0.57"/><circle class="cls-1" cx="18.32" cy="144.53" r="0.57"/><circle class="cls-1" cx="18.32" cy="157.95" r="0.57"/><circle class="cls-1" cx="18.32" cy="169.95" r="0.57"/><path class="cls-1" d="M18.89,183.35a.56.56,0,0,1-.57.56.57.57,0,1,1,.57-.56Z"/><circle class="cls-1" cx="18.32" cy="196.39" r="0.57"/><circle class="cls-1" cx="18.55" cy="215.57" r="0.57"/><path class="cls-1" d="M39.63,216.14a.57.57,0,1,1-.56-.57A.56.56,0,0,1,39.63,216.14Z"/><path class="cls-1" d="M66.07,216.14a.58.58,0,0,1-.57.57.57.57,0,0,1-.57-.57.56.56,0,0,1,.57-.57A.57.57,0,0,1,66.07,216.14Z"/><circle class="cls-1" cx="91.89" cy="216.14" r="0.57"/><circle class="cls-1" cx="117.59" cy="216.14" r="0.57"/><circle class="cls-1" cx="148.53" cy="117.9" r="0.57"/><circle class="cls-1" cx="148.53" cy="130.22" r="0.57"/><circle class="cls-1" cx="148.53" cy="143.51" r="0.57"/><circle class="cls-1" cx="148.53" cy="156.61" r="0.57"/><circle class="cls-1" cx="148.53" cy="169.36" r="0.57"/><circle class="cls-1" cx="148.53" cy="181.94" r="0.57"/><circle class="cls-1" cx="148.53" cy="194.77" r="0.57"/><circle class="cls-1" cx="148.53" cy="214.34" r="0.57"/></g></g></svg>