<svg xmlns="http://www.w3.org/2000/svg" viewBox="0 0 166.55 233.13"><defs><style>.cls-1{fill:#fff;}.cls-2{fill:#65a7dd;}.cls-3{fill:#151515;}</style></defs><g id="Calque_2" data-name="Calque 2"><g id="Objects"><rect class="cls-1" x="0.12" y="0.12" width="166.32" height="232.9" rx="5.94"/><path class="cls-2" d="M160.5,233.13H6.05a6.06,6.06,0,0,1-6-6V6.06A6.07,6.07,0,0,1,6.05,0H160.5a6.06,6.06,0,0,1,6.05,6.06v221A6.06,6.06,0,0,1,160.5,233.13ZM6.05.23A5.83,5.83,0,0,0,.23,6.06v221a5.83,5.83,0,0,0,5.82,5.82H160.5a5.83,5.83,0,0,0,5.82-5.82V6.06A5.83,5.83,0,0,0,160.5.23Z"/><path d="M13.56,26.18h1.86a.6.6,0,0,0,.42-.12.54.54,0,0,0,.13-.39V16.14H13.56v-.7h1.07a2.46,2.46,0,0,0,1.69-.56,2.3,2.3,0,0,0,.81-1.36h.62V25.67a.5.5,0,0,0,.13.39.57.57,0,0,0,.41.12h1.87v.62h-6.6Z"/><path d="M25.67,26.12A6.58,6.58,0,0,1,24,23.53a9.92,9.92,0,0,1,0-6.74,6.58,6.58,0,0,1,1.66-2.59,3.5,3.5,0,0,1,4.88,0,6.71,6.71,0,0,1,1.67,2.59,9.92,9.92,0,0,1,0,6.74,6.71,6.71,0,0,1-1.67,2.59,3.5,3.5,0,0,1-4.88,0Zm4.57-1.46a16.9,16.9,0,0,0,.51-4.5,16.9,16.9,0,0,0-.51-4.5,2.15,2.15,0,0,0-4.25,0,16.49,16.49,0,0,0-.52,4.51A16.49,16.49,0,0,0,26,24.67a2.15,2.15,0,0,0,4.25,0Z"/><path d="M152.37,209.67H150.5a.57.57,0,0,0-.41.12.5.5,0,0,0-.13.39v9.53h2.41v.7H151.3a2.52,2.52,0,0,0-1.7.56,2.37,2.37,0,0,0-.8,1.36h-.63V210.18a.54.54,0,0,0-.12-.39.6.6,0,0,0-.42-.12h-1.86v-.62h6.6Z"/><path d="M140.26,209.73a6.69,6.69,0,0,1,1.66,2.59,9.92,9.92,0,0,1,0,6.74,6.62,6.62,0,0,1-1.66,2.59,3.5,3.5,0,0,1-4.88,0,6.42,6.42,0,0,1-1.67-2.59,9.92,9.92,0,0,1,0-6.74,6.49,6.49,0,0,1,1.67-2.59,3.5,3.5,0,0,1,4.88,0Zm-4.57,1.46a19.73,19.73,0,0,0,0,9,2.15,2.15,0,0,0,4.25,0,20.2,20.2,0,0,0,0-9,2.15,2.15,0,0,0-4.25,0Z"/><path class="cls-3" d="M95.1,67.81c-3.63-4-7.85-7.83-9.62-9.85-1.32-1.53-2.26-2.68-2.65-3.17v-.24l-.1.12-.1-.12v.24c-.38.49-1.32,1.64-2.65,3.17-1.76,2-6,5.89-9.62,9.85A12.08,12.08,0,0,0,67.12,79c.69,3.29,4.13,6.38,9.53,5.7a6,6,0,0,0,3.83-2,12.49,12.49,0,0,1-3.12,7.07H87.84a13.38,13.38,0,0,1-2.84-7,6.05,6.05,0,0,0,3.82,2c5.4.68,8.84-2.41,9.52-5.7A12,12,0,0,0,95.1,67.81Z"/><path class="cls-3" d="M63.57,42.57c-3.63-4-7.86-7.83-9.62-9.86-1.33-1.52-2.27-2.68-2.65-3.16V29.3l-.1.13a1,1,0,0,1-.1-.13v.25c-.39.48-1.33,1.64-2.65,3.16-1.77,2-6,5.9-9.62,9.86a12.05,12.05,0,0,0-3.24,11.21c.69,3.29,4.12,6.38,9.52,5.7a6,6,0,0,0,3.84-2,12.57,12.57,0,0,1-3.12,7.07H56.3a13.36,13.36,0,0,1-2.83-7,6,6,0,0,0,3.81,2c5.4.68,8.84-2.41,9.53-5.7A12.08,12.08,0,0,0,63.57,42.57Z"/><path class="cls-3" d="M63.57,93.14c-3.63-4-7.86-7.83-9.62-9.86-1.33-1.52-2.27-2.68-2.65-3.16v-.25l-.1.12-.1-.12v.25c-.39.48-1.33,1.64-2.65,3.16-1.77,2-6,5.89-9.62,9.86a12,12,0,0,0-3.24,11.2c.69,3.29,4.12,6.38,9.52,5.71A6.06,6.06,0,0,0,49,108a12.57,12.57,0,0,1-3.12,7.07H56.3a13.39,13.39,0,0,1-2.83-7,6,6,0,0,0,3.81,2c5.4.67,8.84-2.42,9.53-5.71A12.07,12.07,0,0,0,63.57,93.14Z"/><path class="cls-3" d="M63.57,202.94c-3.63,4-7.86,7.83-9.62,9.86-1.33,1.52-2.27,2.68-2.65,3.16v.25l-.1-.13a1,1,0,0,0-.1.13V216c-.39-.48-1.33-1.64-2.65-3.16-1.77-2-6-5.9-9.62-9.86a12.05,12.05,0,0,1-3.24-11.21c.69-3.28,4.12-6.38,9.52-5.7a6,6,0,0,1,3.84,2A12.57,12.57,0,0,0,45.83,181H56.3a13.39,13.39,0,0,0-2.83,7,6,6,0,0,1,3.81-2c5.4-.68,8.84,2.42,9.53,5.7A12.08,12.08,0,0,1,63.57,202.94Z"/><path class="cls-3" d="M127.54,42.57c-3.63-4-7.85-7.83-9.62-9.86-1.33-1.52-2.26-2.68-2.65-3.16V29.3l-.1.13-.1-.13v.25c-.38.48-1.32,1.64-2.65,3.16-1.77,2-6,5.9-9.62,9.86a12.05,12.05,0,0,0-3.24,11.21c.69,3.29,4.12,6.38,9.52,5.7a6,6,0,0,0,3.84-2,12.57,12.57,0,0,1-3.12,7.07h10.47a13.44,13.44,0,0,1-2.83-7,6,6,0,0,0,3.82,2c5.4.68,8.83-2.41,9.52-5.7A12.05,12.05,0,0,0,127.54,42.57Z"/><path class="cls-3" d="M127.54,93.14c-3.63-4-7.85-7.83-9.62-9.86-1.33-1.52-2.26-2.68-2.65-3.16v-.25l-.1.12-.1-.12v.25c-.38.48-1.32,1.64-2.65,3.16-1.77,2-6,5.89-9.62,9.86a12,12,0,0,0-3.24,11.2c.69,3.29,4.12,6.38,9.52,5.71a6.06,6.06,0,0,0,3.84-2,12.57,12.57,0,0,1-3.12,7.07h10.47a13.47,13.47,0,0,1-2.83-7,6,6,0,0,0,3.82,2c5.4.67,8.83-2.42,9.52-5.71A12,12,0,0,0,127.54,93.14Z"/><path class="cls-3" d="M127.54,202.94c-3.63,4-7.85,7.83-9.62,9.86-1.33,1.52-2.26,2.68-2.65,3.16v.25l-.1-.13-.1.13V216c-.38-.48-1.32-1.64-2.65-3.16-1.77-2-6-5.9-9.62-9.86a12.05,12.05,0,0,1-3.24-11.21c.69-3.28,4.12-6.38,9.52-5.7a6,6,0,0,1,3.84,2A12.57,12.57,0,0,0,109.8,181h10.47a13.47,13.47,0,0,0-2.83,7,6,6,0,0,1,3.82-2c5.4-.68,8.83,2.42,9.52,5.7A12.05,12.05,0,0,1,127.54,202.94Z"/><path class="cls-3" d="M63.57,152.38c-3.63,4-7.86,7.82-9.62,9.85-1.33,1.53-2.27,2.68-2.65,3.17v.24l-.1-.12-.1.12v-.24c-.39-.49-1.33-1.64-2.65-3.17-1.77-2-6-5.89-9.62-9.85a12.06,12.06,0,0,1-3.24-11.21c.69-3.29,4.12-6.38,9.52-5.7a6,6,0,0,1,3.84,2,12.58,12.58,0,0,0-3.12-7.08H56.3a13.42,13.42,0,0,0-2.83,7,6,6,0,0,1,3.81-2c5.4-.68,8.84,2.41,9.53,5.7A12.08,12.08,0,0,1,63.57,152.38Z"/><path class="cls-3" d="M127.54,152.38c-3.63,4-7.85,7.82-9.62,9.85-1.33,1.53-2.26,2.68-2.65,3.17v.24l-.1-.12-.1.12v-.24c-.38-.49-1.32-1.64-2.65-3.17-1.77-2-6-5.89-9.62-9.85a12.06,12.06,0,0,1-3.24-11.21c.69-3.29,4.12-6.38,9.52-5.7a6,6,0,0,1,3.84,2,12.58,12.58,0,0,0-3.12-7.08h10.47a13.5,13.5,0,0,0-2.83,7,6,6,0,0,1,3.82-2c5.4-.68,8.83,2.41,9.52,5.7A12.06,12.06,0,0,1,127.54,152.38Z"/><path class="cls-3" d="M95.1,176.3c-3.63,4-7.85,7.83-9.62,9.86-1.32,1.52-2.26,2.68-2.65,3.16v.25a1,1,0,0,0-.1-.13l-.1.13v-.25c-.38-.48-1.32-1.64-2.65-3.16-1.76-2-6-5.89-9.62-9.86a12.08,12.08,0,0,1-3.24-11.21c.69-3.28,4.13-6.37,9.53-5.7a6,6,0,0,1,3.83,2,12.49,12.49,0,0,0-3.12-7.07H87.84a13.41,13.41,0,0,0-2.84,7,6,6,0,0,1,3.82-2c5.4-.67,8.84,2.42,9.52,5.7A12,12,0,0,1,95.1,176.3Z"/><path class="cls-3" d="M25.68,34.73c-1.08-1.17-2.32-2.31-2.84-2.91l-.79-.93v-.08l0,0,0,0v.08c-.12.14-.39.48-.79.93-.52.6-1.76,1.74-2.83,2.91a3.53,3.53,0,0,0-1,3.3,2.38,2.38,0,0,0,2.81,1.69,1.83,1.83,0,0,0,1.13-.6,3.69,3.69,0,0,1-.92,2.08h3.09a4,4,0,0,1-.83-2.08,1.78,1.78,0,0,0,1.12.6A2.38,2.38,0,0,0,26.63,38,3.55,3.55,0,0,0,25.68,34.73Z"/><path class="cls-3" d="M146.72,200.87c-1.07,1.17-2.32,2.31-2.84,2.91-.39.45-.67.79-.78.93v.08l0,0,0,0v-.08c-.11-.14-.39-.48-.78-.93-.52-.6-1.77-1.74-2.84-2.91a3.58,3.58,0,0,1-1-3.31,2.38,2.38,0,0,1,2.81-1.68,1.79,1.79,0,0,1,1.14.6,3.69,3.69,0,0,0-.92-2.08h3.09a3.89,3.89,0,0,0-.84,2.08,1.76,1.76,0,0,1,1.13-.6,2.38,2.38,0,0,1,2.81,1.68A3.58,3.58,0,0,1,146.72,200.87Z"/><path class="cls-1" d="M149.16,18.48a.57.57,0,1,1-.57-.57A.57.57,0,0,1,149.16,18.48Z"/><path class="cls-1" d="M122,18.48a.57.57,0,0,1-.57.57.57.57,0,1,1,0-1.14A.57.57,0,0,1,122,18.48Z"/><path class="cls-1" d="M97.09,18.48a.57.57,0,0,1-.57.57.57.57,0,0,1,0-1.14A.57.57,0,0,1,97.09,18.48Z"/><path class="cls-1" d="M72.05,18.66a.57.57,0,0,1-.57.57.57.57,0,1,1,.57-.57Z"/><path class="cls-1" d="M149.16,39.62a.57.57,0,1,1-.57-.57A.57.57,0,0,1,149.16,39.62Z"/><path class="cls-1" d="M149.16,58.91a.57.57,0,1,1-.57-.56A.56.56,0,0,1,149.16,58.91Z"/><path class="cls-1" d="M149.16,79.13a.57.57,0,1,1-.57-.57A.57.57,0,0,1,149.16,79.13Z"/><path class="cls-1" d="M149.16,91.91a.57.57,0,1,1-.57-.56A.56.56,0,0,1,149.16,91.91Z"/><path class="cls-1" d="M149.16,104.74a.57.57,0,1,1-.57-.56A.56.56,0,0,1,149.16,104.74Z"/><path class="cls-1" d="M18.9,19.05a.58.58,0,0,1-.57.57.57.57,0,0,1,0-1.14A.58.58,0,0,1,18.9,19.05Z"/><path class="cls-1" d="M46.33,18.66a.56.56,0,0,1-.57.57.57.57,0,1,1,0-1.13A.56.56,0,0,1,46.33,18.66Z"/><path class="cls-1" d="M18.9,39.17a.57.57,0,0,1-.57.57.56.56,0,0,1-.57-.57.57.57,0,0,1,.57-.57A.58.58,0,0,1,18.9,39.17Z"/><path class="cls-1" d="M18.9,59.05a.57.57,0,0,1-.57.56.57.57,0,1,1,0-1.13A.57.57,0,0,1,18.9,59.05Z"/><path class="cls-1" d="M18.9,79a.58.58,0,0,1-.57.57.57.57,0,1,1,0-1.14A.58.58,0,0,1,18.9,79Z"/><path class="cls-1" d="M18.9,91.91a.57.57,0,0,1-.57.57.57.57,0,1,1,.57-.57Z"/><path class="cls-1" d="M18.9,105.31a.57.57,0,0,1-.57.57.56.56,0,0,1-.57-.57.57.57,0,0,1,.57-.57A.58.58,0,0,1,18.9,105.31Z"/><path class="cls-1" d="M18.9,118.24a.57.57,0,0,1-.57.57.57.57,0,1,1,.57-.57Z"/><path class="cls-1" d="M18.9,131.17a.58.58,0,0,1-.57.57.57.57,0,0,1-.57-.57.56.56,0,0,1,.57-.57A.57.57,0,0,1,18.9,131.17Z"/><path class="cls-1" d="M18.9,144.57a.58.58,0,0,1-.57.57.57.57,0,0,1-.57-.57.56.56,0,0,1,.57-.57A.57.57,0,0,1,18.9,144.57Z"/><path class="cls-1" d="M18.9,158a.57.57,0,0,1-.57.56.57.57,0,1,1,0-1.13A.57.57,0,0,1,18.9,158Z"/><path class="cls-1" d="M18.9,170a.57.57,0,0,1-.57.56.57.57,0,1,1,0-1.13A.57.57,0,0,1,18.9,170Z"/><path class="cls-1" d="M18.9,183.39a.57.57,0,0,1-.57.57.56.56,0,0,1-.57-.57.57.57,0,0,1,.57-.57A.58.58,0,0,1,18.9,183.39Z"/><path class="cls-1" d="M18.9,196.44a.57.57,0,0,1-.57.57.56.56,0,0,1-.57-.57.57.57,0,0,1,.57-.57A.58.58,0,0,1,18.9,196.44Z"/><path class="cls-1" d="M19.13,215.63a.57.57,0,0,1-1.14,0,.57.57,0,0,1,1.14,0Z"/><path class="cls-1" d="M39.65,216.2a.56.56,0,0,1-.57.56.57.57,0,1,1,.57-.56Z"/><path class="cls-1" d="M66.09,216.2a.57.57,0,1,1-.57-.57A.56.56,0,0,1,66.09,216.2Z"/><path class="cls-1" d="M92.49,216.2a.57.57,0,1,1-.57-.57A.56.56,0,0,1,92.49,216.2Z"/><path class="cls-1" d="M118.21,216.2a.57.57,0,1,1-.57-.57A.57.57,0,0,1,118.21,216.2Z"/><path class="cls-1" d="M149.16,117.93a.57.57,0,1,1-1.13,0,.57.57,0,1,1,1.13,0Z"/><path class="cls-1" d="M149.16,130.26a.57.57,0,1,1-1.13,0,.57.57,0,1,1,1.13,0Z"/><path class="cls-1" d="M149.16,143.55a.57.57,0,1,1-.57-.57A.57.57,0,0,1,149.16,143.55Z"/><path class="cls-1" d="M149.16,156.65a.57.57,0,1,1-.57-.57A.57.57,0,0,1,149.16,156.65Z"/><path class="cls-1" d="M149.16,169.41a.57.57,0,1,1-1.13,0,.57.57,0,1,1,1.13,0Z"/><path class="cls-1" d="M149.16,182a.57.57,0,1,1-.57-.57A.57.57,0,0,1,149.16,182Z"/><circle class="cls-1" cx="148.59" cy="194.82" r="0.57"/><path class="cls-1" d="M149.16,214.39a.57.57,0,1,1-.57-.57A.57.57,0,0,1,149.16,214.39Z"/></g></g></svg>