<svg xmlns="http://www.w3.org/2000/svg" viewBox="0 0 166.55 233.13"><defs><style>.cls-1{fill:#fff;}.cls-2{fill:#65a7dd;}.cls-3{fill:#151515;}</style></defs><g id="Calque_2" data-name="Calque 2"><g id="Objects"><rect class="cls-1" x="0.12" y="0.12" width="166.32" height="232.9" rx="5.94"/><path class="cls-2" d="M160.5,233.13H6.05a6.06,6.06,0,0,1-6-6V6.06A6.07,6.07,0,0,1,6.05,0H160.5a6.06,6.06,0,0,1,6.05,6.06v221A6.06,6.06,0,0,1,160.5,233.13ZM6.05.23A5.83,5.83,0,0,0,.23,6.06v221a5.83,5.83,0,0,0,5.82,5.82H160.5a5.83,5.83,0,0,0,5.82-5.82V6.06A5.83,5.83,0,0,0,160.5.23Z"/><path class="cls-3" d="M23,33.44A2.45,2.45,0,0,0,20.38,33a1.92,1.92,0,0,0,.68-1.63v-.08a2.24,2.24,0,1,0-4.43.45A2.09,2.09,0,0,0,17.32,33a2.45,2.45,0,0,0-2.62.46,2.33,2.33,0,0,0-.2,2.9,2.11,2.11,0,0,0,2,1.1,2.54,2.54,0,0,0,1.86-.81,4.56,4.56,0,0,1-1,2.58h3.06a4.4,4.4,0,0,1-1-2.56,2.56,2.56,0,0,0,1.85.79,2.09,2.09,0,0,0,2-1.1A2.34,2.34,0,0,0,23,33.44Z"/><path d="M14.6,24.56h1.87a.57.57,0,0,0,.41-.12.5.5,0,0,0,.13-.39V14.52H14.6v-.7h1.07a2.47,2.47,0,0,0,1.7-.56,2.34,2.34,0,0,0,.8-1.36h.63V24.05a.54.54,0,0,0,.12.39.62.62,0,0,0,.42.12H21.2v.62H14.6Z"/><path d="M26.71,24.5a6.62,6.62,0,0,1-1.66-2.59,9.92,9.92,0,0,1,0-6.74,6.69,6.69,0,0,1,1.66-2.59,3.5,3.5,0,0,1,4.88,0,6.49,6.49,0,0,1,1.67,2.59,9.92,9.92,0,0,1,0,6.74,6.42,6.42,0,0,1-1.67,2.59,3.5,3.5,0,0,1-4.88,0ZM31.28,23a16.86,16.86,0,0,0,.52-4.5,16.91,16.91,0,0,0-.52-4.5A2.15,2.15,0,0,0,27,14a16.93,16.93,0,0,0-.51,4.51A16.93,16.93,0,0,0,27,23.05a2.15,2.15,0,0,0,4.25,0Z"/><path class="cls-3" d="M145,199.16a2.45,2.45,0,0,0,2.62.46,1.91,1.91,0,0,0-.68,1.63v.08a2.24,2.24,0,1,0,4.43-.45,2.06,2.06,0,0,0-.69-1.26,2.45,2.45,0,0,0,2.62-.46,2.31,2.31,0,0,0,.19-2.9,2.06,2.06,0,0,0-2-1.1,2.54,2.54,0,0,0-1.86.81,4.61,4.61,0,0,1,1-2.59h-3.06a4.43,4.43,0,0,1,1,2.57,2.56,2.56,0,0,0-1.85-.79,2.06,2.06,0,0,0-2,1.1A2.32,2.32,0,0,0,145,199.16Z"/><path d="M153.41,208.05h-1.86a.62.62,0,0,0-.42.12.5.5,0,0,0-.12.39v9.52h2.4v.7h-1.06a2.48,2.48,0,0,0-1.7.57,2.33,2.33,0,0,0-.81,1.35h-.62V208.56a.47.47,0,0,0-.13-.39.57.57,0,0,0-.41-.12h-1.86v-.62h6.59Z"/><path d="M141.3,208.11A6.4,6.4,0,0,1,143,210.7a9.74,9.74,0,0,1,0,6.73,6.44,6.44,0,0,1-1.66,2.6,3.5,3.5,0,0,1-4.88,0,6.55,6.55,0,0,1-1.66-2.6,9.74,9.74,0,0,1,0-6.73,6.51,6.51,0,0,1,1.66-2.59,3.5,3.5,0,0,1,4.88,0Zm-4.57,1.45a20.15,20.15,0,0,0,0,9,2.15,2.15,0,0,0,4.25,0,19.86,19.86,0,0,0,0-9,2.11,2.11,0,0,0-2.12-1.81A2.14,2.14,0,0,0,136.73,209.56Z"/><path class="cls-3" d="M97.64,67.31c-3.58-3.91-9.07-1.59-9.07-1.59,1.53-1.64,2.56-2.95,2.37-5.64v-.27a7.75,7.75,0,1,0-15.49,0,8.12,8.12,0,0,0,.16,1.57c.18,1.86,1.1,3,2.37,4.34,0,0-5.5-2.32-9.07,1.59a8.11,8.11,0,0,0-.67,10.07c1.13,1.52,2.82,4.08,6.79,3.78,3.52-.26,4-.86,6.45-2.79A15.92,15.92,0,0,1,78,87.31H88.57c-1.95-2-3.67-6.75-3.45-8.89,2.37,1.89,2.91,2.48,6.39,2.74,4,.3,5.67-2.26,6.79-3.78A8.1,8.1,0,0,0,97.64,67.31Z"/><path class="cls-3" d="M59.56,40.68c-3.58-3.9-9.07-1.59-9.07-1.59,1.53-1.64,2.56-2.94,2.37-5.63v-.28a7.75,7.75,0,1,0-15.49,0,8,8,0,0,0,.16,1.57c.18,1.87,1.1,3,2.36,4.34,0,0-5.49-2.31-9.07,1.59a8.12,8.12,0,0,0-.66,10.07C31.29,52.27,33,54.83,37,54.53c3.51-.26,4-.86,6.45-2.79a16,16,0,0,1-3.51,8.94h10.6c-2-2-3.68-6.74-3.45-8.89,2.36,1.89,2.91,2.49,6.39,2.74,4,.3,5.66-2.26,6.79-3.78A8.12,8.12,0,0,0,59.56,40.68Z"/><path class="cls-3" d="M59.56,90.85c-3.58-3.91-9.07-1.59-9.07-1.59,1.53-1.64,2.56-3,2.37-5.64v-.27a7.75,7.75,0,1,0-15.49,0,8.2,8.2,0,0,0,.16,1.57c.18,1.86,1.1,3,2.36,4.34,0,0-5.49-2.32-9.07,1.59a8.1,8.1,0,0,0-.66,10.06C31.29,102.44,33,105,37,104.7c3.51-.26,4-.86,6.45-2.79a16,16,0,0,1-3.51,8.94h10.6c-2-2-3.68-6.75-3.45-8.89,2.36,1.89,2.91,2.48,6.39,2.74,4,.29,5.66-2.26,6.79-3.79A8.1,8.1,0,0,0,59.56,90.85Z"/><path class="cls-3" d="M59.56,195.92c-3.58,3.91-9.07,1.59-9.07,1.59,1.53,1.65,2.56,3,2.37,5.64v.28a7.75,7.75,0,0,1-15.49,0,8.22,8.22,0,0,1,.16-1.58c.18-1.86,1.1-3,2.36-4.34,0,0-5.49,2.32-9.07-1.59a8.1,8.1,0,0,1-.66-10.06c1.13-1.52,2.81-4.08,6.79-3.79,3.51.27,4,.86,6.45,2.8a15.93,15.93,0,0,0-3.51-8.94h10.6c-2,2-3.68,6.74-3.45,8.89,2.36-1.9,2.91-2.49,6.39-2.75,4-.29,5.66,2.27,6.79,3.79A8.1,8.1,0,0,1,59.56,195.92Z"/><path class="cls-3" d="M137.79,40.68c-3.58-3.9-9.07-1.59-9.07-1.59,1.53-1.64,2.56-2.94,2.37-5.63v-.28a7.75,7.75,0,1,0-15.49,0,8,8,0,0,0,.16,1.57c.18,1.87,1.1,3,2.37,4.34,0,0-5.5-2.31-9.07,1.59a8.11,8.11,0,0,0-.67,10.07c1.13,1.52,2.82,4.08,6.79,3.78,3.52-.26,4-.86,6.45-2.79a15.92,15.92,0,0,1-3.5,8.94h10.59c-2-2-3.67-6.74-3.45-8.89,2.37,1.89,2.91,2.49,6.39,2.74,4,.3,5.67-2.26,6.79-3.78A8.1,8.1,0,0,0,137.79,40.68Z"/><path class="cls-3" d="M137.79,90.85c-3.58-3.91-9.07-1.59-9.07-1.59,1.53-1.64,2.56-3,2.37-5.64v-.27a7.75,7.75,0,1,0-15.49,0,8.2,8.2,0,0,0,.16,1.57c.18,1.86,1.1,3,2.37,4.34,0,0-5.5-2.32-9.07,1.59a8.09,8.09,0,0,0-.67,10.06c1.13,1.53,2.82,4.08,6.79,3.79,3.52-.26,4-.86,6.45-2.79a15.92,15.92,0,0,1-3.5,8.94h10.59c-2-2-3.67-6.75-3.45-8.89,2.37,1.89,2.91,2.48,6.39,2.74,4,.29,5.67-2.26,6.79-3.79A8.09,8.09,0,0,0,137.79,90.85Z"/><path class="cls-3" d="M137.79,195.92c-3.58,3.91-9.07,1.59-9.07,1.59,1.53,1.65,2.56,3,2.37,5.64v.28a7.75,7.75,0,0,1-15.49,0,8.22,8.22,0,0,1,.16-1.58c.18-1.86,1.1-3,2.37-4.34,0,0-5.5,2.32-9.07-1.59a8.09,8.09,0,0,1-.67-10.06c1.13-1.52,2.82-4.08,6.79-3.79,3.52.27,4,.86,6.45,2.8a15.88,15.88,0,0,0-3.5-8.94h10.59c-2,2-3.67,6.74-3.45,8.89,2.37-1.9,2.91-2.49,6.39-2.75,4-.29,5.67,2.27,6.79,3.79A8.09,8.09,0,0,1,137.79,195.92Z"/><path class="cls-3" d="M59.56,145.76c-3.58,3.91-9.07,1.59-9.07,1.59,1.53,1.64,2.56,3,2.37,5.64v.27a7.75,7.75,0,1,1-15.49,0,8.12,8.12,0,0,1,.16-1.57c.18-1.86,1.1-3,2.36-4.34,0,0-5.49,2.32-9.07-1.59a8.12,8.12,0,0,1-.66-10.07c1.13-1.52,2.81-4.08,6.79-3.78,3.51.26,4,.86,6.45,2.79a16,16,0,0,0-3.51-8.94h10.6c-2,2-3.68,6.75-3.45,8.89,2.36-1.89,2.91-2.48,6.39-2.74,4-.3,5.66,2.26,6.79,3.78A8.12,8.12,0,0,1,59.56,145.76Z"/><path class="cls-3" d="M137.79,145.76c-3.58,3.91-9.07,1.59-9.07,1.59,1.53,1.64,2.56,3,2.37,5.64v.27a7.75,7.75,0,1,1-15.49,0,8.12,8.12,0,0,1,.16-1.57c.18-1.86,1.1-3,2.37-4.34,0,0-5.5,2.32-9.07-1.59a8.11,8.11,0,0,1-.67-10.07c1.13-1.52,2.82-4.08,6.79-3.78,3.52.26,4,.86,6.45,2.79a15.92,15.92,0,0,0-3.5-8.94h10.59c-2,2-3.67,6.75-3.45,8.89,2.37-1.89,2.91-2.48,6.39-2.74,4-.3,5.67,2.26,6.79,3.78A8.1,8.1,0,0,1,137.79,145.76Z"/><path class="cls-3" d="M97.64,166.33c-3.58,3.9-9.07,1.59-9.07,1.59,1.53,1.64,2.56,2.94,2.37,5.64v.27a7.75,7.75,0,1,1-15.49,0,8,8,0,0,1,.16-1.57c.18-1.87,1.1-3,2.37-4.34,0,0-5.5,2.31-9.07-1.59a8.11,8.11,0,0,1-.67-10.07c1.13-1.52,2.82-4.08,6.79-3.78,3.52.26,4,.86,6.45,2.79a15.92,15.92,0,0,0-3.5-8.94H88.57c-1.95,2-3.67,6.74-3.45,8.89,2.37-1.89,2.91-2.48,6.39-2.74,4-.3,5.67,2.26,6.79,3.78A8.1,8.1,0,0,1,97.64,166.33Z"/></g></g></svg>