<svg xmlns="http://www.w3.org/2000/svg" viewBox="0 0 166.48 233.07"><defs><style>.cls-1{fill:#fff;}.cls-2{fill:#65a7dd;}.cls-3{fill:#af0f07;}.cls-4{fill:#a43e32;}</style></defs><g id="Calque_2" data-name="Calque 2"><g id="Objects"><rect class="cls-1" x="0.12" y="0.11" width="166.25" height="232.84" rx="5.94"/><path class="cls-2" d="M160.43,233.07H6.05a6.06,6.06,0,0,1-6-6V6.05A6.06,6.06,0,0,1,6.05,0H160.43a6.06,6.06,0,0,1,6,6.05V227A6.06,6.06,0,0,1,160.43,233.07ZM6.05.23A5.83,5.83,0,0,0,.23,6.05V227a5.83,5.83,0,0,0,5.82,5.82H160.43a5.83,5.83,0,0,0,5.82-5.82V6.05A5.83,5.83,0,0,0,160.43.23Z"/><circle class="cls-1" cx="148.53" cy="18.48" r="0.57"/><circle class="cls-1" cx="121.42" cy="18.48" r="0.57"/><circle class="cls-1" cx="96.48" cy="18.48" r="0.57"/><circle class="cls-1" cx="71.45" cy="18.66" r="0.57"/><circle class="cls-1" cx="148.53" cy="39.61" r="0.57"/><circle class="cls-1" cx="148.53" cy="58.9" r="0.57"/><circle class="cls-1" cx="148.53" cy="79.11" r="0.57"/><circle class="cls-1" cx="148.53" cy="91.89" r="0.57"/><circle class="cls-1" cx="148.53" cy="104.72" r="0.57"/><circle class="cls-1" cx="18.32" cy="19.04" r="0.57"/><path class="cls-1" d="M46.31,18.66a.57.57,0,0,1-.57.57.58.58,0,0,1-.57-.57.57.57,0,0,1,.57-.57A.56.56,0,0,1,46.31,18.66Z"/><circle class="cls-1" cx="18.32" cy="39.16" r="0.57"/><circle class="cls-1" cx="18.32" cy="59.03" r="0.57"/><circle class="cls-1" cx="18.32" cy="78.97" r="0.57"/><circle class="cls-1" cx="18.32" cy="91.89" r="0.57"/><circle class="cls-1" cx="18.32" cy="105.29" r="0.57"/><circle class="cls-1" cx="18.32" cy="118.21" r="0.57"/><circle class="cls-1" cx="18.32" cy="131.13" r="0.57"/><circle class="cls-1" cx="18.32" cy="144.53" r="0.57"/><circle class="cls-1" cx="18.32" cy="157.95" r="0.57"/><circle class="cls-1" cx="18.32" cy="169.95" r="0.57"/><path class="cls-1" d="M18.89,183.35a.56.56,0,0,1-.57.56.57.57,0,1,1,.57-.56Z"/><circle class="cls-1" cx="18.32" cy="196.39" r="0.57"/><circle class="cls-1" cx="18.55" cy="215.57" r="0.57"/><circle class="cls-1" cx="39.07" cy="216.14" r="0.57"/><path class="cls-1" d="M66.07,216.14a.58.58,0,0,1-.57.57.57.57,0,0,1-.57-.57.56.56,0,0,1,.57-.57A.57.57,0,0,1,66.07,216.14Z"/><circle class="cls-1" cx="91.89" cy="216.14" r="0.57"/><circle class="cls-1" cx="117.59" cy="216.14" r="0.57"/><circle class="cls-1" cx="148.53" cy="117.9" r="0.57"/><circle class="cls-1" cx="148.53" cy="130.22" r="0.57"/><circle class="cls-1" cx="148.53" cy="143.51" r="0.57"/><circle class="cls-1" cx="148.53" cy="156.61" r="0.57"/><circle class="cls-1" cx="148.53" cy="169.36" r="0.57"/><circle class="cls-1" cx="148.53" cy="181.94" r="0.57"/><circle class="cls-1" cx="148.53" cy="194.77" r="0.57"/><circle class="cls-1" cx="148.53" cy="214.34" r="0.57"/><polygon class="cls-3" points="80.34 86.24 55.6 116.28 80.34 146.81 105.71 116.52 80.34 86.24"/><polygon class="cls-3" points="18.07 25.97 13.34 31.19 17.55 36.91 22.39 31.66 18.07 25.97"/><polygon class="cls-3" points="147.58 185.76 142.85 190.97 147.06 196.7 151.9 191.44 147.58 185.76"/><path class="cls-4" d="M11.36,20.7h.72c.76,0,1.32-.47,1.67-1.42L17.92,7.51h.48l4.21,12.34a1.5,1.5,0,0,0,.47.67,1.23,1.23,0,0,0,.7.18h1.08v.62h-6V20.7h1.28a.79.79,0,0,0,.49-.15.43.43,0,0,0,.19-.34,1,1,0,0,0-.08-.42l-.91-2.58H15.28l-.46,1.3a4,4,0,0,0-.28,1.12,1.33,1.33,0,0,0,.22.75.82.82,0,0,0,.73.32h1.19v.62H11.36Zm4.13-4.11h4.12l-2-5.92Z"/><path class="cls-3" d="M139.75,201.54h5.31v.62h-1.18a.83.83,0,0,0-.74.32,1.37,1.37,0,0,0-.21.75,4,4,0,0,0,.27,1.13l.47,1.3h4.53l.92-2.58a1.11,1.11,0,0,0,.07-.43.42.42,0,0,0-.19-.34.76.76,0,0,0-.48-.15h-1.28v-.62h6v.62h-1.09a1.26,1.26,0,0,0-.7.19,1.38,1.38,0,0,0-.46.67l-4.21,12.34h-.49l-4.17-11.78c-.35-.94-.9-1.42-1.66-1.42h-.72ZM146,212.2l2-5.92h-4.11Z"/></g></g></svg>