<svg xmlns="http://www.w3.org/2000/svg" viewBox="0 0 166.59 233.13"><defs><style>.cls-1{fill:#fff;}.cls-2{fill:#65a7dd;}.cls-3{fill:#af0f07;}.cls-4{fill:#a43e32;}</style></defs><g id="Calque_2" data-name="Calque 2"><g id="Objects"><rect class="cls-1" x="0.12" y="0.12" width="166.36" height="232.9" rx="5.94"/><path class="cls-2" d="M160.53,233.13H6.06a6.07,6.07,0,0,1-6.06-6V6.06A6.07,6.07,0,0,1,6.06,0H160.53a6.07,6.07,0,0,1,6.06,6.06v221A6.07,6.07,0,0,1,160.53,233.13ZM6.06.23A5.83,5.83,0,0,0,.23,6.06v221a5.83,5.83,0,0,0,5.83,5.82H160.53a5.83,5.83,0,0,0,5.83-5.82V6.06A5.84,5.84,0,0,0,160.53.23Z"/><path class="cls-1" d="M149.2,18.48a.58.58,0,0,1-.57.57.57.57,0,1,1,0-1.14A.58.58,0,0,1,149.2,18.48Z"/><path class="cls-1" d="M122.07,18.48a.58.58,0,0,1-.57.57.57.57,0,1,1,0-1.14A.58.58,0,0,1,122.07,18.48Z"/><path class="cls-1" d="M97.11,18.48a.57.57,0,1,1-.57-.57A.57.57,0,0,1,97.11,18.48Z"/><path class="cls-1" d="M72.06,18.66a.56.56,0,0,1-.57.57.57.57,0,1,1,0-1.13A.56.56,0,0,1,72.06,18.66Z"/><path class="cls-1" d="M149.2,39.62a.57.57,0,0,1-.57.57.56.56,0,0,1-.57-.57.57.57,0,0,1,.57-.57A.58.58,0,0,1,149.2,39.62Z"/><path class="cls-1" d="M149.2,58.91a.57.57,0,0,1-.57.57.57.57,0,1,1,.57-.57Z"/><path class="cls-1" d="M149.2,79.13a.57.57,0,0,1-.57.57.56.56,0,0,1-.57-.57.57.57,0,0,1,.57-.57A.58.58,0,0,1,149.2,79.13Z"/><path class="cls-1" d="M149.2,91.91a.57.57,0,0,1-.57.57.57.57,0,1,1,.57-.57Z"/><path class="cls-1" d="M149.2,104.74a.57.57,0,0,1-.57.57.57.57,0,1,1,.57-.57Z"/><path class="cls-1" d="M18.9,19.05a.57.57,0,0,1-.57.57.57.57,0,0,1,0-1.14A.57.57,0,0,1,18.9,19.05Z"/><path class="cls-1" d="M46.34,18.66a.56.56,0,0,1-.57.57.57.57,0,1,1,0-1.13A.56.56,0,0,1,46.34,18.66Z"/><path class="cls-1" d="M18.9,39.17a.56.56,0,0,1-.57.57.57.57,0,0,1-.57-.57.58.58,0,0,1,.57-.57A.57.57,0,0,1,18.9,39.17Z"/><path class="cls-1" d="M18.9,59.05a.56.56,0,0,1-.57.56.57.57,0,1,1,.57-.56Z"/><path class="cls-1" d="M18.9,79a.57.57,0,0,1-.57.57.57.57,0,1,1,0-1.14A.57.57,0,0,1,18.9,79Z"/><path class="cls-1" d="M18.9,91.91a.56.56,0,0,1-.57.57.57.57,0,1,1,0-1.13A.56.56,0,0,1,18.9,91.91Z"/><path class="cls-1" d="M18.9,105.31a.56.56,0,0,1-.57.57.57.57,0,0,1-.57-.57.58.58,0,0,1,.57-.57A.57.57,0,0,1,18.9,105.31Z"/><path class="cls-1" d="M18.9,118.24a.56.56,0,0,1-.57.57.57.57,0,1,1,0-1.13A.56.56,0,0,1,18.9,118.24Z"/><path class="cls-1" d="M18.9,131.17a.57.57,0,0,1-.57.57.58.58,0,0,1-.57-.57.57.57,0,0,1,.57-.57A.56.56,0,0,1,18.9,131.17Z"/><path class="cls-1" d="M18.9,144.57a.57.57,0,0,1-.57.57.58.58,0,0,1-.57-.57.57.57,0,0,1,.57-.57A.56.56,0,0,1,18.9,144.57Z"/><path class="cls-1" d="M18.9,158a.56.56,0,0,1-.57.56.57.57,0,1,1,.57-.56Z"/><path class="cls-1" d="M18.9,170a.56.56,0,0,1-.57.56.57.57,0,1,1,.57-.56Z"/><path class="cls-1" d="M18.9,183.39a.56.56,0,0,1-.57.57.57.57,0,0,1-.57-.57.58.58,0,0,1,.57-.57A.57.57,0,0,1,18.9,183.39Z"/><path class="cls-1" d="M18.9,196.44a.56.56,0,0,1-.57.57.57.57,0,0,1-.57-.57.58.58,0,0,1,.57-.57A.57.57,0,0,1,18.9,196.44Z"/><path class="cls-1" d="M19.13,215.63a.57.57,0,0,1-.57.57.58.58,0,0,1-.57-.57.57.57,0,0,1,.57-.57A.56.56,0,0,1,19.13,215.63Z"/><path class="cls-1" d="M39.66,216.2a.57.57,0,1,1-.57-.57A.57.57,0,0,1,39.66,216.2Z"/><path class="cls-1" d="M66.11,216.2a.57.57,0,0,1-.57.56.57.57,0,1,1,0-1.13A.57.57,0,0,1,66.11,216.2Z"/><path class="cls-1" d="M92.51,216.2a.57.57,0,1,1-.57-.57A.56.56,0,0,1,92.51,216.2Z"/><path class="cls-1" d="M118.23,216.2a.57.57,0,1,1-.56-.57A.56.56,0,0,1,118.23,216.2Z"/><path class="cls-1" d="M149.2,117.93a.58.58,0,0,1-.57.57.57.57,0,0,1-.57-.57.56.56,0,0,1,.57-.57A.57.57,0,0,1,149.2,117.93Z"/><path class="cls-1" d="M149.2,130.26a.58.58,0,0,1-.57.57.57.57,0,0,1-.57-.57.56.56,0,0,1,.57-.57A.57.57,0,0,1,149.2,130.26Z"/><path class="cls-1" d="M149.2,143.55a.58.58,0,0,1-.57.57.57.57,0,0,1,0-1.14A.58.58,0,0,1,149.2,143.55Z"/><path class="cls-1" d="M149.2,156.65a.57.57,0,0,1-.57.57.56.56,0,0,1-.57-.57.57.57,0,0,1,.57-.57A.58.58,0,0,1,149.2,156.65Z"/><path class="cls-1" d="M149.2,169.41a.58.58,0,0,1-.57.57.57.57,0,0,1-.57-.57.56.56,0,0,1,.57-.57A.57.57,0,0,1,149.2,169.41Z"/><path class="cls-1" d="M149.2,182a.57.57,0,0,1-.57.57.56.56,0,0,1-.57-.57.57.57,0,0,1,.57-.57A.58.58,0,0,1,149.2,182Z"/><path class="cls-1" d="M149.2,194.82a.57.57,0,0,1-.57.57.56.56,0,0,1-.57-.57.57.57,0,0,1,.57-.57A.58.58,0,0,1,149.2,194.82Z"/><path class="cls-1" d="M149.2,214.39a.57.57,0,0,1-.57.57.56.56,0,0,1-.57-.57.57.57,0,0,1,.57-.57A.58.58,0,0,1,149.2,214.39Z"/><path class="cls-3" d="M95.12,90.58c-10.6-.26-13,7.84-13.61,11.74-.56-3.9-3-12-13.61-11.74-13.94.34-15.79,16-10.92,23.86s7.4,10.42,12.27,15.46c4.59,4.75,10.07,10.09,12.1,13.36,0,0,.1.38.16.28.06.1.17-.28.17-.28,2-3.27,7.51-8.61,12.1-13.36,4.87-5,7.39-7.56,12.27-15.46S109.07,90.92,95.12,90.58Z"/><path class="cls-3" d="M20.32,29.13a2.26,2.26,0,0,0-2.44,2.1,2.26,2.26,0,0,0-2.44-2.1c-2.5.06-2.83,2.86-2,4.28a12.81,12.81,0,0,0,2.2,2.77,21.63,21.63,0,0,1,2.17,2.4s0,.06,0,.05,0-.05,0-.05a19.78,19.78,0,0,1,2.17-2.4,13.44,13.44,0,0,0,2.2-2.77C23.15,32,22.82,29.19,20.32,29.13Z"/><path class="cls-4" d="M11.83,24.2h.72c.77,0,1.32-.47,1.67-1.42L18.4,11h.48l4.21,12.34a1.39,1.39,0,0,0,.47.67,1.16,1.16,0,0,0,.7.19h1.08v.62h-6V24.2h1.28a.76.76,0,0,0,.48-.15.43.43,0,0,0,.2-.34,1.1,1.1,0,0,0-.08-.43L20.3,20.7H15.76L15.29,22A4,4,0,0,0,15,23.13a1.37,1.37,0,0,0,.21.75.83.83,0,0,0,.74.32h1.18v.62H11.83ZM16,20.08h4.11l-2-5.92Z"/><path class="cls-3" d="M140.3,205.09h5.32v.62h-1.19a.81.81,0,0,0-.73.32,1.25,1.25,0,0,0-.22.75,3.9,3.9,0,0,0,.27,1.12l.47,1.3h4.54l.91-2.58a.9.9,0,0,0,.08-.42.4.4,0,0,0-.19-.34.77.77,0,0,0-.49-.15h-1.28v-.62h6v.62h-1.09a1.25,1.25,0,0,0-.7.18,1.49,1.49,0,0,0-.46.67l-4.22,12.35h-.48l-4.17-11.78c-.35-.95-.91-1.42-1.67-1.42h-.72Zm6.23,10.65,2-5.91h-4.12Z"/><path class="cls-3" d="M150.63,200.36a2.25,2.25,0,0,1-2.44-2.1,2.25,2.25,0,0,1-2.44,2.1c-2.5-.06-2.83-2.86-2-4.27a13.53,13.53,0,0,1,2.2-2.78,21.56,21.56,0,0,0,2.17-2.39s0-.07,0,0,0,0,0,0a21.56,21.56,0,0,0,2.17,2.39,13.2,13.2,0,0,1,2.2,2.78C153.46,197.5,153.13,200.3,150.63,200.36Z"/></g></g></svg>