<svg xmlns="http://www.w3.org/2000/svg" viewBox="0 0 166.59 233.13"><defs><style>.cls-1{fill:#fff;}.cls-2{fill:#65a7dd;}.cls-3{fill:#151515;}</style></defs><g id="Calque_2" data-name="Calque 2"><g id="Objects"><rect class="cls-1" x="0.12" y="0.12" width="166.36" height="232.9" rx="5.94"/><path class="cls-2" d="M160.53,233.13H6.06a6.07,6.07,0,0,1-6.06-6V6.06A6.07,6.07,0,0,1,6.06,0H160.53a6.07,6.07,0,0,1,6.06,6.06v221A6.07,6.07,0,0,1,160.53,233.13ZM6.06.23A5.83,5.83,0,0,0,.23,6.06v221a5.83,5.83,0,0,0,5.83,5.82H160.53a5.83,5.83,0,0,0,5.83-5.82V6.06A5.84,5.84,0,0,0,160.53.23Z"/><path class="cls-1" d="M149.2,18.48a.58.58,0,0,1-.57.57.57.57,0,1,1,0-1.14A.58.58,0,0,1,149.2,18.48Z"/><path class="cls-1" d="M122.07,18.48a.58.58,0,0,1-.57.57.57.57,0,1,1,0-1.14A.58.58,0,0,1,122.07,18.48Z"/><path class="cls-1" d="M97.11,18.48a.57.57,0,1,1-.57-.57A.57.57,0,0,1,97.11,18.48Z"/><path class="cls-1" d="M72.06,18.66a.56.56,0,0,1-.57.57.57.57,0,1,1,0-1.13A.56.56,0,0,1,72.06,18.66Z"/><path class="cls-1" d="M149.2,39.62a.57.57,0,0,1-.57.57.56.56,0,0,1-.57-.57.57.57,0,0,1,.57-.57A.58.58,0,0,1,149.2,39.62Z"/><path class="cls-1" d="M149.2,58.91a.57.57,0,0,1-.57.57.57.57,0,1,1,.57-.57Z"/><path class="cls-1" d="M149.2,79.13a.57.57,0,0,1-.57.57.56.56,0,0,1-.57-.57.57.57,0,0,1,.57-.57A.58.58,0,0,1,149.2,79.13Z"/><path class="cls-1" d="M149.2,91.91a.57.57,0,0,1-.57.57.57.57,0,1,1,.57-.57Z"/><path class="cls-1" d="M149.2,104.74a.57.57,0,0,1-.57.57.57.57,0,1,1,.57-.57Z"/><path class="cls-1" d="M18.9,19.05a.57.57,0,0,1-.57.57.57.57,0,0,1,0-1.14A.57.57,0,0,1,18.9,19.05Z"/><path class="cls-1" d="M46.34,18.66a.56.56,0,0,1-.57.57.57.57,0,1,1,0-1.13A.56.56,0,0,1,46.34,18.66Z"/><path class="cls-1" d="M18.9,39.17a.56.56,0,0,1-.57.57.57.57,0,0,1-.57-.57.58.58,0,0,1,.57-.57A.57.57,0,0,1,18.9,39.17Z"/><path class="cls-1" d="M18.9,59.05a.56.56,0,0,1-.57.56.57.57,0,1,1,.57-.56Z"/><path class="cls-1" d="M18.9,79a.57.57,0,0,1-.57.57.57.57,0,1,1,0-1.14A.57.57,0,0,1,18.9,79Z"/><path class="cls-1" d="M18.9,91.91a.56.56,0,0,1-.57.57.57.57,0,1,1,0-1.13A.56.56,0,0,1,18.9,91.91Z"/><path class="cls-1" d="M18.9,105.31a.56.56,0,0,1-.57.57.57.57,0,0,1-.57-.57.58.58,0,0,1,.57-.57A.57.57,0,0,1,18.9,105.31Z"/><path class="cls-1" d="M18.9,118.24a.56.56,0,0,1-.57.57.57.57,0,1,1,0-1.13A.56.56,0,0,1,18.9,118.24Z"/><path class="cls-1" d="M18.9,131.17a.57.57,0,0,1-.57.57.58.58,0,0,1-.57-.57.57.57,0,0,1,.57-.57A.56.56,0,0,1,18.9,131.17Z"/><path class="cls-1" d="M18.9,144.57a.57.57,0,0,1-.57.57.58.58,0,0,1-.57-.57.57.57,0,0,1,.57-.57A.56.56,0,0,1,18.9,144.57Z"/><path class="cls-1" d="M18.9,158a.56.56,0,0,1-.57.56.57.57,0,1,1,.57-.56Z"/><path class="cls-1" d="M18.9,170a.56.56,0,0,1-.57.56.57.57,0,1,1,.57-.56Z"/><path class="cls-1" d="M18.9,183.39a.56.56,0,0,1-.57.57.57.57,0,0,1-.57-.57.58.58,0,0,1,.57-.57A.57.57,0,0,1,18.9,183.39Z"/><path class="cls-1" d="M18.9,196.44a.56.56,0,0,1-.57.57.57.57,0,0,1-.57-.57.58.58,0,0,1,.57-.57A.57.57,0,0,1,18.9,196.44Z"/><path class="cls-1" d="M19.13,215.63a.56.56,0,0,1-.57.56.57.57,0,1,1,.57-.56Z"/><path class="cls-1" d="M39.66,216.19a.57.57,0,1,1-.57-.56A.57.57,0,0,1,39.66,216.19Z"/><path class="cls-1" d="M66.11,216.19a.57.57,0,0,1-.57.57.57.57,0,1,1,.57-.57Z"/><path class="cls-1" d="M92.51,216.19a.57.57,0,1,1-.57-.56A.56.56,0,0,1,92.51,216.19Z"/><path class="cls-1" d="M118.23,216.19a.57.57,0,1,1-.56-.56A.56.56,0,0,1,118.23,216.19Z"/><path class="cls-1" d="M149.2,117.93a.58.58,0,0,1-.57.57.57.57,0,0,1-.57-.57.56.56,0,0,1,.57-.57A.57.57,0,0,1,149.2,117.93Z"/><path class="cls-1" d="M149.2,130.26a.58.58,0,0,1-.57.57.57.57,0,0,1-.57-.57.56.56,0,0,1,.57-.57A.57.57,0,0,1,149.2,130.26Z"/><path class="cls-1" d="M149.2,143.55a.58.58,0,0,1-.57.57.57.57,0,0,1,0-1.14A.58.58,0,0,1,149.2,143.55Z"/><path class="cls-1" d="M149.2,156.65a.57.57,0,0,1-.57.57.56.56,0,0,1-.57-.57.57.57,0,0,1,.57-.57A.58.58,0,0,1,149.2,156.65Z"/><path class="cls-1" d="M149.2,169.41a.58.58,0,0,1-.57.57.57.57,0,0,1-.57-.57.56.56,0,0,1,.57-.57A.57.57,0,0,1,149.2,169.41Z"/><path class="cls-1" d="M149.2,182a.57.57,0,0,1-.57.57.56.56,0,0,1-.57-.57.57.57,0,0,1,.57-.57A.58.58,0,0,1,149.2,182Z"/><path class="cls-1" d="M149.2,194.82a.57.57,0,0,1-.57.57.56.56,0,0,1-.57-.57.57.57,0,0,1,.57-.57A.58.58,0,0,1,149.2,194.82Z"/><path class="cls-1" d="M149.2,214.39a.57.57,0,0,1-.57.57.56.56,0,0,1-.57-.57.57.57,0,0,1,.57-.57A.58.58,0,0,1,149.2,214.39Z"/><path class="cls-3" d="M23.13,31.36c-1.08-1.17-2.32-2.31-2.84-2.91-.4-.45-.67-.79-.79-.93v-.07l0,0,0,0v.07l-.79.93c-.52.6-1.76,1.74-2.84,2.91a3.54,3.54,0,0,0-1,3.31,2.37,2.37,0,0,0,2.81,1.68,1.76,1.76,0,0,0,1.13-.6,3.74,3.74,0,0,1-.92,2.09H21a4,4,0,0,1-.83-2.08,1.77,1.77,0,0,0,1.12.59,2.37,2.37,0,0,0,2.81-1.68A3.57,3.57,0,0,0,23.13,31.36Z"/><path class="cls-3" d="M103.53,109.34C97.7,103,90.93,96.79,88.09,93.54c-2.12-2.45-3.63-4.3-4.25-5.07v-.4l-.15.2-.16-.2v.4c-.62.77-2.13,2.62-4.25,5.07-2.84,3.25-9.61,9.45-15.43,15.8s-6.3,12.71-5.2,18,6.61,10.23,15.27,9.15a9.69,9.69,0,0,0,6.16-3.27,20.1,20.1,0,0,1-5,11.33H91.87c-3.06-3.42-4.15-8.27-4.54-11.29a9.65,9.65,0,0,0,6.12,3.23c8.66,1.08,14.17-3.88,15.27-9.15S109.35,115.69,103.53,109.34Z"/><path d="M13.57,23.43h.72c.76,0,1.32-.48,1.66-1.42l4.18-11.78h.48l4.21,12.34a1.39,1.39,0,0,0,.47.67,1.16,1.16,0,0,0,.7.19h1.09v.62h-6v-.62h1.28a.79.79,0,0,0,.49-.15.44.44,0,0,0,.19-.34,1.1,1.1,0,0,0-.08-.43L22,19.93H17.49L17,21.23a4,4,0,0,0-.27,1.13,1.37,1.37,0,0,0,.21.75.84.84,0,0,0,.74.32h1.19v.62H13.57Zm4.13-4.12h4.12l-2-5.92Z"/><path d="M142,204.32h5.32v.62h-1.18a.83.83,0,0,0-.74.32,1.34,1.34,0,0,0-.21.75,3.9,3.9,0,0,0,.27,1.12l.46,1.31h4.54l.92-2.59a1.06,1.06,0,0,0,.07-.42.4.4,0,0,0-.19-.34.77.77,0,0,0-.49-.15h-1.28v-.62h6v.62h-1.09a1.15,1.15,0,0,0-.69.19,1.33,1.33,0,0,0-.47.67l-4.21,12.34h-.49l-4.17-11.78c-.35-1-.91-1.42-1.67-1.42H142ZM148.26,215l2-5.92h-4.11Z"/><path class="cls-3" d="M153.44,197.51c-1.07,1.16-2.32,2.31-2.84,2.9s-.67.79-.78.94v.07l0,0,0,0v-.07c-.12-.15-.39-.49-.78-.94s-1.77-1.74-2.84-2.9a3.55,3.55,0,0,1-1-3.31,2.37,2.37,0,0,1,2.81-1.68,1.74,1.74,0,0,1,1.13.6,3.74,3.74,0,0,0-.92-2.09h3.09a4,4,0,0,0-.83,2.08,1.73,1.73,0,0,1,1.12-.59,2.37,2.37,0,0,1,2.81,1.68A3.54,3.54,0,0,1,153.44,197.51Z"/></g></g></svg>