<svg xmlns="http://www.w3.org/2000/svg" viewBox="0 0 166.59 233.13"><defs><style>.cls-1{fill:#fff;}.cls-2{fill:#65a7dd;}.cls-3{fill:#272425;}.cls-4{fill:#151515;}</style></defs><g id="Calque_2" data-name="Calque 2"><g id="Objects"><rect class="cls-1" x="0.12" y="0.12" width="166.36" height="232.9" rx="5.94"/><path class="cls-2" d="M160.53,233.13H6.06a6.07,6.07,0,0,1-6.06-6V6.06A6.07,6.07,0,0,1,6.06,0H160.53a6.07,6.07,0,0,1,6.06,6.06v221A6.07,6.07,0,0,1,160.53,233.13ZM6.06.23A5.83,5.83,0,0,0,.23,6.06v221a5.83,5.83,0,0,0,5.83,5.82H160.53a5.83,5.83,0,0,0,5.83-5.82V6.06A5.84,5.84,0,0,0,160.53.23Z"/><path class="cls-1" d="M149.2,18.48a.58.58,0,0,1-.57.57.57.57,0,1,1,0-1.14A.58.58,0,0,1,149.2,18.48Z"/><path class="cls-1" d="M122.07,18.48a.58.58,0,0,1-.57.57.57.57,0,1,1,0-1.14A.58.58,0,0,1,122.07,18.48Z"/><path class="cls-1" d="M97.11,18.48a.57.57,0,1,1-.57-.57A.57.57,0,0,1,97.11,18.48Z"/><path class="cls-1" d="M72.06,18.66a.56.56,0,0,1-.57.57.57.57,0,1,1,0-1.13A.56.56,0,0,1,72.06,18.66Z"/><path class="cls-1" d="M149.2,39.62a.57.57,0,0,1-.57.57.56.56,0,0,1-.57-.57.57.57,0,0,1,.57-.57A.58.58,0,0,1,149.2,39.62Z"/><path class="cls-1" d="M149.2,58.91a.57.57,0,0,1-.57.57.57.57,0,1,1,.57-.57Z"/><path class="cls-1" d="M149.2,79.13a.57.57,0,0,1-.57.57.56.56,0,0,1-.57-.57.57.57,0,0,1,.57-.57A.58.58,0,0,1,149.2,79.13Z"/><path class="cls-1" d="M149.2,91.91a.57.57,0,0,1-.57.57.57.57,0,1,1,.57-.57Z"/><path class="cls-1" d="M149.2,104.74a.57.57,0,0,1-.57.57.57.57,0,1,1,.57-.57Z"/><path class="cls-1" d="M18.9,19.05a.57.57,0,0,1-.57.57.57.57,0,0,1,0-1.14A.57.57,0,0,1,18.9,19.05Z"/><path class="cls-1" d="M46.34,18.66a.56.56,0,0,1-.57.57.57.57,0,1,1,0-1.13A.56.56,0,0,1,46.34,18.66Z"/><path class="cls-1" d="M18.9,39.17a.56.56,0,0,1-.57.57.57.57,0,0,1-.57-.57.58.58,0,0,1,.57-.57A.57.57,0,0,1,18.9,39.17Z"/><path class="cls-1" d="M18.9,59.05a.56.56,0,0,1-.57.56.57.57,0,1,1,.57-.56Z"/><path class="cls-1" d="M18.9,79a.57.57,0,0,1-.57.57.57.57,0,1,1,0-1.14A.57.57,0,0,1,18.9,79Z"/><path class="cls-1" d="M18.9,91.91a.56.56,0,0,1-.57.57.57.57,0,1,1,0-1.13A.56.56,0,0,1,18.9,91.91Z"/><path class="cls-1" d="M18.9,105.31a.56.56,0,0,1-.57.57.57.57,0,0,1-.57-.57.58.58,0,0,1,.57-.57A.57.57,0,0,1,18.9,105.31Z"/><path class="cls-1" d="M18.9,118.24a.56.56,0,0,1-.57.57.57.57,0,1,1,0-1.13A.56.56,0,0,1,18.9,118.24Z"/><path class="cls-1" d="M18.9,131.17a.57.57,0,0,1-.57.57.58.58,0,0,1-.57-.57.57.57,0,0,1,.57-.57A.56.56,0,0,1,18.9,131.17Z"/><path class="cls-1" d="M18.9,144.57a.57.57,0,0,1-.57.57.58.58,0,0,1-.57-.57.57.57,0,0,1,.57-.57A.56.56,0,0,1,18.9,144.57Z"/><path class="cls-1" d="M18.9,158a.56.56,0,0,1-.57.56.57.57,0,1,1,.57-.56Z"/><path class="cls-1" d="M18.9,170a.56.56,0,0,1-.57.56.57.57,0,1,1,.57-.56Z"/><path class="cls-1" d="M18.9,183.39a.56.56,0,0,1-.57.57.57.57,0,0,1-.57-.57.58.58,0,0,1,.57-.57A.57.57,0,0,1,18.9,183.39Z"/><path class="cls-1" d="M18.9,196.44a.56.56,0,0,1-.57.57.57.57,0,0,1-.57-.57.58.58,0,0,1,.57-.57A.57.57,0,0,1,18.9,196.44Z"/><path class="cls-1" d="M19.13,215.63a.56.56,0,0,1-.57.56.57.57,0,1,1,.57-.56Z"/><path class="cls-1" d="M39.66,216.19a.57.57,0,1,1-.57-.56A.57.57,0,0,1,39.66,216.19Z"/><path class="cls-1" d="M66.11,216.19a.57.57,0,1,1-.57-.56A.57.57,0,0,1,66.11,216.19Z"/><path class="cls-1" d="M92.51,216.19a.57.57,0,1,1-.57-.56A.56.56,0,0,1,92.51,216.19Z"/><path class="cls-1" d="M118.23,216.19a.57.57,0,1,1-.56-.56A.56.56,0,0,1,118.23,216.19Z"/><path class="cls-1" d="M149.2,117.93a.58.58,0,0,1-.57.57.57.57,0,0,1-.57-.57.56.56,0,0,1,.57-.57A.57.57,0,0,1,149.2,117.93Z"/><path class="cls-1" d="M149.2,130.26a.58.58,0,0,1-.57.57.57.57,0,0,1-.57-.57.56.56,0,0,1,.57-.57A.57.57,0,0,1,149.2,130.26Z"/><path class="cls-1" d="M149.2,143.55a.58.58,0,0,1-.57.57.57.57,0,0,1,0-1.14A.58.58,0,0,1,149.2,143.55Z"/><path class="cls-1" d="M149.2,156.65a.57.57,0,0,1-.57.57.56.56,0,0,1-.57-.57.57.57,0,0,1,.57-.57A.58.58,0,0,1,149.2,156.65Z"/><path class="cls-1" d="M149.2,169.41a.58.58,0,0,1-.57.57.57.57,0,0,1-.57-.57.56.56,0,0,1,.57-.57A.57.57,0,0,1,149.2,169.41Z"/><path class="cls-1" d="M149.2,182a.57.57,0,0,1-.57.57.56.56,0,0,1-.57-.57.57.57,0,0,1,.57-.57A.58.58,0,0,1,149.2,182Z"/><path class="cls-1" d="M149.2,194.82a.57.57,0,0,1-.57.57.56.56,0,0,1-.57-.57.57.57,0,0,1,.57-.57A.58.58,0,0,1,149.2,194.82Z"/><path class="cls-1" d="M149.2,214.39a.57.57,0,0,1-.57.57.56.56,0,0,1-.57-.57.57.57,0,0,1,.57-.57A.58.58,0,0,1,149.2,214.39Z"/><path class="cls-3" d="M15,24.62h.72c.77,0,1.32-.47,1.67-1.41l4.18-11.78H22l4.21,12.34a1.44,1.44,0,0,0,.47.67,1.23,1.23,0,0,0,.7.18H28.5v.63h-6v-.63h1.28a.76.76,0,0,0,.48-.14.43.43,0,0,0,.2-.34,1.1,1.1,0,0,0-.08-.43l-.91-2.58H18.92l-.47,1.3a3.94,3.94,0,0,0-.27,1.13,1.31,1.31,0,0,0,.21.74.81.81,0,0,0,.74.32h1.18v.63H15Zm4.14-4.11h4.11l-2-5.92Z"/><path class="cls-3" d="M143.46,206.59h5.32v.62h-1.19a.81.81,0,0,0-.73.32,1.25,1.25,0,0,0-.22.75,4,4,0,0,0,.27,1.12l.47,1.3h4.54l.91-2.58a.94.94,0,0,0,.08-.43.42.42,0,0,0-.19-.34.84.84,0,0,0-.49-.14H151v-.62h6v.62h-1.09a1.25,1.25,0,0,0-.7.18,1.49,1.49,0,0,0-.46.67l-4.22,12.35H150l-4.17-11.78c-.35-.95-.91-1.42-1.67-1.42h-.72Zm6.23,10.65,2-5.92h-4.12Z"/><path class="cls-4" d="M17,34.23a2.46,2.46,0,0,0,2.63.46,1.9,1.9,0,0,0-.69,1.63v.07a2.24,2.24,0,0,0,4.48,0,2.3,2.3,0,0,0-.05-.45,2,2,0,0,0-.68-1.25,2.45,2.45,0,0,0,2.62-.46,2.35,2.35,0,0,0,.19-2.91,2.09,2.09,0,0,0-2-1.1,2.54,2.54,0,0,0-1.87.81,4.65,4.65,0,0,1,1-2.58H19.58a4.32,4.32,0,0,1,1,2.57,2.51,2.51,0,0,0-1.85-.8,2.1,2.1,0,0,0-2,1.1A2.35,2.35,0,0,0,17,34.23Z"/><path class="cls-4" d="M104.43,105.61c-5-5.46-12.68-2.22-12.68-2.22,2.15-2.3,3.58-4.12,3.31-7.89,0-.12,0-.25,0-.38a10.83,10.83,0,1,0-21.65,0,10.66,10.66,0,0,0,.22,2.2c.25,2.6,1.53,4.17,3.3,6.07,0,0-7.68-3.24-12.68,2.22a11.29,11.29,0,0,0-.92,14.06c1.57,2.13,3.93,5.71,9.48,5.29,4.92-.36,5.65-1.2,9-3.9a22.34,22.34,0,0,1-4.91,12.5H91.75c-2.72-2.87-5.13-9.43-4.82-12.43,3.31,2.65,4.07,3.47,8.94,3.83,5.55.42,7.91-3.16,9.49-5.29A11.3,11.3,0,0,0,104.43,105.61Z"/><path class="cls-4" d="M146.11,197.36a2.45,2.45,0,0,1,2.62-.46,1.9,1.9,0,0,1-.68-1.63v-.07a2.24,2.24,0,1,1,4.47,0,2.28,2.28,0,0,1,0,.45,2,2,0,0,1-.69,1.25,2.46,2.46,0,0,1,2.63.46,2.35,2.35,0,0,1,.19,2.91,2.1,2.1,0,0,1-2,1.1,2.54,2.54,0,0,1-1.87-.81,4.6,4.6,0,0,0,1,2.58h-3.06a4.34,4.34,0,0,0,1-2.57,2.51,2.51,0,0,1-1.85.8,2.09,2.09,0,0,1-2-1.1A2.35,2.35,0,0,1,146.11,197.36Z"/></g></g></svg>