<svg xmlns="http://www.w3.org/2000/svg" viewBox="0 0 166.48 233.07"><defs><style>.cls-1{fill:#fff;}.cls-2{fill:#65a7dd;}.cls-3{fill:#af0f07;}.cls-4{fill:#a43e32;}</style></defs><g id="Calque_2" data-name="Calque 2"><g id="Objects"><rect class="cls-1" x="0.12" y="0.11" width="166.25" height="232.84" rx="5.94"/><path class="cls-2" d="M160.43,233.07H6.05a6.06,6.06,0,0,1-6-6V6.05A6.06,6.06,0,0,1,6.05,0H160.43a6.06,6.06,0,0,1,6,6.05V227A6.06,6.06,0,0,1,160.43,233.07ZM6.05.23A5.83,5.83,0,0,0,.23,6.05V227a5.83,5.83,0,0,0,5.82,5.82H160.43a5.83,5.83,0,0,0,5.82-5.82V6.05A5.83,5.83,0,0,0,160.43.23Z"/><path class="cls-1" d="M149.1,18.48a.57.57,0,1,1-.57-.57A.56.56,0,0,1,149.1,18.48Z"/><circle class="cls-1" cx="121.42" cy="18.48" r="0.57"/><path class="cls-1" d="M97.05,18.48a.57.57,0,1,1-.57-.57A.56.56,0,0,1,97.05,18.48Z"/><circle class="cls-1" cx="71.45" cy="18.66" r="0.57"/><path class="cls-1" d="M149.1,39.61a.57.57,0,1,1-.57-.57A.57.57,0,0,1,149.1,39.61Z"/><path class="cls-1" d="M149.1,58.9a.57.57,0,1,1-1.13,0,.57.57,0,1,1,1.13,0Z"/><path class="cls-1" d="M149.1,79.11a.57.57,0,1,1-.57-.57A.57.57,0,0,1,149.1,79.11Z"/><path class="cls-1" d="M149.1,91.89a.57.57,0,1,1-.57-.57A.57.57,0,0,1,149.1,91.89Z"/><path class="cls-1" d="M149.1,104.72a.57.57,0,1,1-.57-.57A.56.56,0,0,1,149.1,104.72Z"/><circle class="cls-1" cx="18.32" cy="19.04" r="0.57"/><circle class="cls-1" cx="45.74" cy="18.66" r="0.57"/><circle class="cls-1" cx="18.32" cy="39.16" r="0.57"/><circle class="cls-1" cx="18.32" cy="59.03" r="0.57"/><circle class="cls-1" cx="18.32" cy="78.97" r="0.57"/><circle class="cls-1" cx="18.32" cy="91.89" r="0.57"/><circle class="cls-1" cx="18.32" cy="105.29" r="0.57"/><circle class="cls-1" cx="18.32" cy="118.21" r="0.57"/><circle class="cls-1" cx="18.32" cy="131.13" r="0.57"/><circle class="cls-1" cx="18.32" cy="144.53" r="0.57"/><circle class="cls-1" cx="18.32" cy="157.95" r="0.57"/><circle class="cls-1" cx="18.32" cy="169.95" r="0.57"/><path class="cls-1" d="M18.89,183.35a.56.56,0,0,1-.57.56.57.57,0,1,1,.57-.56Z"/><circle class="cls-1" cx="18.32" cy="196.39" r="0.57"/><circle class="cls-1" cx="18.55" cy="215.57" r="0.57"/><circle class="cls-1" cx="39.07" cy="216.14" r="0.57"/><circle class="cls-1" cx="65.5" cy="216.14" r="0.57"/><circle class="cls-1" cx="91.89" cy="216.14" r="0.57"/><path class="cls-1" d="M118.16,216.14a.57.57,0,0,1-.57.57.58.58,0,0,1-.57-.57.57.57,0,0,1,.57-.57A.56.56,0,0,1,118.16,216.14Z"/><path class="cls-1" d="M149.1,117.9a.57.57,0,1,1-1.13,0,.57.57,0,1,1,1.13,0Z"/><path class="cls-1" d="M149.1,130.22a.57.57,0,1,1-.57-.57A.57.57,0,0,1,149.1,130.22Z"/><path class="cls-1" d="M149.1,143.51a.57.57,0,1,1-.57-.57A.57.57,0,0,1,149.1,143.51Z"/><path class="cls-1" d="M149.1,156.61a.57.57,0,1,1-.57-.57A.57.57,0,0,1,149.1,156.61Z"/><path class="cls-1" d="M149.1,169.36a.57.57,0,1,1-.57-.57A.57.57,0,0,1,149.1,169.36Z"/><path class="cls-1" d="M149.1,181.94a.57.57,0,1,1-.57-.57A.56.56,0,0,1,149.1,181.94Z"/><path class="cls-1" d="M149.1,194.77a.57.57,0,1,1-.57-.57A.57.57,0,0,1,149.1,194.77Z"/><path class="cls-1" d="M149.1,214.34a.57.57,0,1,1-.57-.57A.56.56,0,0,1,149.1,214.34Z"/><polygon class="cls-3" points="82.38 17.29 69.09 33.44 82.38 49.84 96.02 33.57 82.38 17.29"/><polygon class="cls-3" points="82.38 166.86 69.09 183.01 82.38 199.42 96.02 183.14 82.38 166.86"/><polygon class="cls-3" points="17.25 24.43 12.53 29.65 16.74 35.37 21.58 30.12 17.25 24.43"/><polygon class="cls-3" points="149.35 185.76 144.63 190.97 148.84 196.7 153.68 191.44 149.35 185.76"/><path class="cls-4" d="M13.28,19.2A6.29,6.29,0,0,1,15.11,17L17,15.36a5.41,5.41,0,0,0,1.39-1.67,4.5,4.5,0,0,0,.47-2.09,3.35,3.35,0,0,0-.74-2.34A2.65,2.65,0,0,0,16,8.44a2.52,2.52,0,0,0-1.19.29,2.68,2.68,0,0,0-.93.76,1.63,1.63,0,0,0-.36,1,1,1,0,0,0,.21.69.94.94,0,0,0,.58.28,1.58,1.58,0,0,1,.92.42,1.08,1.08,0,0,1,.3.77.82.82,0,0,1-.26.62,1,1,0,0,1-.73.25,1.63,1.63,0,0,1-1.31-.63,2.5,2.5,0,0,1-.53-1.66,3.29,3.29,0,0,1,.5-1.78,3.45,3.45,0,0,1,1.37-1.25,4.42,4.42,0,0,1,2-.44,5.17,5.17,0,0,1,2.23.46,3.71,3.71,0,0,1,1.56,1.34,3.76,3.76,0,0,1,.56,2.06,3.12,3.12,0,0,1-.84,2.13,11.9,11.9,0,0,1-2.19,1.92L16,17.13a6.11,6.11,0,0,0-1.25,1.08,1.62,1.62,0,0,0-.44,1.05c0,.31.2.47.61.47h3.66a1.46,1.46,0,0,0,1.1-.34,1.86,1.86,0,0,0,.43-1l.22-1.15h.42l-.27,4H12.88A5.86,5.86,0,0,1,13.28,19.2Z"/><path class="cls-3" d="M151.66,203.66a6.08,6.08,0,0,1-1.82,2.25L148,207.5a5.41,5.41,0,0,0-1.39,1.67,4.41,4.41,0,0,0-.48,2.09,3.4,3.4,0,0,0,.74,2.34,2.89,2.89,0,0,0,3.29.54,2.71,2.71,0,0,0,.93-.77,1.61,1.61,0,0,0,.36-1,1,1,0,0,0-.21-.69,1,1,0,0,0-.59-.28,1.55,1.55,0,0,1-.92-.42,1.07,1.07,0,0,1-.3-.76.82.82,0,0,1,.26-.62,1,1,0,0,1,.73-.26,1.65,1.65,0,0,1,1.32.63,2.52,2.52,0,0,1,.52,1.66,3.32,3.32,0,0,1-.49,1.79,3.39,3.39,0,0,1-1.38,1.24,4.26,4.26,0,0,1-2,.45,5.21,5.21,0,0,1-2.23-.47,3.68,3.68,0,0,1-1.55-1.34,3.76,3.76,0,0,1-.56-2.06,3.16,3.16,0,0,1,.83-2.13,13.5,13.5,0,0,1,2.19-1.92l1.91-1.48a6.42,6.42,0,0,0,1.25-1.07,1.63,1.63,0,0,0,.43-1.06c0-.31-.2-.47-.6-.47h-3.66a1.49,1.49,0,0,0-1.1.34,2,2,0,0,0-.44,1l-.21,1.15h-.43l.28-4h7.56A5.87,5.87,0,0,1,151.66,203.66Z"/></g></g></svg>