<svg xmlns="http://www.w3.org/2000/svg" viewBox="0 0 166.59 233.13"><defs><style>.cls-1{fill:#fff;}.cls-2{fill:#65a7dd;}.cls-3{fill:#af0f07;}.cls-4{fill:#a43e32;}</style></defs><g id="Calque_2" data-name="Calque 2"><g id="Objects"><rect class="cls-1" x="0.12" y="0.12" width="166.36" height="232.9" rx="5.94"/><path class="cls-2" d="M160.53,233.13H6.06a6.07,6.07,0,0,1-6.06-6V6.06A6.07,6.07,0,0,1,6.06,0H160.53a6.07,6.07,0,0,1,6.06,6.06v221A6.07,6.07,0,0,1,160.53,233.13ZM6.06.23A5.83,5.83,0,0,0,.23,6.06v221a5.83,5.83,0,0,0,5.83,5.82H160.53a5.83,5.83,0,0,0,5.83-5.82V6.06A5.84,5.84,0,0,0,160.53.23Z"/><path class="cls-1" d="M149.2,18.48a.58.58,0,0,1-.57.57.57.57,0,1,1,0-1.14A.58.58,0,0,1,149.2,18.48Z"/><path class="cls-1" d="M122.07,18.48a.58.58,0,0,1-.57.57.57.57,0,1,1,0-1.14A.58.58,0,0,1,122.07,18.48Z"/><path class="cls-1" d="M97.11,18.48a.57.57,0,1,1-.57-.57A.57.57,0,0,1,97.11,18.48Z"/><path class="cls-1" d="M72.06,18.66a.56.56,0,0,1-.57.57.57.57,0,1,1,0-1.13A.56.56,0,0,1,72.06,18.66Z"/><path class="cls-1" d="M149.2,39.62a.57.57,0,0,1-.57.57.56.56,0,0,1-.57-.57.57.57,0,0,1,.57-.57A.58.58,0,0,1,149.2,39.62Z"/><path class="cls-1" d="M149.2,58.91a.57.57,0,0,1-.57.57.57.57,0,1,1,.57-.57Z"/><path class="cls-1" d="M149.2,79.13a.57.57,0,0,1-.57.57.56.56,0,0,1-.57-.57.57.57,0,0,1,.57-.57A.58.58,0,0,1,149.2,79.13Z"/><path class="cls-1" d="M149.2,91.91a.57.57,0,0,1-.57.57.57.57,0,1,1,.57-.57Z"/><path class="cls-1" d="M149.2,104.74a.57.57,0,0,1-.57.57.57.57,0,1,1,.57-.57Z"/><path class="cls-1" d="M18.9,19.05a.57.57,0,0,1-.57.57.57.57,0,0,1,0-1.14A.57.57,0,0,1,18.9,19.05Z"/><path class="cls-1" d="M46.34,18.66a.56.56,0,0,1-.57.57.57.57,0,1,1,0-1.13A.56.56,0,0,1,46.34,18.66Z"/><path class="cls-1" d="M18.9,39.17a.56.56,0,0,1-.57.57.57.57,0,0,1-.57-.57.58.58,0,0,1,.57-.57A.57.57,0,0,1,18.9,39.17Z"/><path class="cls-1" d="M18.9,59.05a.56.56,0,0,1-.57.56.57.57,0,1,1,.57-.56Z"/><path class="cls-1" d="M18.9,79a.57.57,0,0,1-.57.57.57.57,0,1,1,0-1.14A.57.57,0,0,1,18.9,79Z"/><path class="cls-1" d="M18.9,91.91a.56.56,0,0,1-.57.57.57.57,0,1,1,0-1.13A.56.56,0,0,1,18.9,91.91Z"/><path class="cls-1" d="M18.9,105.31a.56.56,0,0,1-.57.57.57.57,0,0,1-.57-.57.58.58,0,0,1,.57-.57A.57.57,0,0,1,18.9,105.31Z"/><path class="cls-1" d="M18.9,118.24a.56.56,0,0,1-.57.57.57.57,0,1,1,0-1.13A.56.56,0,0,1,18.9,118.24Z"/><path class="cls-1" d="M18.9,131.17a.57.57,0,0,1-.57.57.58.58,0,0,1-.57-.57.57.57,0,0,1,.57-.57A.56.56,0,0,1,18.9,131.17Z"/><path class="cls-1" d="M18.9,144.57a.57.57,0,0,1-.57.57.58.58,0,0,1-.57-.57.57.57,0,0,1,.57-.57A.56.56,0,0,1,18.9,144.57Z"/><path class="cls-1" d="M18.9,158a.56.56,0,0,1-.57.56.57.57,0,1,1,.57-.56Z"/><path class="cls-1" d="M18.9,170a.56.56,0,0,1-.57.56.57.57,0,1,1,.57-.56Z"/><path class="cls-1" d="M18.9,183.39a.56.56,0,0,1-.57.57.57.57,0,0,1-.57-.57.58.58,0,0,1,.57-.57A.57.57,0,0,1,18.9,183.39Z"/><path class="cls-1" d="M18.9,196.44a.56.56,0,0,1-.57.57.57.57,0,0,1-.57-.57.58.58,0,0,1,.57-.57A.57.57,0,0,1,18.9,196.44Z"/><path class="cls-1" d="M19.13,215.63a.57.57,0,0,1-.57.57.58.58,0,0,1-.57-.57.57.57,0,0,1,.57-.57A.56.56,0,0,1,19.13,215.63Z"/><path class="cls-1" d="M39.66,216.2a.57.57,0,1,1-.57-.57A.57.57,0,0,1,39.66,216.2Z"/><path class="cls-1" d="M66.11,216.2a.57.57,0,1,1-.57-.57A.57.57,0,0,1,66.11,216.2Z"/><path class="cls-1" d="M92.51,216.2a.57.57,0,1,1-.57-.57A.56.56,0,0,1,92.51,216.2Z"/><path class="cls-1" d="M118.24,216.2a.57.57,0,0,1-.57.56.57.57,0,1,1,0-1.13A.57.57,0,0,1,118.24,216.2Z"/><path class="cls-1" d="M149.2,117.93a.58.58,0,0,1-.57.57.57.57,0,0,1-.57-.57.56.56,0,0,1,.57-.57A.57.57,0,0,1,149.2,117.93Z"/><path class="cls-1" d="M149.2,130.26a.58.58,0,0,1-.57.57.57.57,0,0,1-.57-.57.56.56,0,0,1,.57-.57A.57.57,0,0,1,149.2,130.26Z"/><path class="cls-1" d="M149.2,143.55a.58.58,0,0,1-.57.57.57.57,0,0,1,0-1.14A.58.58,0,0,1,149.2,143.55Z"/><path class="cls-1" d="M149.2,156.65a.57.57,0,0,1-.57.57.56.56,0,0,1-.57-.57.57.57,0,0,1,.57-.57A.58.58,0,0,1,149.2,156.65Z"/><path class="cls-1" d="M149.2,169.41a.58.58,0,0,1-.57.57.57.57,0,0,1-.57-.57.56.56,0,0,1,.57-.57A.57.57,0,0,1,149.2,169.41Z"/><path class="cls-1" d="M149.2,182a.57.57,0,0,1-.57.57.56.56,0,0,1-.57-.57.57.57,0,0,1,.57-.57A.58.58,0,0,1,149.2,182Z"/><path class="cls-1" d="M149.2,194.82a.57.57,0,0,1-.57.57.56.56,0,0,1-.57-.57.57.57,0,0,1,.57-.57A.58.58,0,0,1,149.2,194.82Z"/><path class="cls-1" d="M149.2,214.39a.57.57,0,0,1-.57.57.56.56,0,0,1-.57-.57.57.57,0,0,1,.57-.57A.58.58,0,0,1,149.2,214.39Z"/><path class="cls-3" d="M89.8,21.25c-5.48-.13-6.74,4.06-7,6.07-.29-2-1.55-6.2-7-6.07-7.21.18-8.16,8.25-5.64,12.34a37.85,37.85,0,0,0,6.34,8c2.37,2.45,5.21,5.21,6.25,6.9,0,0,.06.2.09.15s.09-.15.09-.15c1-1.69,3.88-4.45,6.25-6.9a37.85,37.85,0,0,0,6.34-8C98,29.5,97,21.43,89.8,21.25Z"/><path class="cls-3" d="M89.8,200.23c-5.48.13-6.74-4.06-7-6.07-.29,2-1.55,6.2-7,6.07-7.21-.18-8.16-8.25-5.64-12.34a37.85,37.85,0,0,1,6.34-8c2.37-2.45,5.21-5.21,6.25-6.91,0,0,.06-.19.09-.14s.09.14.09.14c1,1.7,3.88,4.46,6.25,6.91a37.85,37.85,0,0,1,6.34,8C98,192,97,200.05,89.8,200.23Z"/><path class="cls-3" d="M20.73,29.13a2.26,2.26,0,0,0-2.44,2.1,2.26,2.26,0,0,0-2.44-2.1c-2.5.06-2.83,2.86-2,4.28a13.44,13.44,0,0,0,2.2,2.77,19.78,19.78,0,0,1,2.17,2.4s0,.06,0,.05,0-.05,0-.05a21.63,21.63,0,0,1,2.17-2.4,12.81,12.81,0,0,0,2.2-2.77C23.57,32,23.23,29.19,20.73,29.13Z"/><path class="cls-4" d="M13.76,22.7a6.08,6.08,0,0,1,1.82-2.25l1.86-1.59a5.41,5.41,0,0,0,1.39-1.67,4.44,4.44,0,0,0,.48-2.09,3.4,3.4,0,0,0-.74-2.34,2.89,2.89,0,0,0-3.29-.54,2.71,2.71,0,0,0-.93.77A1.61,1.61,0,0,0,14,14a1,1,0,0,0,.21.69,1,1,0,0,0,.58.28,1.5,1.5,0,0,1,.93.42,1.07,1.07,0,0,1,.3.76.82.82,0,0,1-.26.62A1,1,0,0,1,15,17a1.65,1.65,0,0,1-1.32-.63,2.52,2.52,0,0,1-.53-1.66,3.33,3.33,0,0,1,.5-1.79,3.39,3.39,0,0,1,1.38-1.24,4.26,4.26,0,0,1,2-.45,5.21,5.21,0,0,1,2.23.47A3.63,3.63,0,0,1,20.8,13a3.68,3.68,0,0,1,.56,2.06,3.13,3.13,0,0,1-.83,2.13,13.5,13.5,0,0,1-2.19,1.92l-1.91,1.48a6.42,6.42,0,0,0-1.25,1.07,1.65,1.65,0,0,0-.43,1.06c0,.31.2.47.6.47H19a1.48,1.48,0,0,0,1.09-.34,1.87,1.87,0,0,0,.44-1l.21-1.15h.43l-.27,4H13.35A5.67,5.67,0,0,1,13.76,22.7Z"/><path class="cls-3" d="M152.22,207.2a6.18,6.18,0,0,1-1.82,2.26l-1.87,1.59a5.41,5.41,0,0,0-1.39,1.67,4.53,4.53,0,0,0-.47,2.09,3.4,3.4,0,0,0,.74,2.34,2.66,2.66,0,0,0,2.09.83,2.54,2.54,0,0,0,1.2-.3,2.58,2.58,0,0,0,.93-.76,1.61,1.61,0,0,0,.36-1,.94.94,0,0,0-.22-.69,1,1,0,0,0-.58-.28,1.61,1.61,0,0,1-.92-.42,1.08,1.08,0,0,1-.3-.77.85.85,0,0,1,.26-.62,1.06,1.06,0,0,1,.73-.25,1.65,1.65,0,0,1,1.32.63,2.52,2.52,0,0,1,.52,1.66,3.32,3.32,0,0,1-.49,1.79,3.39,3.39,0,0,1-1.38,1.24,4.29,4.29,0,0,1-2,.45,5.17,5.17,0,0,1-2.23-.47,3.63,3.63,0,0,1-1.55-1.34,3.68,3.68,0,0,1-.57-2.06,3.12,3.12,0,0,1,.84-2.13,11.9,11.9,0,0,1,2.19-1.92l1.9-1.48a5.85,5.85,0,0,0,1.25-1.08,1.57,1.57,0,0,0,.44-1c0-.31-.2-.47-.6-.47H147a1.46,1.46,0,0,0-1.1.34,1.86,1.86,0,0,0-.43,1l-.22,1.15h-.42l.27-4h7.57A5.78,5.78,0,0,1,152.22,207.2Z"/><path class="cls-3" d="M151.05,200.36a2.24,2.24,0,0,1-2.44-2.1,2.26,2.26,0,0,1-2.44,2.1c-2.51-.06-2.84-2.86-2-4.27a12.89,12.89,0,0,1,2.2-2.78,22.62,22.62,0,0,0,2.17-2.39s0-.07,0,0,0,0,0,0a20.6,20.6,0,0,0,2.17,2.39,13.19,13.19,0,0,1,2.19,2.78C153.88,197.5,153.55,200.3,151.05,200.36Z"/></g></g></svg>