<svg xmlns="http://www.w3.org/2000/svg" viewBox="0 0 166.59 233.13"><defs><style>.cls-1{fill:#fff;}.cls-2{fill:#65a7dd;}.cls-3{fill:#151515;}</style></defs><g id="Calque_2" data-name="Calque 2"><g id="Objects"><rect class="cls-1" x="0.12" y="0.12" width="166.36" height="232.9" rx="5.94"/><path class="cls-2" d="M160.53,233.13H6.06a6.07,6.07,0,0,1-6.06-6V6.06A6.07,6.07,0,0,1,6.06,0H160.53a6.07,6.07,0,0,1,6.06,6.06v221A6.07,6.07,0,0,1,160.53,233.13ZM6.06.23A5.83,5.83,0,0,0,.23,6.06v221a5.83,5.83,0,0,0,5.83,5.82H160.53a5.83,5.83,0,0,0,5.83-5.82V6.06A5.84,5.84,0,0,0,160.53.23Z"/><path class="cls-1" d="M149.2,18.48a.58.58,0,0,1-.57.57.57.57,0,1,1,0-1.14A.58.58,0,0,1,149.2,18.48Z"/><path class="cls-1" d="M122.07,18.48a.58.58,0,0,1-.57.57.57.57,0,1,1,0-1.14A.58.58,0,0,1,122.07,18.48Z"/><path class="cls-1" d="M97.11,18.48a.57.57,0,1,1-.57-.57A.57.57,0,0,1,97.11,18.48Z"/><path class="cls-1" d="M72.06,18.66a.56.56,0,0,1-.57.57.57.57,0,1,1,0-1.13A.56.56,0,0,1,72.06,18.66Z"/><path class="cls-1" d="M149.2,39.62a.57.57,0,0,1-.57.57.56.56,0,0,1-.57-.57.57.57,0,0,1,.57-.57A.58.58,0,0,1,149.2,39.62Z"/><path class="cls-1" d="M149.2,58.91a.57.57,0,0,1-.57.57.57.57,0,1,1,.57-.57Z"/><path class="cls-1" d="M149.2,79.13a.57.57,0,0,1-.57.57.56.56,0,0,1-.57-.57.57.57,0,0,1,.57-.57A.58.58,0,0,1,149.2,79.13Z"/><path class="cls-1" d="M149.2,91.91a.57.57,0,0,1-.57.57.57.57,0,1,1,.57-.57Z"/><path class="cls-1" d="M149.2,104.74a.57.57,0,0,1-.57.57.57.57,0,1,1,.57-.57Z"/><path class="cls-1" d="M18.9,19.05a.57.57,0,0,1-.57.57.57.57,0,0,1,0-1.14A.57.57,0,0,1,18.9,19.05Z"/><path class="cls-1" d="M46.34,18.66a.56.56,0,0,1-.57.57.57.57,0,1,1,0-1.13A.56.56,0,0,1,46.34,18.66Z"/><path class="cls-1" d="M18.9,39.17a.56.56,0,0,1-.57.57.57.57,0,0,1-.57-.57.58.58,0,0,1,.57-.57A.57.57,0,0,1,18.9,39.17Z"/><path class="cls-1" d="M18.9,59.05a.56.56,0,0,1-.57.56.57.57,0,1,1,.57-.56Z"/><path class="cls-1" d="M18.9,79a.57.57,0,0,1-.57.57.57.57,0,1,1,0-1.14A.57.57,0,0,1,18.9,79Z"/><path class="cls-1" d="M18.9,91.91a.56.56,0,0,1-.57.57.57.57,0,1,1,0-1.13A.56.56,0,0,1,18.9,91.91Z"/><path class="cls-1" d="M18.9,105.31a.56.56,0,0,1-.57.57.57.57,0,0,1-.57-.57.58.58,0,0,1,.57-.57A.57.57,0,0,1,18.9,105.31Z"/><path class="cls-1" d="M18.9,118.24a.56.56,0,0,1-.57.57.57.57,0,1,1,0-1.13A.56.56,0,0,1,18.9,118.24Z"/><path class="cls-1" d="M18.9,131.17a.57.57,0,0,1-.57.57.58.58,0,0,1-.57-.57.57.57,0,0,1,.57-.57A.56.56,0,0,1,18.9,131.17Z"/><path class="cls-1" d="M18.9,144.57a.57.57,0,0,1-.57.57.58.58,0,0,1-.57-.57.57.57,0,0,1,.57-.57A.56.56,0,0,1,18.9,144.57Z"/><path class="cls-1" d="M18.9,158a.56.56,0,0,1-.57.56.57.57,0,1,1,.57-.56Z"/><path class="cls-1" d="M18.9,170a.56.56,0,0,1-.57.56.57.57,0,1,1,.57-.56Z"/><path class="cls-1" d="M18.9,183.39a.56.56,0,0,1-.57.57.57.57,0,0,1-.57-.57.58.58,0,0,1,.57-.57A.57.57,0,0,1,18.9,183.39Z"/><path class="cls-1" d="M18.9,196.44a.56.56,0,0,1-.57.57.57.57,0,0,1-.57-.57.58.58,0,0,1,.57-.57A.57.57,0,0,1,18.9,196.44Z"/><path class="cls-1" d="M19.13,215.63a.56.56,0,0,1-.57.56.57.57,0,1,1,.57-.56Z"/><path class="cls-1" d="M39.66,216.19a.57.57,0,1,1-.57-.56A.57.57,0,0,1,39.66,216.19Z"/><path class="cls-1" d="M66.11,216.19a.57.57,0,1,1-.57-.56A.57.57,0,0,1,66.11,216.19Z"/><path class="cls-1" d="M92.51,216.19a.57.57,0,1,1-.57-.56A.56.56,0,0,1,92.51,216.19Z"/><path class="cls-1" d="M118.23,216.19a.57.57,0,1,1-.56-.56A.56.56,0,0,1,118.23,216.19Z"/><path class="cls-1" d="M149.2,117.93a.58.58,0,0,1-.57.57.57.57,0,0,1-.57-.57.56.56,0,0,1,.57-.57A.57.57,0,0,1,149.2,117.93Z"/><path class="cls-1" d="M149.2,130.26a.58.58,0,0,1-.57.57.57.57,0,0,1-.57-.57.56.56,0,0,1,.57-.57A.57.57,0,0,1,149.2,130.26Z"/><path class="cls-1" d="M149.2,143.55a.58.58,0,0,1-.57.57.57.57,0,0,1,0-1.14A.58.58,0,0,1,149.2,143.55Z"/><path class="cls-1" d="M149.2,156.65a.57.57,0,0,1-.57.57.56.56,0,0,1-.57-.57.57.57,0,0,1,.57-.57A.58.58,0,0,1,149.2,156.65Z"/><path class="cls-1" d="M149.2,169.41a.58.58,0,0,1-.57.57.57.57,0,0,1-.57-.57.56.56,0,0,1,.57-.57A.57.57,0,0,1,149.2,169.41Z"/><path class="cls-1" d="M149.2,182a.57.57,0,0,1-.57.57.56.56,0,0,1-.57-.57.57.57,0,0,1,.57-.57A.58.58,0,0,1,149.2,182Z"/><path class="cls-1" d="M149.2,194.82a.57.57,0,0,1-.57.57.56.56,0,0,1-.57-.57.57.57,0,0,1,.57-.57A.58.58,0,0,1,149.2,194.82Z"/><path class="cls-1" d="M149.2,214.39a.57.57,0,0,1-.57.57.56.56,0,0,1-.57-.57.57.57,0,0,1,.57-.57A.58.58,0,0,1,149.2,214.39Z"/><path class="cls-3" d="M97.11,35.33c-3.68-4-8-7.92-9.74-10-1.34-1.54-2.29-2.71-2.68-3.2v-.25a1,1,0,0,1-.1.13l-.1-.13v.25c-.39.49-1.34,1.66-2.68,3.2-1.79,2.05-6.06,6-9.73,10A12.18,12.18,0,0,0,68.8,46.67c.69,3.32,4.17,6.45,9.63,5.77a6.16,6.16,0,0,0,3.89-2.06,12.74,12.74,0,0,1-3.16,7.15h10.6a13.54,13.54,0,0,1-2.87-7.13,6,6,0,0,0,3.86,2c5.46.68,8.94-2.45,9.64-5.77A12.23,12.23,0,0,0,97.11,35.33Z"/><path class="cls-3" d="M22.56,31.36c-1.07-1.17-2.32-2.31-2.84-2.91-.39-.45-.67-.79-.78-.93v-.07l0,0,0,0v.07c-.11.14-.39.48-.78.93-.52.6-1.77,1.74-2.84,2.91a3.58,3.58,0,0,0-1,3.31,2.37,2.37,0,0,0,2.81,1.68,1.79,1.79,0,0,0,1.14-.6,3.71,3.71,0,0,1-.93,2.09h3.1a3.92,3.92,0,0,1-.84-2.08,1.8,1.8,0,0,0,1.13.59,2.38,2.38,0,0,0,2.81-1.68A3.58,3.58,0,0,0,22.56,31.36Z"/><path d="M15.18,21.93A6,6,0,0,1,17,19.68l1.86-1.59a5.41,5.41,0,0,0,1.39-1.67,4.57,4.57,0,0,0,.47-2.1A3.39,3.39,0,0,0,20,12a2.7,2.7,0,0,0-2.1-.83,2.75,2.75,0,0,0-2.13,1.06,1.61,1.61,0,0,0-.36,1,1,1,0,0,0,.22.69,1,1,0,0,0,.58.28,1.47,1.47,0,0,1,.92.42,1.07,1.07,0,0,1,.3.76.79.79,0,0,1-.26.62,1,1,0,0,1-.73.26,1.65,1.65,0,0,1-1.32-.63,2.57,2.57,0,0,1-.52-1.66,3.34,3.34,0,0,1,1.87-3,4.29,4.29,0,0,1,2-.45,5.14,5.14,0,0,1,2.23.47,3.57,3.57,0,0,1,2.12,3.39A3.18,3.18,0,0,1,22,16.46a13.19,13.19,0,0,1-2.2,1.92l-1.9,1.48a6.42,6.42,0,0,0-1.25,1.07A1.66,1.66,0,0,0,16.17,22c0,.31.2.47.6.47h3.67a1.51,1.51,0,0,0,1.1-.34,2,2,0,0,0,.44-1L22.19,20h.43l-.28,4H14.78A5.86,5.86,0,0,1,15.18,21.93Z"/><path d="M153.65,206.44a6.29,6.29,0,0,1-1.83,2.25L150,210.28a5.41,5.41,0,0,0-1.39,1.67,4.44,4.44,0,0,0-.48,2.09,3.4,3.4,0,0,0,.74,2.34,2.89,2.89,0,0,0,3.29.54,2.71,2.71,0,0,0,.93-.77,1.61,1.61,0,0,0,.36-1,1,1,0,0,0-.21-.69,1,1,0,0,0-.58-.28,1.58,1.58,0,0,1-.93-.42,1.07,1.07,0,0,1-.3-.76.83.83,0,0,1,.27-.63,1,1,0,0,1,.72-.25,1.65,1.65,0,0,1,1.32.63,2.52,2.52,0,0,1,.53,1.66,3.33,3.33,0,0,1-.5,1.79,3.39,3.39,0,0,1-1.38,1.24,4.23,4.23,0,0,1-2,.45,5.21,5.21,0,0,1-2.23-.47A3.58,3.58,0,0,1,146,214a3.13,3.13,0,0,1,.83-2.13,12.6,12.6,0,0,1,2.19-1.92l1.91-1.48a6.42,6.42,0,0,0,1.25-1.07,1.66,1.66,0,0,0,.44-1.06c0-.31-.21-.47-.61-.47h-3.66a1.45,1.45,0,0,0-1.1.34,1.87,1.87,0,0,0-.44,1l-.21,1.15h-.43l.27-4h7.57A5.86,5.86,0,0,1,153.65,206.44Z"/><path class="cls-3" d="M97.11,194.75c-3.68,4-8,7.92-9.74,10-1.34,1.53-2.29,2.7-2.68,3.19v.25l-.1-.12-.1.12v-.25c-.39-.49-1.34-1.66-2.68-3.19-1.79-2.06-6.06-6-9.73-10a12.15,12.15,0,0,1-3.28-11.33c.69-3.33,4.17-6.46,9.63-5.77a6.07,6.07,0,0,1,3.89,2.06,12.74,12.74,0,0,0-3.16-7.15h10.6a13.54,13.54,0,0,0-2.87,7.12,6.08,6.08,0,0,1,3.86-2c5.46-.69,8.94,2.44,9.64,5.77A12.2,12.2,0,0,1,97.11,194.75Z"/><path class="cls-3" d="M152.87,197.51c-1.07,1.16-2.32,2.31-2.84,2.9s-.66.79-.78.94v.07l0,0,0,0v-.07c-.11-.15-.39-.49-.78-.94s-1.77-1.74-2.84-2.9a3.54,3.54,0,0,1-.95-3.31,2.37,2.37,0,0,1,2.81-1.68,1.76,1.76,0,0,1,1.13.6,3.74,3.74,0,0,0-.92-2.09h3.09a3.89,3.89,0,0,0-.84,2.08,1.75,1.75,0,0,1,1.13-.59,2.37,2.37,0,0,1,2.81,1.68A3.55,3.55,0,0,1,152.87,197.51Z"/></g></g></svg>