<svg xmlns="http://www.w3.org/2000/svg" viewBox="0 0 166.59 233.13"><defs><style>.cls-1{fill:#fff;}.cls-2{fill:#65a7dd;}.cls-3{fill:#151515;}.cls-4{fill:#272425;}</style></defs><g id="Calque_2" data-name="Calque 2"><g id="Objects"><rect class="cls-1" x="0.12" y="0.12" width="166.36" height="232.9" rx="5.94"/><path class="cls-2" d="M160.53,233.13H6.06a6.07,6.07,0,0,1-6.06-6V6.06A6.07,6.07,0,0,1,6.06,0H160.53a6.07,6.07,0,0,1,6.06,6.06v221A6.07,6.07,0,0,1,160.53,233.13ZM6.06.23A5.83,5.83,0,0,0,.23,6.06v221a5.83,5.83,0,0,0,5.83,5.82H160.53a5.83,5.83,0,0,0,5.83-5.82V6.06A5.84,5.84,0,0,0,160.53.23Z"/><path class="cls-1" d="M149.2,18.48a.58.58,0,0,1-.57.57.57.57,0,1,1,0-1.14A.58.58,0,0,1,149.2,18.48Z"/><path class="cls-1" d="M122.07,18.48a.58.58,0,0,1-.57.57.57.57,0,1,1,0-1.14A.58.58,0,0,1,122.07,18.48Z"/><path class="cls-1" d="M97.11,18.48a.57.57,0,1,1-.57-.57A.57.57,0,0,1,97.11,18.48Z"/><path class="cls-1" d="M72.06,18.66a.56.56,0,0,1-.57.57.57.57,0,1,1,0-1.13A.56.56,0,0,1,72.06,18.66Z"/><path class="cls-1" d="M149.2,39.62a.57.57,0,0,1-.57.57.56.56,0,0,1-.57-.57.57.57,0,0,1,.57-.57A.58.58,0,0,1,149.2,39.62Z"/><path class="cls-1" d="M149.2,58.91a.57.57,0,0,1-.57.57.57.57,0,1,1,.57-.57Z"/><path class="cls-1" d="M149.2,79.13a.57.57,0,0,1-.57.57.56.56,0,0,1-.57-.57.57.57,0,0,1,.57-.57A.58.58,0,0,1,149.2,79.13Z"/><path class="cls-1" d="M149.2,91.91a.57.57,0,0,1-.57.57.57.57,0,1,1,.57-.57Z"/><path class="cls-1" d="M149.2,104.74a.57.57,0,0,1-.57.57.57.57,0,1,1,.57-.57Z"/><path class="cls-1" d="M18.9,19.05a.57.57,0,0,1-.57.57.57.57,0,0,1,0-1.14A.57.57,0,0,1,18.9,19.05Z"/><path class="cls-1" d="M46.34,18.66a.56.56,0,0,1-.57.57.57.57,0,1,1,0-1.13A.56.56,0,0,1,46.34,18.66Z"/><path class="cls-1" d="M18.9,39.17a.56.56,0,0,1-.57.57.57.57,0,0,1-.57-.57.58.58,0,0,1,.57-.57A.57.57,0,0,1,18.9,39.17Z"/><path class="cls-1" d="M18.9,59.05a.56.56,0,0,1-.57.56.57.57,0,1,1,.57-.56Z"/><path class="cls-1" d="M18.9,79a.57.57,0,0,1-.57.57.57.57,0,1,1,0-1.14A.57.57,0,0,1,18.9,79Z"/><path class="cls-1" d="M18.9,91.91a.56.56,0,0,1-.57.57.57.57,0,1,1,0-1.13A.56.56,0,0,1,18.9,91.91Z"/><path class="cls-1" d="M18.9,105.31a.56.56,0,0,1-.57.57.57.57,0,0,1-.57-.57.58.58,0,0,1,.57-.57A.57.57,0,0,1,18.9,105.31Z"/><path class="cls-1" d="M18.9,118.24a.56.56,0,0,1-.57.57.57.57,0,1,1,0-1.13A.56.56,0,0,1,18.9,118.24Z"/><path class="cls-1" d="M18.9,131.17a.57.57,0,0,1-.57.57.58.58,0,0,1-.57-.57.57.57,0,0,1,.57-.57A.56.56,0,0,1,18.9,131.17Z"/><path class="cls-1" d="M18.9,144.57a.57.57,0,0,1-.57.57.58.58,0,0,1-.57-.57.57.57,0,0,1,.57-.57A.56.56,0,0,1,18.9,144.57Z"/><path class="cls-1" d="M18.9,158a.56.56,0,0,1-.57.56.57.57,0,1,1,.57-.56Z"/><path class="cls-1" d="M18.9,170a.56.56,0,0,1-.57.56.57.57,0,1,1,.57-.56Z"/><path class="cls-1" d="M18.9,183.39a.56.56,0,0,1-.57.57.57.57,0,0,1-.57-.57.58.58,0,0,1,.57-.57A.57.57,0,0,1,18.9,183.39Z"/><path class="cls-1" d="M18.9,196.44a.56.56,0,0,1-.57.57.57.57,0,0,1-.57-.57.58.58,0,0,1,.57-.57A.57.57,0,0,1,18.9,196.44Z"/><path class="cls-1" d="M19.13,215.63a.56.56,0,0,1-.57.56.57.57,0,1,1,.57-.56Z"/><path class="cls-1" d="M39.66,216.19a.57.57,0,1,1-.57-.56A.57.57,0,0,1,39.66,216.19Z"/><path class="cls-1" d="M66.11,216.19a.57.57,0,0,1-.57.57.57.57,0,1,1,.57-.57Z"/><path class="cls-1" d="M92.51,216.19a.57.57,0,1,1-.57-.56A.56.56,0,0,1,92.51,216.19Z"/><path class="cls-1" d="M118.23,216.19a.57.57,0,1,1-.56-.56A.56.56,0,0,1,118.23,216.19Z"/><path class="cls-1" d="M149.2,117.93a.58.58,0,0,1-.57.57.57.57,0,0,1-.57-.57.56.56,0,0,1,.57-.57A.57.57,0,0,1,149.2,117.93Z"/><path class="cls-1" d="M149.2,130.26a.58.58,0,0,1-.57.57.57.57,0,0,1-.57-.57.56.56,0,0,1,.57-.57A.57.57,0,0,1,149.2,130.26Z"/><path class="cls-1" d="M149.2,143.55a.58.58,0,0,1-.57.57.57.57,0,0,1,0-1.14A.58.58,0,0,1,149.2,143.55Z"/><path class="cls-1" d="M149.2,156.65a.57.57,0,0,1-.57.57.56.56,0,0,1-.57-.57.57.57,0,0,1,.57-.57A.58.58,0,0,1,149.2,156.65Z"/><path class="cls-1" d="M149.2,169.41a.58.58,0,0,1-.57.57.57.57,0,0,1-.57-.57.56.56,0,0,1,.57-.57A.57.57,0,0,1,149.2,169.41Z"/><path class="cls-1" d="M149.2,182a.57.57,0,0,1-.57.57.56.56,0,0,1-.57-.57.57.57,0,0,1,.57-.57A.58.58,0,0,1,149.2,182Z"/><path class="cls-1" d="M149.2,194.82a.57.57,0,0,1-.57.57.56.56,0,0,1-.57-.57.57.57,0,0,1,.57-.57A.58.58,0,0,1,149.2,194.82Z"/><path class="cls-1" d="M149.2,214.39a.57.57,0,0,1-.57.57.56.56,0,0,1-.57-.57.57.57,0,0,1,.57-.57A.58.58,0,0,1,149.2,214.39Z"/><path class="cls-3" d="M98.91,185.47c-3.58,3.9-9.08,1.59-9.08,1.59,1.54,1.64,2.57,2.94,2.37,5.63a2.72,2.72,0,0,1,0,.28,7.75,7.75,0,1,1-15.49,0,7.33,7.33,0,0,1,.16-1.57c.17-1.87,1.09-3,2.36-4.34,0,0-5.5,2.31-9.07-1.59a8.11,8.11,0,0,1-.67-10.07c1.13-1.52,2.82-4.08,6.79-3.78,3.52.26,4,.86,6.46,2.79a16,16,0,0,0-3.51-8.94H89.83c-1.94,2.05-3.67,6.74-3.44,8.89,2.36-1.89,2.9-2.48,6.39-2.74,4-.3,5.66,2.26,6.79,3.78A8.12,8.12,0,0,1,98.91,185.47Z"/><path class="cls-4" d="M15.7,23.13a6.08,6.08,0,0,1,1.82-2.25l1.87-1.59a5.53,5.53,0,0,0,1.39-1.67,4.57,4.57,0,0,0,.47-2.1,3.4,3.4,0,0,0-.74-2.34,2.9,2.9,0,0,0-3.29-.53,2.6,2.6,0,0,0-.93.77,1.58,1.58,0,0,0-.36,1,.94.94,0,0,0,.22.69,1,1,0,0,0,.58.28,1.55,1.55,0,0,1,.92.41,1.1,1.1,0,0,1,.3.77.84.84,0,0,1-.26.62,1,1,0,0,1-.73.25,1.65,1.65,0,0,1-1.32-.63,2.5,2.5,0,0,1-.52-1.66,3.29,3.29,0,0,1,.49-1.78A3.32,3.32,0,0,1,17,12.11a4.29,4.29,0,0,1,2-.45,5.17,5.17,0,0,1,2.23.47,3.56,3.56,0,0,1,1.55,1.34,3.65,3.65,0,0,1,.57,2,3.16,3.16,0,0,1-.84,2.14,12.69,12.69,0,0,1-2.19,1.92l-1.9,1.47a6.47,6.47,0,0,0-1.25,1.08,1.59,1.59,0,0,0-.44,1.06c0,.31.2.46.6.46H21a1.51,1.51,0,0,0,1.1-.33,1.86,1.86,0,0,0,.43-1l.22-1.14h.42l-.27,4H15.29A5.83,5.83,0,0,1,15.7,23.13Z"/><path class="cls-4" d="M154.16,208.7a6.08,6.08,0,0,1-1.82,2.25l-1.87,1.6a5.38,5.38,0,0,0-1.38,1.67,4.38,4.38,0,0,0-.48,2.09,3.4,3.4,0,0,0,.74,2.34,2.65,2.65,0,0,0,2.09.82,2.53,2.53,0,0,0,1.2-.29,2.68,2.68,0,0,0,.93-.76,1.63,1.63,0,0,0,.36-1,1,1,0,0,0-.21-.69,1,1,0,0,0-.59-.28,1.61,1.61,0,0,1-.92-.42,1.08,1.08,0,0,1-.3-.77.85.85,0,0,1,.26-.62,1,1,0,0,1,.73-.25,1.65,1.65,0,0,1,1.32.63,2.5,2.5,0,0,1,.52,1.66,3.29,3.29,0,0,1-.49,1.78,3.34,3.34,0,0,1-1.38,1.25,4.39,4.39,0,0,1-2,.44,5.17,5.17,0,0,1-2.23-.46,3.63,3.63,0,0,1-1.55-1.34,3.68,3.68,0,0,1-.57-2.06,3.12,3.12,0,0,1,.84-2.13,12.67,12.67,0,0,1,2.19-1.93l1.9-1.47a6.14,6.14,0,0,0,1.25-1.08,1.57,1.57,0,0,0,.44-1c0-.32-.2-.47-.6-.47H148.9a1.42,1.42,0,0,0-1.09.34,1.87,1.87,0,0,0-.44,1l-.21,1.14h-.43l.27-4h7.57A5.82,5.82,0,0,1,154.16,208.7Z"/><path class="cls-3" d="M14.88,34.23a2.45,2.45,0,0,0,2.62.46,1.9,1.9,0,0,0-.68,1.63.17.17,0,0,0,0,.07,2.24,2.24,0,1,0,4.48,0,2.3,2.3,0,0,0-.05-.45,2,2,0,0,0-.68-1.25,2.45,2.45,0,0,0,2.62-.46,2.32,2.32,0,0,0,.19-2.91,2.08,2.08,0,0,0-2-1.1,2.54,2.54,0,0,0-1.86.81,4.6,4.6,0,0,1,1-2.58H17.5a4.4,4.4,0,0,1,1,2.57,2.53,2.53,0,0,0-1.85-.8,2.08,2.08,0,0,0-2,1.1A2.34,2.34,0,0,0,14.88,34.23Z"/><path class="cls-3" d="M98.91,41.32c-3.58-3.91-9.08-1.59-9.08-1.59,1.54-1.64,2.57-2.95,2.37-5.64a2.44,2.44,0,0,0,0-.27,7.75,7.75,0,1,0-15.49,0,7.47,7.47,0,0,0,.16,1.57c.17,1.86,1.09,3,2.36,4.34,0,0-5.5-2.32-9.07,1.59a8.09,8.09,0,0,0-.67,10.06c1.13,1.53,2.82,4.08,6.79,3.79,3.52-.26,4-.86,6.46-2.79a16,16,0,0,1-3.51,8.94H89.83c-1.94-2-3.67-6.75-3.44-8.89,2.36,1.89,2.9,2.48,6.39,2.74,4,.29,5.66-2.26,6.79-3.79A8.1,8.1,0,0,0,98.91,41.32Z"/><path class="cls-3" d="M145.19,197.36a2.45,2.45,0,0,1,2.62-.46,1.9,1.9,0,0,1-.68-1.63v-.07a2.24,2.24,0,1,1,4.47,0,2.28,2.28,0,0,1,0,.45,2,2,0,0,1-.69,1.25,2.46,2.46,0,0,1,2.63.46,2.35,2.35,0,0,1,.19,2.91,2.1,2.1,0,0,1-2,1.1,2.54,2.54,0,0,1-1.87-.81,4.6,4.6,0,0,0,1,2.58h-3.06a4.34,4.34,0,0,0,1-2.57,2.51,2.51,0,0,1-1.85.8,2.09,2.09,0,0,1-2-1.1A2.35,2.35,0,0,1,145.19,197.36Z"/></g></g></svg>