<svg xmlns="http://www.w3.org/2000/svg" viewBox="0 0 166.48 233.07"><defs><style>.cls-1{fill:#fff;}.cls-2{fill:#65a7dd;}.cls-3{fill:#af0f07;}.cls-4{fill:#a43e32;}</style></defs><g id="Calque_2" data-name="Calque 2"><g id="Objects"><rect class="cls-1" x="0.12" y="0.11" width="166.25" height="232.84" rx="5.94"/><path class="cls-2" d="M160.43,233.07H6.05a6.06,6.06,0,0,1-6-6V6.05A6.06,6.06,0,0,1,6.05,0H160.43a6.06,6.06,0,0,1,6,6.05V227A6.06,6.06,0,0,1,160.43,233.07ZM6.05.23A5.83,5.83,0,0,0,.23,6.05V227a5.83,5.83,0,0,0,5.82,5.82H160.43a5.83,5.83,0,0,0,5.82-5.82V6.05A5.83,5.83,0,0,0,160.43.23Z"/><polygon class="cls-3" points="16.39 24.43 11.67 29.65 15.88 35.37 20.72 30.12 16.39 24.43"/><polygon class="cls-3" points="148.76 185.76 144.03 190.97 148.24 196.7 153.09 191.44 148.76 185.76"/><path class="cls-4" d="M14.07,21a2.19,2.19,0,0,1-1-1.95,1.83,1.83,0,0,1,.41-1.19,1.32,1.32,0,0,1,1.07-.5,1.24,1.24,0,0,1,.88.3,1.21,1.21,0,0,1,.08,1.54.77.77,0,0,1-.63.3c-.46,0-.68.11-.68.33,0,.81.81,1.22,2.44,1.22a2.25,2.25,0,0,0,2.05-1,4.18,4.18,0,0,0,.63-2.33,3.48,3.48,0,0,0-.67-2.33A2.1,2.1,0,0,0,17,14.61a3,3,0,0,0-.47,0l-.46.14a3.5,3.5,0,0,1-1,.21,1,1,0,0,1-.51-.13.45.45,0,0,1-.23-.41.45.45,0,0,1,.22-.41.93.93,0,0,1,.52-.13A5.37,5.37,0,0,1,16,14a9.68,9.68,0,0,0,1.07.05,1.56,1.56,0,0,0,1.42-.84,3.75,3.75,0,0,0,.5-1.93,3.59,3.59,0,0,0-.58-2.1,1.94,1.94,0,0,0-1.69-.83,2.68,2.68,0,0,0-1.62.37,1,1,0,0,0-.47.83.59.59,0,0,0,.13.36,1,1,0,0,0,.37.3,1,1,0,0,1,.7.95.89.89,0,0,1-.27.67,1.07,1.07,0,0,1-.78.26,1.28,1.28,0,0,1-1-.47,1.57,1.57,0,0,1-.42-1.06,2.45,2.45,0,0,1,1-2.1,4.23,4.23,0,0,1,2.51-.73,4.13,4.13,0,0,1,2.84.94,3.12,3.12,0,0,1,1.08,2.47,2.68,2.68,0,0,1-.38,1.45,3.35,3.35,0,0,1-.95,1,3.4,3.4,0,0,1-1.15.53v.16a3.73,3.73,0,0,1,1.34.55A3.87,3.87,0,0,1,20.88,16a3,3,0,0,1,.48,1.69,3.48,3.48,0,0,1-.63,2.07A4.06,4.06,0,0,1,19,21.15a5.78,5.78,0,0,1-2.38.48A4.51,4.51,0,0,1,14.07,21Z"/><path class="cls-3" d="M151.67,201.9a2.19,2.19,0,0,1,1,1.95,1.79,1.79,0,0,1-.41,1.2,1.3,1.3,0,0,1-1.06.49,1.22,1.22,0,0,1-.88-.3,1.06,1.06,0,0,1-.32-.82,1.09,1.09,0,0,1,.24-.71.77.77,0,0,1,.63-.3c.45,0,.68-.11.68-.33,0-.82-.82-1.23-2.45-1.23a2.27,2.27,0,0,0-2,1,4.21,4.21,0,0,0-.63,2.33,3.47,3.47,0,0,0,.67,2.33,2.06,2.06,0,0,0,1.63.78,2.87,2.87,0,0,0,.48,0,4.25,4.25,0,0,0,.46-.14,3.38,3.38,0,0,1,1-.21,1,1,0,0,1,.52.13.45.45,0,0,1,.22.41.46.46,0,0,1-.21.41,1,1,0,0,1-.53.14,6.83,6.83,0,0,1-.91-.1,7.29,7.29,0,0,0-1.06-.06,1.57,1.57,0,0,0-1.43.84,3.77,3.77,0,0,0-.49,1.93,3.56,3.56,0,0,0,.58,2.1,1.92,1.92,0,0,0,1.69.83,2.77,2.77,0,0,0,1.62-.36,1.08,1.08,0,0,0,.47-.84.66.66,0,0,0-.14-.36,1.07,1.07,0,0,0-.36-.3,1,1,0,0,1-.7-.95.9.9,0,0,1,.27-.67,1.1,1.1,0,0,1,.78-.26,1.24,1.24,0,0,1,1,.48,1.53,1.53,0,0,1,.42,1,2.4,2.4,0,0,1-1,2.1,4.21,4.21,0,0,1-2.51.74,4.17,4.17,0,0,1-2.84-.95,3.11,3.11,0,0,1-1.08-2.47,2.76,2.76,0,0,1,.38-1.44,3.14,3.14,0,0,1,.95-1,3.29,3.29,0,0,1,1.16-.54v-.15a3.85,3.85,0,0,1-1.34-.55,3.91,3.91,0,0,1-1.18-1.18,2.94,2.94,0,0,1-.49-1.69,3.39,3.39,0,0,1,.64-2.06,4.09,4.09,0,0,1,1.72-1.36,5.74,5.74,0,0,1,2.37-.48A4.57,4.57,0,0,1,151.67,201.9Z"/><polygon class="cls-3" points="82.71 17.29 69.42 33.44 82.71 49.84 96.35 33.57 82.71 17.29"/><polygon class="cls-3" points="82.71 166.86 69.42 183.01 82.71 199.42 96.35 183.14 82.71 166.86"/><polygon class="cls-3" points="82.71 92.08 69.42 108.22 82.71 124.63 96.35 108.35 82.71 92.08"/></g></g></svg>