<svg xmlns="http://www.w3.org/2000/svg" viewBox="0 0 166.59 233.13"><defs><style>.cls-1{fill:#fff;}.cls-2{fill:#65a7dd;}.cls-3{fill:#af0f07;}.cls-4{fill:#a43e32;}</style></defs><g id="Calque_2" data-name="Calque 2"><g id="Objects"><rect class="cls-1" x="0.12" y="0.12" width="166.36" height="232.9" rx="5.94"/><path class="cls-2" d="M160.53,233.13H6.06a6.07,6.07,0,0,1-6.06-6V6.06A6.07,6.07,0,0,1,6.06,0H160.53a6.07,6.07,0,0,1,6.06,6.06v221A6.07,6.07,0,0,1,160.53,233.13ZM6.06.23A5.83,5.83,0,0,0,.23,6.06v221a5.83,5.83,0,0,0,5.83,5.82H160.53a5.83,5.83,0,0,0,5.83-5.82V6.06A5.84,5.84,0,0,0,160.53.23Z"/><path class="cls-3" d="M90.19,21.25c-5.48-.13-6.75,4.06-7,6.07-.29-2-1.55-6.2-7-6.07-7.21.18-8.17,8.25-5.65,12.34a37.85,37.85,0,0,0,6.34,8c2.37,2.45,5.21,5.21,6.26,6.9,0,0,.05.2.08.15s.09-.15.09-.15c1.05-1.69,3.88-4.45,6.25-6.9a37.85,37.85,0,0,0,6.34-8C98.35,29.5,97.4,21.43,90.19,21.25Z"/><path class="cls-3" d="M90.19,97.05c-5.48-.13-6.75,4-7,6.07-.29-2-1.55-6.2-7-6.07-7.21.17-8.17,8.25-5.65,12.33a37.6,37.6,0,0,0,6.34,8c2.37,2.46,5.21,5.22,6.26,6.91,0,0,.05.2.08.14s.09-.14.09-.14c1.05-1.69,3.88-4.45,6.25-6.91a37.6,37.6,0,0,0,6.34-8C98.35,105.3,97.4,97.22,90.19,97.05Z"/><path class="cls-3" d="M90.19,200.23c-5.48.13-6.75-4.06-7-6.07-.29,2-1.55,6.2-7,6.07-7.21-.18-8.17-8.25-5.65-12.34a37.85,37.85,0,0,1,6.34-8c2.37-2.45,5.21-5.21,6.26-6.91,0,0,.05-.19.08-.14s.09.14.09.14c1.05,1.7,3.88,4.46,6.25,6.91a37.85,37.85,0,0,1,6.34,8C98.35,192,97.4,200.05,90.19,200.23Z"/><path class="cls-3" d="M20.75,29.13a2.26,2.26,0,0,0-2.44,2.1,2.26,2.26,0,0,0-2.44-2.1c-2.5.06-2.83,2.86-2,4.28a13.44,13.44,0,0,0,2.2,2.77,20.67,20.67,0,0,1,2.17,2.4s0,.06,0,.05,0-.05,0-.05a20.67,20.67,0,0,1,2.17-2.4,13.12,13.12,0,0,0,2.2-2.77C23.58,32,23.25,29.19,20.75,29.13Z"/><path class="cls-4" d="M14.54,24.46a2.2,2.2,0,0,1-1-1.95,1.83,1.83,0,0,1,.4-1.2A1.36,1.36,0,0,1,15,20.82a1.22,1.22,0,0,1,.88.3,1.06,1.06,0,0,1,.32.83,1.08,1.08,0,0,1-.24.7.77.77,0,0,1-.63.3c-.45,0-.68.11-.68.33,0,.82.82,1.23,2.45,1.23a2.27,2.27,0,0,0,2-1,4.21,4.21,0,0,0,.64-2.33,3.52,3.52,0,0,0-.67-2.33,2.1,2.1,0,0,0-1.64-.78,2.87,2.87,0,0,0-.48,0,4.25,4.25,0,0,0-.46.14,3.37,3.37,0,0,1-1,.21,1,1,0,0,1-.51-.13.5.5,0,0,1,0-.82,1,1,0,0,1,.52-.14,6.78,6.78,0,0,1,.92.1,7.29,7.29,0,0,0,1.06.06A1.57,1.57,0,0,0,19,16.72a3.79,3.79,0,0,0,.5-1.94,3.54,3.54,0,0,0-.59-2.09,1.92,1.92,0,0,0-1.69-.84,2.76,2.76,0,0,0-1.62.37,1.08,1.08,0,0,0-.47.84.64.64,0,0,0,.13.36,1.11,1.11,0,0,0,.37.3,1,1,0,0,1,.7.95.9.9,0,0,1-.27.67,1.1,1.1,0,0,1-.78.26,1.27,1.27,0,0,1-1-.48,1.53,1.53,0,0,1-.41-1,2.42,2.42,0,0,1,1-2.1,4.26,4.26,0,0,1,2.52-.74,4.19,4.19,0,0,1,2.84.94,3.14,3.14,0,0,1,1.08,2.48,2.76,2.76,0,0,1-.38,1.44,3.25,3.25,0,0,1-1,1,3.29,3.29,0,0,1-1.16.54v.15a3.85,3.85,0,0,1,1.34.55,4.05,4.05,0,0,1,1.19,1.18,3,3,0,0,1,.48,1.69,3.37,3.37,0,0,1-.64,2.06,4.09,4.09,0,0,1-1.72,1.36,5.74,5.74,0,0,1-2.37.48A4.55,4.55,0,0,1,14.54,24.46Z"/><path class="cls-3" d="M152.23,205.45a2.2,2.2,0,0,1,1,2,1.81,1.81,0,0,1-.41,1.19,1.3,1.3,0,0,1-1.06.5,1.26,1.26,0,0,1-.89-.3,1.21,1.21,0,0,1-.08-1.54.8.8,0,0,1,.64-.3c.45,0,.67-.11.67-.33,0-.81-.81-1.22-2.44-1.22a2.26,2.26,0,0,0-2,1,4.18,4.18,0,0,0-.63,2.33,3.48,3.48,0,0,0,.67,2.33,2.07,2.07,0,0,0,1.64.77,3.23,3.23,0,0,0,.48,0l.45-.14a3.5,3.5,0,0,1,1-.21,1,1,0,0,1,.52.13.45.45,0,0,1,.22.41.46.46,0,0,1-.21.41,1,1,0,0,1-.53.13,6.36,6.36,0,0,1-.91-.09,7.35,7.35,0,0,0-1.07-.06,1.56,1.56,0,0,0-1.42.84,3.78,3.78,0,0,0-.5,1.93,3.66,3.66,0,0,0,.58,2.1,1.92,1.92,0,0,0,1.69.83,2.64,2.64,0,0,0,1.62-.37,1,1,0,0,0,.48-.83.61.61,0,0,0-.14-.36,1,1,0,0,0-.37-.3,1,1,0,0,1-.7-.95.9.9,0,0,1,.28-.67,1.09,1.09,0,0,1,.77-.26,1.28,1.28,0,0,1,1,.47,1.57,1.57,0,0,1,.42,1.06,2.42,2.42,0,0,1-1,2.1,4.23,4.23,0,0,1-2.51.74,4.17,4.17,0,0,1-2.85-1,3.13,3.13,0,0,1-1.07-2.47,2.71,2.71,0,0,1,.38-1.45,3.35,3.35,0,0,1,.95-1,3.4,3.4,0,0,1,1.15-.53v-.15a4,4,0,0,1-1.34-.56,3.87,3.87,0,0,1-1.18-1.17,3,3,0,0,1-.49-1.69,3.48,3.48,0,0,1,.64-2.07,4.16,4.16,0,0,1,1.72-1.36,6,6,0,0,1,2.38-.47A4.51,4.51,0,0,1,152.23,205.45Z"/><path class="cls-3" d="M151.06,200.36a2.25,2.25,0,0,1-2.44-2.1,2.24,2.24,0,0,1-2.44,2.1c-2.5-.06-2.83-2.86-2-4.27a13.19,13.19,0,0,1,2.19-2.78,20.6,20.6,0,0,0,2.17-2.39s0-.07,0,0,0,0,0,0a22.62,22.62,0,0,0,2.17,2.39,12.89,12.89,0,0,1,2.2,2.78C153.9,197.5,153.57,200.3,151.06,200.36Z"/></g></g></svg>