<svg xmlns="http://www.w3.org/2000/svg" viewBox="0 0 166.59 233.13"><defs><style>.cls-1{fill:#fff;}.cls-2{fill:#65a7dd;}.cls-3{fill:#151515;}</style></defs><g id="Calque_2" data-name="Calque 2"><g id="Objects"><rect class="cls-1" x="0.12" y="0.12" width="166.36" height="232.9" rx="5.94"/><path class="cls-2" d="M160.53,233.13H6.06a6.07,6.07,0,0,1-6.06-6V6.06A6.07,6.07,0,0,1,6.06,0H160.53a6.07,6.07,0,0,1,6.06,6.06v221A6.07,6.07,0,0,1,160.53,233.13ZM6.06.23A5.83,5.83,0,0,0,.23,6.06v221a5.83,5.83,0,0,0,5.83,5.82H160.53a5.83,5.83,0,0,0,5.83-5.82V6.06A5.84,5.84,0,0,0,160.53.23Z"/><path class="cls-3" d="M22.67,31.36c-1.07-1.17-2.31-2.31-2.84-2.91-.39-.45-.66-.79-.78-.93v-.07l0,0,0,0v.07c-.11.14-.39.48-.78.93-.52.6-1.77,1.74-2.84,2.91a3.54,3.54,0,0,0-.95,3.31,2.37,2.37,0,0,0,2.81,1.68,1.76,1.76,0,0,0,1.13-.6,3.74,3.74,0,0,1-.92,2.09h3.09a4.09,4.09,0,0,1-.84-2.08,1.8,1.8,0,0,0,1.13.59,2.37,2.37,0,0,0,2.81-1.68A3.55,3.55,0,0,0,22.67,31.36Z"/><path d="M15.66,23.69a2.21,2.21,0,0,1-1-2,1.81,1.81,0,0,1,.41-1.19,1.32,1.32,0,0,1,1.07-.5,1.24,1.24,0,0,1,.88.3,1.1,1.1,0,0,1,.32.83,1.08,1.08,0,0,1-.24.7.77.77,0,0,1-.63.3c-.46,0-.68.12-.68.33,0,.82.81,1.23,2.44,1.23a2.27,2.27,0,0,0,2.05-1,4.21,4.21,0,0,0,.63-2.33,3.47,3.47,0,0,0-.67-2.33,2.07,2.07,0,0,0-1.64-.78,2.84,2.84,0,0,0-.47,0,3.23,3.23,0,0,0-.46.14,3.5,3.5,0,0,1-1,.21.94.94,0,0,1-.51-.13.47.47,0,0,1-.23-.41.45.45,0,0,1,.22-.41.94.94,0,0,1,.52-.14,6.67,6.67,0,0,1,.91.1,7.45,7.45,0,0,0,1.07.06A1.57,1.57,0,0,0,20.08,16,3.78,3.78,0,0,0,20.57,14,3.53,3.53,0,0,0,20,11.92a1.93,1.93,0,0,0-1.69-.84,2.76,2.76,0,0,0-1.62.37,1.05,1.05,0,0,0-.47.84.64.64,0,0,0,.13.36,1,1,0,0,0,.37.3,1,1,0,0,1,.7,1,.9.9,0,0,1-.27.67,1.1,1.1,0,0,1-.78.26,1.27,1.27,0,0,1-1-.48,1.54,1.54,0,0,1-.42-1,2.42,2.42,0,0,1,1-2.1,4.24,4.24,0,0,1,2.52-.74,4.21,4.21,0,0,1,2.84.94,3.14,3.14,0,0,1,1.08,2.48,2.76,2.76,0,0,1-.38,1.44,3.25,3.25,0,0,1-.95,1,3.37,3.37,0,0,1-1.16.54V17a4.07,4.07,0,0,1,2.52,1.73A2.94,2.94,0,0,1,23,20.46a3.37,3.37,0,0,1-.64,2.06,4.09,4.09,0,0,1-1.72,1.36,5.78,5.78,0,0,1-2.38.48A4.51,4.51,0,0,1,15.66,23.69Z"/><path d="M153.35,204.68a2.21,2.21,0,0,1,1,1.95,1.81,1.81,0,0,1-.41,1.19,1.32,1.32,0,0,1-1.07.5,1.24,1.24,0,0,1-.88-.3,1.21,1.21,0,0,1-.08-1.54.77.77,0,0,1,.63-.3c.46,0,.68-.11.68-.33,0-.81-.81-1.22-2.44-1.22a2.25,2.25,0,0,0-2,1,4.18,4.18,0,0,0-.63,2.33,3.47,3.47,0,0,0,.67,2.33,2.07,2.07,0,0,0,1.64.78,2.84,2.84,0,0,0,.47,0,3.23,3.23,0,0,0,.46-.14,3.5,3.5,0,0,1,1-.21.94.94,0,0,1,.51.13.45.45,0,0,1,.23.41.45.45,0,0,1-.22.41.93.93,0,0,1-.52.13,6.36,6.36,0,0,1-.91-.09,7.45,7.45,0,0,0-1.07-.06,1.57,1.57,0,0,0-1.43.84,3.77,3.77,0,0,0-.49,1.93,3.56,3.56,0,0,0,.58,2.1,1.93,1.93,0,0,0,1.69.84,2.76,2.76,0,0,0,1.62-.37,1.05,1.05,0,0,0,.47-.84.64.64,0,0,0-.13-.36,1,1,0,0,0-.37-.3,1,1,0,0,1-.7-.95.9.9,0,0,1,.27-.67,1.1,1.1,0,0,1,.78-.26,1.27,1.27,0,0,1,1,.48,1.53,1.53,0,0,1,.42,1,2.42,2.42,0,0,1-1,2.1,4.24,4.24,0,0,1-2.52.74,4.17,4.17,0,0,1-2.84-.95,3.1,3.1,0,0,1-1.07-2.47A2.79,2.79,0,0,1,147,213a3.33,3.33,0,0,1,1-1,3.37,3.37,0,0,1,1.16-.54v-.15a4,4,0,0,1-1.34-.56,3.76,3.76,0,0,1-1.18-1.17,3,3,0,0,1-.49-1.69,3.42,3.42,0,0,1,.64-2.07,4.14,4.14,0,0,1,1.72-1.35,5.78,5.78,0,0,1,2.38-.48A4.51,4.51,0,0,1,153.35,204.68Z"/><path class="cls-3" d="M97.13,35.33c-3.68-4-7.95-7.92-9.74-10-1.34-1.54-2.29-2.71-2.68-3.2v-.25a1,1,0,0,1-.1.13l-.1-.13v.25c-.39.49-1.34,1.66-2.68,3.2-1.79,2.05-6.06,6-9.73,10a12.18,12.18,0,0,0-3.28,11.34c.69,3.32,4.17,6.45,9.63,5.77a6.16,6.16,0,0,0,3.89-2.06,12.74,12.74,0,0,1-3.16,7.15h10.6a13.54,13.54,0,0,1-2.87-7.13,6,6,0,0,0,3.86,2c5.46.68,8.94-2.45,9.64-5.77A12.23,12.23,0,0,0,97.13,35.33Z"/><path class="cls-3" d="M97.13,111.91c-3.68-4-7.95-7.92-9.74-10-1.34-1.54-2.29-2.71-2.68-3.2v-.25l-.1.12-.1-.12v.25c-.39.49-1.34,1.66-2.68,3.2-1.79,2-6.06,6-9.73,10a12.17,12.17,0,0,0-3.28,11.34c.69,3.32,4.17,6.45,9.63,5.76A6.07,6.07,0,0,0,82.34,127a12.69,12.69,0,0,1-3.16,7.15h10.6A13.54,13.54,0,0,1,86.91,127a6.08,6.08,0,0,0,3.86,2c5.46.69,8.94-2.44,9.64-5.76A12.22,12.22,0,0,0,97.13,111.91Z"/><path class="cls-3" d="M97.13,194.75c-3.68,4-7.95,7.92-9.74,10-1.34,1.53-2.29,2.7-2.68,3.19v.25l-.1-.12-.1.12v-.25c-.39-.49-1.34-1.66-2.68-3.19-1.79-2.06-6.06-6-9.73-10a12.15,12.15,0,0,1-3.28-11.33c.69-3.33,4.17-6.46,9.63-5.77a6.07,6.07,0,0,1,3.89,2.06,12.74,12.74,0,0,0-3.16-7.15h10.6a13.54,13.54,0,0,0-2.87,7.12,6.08,6.08,0,0,1,3.86-2c5.46-.69,8.94,2.44,9.64,5.77A12.2,12.2,0,0,1,97.13,194.75Z"/><path class="cls-3" d="M153,197.51c-1.08,1.16-2.32,2.31-2.84,2.9s-.67.79-.79.94v.07l0,0,0,0v-.07c-.12-.15-.39-.49-.79-.94s-1.76-1.74-2.83-2.9a3.55,3.55,0,0,1-1-3.31,2.37,2.37,0,0,1,2.81-1.68,1.74,1.74,0,0,1,1.13.6,3.74,3.74,0,0,0-.92-2.09h3.09a4,4,0,0,0-.83,2.08,1.73,1.73,0,0,1,1.12-.59,2.37,2.37,0,0,1,2.81,1.68A3.54,3.54,0,0,1,153,197.51Z"/></g></g></svg>