<svg xmlns="http://www.w3.org/2000/svg" viewBox="0 0 166.59 233.13"><defs><style>.cls-1{fill:#fff;}.cls-2{fill:#65a7dd;}.cls-3{fill:#151515;}.cls-4{fill:#272425;}</style></defs><g id="Calque_2" data-name="Calque 2"><g id="Objects"><rect class="cls-1" x="0.12" y="0.12" width="166.36" height="232.9" rx="5.94"/><path class="cls-2" d="M160.53,233.13H6.06a6.07,6.07,0,0,1-6.06-6V6.06A6.07,6.07,0,0,1,6.06,0H160.53a6.07,6.07,0,0,1,6.06,6.06v221A6.07,6.07,0,0,1,160.53,233.13ZM6.06.23A5.83,5.83,0,0,0,.23,6.06v221a5.83,5.83,0,0,0,5.83,5.82H160.53a5.83,5.83,0,0,0,5.83-5.82V6.06A5.84,5.84,0,0,0,160.53.23Z"/><path class="cls-3" d="M98,41.32c-3.57-3.91-9.07-1.59-9.07-1.59,1.54-1.64,2.56-2.95,2.37-5.64a2.44,2.44,0,0,0,0-.27,7.75,7.75,0,1,0-15.5,0,8.2,8.2,0,0,0,.16,1.57c.18,1.86,1.1,3,2.37,4.34,0,0-5.5-2.32-9.07,1.59a8.09,8.09,0,0,0-.67,10.06c1.13,1.53,2.82,4.08,6.79,3.79,3.52-.26,4-.86,6.46-2.79a16,16,0,0,1-3.51,8.94H88.9c-2-2-3.67-6.75-3.44-8.89,2.36,1.89,2.9,2.48,6.39,2.74,4,.29,5.66-2.26,6.79-3.79A8.09,8.09,0,0,0,98,41.32Z"/><path class="cls-3" d="M98,111.32c-3.57-3.9-9.07-1.59-9.07-1.59,1.54-1.64,2.56-2.94,2.37-5.63a2.72,2.72,0,0,0,0-.28,7.75,7.75,0,0,0-15.5,0,8,8,0,0,0,.16,1.57c.18,1.87,1.1,3,2.37,4.34,0,0-5.5-2.31-9.07,1.59a8.11,8.11,0,0,0-.67,10.07c1.13,1.52,2.82,4.08,6.79,3.78,3.52-.26,4-.86,6.46-2.79a16,16,0,0,1-3.51,8.94H88.9c-2-2-3.67-6.75-3.44-8.89,2.36,1.89,2.9,2.48,6.39,2.74,4,.3,5.66-2.26,6.79-3.78A8.11,8.11,0,0,0,98,111.32Z"/><path class="cls-3" d="M98,185.47c-3.57,3.9-9.07,1.59-9.07,1.59,1.54,1.64,2.56,2.94,2.37,5.63a2.72,2.72,0,0,1,0,.28,7.75,7.75,0,0,1-15.5,0,8,8,0,0,1,.16-1.57c.18-1.87,1.1-3,2.37-4.34,0,0-5.5,2.31-9.07-1.59a8.11,8.11,0,0,1-.67-10.07c1.13-1.52,2.82-4.08,6.79-3.78,3.52.26,4,.86,6.46,2.79a16,16,0,0,0-3.51-8.94H88.9c-2,2.05-3.67,6.74-3.44,8.89,2.36-1.89,2.9-2.48,6.39-2.74,4-.3,5.66,2.26,6.79,3.78A8.11,8.11,0,0,1,98,185.47Z"/><path class="cls-4" d="M15.27,24.89a2.21,2.21,0,0,1-1-1.95,1.84,1.84,0,0,1,.41-1.2,1.31,1.31,0,0,1,1.07-.49,1.25,1.25,0,0,1,.88.3,1.08,1.08,0,0,1,.32.82,1.09,1.09,0,0,1-.24.71.8.8,0,0,1-.63.3c-.46,0-.68.11-.68.33,0,.82.81,1.23,2.44,1.23a2.26,2.26,0,0,0,2.05-1,4.15,4.15,0,0,0,.63-2.32,3.45,3.45,0,0,0-.67-2.33,2.08,2.08,0,0,0-1.64-.78,2.05,2.05,0,0,0-.47,0,3.23,3.23,0,0,0-.46.14,3.5,3.5,0,0,1-1,.21,1,1,0,0,1-.52-.14.49.49,0,0,1,0-.81,1,1,0,0,1,.53-.14,5.37,5.37,0,0,1,.91.1,7.45,7.45,0,0,0,1.07.06,1.56,1.56,0,0,0,1.43-.85,3.82,3.82,0,0,0,.49-1.93,3.53,3.53,0,0,0-.58-2.09,1.93,1.93,0,0,0-1.69-.84,2.68,2.68,0,0,0-1.62.37,1,1,0,0,0-.48.83.61.61,0,0,0,.14.36.85.85,0,0,0,.37.3,1,1,0,0,1,.7,1,.88.88,0,0,1-.28.67A1.09,1.09,0,0,1,16,16a1.26,1.26,0,0,1-1-.48,1.57,1.57,0,0,1-.42-1.06,2.42,2.42,0,0,1,1-2.09,4.23,4.23,0,0,1,2.51-.74A4.17,4.17,0,0,1,21,12.6,3.15,3.15,0,0,1,22,15.08a2.67,2.67,0,0,1-.38,1.44,3.14,3.14,0,0,1-.95,1,3.21,3.21,0,0,1-1.15.53v.16A4,4,0,0,1,22.08,20a2.94,2.94,0,0,1,.49,1.69,3.48,3.48,0,0,1-.64,2.06,4.16,4.16,0,0,1-1.72,1.36,5.78,5.78,0,0,1-2.38.48A4.59,4.59,0,0,1,15.27,24.89Z"/><path class="cls-4" d="M153,207a2.17,2.17,0,0,1,1,2,1.78,1.78,0,0,1-.41,1.19,1.3,1.3,0,0,1-1.06.5,1.22,1.22,0,0,1-.89-.31,1.08,1.08,0,0,1-.32-.82,1.06,1.06,0,0,1,.25-.71.77.77,0,0,1,.63-.3c.45,0,.68-.11.68-.33,0-.81-.82-1.22-2.45-1.22a2.26,2.26,0,0,0-2,1,4.18,4.18,0,0,0-.63,2.33,3.54,3.54,0,0,0,.67,2.33,2.12,2.12,0,0,0,1.64.77,2.15,2.15,0,0,0,.48,0,3.32,3.32,0,0,0,.45-.13,3.59,3.59,0,0,1,1-.22,1,1,0,0,1,.52.14.45.45,0,0,1,.22.41.46.46,0,0,1-.21.41,1,1,0,0,1-.53.13,5.37,5.37,0,0,1-.91-.1,9.55,9.55,0,0,0-1.07-.05,1.56,1.56,0,0,0-1.42.84,3.75,3.75,0,0,0-.5,1.93,3.66,3.66,0,0,0,.58,2.1,2,2,0,0,0,1.69.83,2.64,2.64,0,0,0,1.62-.37,1,1,0,0,0,.48-.83.61.61,0,0,0-.14-.36,1,1,0,0,0-.37-.3,1,1,0,0,1-.69-.95.89.89,0,0,1,.27-.67,1,1,0,0,1,.77-.26,1.26,1.26,0,0,1,1,.47,1.57,1.57,0,0,1,.42,1.06,2.41,2.41,0,0,1-1,2.1,4.23,4.23,0,0,1-2.51.73,4.14,4.14,0,0,1-2.84-.94,3.12,3.12,0,0,1-1.08-2.47,2.77,2.77,0,0,1,.38-1.45,3.35,3.35,0,0,1,.95-1,3.48,3.48,0,0,1,1.15-.53v-.16a3.81,3.81,0,0,1-1.34-.55,3.87,3.87,0,0,1-1.18-1.17,3.06,3.06,0,0,1-.48-1.69,3.42,3.42,0,0,1,.64-2.07,4.13,4.13,0,0,1,1.71-1.36,6,6,0,0,1,2.38-.47A4.49,4.49,0,0,1,153,207Z"/><path class="cls-3" d="M14.13,34.23a2.45,2.45,0,0,0,2.62.46,1.9,1.9,0,0,0-.69,1.63v.07a2.24,2.24,0,1,0,4.48,0,2.3,2.3,0,0,0-.05-.45,2,2,0,0,0-.68-1.25,2.45,2.45,0,0,0,2.62-.46,2.34,2.34,0,0,0,.19-2.91,2.08,2.08,0,0,0-2-1.1A2.54,2.54,0,0,0,18.8,31a4.6,4.6,0,0,1,1-2.58H16.75a4.32,4.32,0,0,1,1,2.57,2.5,2.5,0,0,0-1.84-.8,2.08,2.08,0,0,0-2,1.1A2.32,2.32,0,0,0,14.13,34.23Z"/><path class="cls-3" d="M144.44,197.36a2.45,2.45,0,0,1,2.62-.46,1.9,1.9,0,0,1-.68-1.63s0-.05,0-.07a2.24,2.24,0,0,1,4.48,0,2.28,2.28,0,0,1,0,.45,2,2,0,0,1-.69,1.25,2.45,2.45,0,0,1,2.62.46,2.34,2.34,0,0,1,.2,2.91,2.11,2.11,0,0,1-2,1.1,2.54,2.54,0,0,1-1.86-.81,4.6,4.6,0,0,0,1,2.58h-3.06a4.4,4.4,0,0,0,1-2.57,2.53,2.53,0,0,1-1.85.8,2.08,2.08,0,0,1-2-1.1A2.34,2.34,0,0,1,144.44,197.36Z"/></g></g></svg>