<svg xmlns="http://www.w3.org/2000/svg" viewBox="0 0 166.48 233.07"><defs><style>.cls-1{fill:#fff;}.cls-2{fill:#65a7dd;}.cls-3{fill:#af0f07;}.cls-4{fill:#a43e32;}</style></defs><g id="Calque_2" data-name="Calque 2"><g id="Objects"><rect class="cls-1" x="0.11" y="0.11" width="166.25" height="232.84" rx="5.94"/><path class="cls-2" d="M160.43,233.07H6.05a6.06,6.06,0,0,1-6-6V6.05A6.06,6.06,0,0,1,6.05,0H160.43a6.06,6.06,0,0,1,6,6.05V227A6.06,6.06,0,0,1,160.43,233.07ZM6.05.23A5.83,5.83,0,0,0,.23,6.05V227a5.83,5.83,0,0,0,5.82,5.82H160.43a5.83,5.83,0,0,0,5.82-5.82V6.05A5.83,5.83,0,0,0,160.43.23Z"/><circle class="cls-1" cx="148.53" cy="18.48" r="0.57"/><circle class="cls-1" cx="121.42" cy="18.48" r="0.57"/><circle class="cls-1" cx="71.45" cy="18.66" r="0.57"/><circle class="cls-1" cx="148.53" cy="39.61" r="0.57"/><circle class="cls-1" cx="148.53" cy="58.9" r="0.57"/><circle class="cls-1" cx="18.32" cy="19.04" r="0.57"/><path class="cls-1" d="M46.31,18.66a.57.57,0,0,1-.57.57.58.58,0,0,1-.57-.57.57.57,0,0,1,.57-.57A.56.56,0,0,1,46.31,18.66Z"/><circle class="cls-1" cx="18.32" cy="39.16" r="0.57"/><circle class="cls-1" cx="18.32" cy="59.03" r="0.57"/><circle class="cls-1" cx="18.32" cy="78.97" r="0.57"/><circle class="cls-1" cx="18.32" cy="91.89" r="0.57"/><circle class="cls-1" cx="18.32" cy="105.29" r="0.57"/><circle class="cls-1" cx="18.32" cy="118.21" r="0.57"/><circle class="cls-1" cx="18.32" cy="169.95" r="0.57"/><path class="cls-1" d="M18.89,183.35a.57.57,0,1,1-.57-.57A.57.57,0,0,1,18.89,183.35Z"/><circle class="cls-1" cx="18.32" cy="196.39" r="0.57"/><path class="cls-1" d="M19.12,215.57a.57.57,0,0,1-.57.57.57.57,0,0,1,0-1.14A.57.57,0,0,1,19.12,215.57Z"/><path class="cls-1" d="M66.07,216.14a.58.58,0,0,1-.57.57.57.57,0,0,1-.57-.57.56.56,0,0,1,.57-.57A.57.57,0,0,1,66.07,216.14Z"/><circle class="cls-1" cx="91.89" cy="216.14" r="0.57"/><circle class="cls-1" cx="117.59" cy="216.14" r="0.57"/><circle class="cls-1" cx="148.53" cy="156.61" r="0.57"/><circle class="cls-1" cx="148.53" cy="169.36" r="0.57"/><circle class="cls-1" cx="148.53" cy="181.94" r="0.57"/><circle class="cls-1" cx="148.53" cy="194.77" r="0.57"/><circle class="cls-1" cx="148.53" cy="214.34" r="0.57"/><polygon class="cls-3" points="19.18 24.43 14.46 29.65 18.67 35.37 23.51 30.12 19.18 24.43"/><polygon class="cls-3" points="146.93 188.47 142.21 193.69 146.42 199.42 151.26 194.16 146.93 188.47"/><path class="cls-4" d="M15.67,20.7h1.89a.54.54,0,0,0,.39-.12.48.48,0,0,0,.13-.39v-2.6H13.15V16.9l6-8.87h.7V16.9h2.35v.69H19.86v2.6a.48.48,0,0,0,.13.39.56.56,0,0,0,.4.12h1.88v.62h-6.6ZM14,16.9h4V11Z"/><path class="cls-3" d="M150.87,202.16H149a.58.58,0,0,0-.4.12.54.54,0,0,0-.12.39v2.6h4.92v.7l-6,8.86h-.7V206h-2.35v-.7h2.35v-2.6a.5.5,0,0,0-.13-.39.54.54,0,0,0-.39-.12h-1.89v-.62h6.6ZM152.5,206h-4v5.93Z"/><polygon class="cls-3" points="55.33 17.29 42.04 33.44 55.33 49.84 68.97 33.57 55.33 17.29"/><polygon class="cls-3" points="55.33 166.86 42.04 183.01 55.33 199.42 68.97 183.14 55.33 166.86"/><polygon class="cls-3" points="111.67 17.29 98.38 33.44 111.67 49.84 125.31 33.57 111.67 17.29"/><polygon class="cls-3" points="111.67 166.86 98.38 183.01 111.67 199.42 125.31 183.14 111.67 166.86"/></g></g></svg>