<svg xmlns="http://www.w3.org/2000/svg" viewBox="0 0 166.59 233.13"><defs><style>.cls-1{fill:#fff;}.cls-2{fill:#65a7dd;}.cls-3{fill:#af0f07;}.cls-4{fill:#a43e32;}</style></defs><g id="Calque_2" data-name="Calque 2"><g id="Objects"><rect class="cls-1" x="0.12" y="0.12" width="166.36" height="232.9" rx="5.94"/><path class="cls-2" d="M160.53,233.13H6.06a6.07,6.07,0,0,1-6.06-6V6.06A6.07,6.07,0,0,1,6.06,0H160.53a6.07,6.07,0,0,1,6.06,6.06v221A6.07,6.07,0,0,1,160.53,233.13ZM6.06.23A5.83,5.83,0,0,0,.23,6.06v221a5.83,5.83,0,0,0,5.83,5.82H160.53a5.83,5.83,0,0,0,5.83-5.82V6.06A5.84,5.84,0,0,0,160.53.23Z"/><path class="cls-1" d="M149.2,18.48a.58.58,0,0,1-.57.57.57.57,0,1,1,0-1.14A.58.58,0,0,1,149.2,18.48Z"/><path class="cls-1" d="M122.07,18.48a.58.58,0,0,1-.57.57.57.57,0,1,1,0-1.14A.58.58,0,0,1,122.07,18.48Z"/><path class="cls-1" d="M72.06,18.66a.56.56,0,0,1-.57.57.57.57,0,1,1,0-1.13A.56.56,0,0,1,72.06,18.66Z"/><path class="cls-1" d="M149.2,39.62a.57.57,0,0,1-.57.57.56.56,0,0,1-.57-.57.57.57,0,0,1,.57-.57A.58.58,0,0,1,149.2,39.62Z"/><path class="cls-1" d="M149.2,58.91a.57.57,0,0,1-.57.57.57.57,0,1,1,.57-.57Z"/><path class="cls-1" d="M18.9,19.05a.57.57,0,0,1-.57.57.57.57,0,0,1,0-1.14A.57.57,0,0,1,18.9,19.05Z"/><path class="cls-1" d="M46.34,18.66a.56.56,0,0,1-.57.57.57.57,0,1,1,0-1.13A.56.56,0,0,1,46.34,18.66Z"/><path class="cls-1" d="M18.9,39.17a.56.56,0,0,1-.57.57.57.57,0,0,1-.57-.57.58.58,0,0,1,.57-.57A.57.57,0,0,1,18.9,39.17Z"/><path class="cls-1" d="M18.9,59.05a.56.56,0,0,1-.57.56.57.57,0,1,1,.57-.56Z"/><path class="cls-1" d="M18.9,79a.57.57,0,0,1-.57.57.57.57,0,1,1,0-1.14A.57.57,0,0,1,18.9,79Z"/><path class="cls-1" d="M18.9,91.91a.56.56,0,0,1-.57.57.57.57,0,1,1,0-1.13A.56.56,0,0,1,18.9,91.91Z"/><path class="cls-1" d="M18.9,105.31a.56.56,0,0,1-.57.57.57.57,0,0,1-.57-.57.58.58,0,0,1,.57-.57A.57.57,0,0,1,18.9,105.31Z"/><path class="cls-1" d="M18.9,118.24a.56.56,0,0,1-.57.57.57.57,0,1,1,0-1.13A.56.56,0,0,1,18.9,118.24Z"/><path class="cls-1" d="M18.9,170a.56.56,0,0,1-.57.56.57.57,0,1,1,.57-.56Z"/><path class="cls-1" d="M18.9,183.39a.56.56,0,0,1-.57.57.57.57,0,0,1-.57-.57.58.58,0,0,1,.57-.57A.57.57,0,0,1,18.9,183.39Z"/><path class="cls-1" d="M18.9,196.44a.56.56,0,0,1-.57.57.57.57,0,0,1-.57-.57.58.58,0,0,1,.57-.57A.57.57,0,0,1,18.9,196.44Z"/><path class="cls-1" d="M19.13,215.63a.57.57,0,0,1-.57.57.58.58,0,0,1-.57-.57.57.57,0,0,1,.57-.57A.56.56,0,0,1,19.13,215.63Z"/><path class="cls-1" d="M66.11,216.2a.57.57,0,1,1-.57-.57A.57.57,0,0,1,66.11,216.2Z"/><path class="cls-1" d="M92.51,216.2a.57.57,0,1,1-.57-.57A.56.56,0,0,1,92.51,216.2Z"/><path class="cls-1" d="M118.24,216.2a.57.57,0,0,1-.57.56.57.57,0,1,1,0-1.13A.57.57,0,0,1,118.24,216.2Z"/><path class="cls-1" d="M149.2,156.65a.57.57,0,0,1-.57.57.56.56,0,0,1-.57-.57.57.57,0,0,1,.57-.57A.58.58,0,0,1,149.2,156.65Z"/><path class="cls-1" d="M149.2,169.41a.58.58,0,0,1-.57.57.57.57,0,0,1-.57-.57.56.56,0,0,1,.57-.57A.57.57,0,0,1,149.2,169.41Z"/><path class="cls-1" d="M149.2,182a.57.57,0,0,1-.57.57.56.56,0,0,1-.57-.57.57.57,0,0,1,.57-.57A.58.58,0,0,1,149.2,182Z"/><path class="cls-1" d="M149.2,194.82a.57.57,0,0,1-.57.57.56.56,0,0,1-.57-.57.57.57,0,0,1,.57-.57A.58.58,0,0,1,149.2,194.82Z"/><path class="cls-1" d="M149.2,214.39a.57.57,0,0,1-.57.57.56.56,0,0,1-.57-.57.57.57,0,0,1,.57-.57A.58.58,0,0,1,149.2,214.39Z"/><path class="cls-3" d="M20.77,29.13a2.26,2.26,0,0,0-2.44,2.1,2.26,2.26,0,0,0-2.44-2.1c-2.5.06-2.83,2.86-2,4.28a13.12,13.12,0,0,0,2.2,2.77,20.67,20.67,0,0,1,2.17,2.4s0,.06,0,.05,0-.05,0-.05a20.67,20.67,0,0,1,2.17-2.4,13.44,13.44,0,0,0,2.2-2.77C23.6,32,23.27,29.19,20.77,29.13Z"/><path class="cls-4" d="M16.15,24.2H18a.58.58,0,0,0,.4-.12.54.54,0,0,0,.12-.39v-2.6H13.63v-.7l6-8.87h.7v8.87h2.35v.7H20.34v2.6a.5.5,0,0,0,.13.39.54.54,0,0,0,.39.12h1.89v.62h-6.6Zm-1.63-3.81h4V14.45Z"/><path class="cls-3" d="M151.43,205.71h-1.89a.54.54,0,0,0-.39.12.47.47,0,0,0-.13.39v2.6H154v.69l-6,8.87h-.69v-8.87h-2.35v-.69h2.35v-2.6a.5.5,0,0,0-.13-.39.56.56,0,0,0-.4-.12h-1.88v-.62h6.6Zm1.63,3.8h-4v5.94Z"/><path class="cls-3" d="M151.08,200.36a2.25,2.25,0,0,1-2.44-2.1,2.25,2.25,0,0,1-2.44,2.1c-2.5-.06-2.83-2.86-2-4.27a13.53,13.53,0,0,1,2.2-2.78,20.6,20.6,0,0,0,2.17-2.39s0-.07,0,0,0,0,0,0a22.62,22.62,0,0,0,2.17,2.39,12.89,12.89,0,0,1,2.2,2.78C153.92,197.5,153.58,200.3,151.08,200.36Z"/><path class="cls-3" d="M64.64,25c-5.48-.13-6.74,4.06-7,6.07-.29-2-1.56-6.2-7-6.07-7.21.18-8.16,8.26-5.65,12.34a37.86,37.86,0,0,0,6.35,8c2.37,2.45,5.2,5.22,6.25,6.91,0,0,.06.19.09.14s.08-.14.08-.14c1.05-1.69,3.88-4.46,6.26-6.91a37.85,37.85,0,0,0,6.34-8C72.81,33.21,71.85,25.13,64.64,25Z"/><path class="cls-3" d="M64.64,199.31c-5.48.13-6.74-4.06-7-6.07-.29,2-1.56,6.2-7,6.07-7.21-.18-8.16-8.25-5.65-12.34a37.86,37.86,0,0,1,6.35-8c2.37-2.45,5.2-5.21,6.25-6.9,0,0,.06-.2.09-.15s.08.15.08.15c1.05,1.69,3.88,4.45,6.26,6.9a37.85,37.85,0,0,1,6.34,8C72.81,191.06,71.85,199.13,64.64,199.31Z"/><path class="cls-3" d="M116.4,25c-5.49-.13-6.75,4.06-7,6.07-.29-2-1.55-6.2-7-6.07-7.21.18-8.17,8.26-5.65,12.34a37.85,37.85,0,0,0,6.34,8c2.37,2.45,5.21,5.22,6.25,6.91,0,0,.06.19.09.14s.09-.14.09-.14c1-1.69,3.88-4.46,6.25-6.91a37.85,37.85,0,0,0,6.34-8C124.56,33.21,123.61,25.13,116.4,25Z"/><path class="cls-3" d="M116.4,199.31c-5.49.13-6.75-4.06-7-6.07-.29,2-1.55,6.2-7,6.07-7.21-.18-8.17-8.25-5.65-12.34a37.85,37.85,0,0,1,6.34-8c2.37-2.45,5.21-5.21,6.25-6.9,0,0,.06-.2.09-.15s.09.15.09.15c1,1.69,3.88,4.45,6.25,6.9a37.85,37.85,0,0,1,6.34,8C124.56,191.06,123.61,199.13,116.4,199.31Z"/></g></g></svg>