<svg xmlns="http://www.w3.org/2000/svg" viewBox="0 0 166.59 233.13"><defs><style>.cls-1{fill:#fff;}.cls-2{fill:#65a7dd;}.cls-3{fill:#151515;}</style></defs><g id="Calque_2" data-name="Calque 2"><g id="Objects"><rect class="cls-1" x="0.12" y="0.12" width="166.36" height="232.9" rx="5.94"/><path class="cls-2" d="M160.53,233.13H6.06a6.07,6.07,0,0,1-6.06-6V6.06A6.07,6.07,0,0,1,6.06,0H160.53a6.07,6.07,0,0,1,6.06,6.06v221A6.07,6.07,0,0,1,160.53,233.13ZM6.06.23A5.83,5.83,0,0,0,.23,6.06v221a5.83,5.83,0,0,0,5.83,5.82H160.53a5.83,5.83,0,0,0,5.83-5.82V6.06A5.84,5.84,0,0,0,160.53.23Z"/><path class="cls-1" d="M149.2,18.48a.58.58,0,0,1-.57.57.57.57,0,1,1,0-1.14A.58.58,0,0,1,149.2,18.48Z"/><path class="cls-1" d="M122.07,18.48a.58.58,0,0,1-.57.57.57.57,0,1,1,0-1.14A.58.58,0,0,1,122.07,18.48Z"/><path class="cls-1" d="M72.06,18.66a.56.56,0,0,1-.57.57.57.57,0,1,1,0-1.13A.56.56,0,0,1,72.06,18.66Z"/><path class="cls-1" d="M149.2,39.62a.57.57,0,0,1-.57.57.56.56,0,0,1-.57-.57.57.57,0,0,1,.57-.57A.58.58,0,0,1,149.2,39.62Z"/><path class="cls-1" d="M149.2,58.91a.57.57,0,0,1-.57.57.57.57,0,1,1,.57-.57Z"/><path class="cls-1" d="M18.9,19.05a.57.57,0,0,1-.57.57.57.57,0,0,1,0-1.14A.57.57,0,0,1,18.9,19.05Z"/><path class="cls-1" d="M46.34,18.66a.56.56,0,0,1-.57.57.57.57,0,1,1,0-1.13A.56.56,0,0,1,46.34,18.66Z"/><path class="cls-1" d="M18.9,39.17a.56.56,0,0,1-.57.57.57.57,0,0,1-.57-.57.58.58,0,0,1,.57-.57A.57.57,0,0,1,18.9,39.17Z"/><path class="cls-1" d="M18.9,59.05a.56.56,0,0,1-.57.56.57.57,0,1,1,.57-.56Z"/><path class="cls-1" d="M18.9,79a.57.57,0,0,1-.57.57.57.57,0,1,1,0-1.14A.57.57,0,0,1,18.9,79Z"/><path class="cls-1" d="M18.9,91.91a.56.56,0,0,1-.57.57.57.57,0,1,1,0-1.13A.56.56,0,0,1,18.9,91.91Z"/><path class="cls-1" d="M18.9,105.31a.56.56,0,0,1-.57.57.57.57,0,0,1-.57-.57.58.58,0,0,1,.57-.57A.57.57,0,0,1,18.9,105.31Z"/><path class="cls-1" d="M18.9,118.24a.56.56,0,0,1-.57.57.57.57,0,1,1,0-1.13A.56.56,0,0,1,18.9,118.24Z"/><path class="cls-1" d="M18.9,170a.56.56,0,0,1-.57.56.57.57,0,1,1,.57-.56Z"/><path class="cls-1" d="M18.9,183.39a.56.56,0,0,1-.57.57.57.57,0,0,1-.57-.57.58.58,0,0,1,.57-.57A.57.57,0,0,1,18.9,183.39Z"/><path class="cls-1" d="M18.9,196.44a.56.56,0,0,1-.57.57.57.57,0,0,1-.57-.57.58.58,0,0,1,.57-.57A.57.57,0,0,1,18.9,196.44Z"/><path class="cls-1" d="M19.13,215.63a.56.56,0,0,1-.57.56.57.57,0,1,1,.57-.56Z"/><path class="cls-1" d="M66.11,216.19a.57.57,0,1,1-.57-.56A.57.57,0,0,1,66.11,216.19Z"/><path class="cls-1" d="M92.51,216.19a.57.57,0,1,1-.57-.56A.56.56,0,0,1,92.51,216.19Z"/><path class="cls-1" d="M118.23,216.19a.57.57,0,1,1-.56-.56A.56.56,0,0,1,118.23,216.19Z"/><path class="cls-1" d="M149.2,156.65a.57.57,0,0,1-.57.57.56.56,0,0,1-.57-.57.57.57,0,0,1,.57-.57A.58.58,0,0,1,149.2,156.65Z"/><path class="cls-1" d="M149.2,169.41a.58.58,0,0,1-.57.57.57.57,0,0,1-.57-.57.56.56,0,0,1,.57-.57A.57.57,0,0,1,149.2,169.41Z"/><path class="cls-1" d="M149.2,182a.57.57,0,0,1-.57.57.56.56,0,0,1-.57-.57.57.57,0,0,1,.57-.57A.58.58,0,0,1,149.2,182Z"/><path class="cls-1" d="M149.2,194.82a.57.57,0,0,1-.57.57.56.56,0,0,1-.57-.57.57.57,0,0,1,.57-.57A.58.58,0,0,1,149.2,194.82Z"/><path class="cls-1" d="M149.2,214.39a.57.57,0,0,1-.57.57.56.56,0,0,1-.57-.57.57.57,0,0,1,.57-.57A.58.58,0,0,1,149.2,214.39Z"/><path class="cls-3" d="M22.79,31.36c-1.07-1.17-2.32-2.31-2.84-2.91-.39-.45-.67-.79-.78-.93v-.07l0,0,0,0v.07c-.11.14-.39.48-.78.93-.52.6-1.77,1.74-2.84,2.91a3.58,3.58,0,0,0-1,3.31,2.37,2.37,0,0,0,2.81,1.68,1.79,1.79,0,0,0,1.14-.6,3.71,3.71,0,0,1-.93,2.09h3.1a3.92,3.92,0,0,1-.84-2.08,1.8,1.8,0,0,0,1.13.59,2.38,2.38,0,0,0,2.81-1.68A3.58,3.58,0,0,0,22.79,31.36Z"/><path d="M17,23.43h1.88a.58.58,0,0,0,.4-.12.54.54,0,0,0,.12-.39v-2.6H14.43v-.7l6-8.87h.7v8.87H23.5v.7H21.15v2.6a.5.5,0,0,0,.13.39.54.54,0,0,0,.39.12h1.89v.62H17Zm-1.63-3.81h4V13.68Z"/><path d="M152.24,204.94h-1.89a.54.54,0,0,0-.39.12.48.48,0,0,0-.13.39v2.6h4.93v.7l-6,8.86H148v-8.86H145.7v-.7H148v-2.6a.52.52,0,0,0-.12-.39.58.58,0,0,0-.4-.12h-1.88v-.62h6.6Zm1.63,3.81h-4v5.93Z"/><path class="cls-3" d="M69.43,35.33c-3.68-4-8-7.92-9.74-10-1.34-1.54-2.29-2.71-2.68-3.2v-.25l-.1.13-.1-.13v.25c-.39.49-1.34,1.66-2.68,3.2-1.79,2.05-6.06,6-9.74,10a12.19,12.19,0,0,0-3.27,11.34c.69,3.32,4.17,6.45,9.63,5.77a6.11,6.11,0,0,0,3.88-2.06,12.69,12.69,0,0,1-3.15,7.15H62.07a13.6,13.6,0,0,1-2.86-7.13,6,6,0,0,0,3.86,2c5.46.68,8.94-2.45,9.63-5.77A12.19,12.19,0,0,0,69.43,35.33Z"/><path class="cls-3" d="M69.43,194.75c-3.68,4-8,7.92-9.74,10-1.34,1.53-2.29,2.7-2.68,3.19v.25l-.1-.12-.1.12v-.25c-.39-.49-1.34-1.66-2.68-3.19-1.79-2.06-6.06-6-9.74-10a12.17,12.17,0,0,1-3.27-11.33c.69-3.33,4.17-6.46,9.63-5.77a6,6,0,0,1,3.88,2.06,12.69,12.69,0,0,0-3.15-7.15H62.07a13.6,13.6,0,0,0-2.86,7.12,6.08,6.08,0,0,1,3.86-2c5.46-.69,8.94,2.44,9.63,5.77A12.17,12.17,0,0,1,69.43,194.75Z"/><path class="cls-3" d="M124,35.33c-3.67-4-7.94-7.92-9.73-10-1.34-1.54-2.29-2.71-2.68-3.2v-.25l-.1.13a1,1,0,0,1-.1-.13v.25c-.39.49-1.34,1.66-2.68,3.2-1.79,2.05-6.06,6-9.74,10a12.23,12.23,0,0,0-3.28,11.34c.7,3.32,4.18,6.45,9.64,5.77a6.13,6.13,0,0,0,3.88-2.06A12.69,12.69,0,0,1,106,57.53H116.6a13.52,13.52,0,0,1-2.86-7.13,6,6,0,0,0,3.86,2c5.46.68,8.94-2.45,9.63-5.77A12.18,12.18,0,0,0,124,35.33Z"/><path class="cls-3" d="M124,194.75c-3.67,4-7.94,7.92-9.73,10-1.34,1.53-2.29,2.7-2.68,3.19v.25l-.1-.12-.1.12v-.25c-.39-.49-1.34-1.66-2.68-3.19-1.79-2.06-6.06-6-9.74-10a12.2,12.2,0,0,1-3.28-11.33c.7-3.33,4.18-6.46,9.64-5.77a6,6,0,0,1,3.88,2.06,12.69,12.69,0,0,0-3.15-7.15H116.6a13.52,13.52,0,0,0-2.86,7.12,6.08,6.08,0,0,1,3.86-2c5.46-.69,8.94,2.44,9.63,5.77A12.15,12.15,0,0,1,124,194.75Z"/><path class="cls-3" d="M153.1,197.51c-1.07,1.16-2.32,2.31-2.84,2.9s-.66.79-.78.94v.07l0,0,0,0v-.07c-.11-.15-.39-.49-.78-.94s-1.77-1.74-2.84-2.9a3.54,3.54,0,0,1-1-3.31,2.37,2.37,0,0,1,2.81-1.68,1.76,1.76,0,0,1,1.13.6,3.74,3.74,0,0,0-.92-2.09H151a3.89,3.89,0,0,0-.84,2.08,1.75,1.75,0,0,1,1.13-.59,2.37,2.37,0,0,1,2.81,1.68A3.58,3.58,0,0,1,153.1,197.51Z"/></g></g></svg>