<svg xmlns="http://www.w3.org/2000/svg" viewBox="0 0 166.59 233.13"><defs><style>.cls-1{fill:#fff;}.cls-2{fill:#65a7dd;}.cls-3{fill:#151515;}.cls-4{fill:#272425;}</style></defs><g id="Calque_2" data-name="Calque 2"><g id="Objects"><rect class="cls-1" x="0.12" y="0.12" width="166.36" height="232.9" rx="5.94"/><path class="cls-2" d="M160.53,233.13H6.06a6.07,6.07,0,0,1-6.06-6V6.06A6.07,6.07,0,0,1,6.06,0H160.53a6.07,6.07,0,0,1,6.06,6.06v221A6.07,6.07,0,0,1,160.53,233.13ZM6.06.23A5.83,5.83,0,0,0,.23,6.06v221a5.83,5.83,0,0,0,5.83,5.82H160.53a5.83,5.83,0,0,0,5.83-5.82V6.06A5.84,5.84,0,0,0,160.53.23Z"/><path class="cls-1" d="M149.2,18.48a.58.58,0,0,1-.57.57.57.57,0,1,1,0-1.14A.58.58,0,0,1,149.2,18.48Z"/><path class="cls-1" d="M122.07,18.48a.58.58,0,0,1-.57.57.57.57,0,1,1,0-1.14A.58.58,0,0,1,122.07,18.48Z"/><path class="cls-1" d="M72.06,18.66a.56.56,0,0,1-.57.57.57.57,0,1,1,0-1.13A.56.56,0,0,1,72.06,18.66Z"/><path class="cls-1" d="M149.2,39.62a.57.57,0,0,1-.57.57.56.56,0,0,1-.57-.57.57.57,0,0,1,.57-.57A.58.58,0,0,1,149.2,39.62Z"/><path class="cls-1" d="M149.2,58.91a.57.57,0,0,1-.57.57.57.57,0,1,1,.57-.57Z"/><path class="cls-1" d="M18.9,19.05a.57.57,0,0,1-.57.57.57.57,0,0,1,0-1.14A.57.57,0,0,1,18.9,19.05Z"/><path class="cls-1" d="M46.34,18.66a.56.56,0,0,1-.57.57.57.57,0,1,1,0-1.13A.56.56,0,0,1,46.34,18.66Z"/><path class="cls-1" d="M18.9,39.17a.56.56,0,0,1-.57.57.57.57,0,0,1-.57-.57.58.58,0,0,1,.57-.57A.57.57,0,0,1,18.9,39.17Z"/><path class="cls-1" d="M18.9,59.05a.56.56,0,0,1-.57.56.57.57,0,1,1,.57-.56Z"/><path class="cls-1" d="M18.9,79a.57.57,0,0,1-.57.57.57.57,0,1,1,0-1.14A.57.57,0,0,1,18.9,79Z"/><path class="cls-1" d="M18.9,91.91a.56.56,0,0,1-.57.57.57.57,0,1,1,0-1.13A.56.56,0,0,1,18.9,91.91Z"/><path class="cls-1" d="M18.9,105.31a.56.56,0,0,1-.57.57.57.57,0,0,1-.57-.57.58.58,0,0,1,.57-.57A.57.57,0,0,1,18.9,105.31Z"/><path class="cls-1" d="M18.9,118.24a.56.56,0,0,1-.57.57.57.57,0,1,1,0-1.13A.56.56,0,0,1,18.9,118.24Z"/><path class="cls-1" d="M18.9,170a.56.56,0,0,1-.57.56.57.57,0,1,1,.57-.56Z"/><path class="cls-1" d="M18.9,183.39a.56.56,0,0,1-.57.57.57.57,0,0,1-.57-.57.58.58,0,0,1,.57-.57A.57.57,0,0,1,18.9,183.39Z"/><path class="cls-1" d="M18.9,196.44a.56.56,0,0,1-.57.57.57.57,0,0,1-.57-.57.58.58,0,0,1,.57-.57A.57.57,0,0,1,18.9,196.44Z"/><path class="cls-1" d="M19.13,215.63a.56.56,0,0,1-.57.56.57.57,0,1,1,.57-.56Z"/><path class="cls-1" d="M66.11,216.19a.57.57,0,1,1-.57-.56A.57.57,0,0,1,66.11,216.19Z"/><path class="cls-1" d="M92.51,216.19a.57.57,0,1,1-.57-.56A.56.56,0,0,1,92.51,216.19Z"/><path class="cls-1" d="M118.24,216.19a.57.57,0,0,1-.57.57.57.57,0,1,1,.57-.57Z"/><path class="cls-1" d="M149.2,156.65a.57.57,0,0,1-.57.57.56.56,0,0,1-.57-.57.57.57,0,0,1,.57-.57A.58.58,0,0,1,149.2,156.65Z"/><path class="cls-1" d="M149.2,169.41a.58.58,0,0,1-.57.57.57.57,0,0,1-.57-.57.56.56,0,0,1,.57-.57A.57.57,0,0,1,149.2,169.41Z"/><path class="cls-1" d="M149.2,182a.57.57,0,0,1-.57.57.56.56,0,0,1-.57-.57.57.57,0,0,1,.57-.57A.58.58,0,0,1,149.2,182Z"/><path class="cls-1" d="M149.2,194.82a.57.57,0,0,1-.57.57.56.56,0,0,1-.57-.57.57.57,0,0,1,.57-.57A.58.58,0,0,1,149.2,194.82Z"/><path class="cls-1" d="M149.2,214.39a.57.57,0,0,1-.57.57.56.56,0,0,1-.57-.57.57.57,0,0,1,.57-.57A.58.58,0,0,1,149.2,214.39Z"/><path class="cls-3" d="M68.61,41.32c-3.57-3.91-9.07-1.59-9.07-1.59,1.54-1.64,2.56-2.95,2.37-5.64,0-.09,0-.18,0-.27a7.75,7.75,0,0,0-15.5,0,8.2,8.2,0,0,0,.16,1.57c.18,1.86,1.1,3,2.36,4.34,0,0-5.49-2.32-9.07,1.59a8.09,8.09,0,0,0-.66,10.06C40.34,52.91,42,55.46,46,55.17c3.51-.26,4-.86,6.45-2.79a15.89,15.89,0,0,1-3.51,8.94h10.6c-1.95-2-3.67-6.75-3.45-8.89,2.37,1.89,2.91,2.48,6.4,2.74,4,.29,5.66-2.26,6.78-3.79A8.07,8.07,0,0,0,68.61,41.32Z"/><path class="cls-3" d="M125.26,41.32c-3.58-3.91-9.08-1.59-9.08-1.59,1.54-1.64,2.57-2.95,2.37-5.64a2.44,2.44,0,0,0,0-.27,7.75,7.75,0,1,0-15.49,0,7.47,7.47,0,0,0,.16,1.57c.17,1.86,1.09,3,2.36,4.34,0,0-5.5-2.32-9.07,1.59a8.09,8.09,0,0,0-.67,10.06c1.13,1.53,2.82,4.08,6.79,3.79,3.52-.26,4-.86,6.46-2.79a16,16,0,0,1-3.51,8.94h10.59c-1.94-2-3.67-6.75-3.44-8.89,2.36,1.89,2.9,2.48,6.39,2.74,4,.29,5.66-2.26,6.79-3.79A8.1,8.1,0,0,0,125.26,41.32Z"/><path class="cls-4" d="M15.66,24.62h1.88a.58.58,0,0,0,.4-.11.54.54,0,0,0,.12-.39v-2.6H13.13v-.7l6-8.87h.7v8.87H22.2v.7H19.85v2.6a.54.54,0,0,0,.12.39.58.58,0,0,0,.4.11h1.88v.63H15.66ZM14,20.82h4V14.88Z"/><path class="cls-4" d="M150.93,207.21h-1.88a.58.58,0,0,0-.4.12.49.49,0,0,0-.12.38v2.61h4.93V211l-6,8.87h-.7V211h-2.35v-.69h2.35v-2.61a.46.46,0,0,0-.13-.38.54.54,0,0,0-.39-.12h-1.89v-.62h6.6Zm1.63,3.8h-4V217Z"/><path class="cls-3" d="M13.38,34.23a2.45,2.45,0,0,0,2.62.46,1.9,1.9,0,0,0-.69,1.63v.07a2.24,2.24,0,1,0,4.48,0,2.3,2.3,0,0,0-.05-.45,2,2,0,0,0-.68-1.25,2.45,2.45,0,0,0,2.62-.46,2.34,2.34,0,0,0,.19-2.91,2.08,2.08,0,0,0-2-1.1,2.54,2.54,0,0,0-1.86.81,4.6,4.6,0,0,1,1-2.58H16A4.32,4.32,0,0,1,17,31a2.5,2.5,0,0,0-1.84-.8,2.08,2.08,0,0,0-2,1.1A2.32,2.32,0,0,0,13.38,34.23Z"/><path class="cls-3" d="M68.61,185.47c-3.57,3.9-9.07,1.59-9.07,1.59,1.54,1.64,2.56,2.94,2.37,5.63,0,.1,0,.19,0,.28a7.75,7.75,0,0,1-15.5,0,8,8,0,0,1,.16-1.57c.18-1.87,1.1-3,2.36-4.34,0,0-5.49,2.31-9.07-1.59a8.1,8.1,0,0,1-.66-10.07c1.13-1.52,2.81-4.08,6.79-3.78,3.51.26,4,.86,6.45,2.79a15.89,15.89,0,0,0-3.51-8.94h10.6c-1.95,2.05-3.67,6.74-3.45,8.89,2.37-1.89,2.91-2.48,6.4-2.74,4-.3,5.66,2.26,6.78,3.78A8.09,8.09,0,0,1,68.61,185.47Z"/><path class="cls-3" d="M125.26,185.47c-3.58,3.9-9.08,1.59-9.08,1.59,1.54,1.64,2.57,2.94,2.37,5.63a2.72,2.72,0,0,1,0,.28,7.75,7.75,0,1,1-15.49,0,7.33,7.33,0,0,1,.16-1.57c.17-1.87,1.09-3,2.36-4.34,0,0-5.5,2.31-9.07-1.59a8.11,8.11,0,0,1-.67-10.07c1.13-1.52,2.82-4.08,6.79-3.78,3.52.26,4,.86,6.46,2.79a16,16,0,0,0-3.51-8.94h10.59c-1.94,2.05-3.67,6.74-3.44,8.89,2.36-1.89,2.9-2.48,6.39-2.74,4-.3,5.66,2.26,6.79,3.78A8.12,8.12,0,0,1,125.26,185.47Z"/><path class="cls-3" d="M143.69,197.36a2.45,2.45,0,0,1,2.62-.46,1.9,1.9,0,0,1-.68-1.63s0-.05,0-.07a2.24,2.24,0,0,1,4.48,0,2.28,2.28,0,0,1,0,.45,2,2,0,0,1-.69,1.25,2.45,2.45,0,0,1,2.62.46,2.34,2.34,0,0,1,.2,2.91,2.11,2.11,0,0,1-2,1.1,2.54,2.54,0,0,1-1.86-.81,4.6,4.6,0,0,0,1,2.58h-3.06a4.4,4.4,0,0,0,1-2.57,2.53,2.53,0,0,1-1.85.8,2.08,2.08,0,0,1-2-1.1A2.34,2.34,0,0,1,143.69,197.36Z"/></g></g></svg>