<svg xmlns="http://www.w3.org/2000/svg" viewBox="0 0 166.48 233.07"><defs><style>.cls-1{fill:#fff;}.cls-2{fill:#65a7dd;}.cls-3{fill:#af0f07;}.cls-4{fill:#a43e32;}</style></defs><g id="Calque_2" data-name="Calque 2"><g id="Objects"><rect class="cls-1" x="0.12" y="0.11" width="166.25" height="232.84" rx="5.94"/><path class="cls-2" d="M160.43,233.07H6.05a6.06,6.06,0,0,1-6-6V6.05A6.06,6.06,0,0,1,6.05,0H160.43a6.06,6.06,0,0,1,6,6.05V227A6.06,6.06,0,0,1,160.43,233.07ZM6.05.23A5.83,5.83,0,0,0,.23,6.05V227a5.83,5.83,0,0,0,5.82,5.82H160.43a5.83,5.83,0,0,0,5.82-5.82V6.05A5.83,5.83,0,0,0,160.43.23Z"/><path class="cls-1" d="M149.1,18.48a.57.57,0,1,1-.57-.57A.56.56,0,0,1,149.1,18.48Z"/><path class="cls-1" d="M122,18.48a.56.56,0,0,1-.57.56.57.57,0,1,1,.57-.56Z"/><path class="cls-1" d="M97.05,18.48a.57.57,0,1,1-.57-.57A.56.56,0,0,1,97.05,18.48Z"/><circle class="cls-1" cx="71.45" cy="18.66" r="0.57"/><path class="cls-1" d="M149.1,39.61a.57.57,0,1,1-.57-.57A.57.57,0,0,1,149.1,39.61Z"/><path class="cls-1" d="M149.1,58.9a.57.57,0,1,1-1.13,0,.57.57,0,1,1,1.13,0Z"/><path class="cls-1" d="M149.1,79.11a.57.57,0,1,1-.57-.57A.57.57,0,0,1,149.1,79.11Z"/><path class="cls-1" d="M149.1,91.89a.57.57,0,1,1-.57-.57A.57.57,0,0,1,149.1,91.89Z"/><path class="cls-1" d="M149.1,104.72a.57.57,0,1,1-.57-.57A.56.56,0,0,1,149.1,104.72Z"/><circle class="cls-1" cx="18.32" cy="19.04" r="0.57"/><path class="cls-1" d="M46.31,18.66a.57.57,0,0,1-.57.57.58.58,0,0,1-.57-.57.57.57,0,0,1,.57-.57A.56.56,0,0,1,46.31,18.66Z"/><circle class="cls-1" cx="18.32" cy="39.16" r="0.57"/><circle class="cls-1" cx="18.32" cy="59.03" r="0.57"/><circle class="cls-1" cx="18.32" cy="78.97" r="0.57"/><circle class="cls-1" cx="18.32" cy="91.89" r="0.57"/><circle class="cls-1" cx="18.32" cy="105.29" r="0.57"/><circle class="cls-1" cx="18.32" cy="118.21" r="0.57"/><circle class="cls-1" cx="18.32" cy="131.13" r="0.57"/><circle class="cls-1" cx="18.32" cy="144.53" r="0.57"/><circle class="cls-1" cx="18.32" cy="157.95" r="0.57"/><circle class="cls-1" cx="18.32" cy="169.95" r="0.57"/><path class="cls-1" d="M18.89,183.35a.57.57,0,1,1-.57-.57A.57.57,0,0,1,18.89,183.35Z"/><circle class="cls-1" cx="18.32" cy="196.39" r="0.57"/><circle class="cls-1" cx="18.55" cy="215.57" r="0.57"/><circle class="cls-1" cx="39.07" cy="216.14" r="0.57"/><circle class="cls-1" cx="65.5" cy="216.14" r="0.57"/><circle class="cls-1" cx="91.89" cy="216.14" r="0.57"/><circle class="cls-1" cx="117.59" cy="216.14" r="0.57"/><path class="cls-1" d="M149.1,117.9a.57.57,0,1,1-1.13,0,.57.57,0,1,1,1.13,0Z"/><path class="cls-1" d="M149.1,130.22a.57.57,0,1,1-.57-.57A.57.57,0,0,1,149.1,130.22Z"/><path class="cls-1" d="M149.1,143.51a.57.57,0,1,1-.57-.57A.57.57,0,0,1,149.1,143.51Z"/><path class="cls-1" d="M149.1,156.61a.57.57,0,1,1-.57-.57A.57.57,0,0,1,149.1,156.61Z"/><path class="cls-1" d="M149.1,169.36a.57.57,0,1,1-.57-.57A.57.57,0,0,1,149.1,169.36Z"/><path class="cls-1" d="M149.1,181.94a.57.57,0,1,1-.57-.57A.56.56,0,0,1,149.1,181.94Z"/><path class="cls-1" d="M149.1,194.77a.57.57,0,1,1-.57-.57A.57.57,0,0,1,149.1,194.77Z"/><path class="cls-1" d="M149.1,214.34a.57.57,0,1,1-.57-.57A.56.56,0,0,1,149.1,214.34Z"/><polygon class="cls-3" points="15.2 29.75 10.47 34.96 14.68 40.69 19.52 35.43 15.2 29.75"/><polygon class="cls-3" points="147.58 193.14 142.85 198.36 147.06 204.08 151.9 198.83 147.58 193.14"/><path class="cls-4" d="M12.94,25.26a3,3,0,0,1-1.22-1,2.57,2.57,0,0,1-.43-1.45,2,2,0,0,1,.46-1.4,1.48,1.48,0,0,1,1.09-.48,1.08,1.08,0,0,1,.82.32A1.13,1.13,0,0,1,14,22a1.07,1.07,0,0,1-.2.62,1.24,1.24,0,0,1-.5.41,2,2,0,0,0-.43.27.51.51,0,0,0-.16.37,1.13,1.13,0,0,0,.49,1,2.85,2.85,0,0,0,1.65.35,2.15,2.15,0,0,0,2.07-1.24,6.78,6.78,0,0,0,.64-3.14,5,5,0,0,0-.62-2.74,2.22,2.22,0,0,0-2-.95,2.55,2.55,0,0,0-1,.17,2.49,2.49,0,0,0-.84.59,1.59,1.59,0,0,0-.32.51,1.66,1.66,0,0,0-.12.56.53.53,0,0,1-.11.34.35.35,0,0,1-.28.14c-.21,0-.31-.16-.31-.48v-6.7l.42-.33a3.27,3.27,0,0,0,1.2.58,5,5,0,0,0,1.46.24,7.3,7.3,0,0,0,1.69-.18,5.73,5.73,0,0,0,1.55-.64l.23.27a5.27,5.27,0,0,1-1.71,1.47,4.46,4.46,0,0,1-2.17.55,5.76,5.76,0,0,1-1.14-.09,2.68,2.68,0,0,1-.83-.3v3.71l.11,0a3.22,3.22,0,0,1,1.14-.85,3.33,3.33,0,0,1,1.38-.3,4.15,4.15,0,0,1,3.18,1.21,4.46,4.46,0,0,1,1.13,3.18,5.13,5.13,0,0,1-.65,2.56A4.75,4.75,0,0,1,17.2,25a4.46,4.46,0,0,1-2.38.65A4.35,4.35,0,0,1,12.94,25.26Z"/><path class="cls-4" d="M149.71,207.58a2.9,2.9,0,0,1,1.22,1,2.51,2.51,0,0,1,.43,1.44,1.94,1.94,0,0,1-.47,1.4,1.47,1.47,0,0,1-1.08.49,1.1,1.1,0,0,1-.83-.32,1.14,1.14,0,0,1-.3-.81,1.06,1.06,0,0,1,.2-.61,1.13,1.13,0,0,1,.5-.42,2.3,2.3,0,0,0,.43-.27.47.47,0,0,0,.15-.37,1.15,1.15,0,0,0-.48-1,3,3,0,0,0-1.65-.35,2.18,2.18,0,0,0-2.08,1.25,6.87,6.87,0,0,0-.64,3.14,5,5,0,0,0,.62,2.73,2.23,2.23,0,0,0,2,1,2.55,2.55,0,0,0,1-.17,2.76,2.76,0,0,0,.84-.59,1.71,1.71,0,0,0,.32-.52,1.57,1.57,0,0,0,.12-.55.56.56,0,0,1,.11-.35.33.33,0,0,1,.28-.13c.21,0,.31.16.31.48v6.7l-.43.33a3.22,3.22,0,0,0-1.19-.59,5.32,5.32,0,0,0-1.46-.23,7.92,7.92,0,0,0-1.69.17,5.35,5.35,0,0,0-1.55.65l-.24-.28a5.51,5.51,0,0,1,1.72-1.46,4.45,4.45,0,0,1,2.16-.55,6,6,0,0,1,1.15.08,3.32,3.32,0,0,1,.83.3v-3.7l-.11,0a3.28,3.28,0,0,1-1.14.84,3.38,3.38,0,0,1-1.39.3,4.17,4.17,0,0,1-3.17-1.2,4.46,4.46,0,0,1-1.13-3.18,5,5,0,0,1,.65-2.56,4.83,4.83,0,0,1,1.73-1.8,4.61,4.61,0,0,1,2.39-.65A4.38,4.38,0,0,1,149.71,207.58Z"/><polygon class="cls-3" points="52.17 23.55 38.88 39.7 52.17 56.11 65.81 39.83 52.17 23.55"/><polygon class="cls-3" points="52.17 173.12 38.88 189.27 52.17 205.68 65.81 189.4 52.17 173.12"/><polygon class="cls-3" points="110.36 23.55 97.07 39.7 110.36 56.11 124 39.83 110.36 23.55"/><polygon class="cls-3" points="110.36 173.12 97.07 189.27 110.36 205.68 124 189.4 110.36 173.12"/><polygon class="cls-3" points="80.73 98.34 67.44 114.49 80.73 130.89 94.37 114.61 80.73 98.34"/></g></g></svg>