<svg xmlns="http://www.w3.org/2000/svg" viewBox="0 0 166.59 233.13"><defs><style>.cls-1{fill:#af0f07;}.cls-2{fill:#fff;}.cls-3{fill:#65a7dd;}.cls-4{fill:#a43e32;}</style></defs><g id="Calque_2" data-name="Calque 2"><g id="Objects"><path class="cls-1" d="M150.63,206.83a2.25,2.25,0,0,1-2.44-2.1,2.25,2.25,0,0,1-2.44,2.1c-2.5-.06-2.83-2.86-2-4.28a13.72,13.72,0,0,1,2.2-2.77,21.56,21.56,0,0,0,2.17-2.39s0-.07,0,0,0,0,0,0a21.56,21.56,0,0,0,2.17,2.39,13.38,13.38,0,0,1,2.2,2.77C153.46,204,153.13,206.77,150.63,206.83Z"/><rect class="cls-2" x="0.12" y="0.12" width="166.36" height="232.9" rx="5.94"/><path class="cls-3" d="M160.53,233.13H6.06a6.07,6.07,0,0,1-6.06-6V6.06A6.07,6.07,0,0,1,6.06,0H160.53a6.07,6.07,0,0,1,6.06,6.06v221A6.07,6.07,0,0,1,160.53,233.13ZM6.06.23A5.83,5.83,0,0,0,.23,6.06v221a5.83,5.83,0,0,0,5.83,5.82H160.53a5.83,5.83,0,0,0,5.83-5.82V6.06A5.84,5.84,0,0,0,160.53.23Z"/><path class="cls-2" d="M149.2,18.48a.58.58,0,0,1-.57.57.57.57,0,1,1,0-1.14A.58.58,0,0,1,149.2,18.48Z"/><path class="cls-2" d="M122.07,18.48a.58.58,0,0,1-.57.57.57.57,0,1,1,0-1.14A.58.58,0,0,1,122.07,18.48Z"/><path class="cls-2" d="M97.11,18.48a.57.57,0,1,1-.57-.57A.57.57,0,0,1,97.11,18.48Z"/><path class="cls-2" d="M72.06,18.66a.56.56,0,0,1-.57.57.57.57,0,1,1,0-1.13A.56.56,0,0,1,72.06,18.66Z"/><path class="cls-2" d="M149.2,39.62a.57.57,0,0,1-.57.57.56.56,0,0,1-.57-.57.57.57,0,0,1,.57-.57A.58.58,0,0,1,149.2,39.62Z"/><path class="cls-2" d="M149.2,58.91a.57.57,0,0,1-.57.57.57.57,0,1,1,.57-.57Z"/><path class="cls-2" d="M149.2,79.13a.57.57,0,0,1-.57.57.56.56,0,0,1-.57-.57.57.57,0,0,1,.57-.57A.58.58,0,0,1,149.2,79.13Z"/><path class="cls-2" d="M149.2,91.91a.57.57,0,0,1-.57.57.57.57,0,1,1,.57-.57Z"/><path class="cls-2" d="M149.2,104.74a.57.57,0,0,1-.57.57.57.57,0,1,1,.57-.57Z"/><path class="cls-2" d="M18.9,19.05a.57.57,0,0,1-.57.57.57.57,0,0,1,0-1.14A.57.57,0,0,1,18.9,19.05Z"/><path class="cls-2" d="M46.34,18.66a.56.56,0,0,1-.57.57.57.57,0,1,1,0-1.13A.56.56,0,0,1,46.34,18.66Z"/><path class="cls-2" d="M18.9,39.17a.56.56,0,0,1-.57.57.57.57,0,0,1-.57-.57.58.58,0,0,1,.57-.57A.57.57,0,0,1,18.9,39.17Z"/><path class="cls-2" d="M18.9,59.05a.56.56,0,0,1-.57.56.57.57,0,1,1,.57-.56Z"/><path class="cls-2" d="M18.9,79a.57.57,0,0,1-.57.57.57.57,0,1,1,0-1.14A.57.57,0,0,1,18.9,79Z"/><path class="cls-2" d="M18.9,91.91a.56.56,0,0,1-.57.57.57.57,0,1,1,0-1.13A.56.56,0,0,1,18.9,91.91Z"/><path class="cls-2" d="M18.9,105.31a.56.56,0,0,1-.57.57.57.57,0,0,1-.57-.57.58.58,0,0,1,.57-.57A.57.57,0,0,1,18.9,105.31Z"/><path class="cls-2" d="M18.9,118.24a.56.56,0,0,1-.57.57.57.57,0,1,1,0-1.13A.56.56,0,0,1,18.9,118.24Z"/><path class="cls-2" d="M18.9,131.17a.57.57,0,0,1-.57.57.58.58,0,0,1-.57-.57.57.57,0,0,1,.57-.57A.56.56,0,0,1,18.9,131.17Z"/><path class="cls-2" d="M18.9,144.57a.57.57,0,0,1-.57.57.58.58,0,0,1-.57-.57.57.57,0,0,1,.57-.57A.56.56,0,0,1,18.9,144.57Z"/><path class="cls-2" d="M18.9,158a.56.56,0,0,1-.57.56.57.57,0,1,1,.57-.56Z"/><path class="cls-2" d="M18.9,170a.56.56,0,0,1-.57.56.57.57,0,1,1,.57-.56Z"/><path class="cls-2" d="M18.9,183.39a.56.56,0,0,1-.57.57.57.57,0,0,1-.57-.57.58.58,0,0,1,.57-.57A.57.57,0,0,1,18.9,183.39Z"/><path class="cls-2" d="M18.9,196.44a.56.56,0,0,1-.57.57.57.57,0,0,1-.57-.57.58.58,0,0,1,.57-.57A.57.57,0,0,1,18.9,196.44Z"/><path class="cls-2" d="M19.13,215.63a.57.57,0,0,1-.57.57.58.58,0,0,1-.57-.57.57.57,0,0,1,.57-.57A.56.56,0,0,1,19.13,215.63Z"/><path class="cls-2" d="M39.66,216.2a.57.57,0,1,1-.57-.57A.57.57,0,0,1,39.66,216.2Z"/><path class="cls-2" d="M66.11,216.2a.57.57,0,0,1-.57.56.57.57,0,1,1,0-1.13A.57.57,0,0,1,66.11,216.2Z"/><path class="cls-2" d="M92.51,216.2a.57.57,0,1,1-.57-.57A.56.56,0,0,1,92.51,216.2Z"/><path class="cls-2" d="M118.23,216.2a.57.57,0,1,1-.56-.57A.56.56,0,0,1,118.23,216.2Z"/><path class="cls-2" d="M149.2,117.93a.58.58,0,0,1-.57.57.57.57,0,0,1-.57-.57.56.56,0,0,1,.57-.57A.57.57,0,0,1,149.2,117.93Z"/><path class="cls-2" d="M149.2,130.26a.58.58,0,0,1-.57.57.57.57,0,0,1-.57-.57.56.56,0,0,1,.57-.57A.57.57,0,0,1,149.2,130.26Z"/><path class="cls-2" d="M149.2,143.55a.58.58,0,0,1-.57.57.57.57,0,0,1,0-1.14A.58.58,0,0,1,149.2,143.55Z"/><path class="cls-2" d="M149.2,156.65a.57.57,0,0,1-.57.57.56.56,0,0,1-.57-.57.57.57,0,0,1,.57-.57A.58.58,0,0,1,149.2,156.65Z"/><path class="cls-2" d="M149.2,169.41a.58.58,0,0,1-.57.57.57.57,0,0,1-.57-.57.56.56,0,0,1,.57-.57A.57.57,0,0,1,149.2,169.41Z"/><path class="cls-2" d="M149.2,182a.57.57,0,0,1-.57.57.56.56,0,0,1-.57-.57.57.57,0,0,1,.57-.57A.58.58,0,0,1,149.2,182Z"/><path class="cls-2" d="M149.2,194.82a.57.57,0,0,1-.57.57.56.56,0,0,1-.57-.57.57.57,0,0,1,.57-.57A.58.58,0,0,1,149.2,194.82Z"/><path class="cls-2" d="M149.2,214.39a.57.57,0,0,1-.57.57.56.56,0,0,1-.57-.57.57.57,0,0,1,.57-.57A.58.58,0,0,1,149.2,214.39Z"/><path class="cls-4" d="M13.41,28.76a3,3,0,0,1-1.22-1,2.57,2.57,0,0,1-.43-1.45,1.91,1.91,0,0,1,.47-1.4,1.46,1.46,0,0,1,1.08-.48,1.1,1.1,0,0,1,.83.32,1.12,1.12,0,0,1,.3.8,1.09,1.09,0,0,1-.2.62,1.18,1.18,0,0,1-.5.41,2.3,2.3,0,0,0-.43.27.5.5,0,0,0-.15.37,1.12,1.12,0,0,0,.48,1,2.89,2.89,0,0,0,1.65.35,2.17,2.17,0,0,0,2.08-1.24A6.8,6.8,0,0,0,18,24.13a5.05,5.05,0,0,0-.62-2.74,2.25,2.25,0,0,0-2-.95,2.56,2.56,0,0,0-1,.16,2.64,2.64,0,0,0-.84.6,1.78,1.78,0,0,0-.32.51,1.61,1.61,0,0,0-.12.55.54.54,0,0,1-.11.35.34.34,0,0,1-.28.14c-.21,0-.31-.16-.31-.49V15.57l.43-.33a3.38,3.38,0,0,0,1.19.58,5.33,5.33,0,0,0,1.47.23,7.83,7.83,0,0,0,1.68-.17,5.66,5.66,0,0,0,1.56-.64l.23.27A5.41,5.41,0,0,1,17.26,17a4.56,4.56,0,0,1-2.16.55A5.87,5.87,0,0,1,14,17.44a3.32,3.32,0,0,1-.83-.3v3.71l.12,0A3.07,3.07,0,0,1,14.37,20a3.38,3.38,0,0,1,1.39-.3,4.15,4.15,0,0,1,3.17,1.2,4.47,4.47,0,0,1,1.14,3.19,5.13,5.13,0,0,1-.65,2.56,4.9,4.9,0,0,1-1.74,1.79,4.52,4.52,0,0,1-2.39.65A4.38,4.38,0,0,1,13.41,28.76Z"/><path class="cls-4" d="M150.27,211.13a2.83,2.83,0,0,1,1.22,1,2.51,2.51,0,0,1,.43,1.44,1.94,1.94,0,0,1-.47,1.4,1.46,1.46,0,0,1-1.08.48,1.06,1.06,0,0,1-.83-.32,1.15,1.15,0,0,1-.11-1.41,1.16,1.16,0,0,1,.51-.42,2.3,2.3,0,0,0,.43-.27.47.47,0,0,0,.15-.37,1.13,1.13,0,0,0-.48-1,3,3,0,0,0-1.65-.35,2.17,2.17,0,0,0-2.08,1.24,6.82,6.82,0,0,0-.64,3.15,5,5,0,0,0,.62,2.73,2.22,2.22,0,0,0,2,.95,2.22,2.22,0,0,0,1.8-.75,1.85,1.85,0,0,0,.45-1.07.56.56,0,0,1,.11-.35.34.34,0,0,1,.28-.14c.21,0,.31.17.31.49v6.69l-.43.34a3.22,3.22,0,0,0-1.19-.59,5.39,5.39,0,0,0-1.47-.23,8,8,0,0,0-1.69.17,5.47,5.47,0,0,0-1.55.65l-.23-.28a5.4,5.4,0,0,1,1.72-1.46,4.45,4.45,0,0,1,2.16-.55,6,6,0,0,1,1.15.08,3.32,3.32,0,0,1,.83.3V219l-.12,0a3.25,3.25,0,0,1-1.13.84,3.38,3.38,0,0,1-1.39.3,4.14,4.14,0,0,1-3.17-1.2,4.43,4.43,0,0,1-1.14-3.18,5.17,5.17,0,0,1,.65-2.57A4.82,4.82,0,0,1,146,211.4a4.59,4.59,0,0,1,2.39-.65A4.38,4.38,0,0,1,150.27,211.13Z"/><path class="cls-1" d="M19.39,34.67A2.26,2.26,0,0,0,17,36.78a2.26,2.26,0,0,0-2.44-2.11c-2.5.06-2.83,2.87-1.95,4.28a12.85,12.85,0,0,0,2.19,2.77,20.56,20.56,0,0,1,2.17,2.4s0,.07,0,.05,0-.05,0-.05a22.57,22.57,0,0,1,2.17-2.4A12.56,12.56,0,0,0,21.35,39C22.23,37.54,21.89,34.73,19.39,34.67Z"/><path class="cls-1" d="M62.33,30.5c-5.48-.13-6.75,4-7,6.07-.29-2-1.55-6.2-7-6.07-7.21.17-8.17,8.25-5.65,12.33a37.34,37.34,0,0,0,6.34,8c2.38,2.46,5.21,5.22,6.26,6.91,0,0,0,.2.08.15s.09-.15.09-.15c1-1.69,3.88-4.45,6.25-6.91a37,37,0,0,0,6.34-8C70.49,38.75,69.54,30.67,62.33,30.5Z"/><path class="cls-1" d="M62.33,204.85c-5.48.14-6.75-4-7-6.07-.29,2-1.55,6.21-7,6.07-7.21-.17-8.17-8.25-5.65-12.33a37.6,37.6,0,0,1,6.34-8c2.38-2.46,5.21-5.22,6.26-6.91,0,0,0-.2.08-.14s.09.14.09.14c1,1.69,3.88,4.45,6.25,6.91a37.29,37.29,0,0,1,6.34,8C70.49,196.6,69.54,204.68,62.33,204.85Z"/><path class="cls-1" d="M115,30.5c-5.48-.13-6.75,4-7,6.07-.29-2-1.55-6.2-7-6.07-7.21.17-8.17,8.25-5.65,12.33a37.34,37.34,0,0,0,6.34,8c2.37,2.46,5.21,5.22,6.26,6.91,0,0,0,.2.08.15s.09-.15.09-.15c1-1.69,3.88-4.45,6.25-6.91a37,37,0,0,0,6.34-8C123.17,38.75,122.22,30.67,115,30.5Z"/><path class="cls-1" d="M115,204.85c-5.48.14-6.75-4-7-6.07-.29,2-1.55,6.21-7,6.07-7.21-.17-8.17-8.25-5.65-12.33a37.6,37.6,0,0,1,6.34-8c2.37-2.46,5.21-5.22,6.26-6.91,0,0,0-.2.08-.14s.09.14.09.14c1,1.69,3.88,4.45,6.25,6.91a37.29,37.29,0,0,1,6.34,8C123.17,196.6,122.22,204.68,115,204.85Z"/><path class="cls-1" d="M88.21,102.59c-5.49-.13-6.75,4-7,6.07-.29-2-1.55-6.2-7-6.07-7.21.17-8.17,8.25-5.65,12.33a37.6,37.6,0,0,0,6.34,8c2.37,2.46,5.21,5.22,6.25,6.91,0,0,.06.2.09.14s.09-.14.09-.14c1-1.69,3.88-4.45,6.25-6.91a37.6,37.6,0,0,0,6.34-8C96.37,110.84,95.42,102.76,88.21,102.59Z"/></g></g></svg>