<svg xmlns="http://www.w3.org/2000/svg" viewBox="0 0 166.59 233.13"><defs><style>.cls-1{fill:#fff;}.cls-2{fill:#65a7dd;}.cls-3{fill:#151515;}</style></defs><g id="Calque_2" data-name="Calque 2"><g id="Objects"><rect class="cls-1" x="0.12" y="0.12" width="166.36" height="232.9" rx="5.94"/><path class="cls-2" d="M160.53,233.13H6.06a6.07,6.07,0,0,1-6.06-6V6.06A6.07,6.07,0,0,1,6.06,0H160.53a6.07,6.07,0,0,1,6.06,6.06v221A6.07,6.07,0,0,1,160.53,233.13ZM6.06.23A5.83,5.83,0,0,0,.23,6.06v221a5.83,5.83,0,0,0,5.83,5.82H160.53a5.83,5.83,0,0,0,5.83-5.82V6.06A5.84,5.84,0,0,0,160.53.23Z"/><path class="cls-1" d="M149.2,18.48a.58.58,0,0,1-.57.57.57.57,0,1,1,0-1.14A.58.58,0,0,1,149.2,18.48Z"/><path class="cls-1" d="M122.07,18.48a.58.58,0,0,1-.57.57.57.57,0,1,1,0-1.14A.58.58,0,0,1,122.07,18.48Z"/><path class="cls-1" d="M97.11,18.48a.57.57,0,1,1-.57-.57A.57.57,0,0,1,97.11,18.48Z"/><path class="cls-1" d="M72.06,18.66a.56.56,0,0,1-.57.57.57.57,0,1,1,0-1.13A.56.56,0,0,1,72.06,18.66Z"/><path class="cls-1" d="M149.2,39.62a.57.57,0,0,1-.57.57.56.56,0,0,1-.57-.57.57.57,0,0,1,.57-.57A.58.58,0,0,1,149.2,39.62Z"/><path class="cls-1" d="M149.2,58.91a.57.57,0,0,1-.57.57.57.57,0,1,1,.57-.57Z"/><path class="cls-1" d="M149.2,79.13a.57.57,0,0,1-.57.57.56.56,0,0,1-.57-.57.57.57,0,0,1,.57-.57A.58.58,0,0,1,149.2,79.13Z"/><path class="cls-1" d="M149.2,91.91a.57.57,0,0,1-.57.57.57.57,0,1,1,.57-.57Z"/><path class="cls-1" d="M149.2,104.74a.57.57,0,0,1-.57.57.57.57,0,1,1,.57-.57Z"/><path class="cls-1" d="M18.9,19.05a.57.57,0,0,1-.57.57.57.57,0,0,1,0-1.14A.57.57,0,0,1,18.9,19.05Z"/><path class="cls-1" d="M46.34,18.66a.56.56,0,0,1-.57.57.57.57,0,1,1,0-1.13A.56.56,0,0,1,46.34,18.66Z"/><path class="cls-1" d="M18.9,39.17a.56.56,0,0,1-.57.57.57.57,0,0,1-.57-.57.58.58,0,0,1,.57-.57A.57.57,0,0,1,18.9,39.17Z"/><path class="cls-1" d="M18.9,59.05a.56.56,0,0,1-.57.56.57.57,0,1,1,.57-.56Z"/><path class="cls-1" d="M18.9,79a.57.57,0,0,1-.57.57.57.57,0,1,1,0-1.14A.57.57,0,0,1,18.9,79Z"/><path class="cls-1" d="M18.9,91.91a.56.56,0,0,1-.57.57.57.57,0,1,1,0-1.13A.56.56,0,0,1,18.9,91.91Z"/><path class="cls-1" d="M18.9,105.31a.56.56,0,0,1-.57.57.57.57,0,0,1-.57-.57.58.58,0,0,1,.57-.57A.57.57,0,0,1,18.9,105.31Z"/><path class="cls-1" d="M18.9,118.24a.56.56,0,0,1-.57.57.57.57,0,1,1,0-1.13A.56.56,0,0,1,18.9,118.24Z"/><path class="cls-1" d="M18.9,131.17a.57.57,0,0,1-.57.57.58.58,0,0,1-.57-.57.57.57,0,0,1,.57-.57A.56.56,0,0,1,18.9,131.17Z"/><path class="cls-1" d="M18.9,144.57a.57.57,0,0,1-.57.57.58.58,0,0,1-.57-.57.57.57,0,0,1,.57-.57A.56.56,0,0,1,18.9,144.57Z"/><path class="cls-1" d="M18.9,158a.56.56,0,0,1-.57.56.57.57,0,1,1,.57-.56Z"/><path class="cls-1" d="M18.9,170a.56.56,0,0,1-.57.56.57.57,0,1,1,.57-.56Z"/><path class="cls-1" d="M18.9,183.39a.56.56,0,0,1-.57.57.57.57,0,0,1-.57-.57.58.58,0,0,1,.57-.57A.57.57,0,0,1,18.9,183.39Z"/><path class="cls-1" d="M18.9,196.44a.56.56,0,0,1-.57.57.57.57,0,0,1-.57-.57.58.58,0,0,1,.57-.57A.57.57,0,0,1,18.9,196.44Z"/><path class="cls-1" d="M19.13,215.63a.56.56,0,0,1-.57.56.57.57,0,1,1,.57-.56Z"/><path class="cls-1" d="M39.66,216.19a.57.57,0,1,1-.57-.56A.57.57,0,0,1,39.66,216.19Z"/><path class="cls-1" d="M66.11,216.19a.57.57,0,0,1-.57.57.57.57,0,1,1,.57-.57Z"/><path class="cls-1" d="M92.51,216.19a.57.57,0,1,1-.57-.56A.56.56,0,0,1,92.51,216.19Z"/><path class="cls-1" d="M118.23,216.19a.57.57,0,1,1-.56-.56A.56.56,0,0,1,118.23,216.19Z"/><path class="cls-1" d="M149.2,117.93a.58.58,0,0,1-.57.57.57.57,0,0,1-.57-.57.56.56,0,0,1,.57-.57A.57.57,0,0,1,149.2,117.93Z"/><path class="cls-1" d="M149.2,130.26a.58.58,0,0,1-.57.57.57.57,0,0,1-.57-.57.56.56,0,0,1,.57-.57A.57.57,0,0,1,149.2,130.26Z"/><path class="cls-1" d="M149.2,143.55a.58.58,0,0,1-.57.57.57.57,0,0,1,0-1.14A.58.58,0,0,1,149.2,143.55Z"/><path class="cls-1" d="M149.2,156.65a.57.57,0,0,1-.57.57.56.56,0,0,1-.57-.57.57.57,0,0,1,.57-.57A.58.58,0,0,1,149.2,156.65Z"/><path class="cls-1" d="M149.2,169.41a.58.58,0,0,1-.57.57.57.57,0,0,1-.57-.57.56.56,0,0,1,.57-.57A.57.57,0,0,1,149.2,169.41Z"/><path class="cls-1" d="M149.2,182a.57.57,0,0,1-.57.57.56.56,0,0,1-.57-.57.57.57,0,0,1,.57-.57A.58.58,0,0,1,149.2,182Z"/><path class="cls-1" d="M149.2,194.82a.57.57,0,0,1-.57.57.56.56,0,0,1-.57-.57.57.57,0,0,1,.57-.57A.58.58,0,0,1,149.2,194.82Z"/><path class="cls-1" d="M149.2,214.39a.57.57,0,0,1-.57.57.56.56,0,0,1-.57-.57.57.57,0,0,1,.57-.57A.58.58,0,0,1,149.2,214.39Z"/><path d="M13.78,22.87a2.94,2.94,0,0,1-1.22-1,2.64,2.64,0,0,1-.42-1.45A2,2,0,0,1,12.6,19a1.47,1.47,0,0,1,1.09-.48,1,1,0,0,1,.82.32,1.12,1.12,0,0,1,.3.8,1,1,0,0,1-.19.61,1.19,1.19,0,0,1-.5.42,1.78,1.78,0,0,0-.43.27.46.46,0,0,0-.16.37,1.11,1.11,0,0,0,.49,1,2.93,2.93,0,0,0,1.65.35,2.15,2.15,0,0,0,2.07-1.24,6.81,6.81,0,0,0,.65-3.15,4.92,4.92,0,0,0-.63-2.73,2.2,2.2,0,0,0-2-.95,2.26,2.26,0,0,0-1.81.75,1.4,1.4,0,0,0-.32.52,1.66,1.66,0,0,0-.13.55.56.56,0,0,1-.1.35.35.35,0,0,1-.28.14c-.21,0-.32-.16-.32-.49V9.69l.43-.33a3.35,3.35,0,0,0,1.2.58,5.32,5.32,0,0,0,1.46.23A8,8,0,0,0,17.57,10a5.73,5.73,0,0,0,1.55-.64l.24.27a5.38,5.38,0,0,1-1.72,1.46,4.47,4.47,0,0,1-2.17.56,5.69,5.69,0,0,1-1.14-.09,3.38,3.38,0,0,1-.84-.3V15l.12,0a3.19,3.19,0,0,1,1.14-.84,3.33,3.33,0,0,1,1.38-.3,4.18,4.18,0,0,1,3.18,1.2,4.48,4.48,0,0,1,1.13,3.18,5.06,5.06,0,0,1-.65,2.57,4.75,4.75,0,0,1-1.74,1.79,4.48,4.48,0,0,1-2.38.65A4.28,4.28,0,0,1,13.78,22.87Z"/><path d="M150.64,205.25a3,3,0,0,1,1.23,1,2.64,2.64,0,0,1,.42,1.45,2,2,0,0,1-.46,1.4,1.48,1.48,0,0,1-1.09.48,1.08,1.08,0,0,1-.83-.32,1.12,1.12,0,0,1-.3-.8,1,1,0,0,1,.2-.61,1.19,1.19,0,0,1,.5-.42,2,2,0,0,0,.43-.27.49.49,0,0,0,.16-.37,1.13,1.13,0,0,0-.49-1,2.93,2.93,0,0,0-1.65-.35,2.17,2.17,0,0,0-2.08,1.24,7,7,0,0,0-.64,3.15,5,5,0,0,0,.62,2.73,2.23,2.23,0,0,0,2,.95,2.56,2.56,0,0,0,1-.16,2.76,2.76,0,0,0,.84-.59,1.54,1.54,0,0,0,.32-.52,1.61,1.61,0,0,0,.12-.55.56.56,0,0,1,.11-.35.35.35,0,0,1,.28-.14c.21,0,.31.17.31.49v6.69l-.42.33a3.44,3.44,0,0,0-1.2-.58,5.32,5.32,0,0,0-1.46-.23,7.92,7.92,0,0,0-1.69.17,5.6,5.6,0,0,0-1.55.64l-.24-.27a5.38,5.38,0,0,1,1.72-1.46,4.46,4.46,0,0,1,2.16-.56,5.8,5.8,0,0,1,1.15.09,3.32,3.32,0,0,1,.83.3v-3.7l-.11,0a3.19,3.19,0,0,1-1.14.84,3.34,3.34,0,0,1-1.39.3,4.17,4.17,0,0,1-3.17-1.2,4.42,4.42,0,0,1-1.13-3.18,5.06,5.06,0,0,1,.65-2.57,4.8,4.8,0,0,1,1.73-1.79,4.61,4.61,0,0,1,2.39-.65A4.21,4.21,0,0,1,150.64,205.25Z"/><path class="cls-3" d="M67.6,34.84c-3.67-4-7.94-7.92-9.73-10-1.34-1.54-2.29-2.71-2.68-3.2v-.25l-.1.13a1,1,0,0,1-.1-.13v.25c-.39.49-1.34,1.66-2.68,3.2-1.79,2.05-6.06,6-9.74,10a12.23,12.23,0,0,0-3.28,11.34c.7,3.32,4.18,6.45,9.64,5.77a6.1,6.1,0,0,0,3.88-2.07A12.7,12.7,0,0,1,49.66,57H60.25a13.52,13.52,0,0,1-2.86-7.13,6.09,6.09,0,0,0,3.86,2c5.46.68,8.94-2.45,9.63-5.77A12.18,12.18,0,0,0,67.6,34.84Z"/><path class="cls-3" d="M67.6,194.26c-3.67,4-7.94,7.92-9.73,10-1.34,1.54-2.29,2.71-2.68,3.2v.25l-.1-.12-.1.12v-.25c-.39-.49-1.34-1.66-2.68-3.2-1.79-2-6.06-6-9.74-10a12.22,12.22,0,0,1-3.28-11.34c.7-3.32,4.18-6.45,9.64-5.76a6,6,0,0,1,3.88,2.06,12.69,12.69,0,0,0-3.15-7.15H60.25a13.52,13.52,0,0,0-2.86,7.12,6.08,6.08,0,0,1,3.86-2c5.46-.69,8.94,2.44,9.63,5.76A12.16,12.16,0,0,1,67.6,194.26Z"/><path class="cls-3" d="M122.13,34.84c-3.67-4-7.94-7.92-9.73-10-1.34-1.54-2.29-2.71-2.68-3.2v-.25l-.1.13a1,1,0,0,1-.1-.13v.25c-.39.49-1.34,1.66-2.69,3.2-1.78,2.05-6,6-9.73,10a12.23,12.23,0,0,0-3.28,11.34c.7,3.32,4.17,6.45,9.64,5.77a6.1,6.1,0,0,0,3.88-2.07A12.67,12.67,0,0,1,104.18,57h10.6a13.62,13.62,0,0,1-2.87-7.13,6.11,6.11,0,0,0,3.86,2c5.47.68,8.94-2.45,9.64-5.77A12.18,12.18,0,0,0,122.13,34.84Z"/><path class="cls-3" d="M122.13,194.26c-3.67,4-7.94,7.92-9.73,10-1.34,1.54-2.29,2.71-2.68,3.2v.25l-.1-.12-.1.12v-.25c-.39-.49-1.34-1.66-2.69-3.2-1.78-2-6-6-9.73-10a12.22,12.22,0,0,1-3.28-11.34c.7-3.32,4.17-6.45,9.64-5.76a6,6,0,0,1,3.88,2.06,12.66,12.66,0,0,0-3.16-7.15h10.6a13.63,13.63,0,0,0-2.87,7.12,6.1,6.1,0,0,1,3.86-2c5.47-.69,8.94,2.44,9.64,5.76A12.16,12.16,0,0,1,122.13,194.26Z"/><path class="cls-3" d="M94.41,111.42c-3.68-4-8-7.92-9.74-10-1.34-1.54-2.29-2.71-2.68-3.2V98l-.1.12-.1-.12v.25c-.39.49-1.34,1.66-2.68,3.2-1.79,2-6.06,6-9.74,10a12.19,12.19,0,0,0-3.27,11.34c.69,3.32,4.17,6.45,9.63,5.76a6,6,0,0,0,3.88-2.06,12.64,12.64,0,0,1-3.15,7.15H87.05a13.6,13.6,0,0,1-2.86-7.12,6.08,6.08,0,0,0,3.86,2c5.46.69,8.94-2.44,9.63-5.76A12.19,12.19,0,0,0,94.41,111.42Z"/><path class="cls-3" d="M152.08,197c-1.07,1.17-2.32,2.31-2.84,2.91s-.67.79-.78.94v.07l0,0,0,0v-.07c-.11-.15-.39-.49-.78-.94s-1.77-1.74-2.84-2.91a3.55,3.55,0,0,1-1-3.3,2.39,2.39,0,0,1,2.81-1.69,1.84,1.84,0,0,1,1.14.61,3.7,3.7,0,0,0-.92-2.09h3.09a3.89,3.89,0,0,0-.84,2.08,1.81,1.81,0,0,1,1.13-.6,2.39,2.39,0,0,1,2.81,1.69A3.55,3.55,0,0,1,152.08,197Z"/><path class="cls-3" d="M21.77,30.87C20.7,29.7,19.45,28.56,18.93,28s-.67-.79-.78-.93V27l0,0,0,0V27c-.12.14-.39.48-.78.93s-1.77,1.74-2.84,2.91a3.55,3.55,0,0,0-1,3.31,2.37,2.37,0,0,0,2.81,1.68,1.74,1.74,0,0,0,1.13-.6,3.69,3.69,0,0,1-.92,2.08h3.09a4,4,0,0,1-.83-2.07,1.77,1.77,0,0,0,1.12.59,2.37,2.37,0,0,0,2.81-1.68A3.54,3.54,0,0,0,21.77,30.87Z"/></g></g></svg>