<svg xmlns="http://www.w3.org/2000/svg" viewBox="0 0 166.59 233.13"><defs><style>.cls-1{fill:#fff;}.cls-2{fill:#65a7dd;}.cls-3{fill:#151515;}</style></defs><g id="Calque_2" data-name="Calque 2"><g id="Objects"><rect class="cls-1" x="0.12" y="0.12" width="166.36" height="232.9" rx="5.94"/><path class="cls-2" d="M160.53,233.13H6.06a6.07,6.07,0,0,1-6.06-6V6.06A6.07,6.07,0,0,1,6.06,0H160.53a6.07,6.07,0,0,1,6.06,6.06v221A6.07,6.07,0,0,1,160.53,233.13ZM6.06.23A5.83,5.83,0,0,0,.23,6.06v221a5.83,5.83,0,0,0,5.83,5.82H160.53a5.83,5.83,0,0,0,5.83-5.82V6.06A5.84,5.84,0,0,0,160.53.23Z"/><path class="cls-1" d="M149.2,18.48a.58.58,0,0,1-.57.57.57.57,0,1,1,0-1.14A.58.58,0,0,1,149.2,18.48Z"/><path class="cls-1" d="M122.07,18.48a.58.58,0,0,1-.57.57.57.57,0,1,1,0-1.14A.58.58,0,0,1,122.07,18.48Z"/><path class="cls-1" d="M97.11,18.48a.57.57,0,1,1-.57-.57A.57.57,0,0,1,97.11,18.48Z"/><path class="cls-1" d="M72.06,18.66a.56.56,0,0,1-.57.57.57.57,0,1,1,0-1.13A.56.56,0,0,1,72.06,18.66Z"/><path class="cls-1" d="M149.2,39.62a.57.57,0,0,1-.57.57.56.56,0,0,1-.57-.57.57.57,0,0,1,.57-.57A.58.58,0,0,1,149.2,39.62Z"/><path class="cls-1" d="M149.2,58.91a.57.57,0,0,1-.57.57.57.57,0,1,1,.57-.57Z"/><path class="cls-1" d="M149.2,79.13a.57.57,0,0,1-.57.57.56.56,0,0,1-.57-.57.57.57,0,0,1,.57-.57A.58.58,0,0,1,149.2,79.13Z"/><path class="cls-1" d="M149.2,91.91a.57.57,0,0,1-.57.57.57.57,0,1,1,.57-.57Z"/><path class="cls-1" d="M149.2,104.74a.57.57,0,0,1-.57.57.57.57,0,1,1,.57-.57Z"/><path class="cls-1" d="M18.9,19.05a.57.57,0,0,1-.57.57.57.57,0,0,1,0-1.14A.57.57,0,0,1,18.9,19.05Z"/><path class="cls-1" d="M46.34,18.66a.56.56,0,0,1-.57.57.57.57,0,1,1,0-1.13A.56.56,0,0,1,46.34,18.66Z"/><path class="cls-1" d="M18.9,39.17a.56.56,0,0,1-.57.57.57.57,0,0,1-.57-.57.58.58,0,0,1,.57-.57A.57.57,0,0,1,18.9,39.17Z"/><path class="cls-1" d="M18.9,59.05a.56.56,0,0,1-.57.56.57.57,0,1,1,.57-.56Z"/><path class="cls-1" d="M18.9,79a.57.57,0,0,1-.57.57.57.57,0,1,1,0-1.14A.57.57,0,0,1,18.9,79Z"/><path class="cls-1" d="M18.9,91.91a.56.56,0,0,1-.57.57.57.57,0,1,1,0-1.13A.56.56,0,0,1,18.9,91.91Z"/><path class="cls-1" d="M18.9,105.31a.56.56,0,0,1-.57.57.57.57,0,0,1-.57-.57.58.58,0,0,1,.57-.57A.57.57,0,0,1,18.9,105.31Z"/><path class="cls-1" d="M18.9,118.24a.56.56,0,0,1-.57.57.57.57,0,1,1,0-1.13A.56.56,0,0,1,18.9,118.24Z"/><path class="cls-1" d="M18.9,131.17a.57.57,0,0,1-.57.57.58.58,0,0,1-.57-.57.57.57,0,0,1,.57-.57A.56.56,0,0,1,18.9,131.17Z"/><path class="cls-1" d="M18.9,144.57a.57.57,0,0,1-.57.57.58.58,0,0,1-.57-.57.57.57,0,0,1,.57-.57A.56.56,0,0,1,18.9,144.57Z"/><path class="cls-1" d="M18.9,158a.56.56,0,0,1-.57.56.57.57,0,1,1,.57-.56Z"/><path class="cls-1" d="M18.9,170a.56.56,0,0,1-.57.56.57.57,0,1,1,.57-.56Z"/><path class="cls-1" d="M18.9,183.39a.56.56,0,0,1-.57.57.57.57,0,0,1-.57-.57.58.58,0,0,1,.57-.57A.57.57,0,0,1,18.9,183.39Z"/><path class="cls-1" d="M18.9,196.44a.56.56,0,0,1-.57.57.57.57,0,0,1-.57-.57.58.58,0,0,1,.57-.57A.57.57,0,0,1,18.9,196.44Z"/><path class="cls-1" d="M19.13,215.63a.56.56,0,0,1-.57.56.57.57,0,1,1,.57-.56Z"/><path class="cls-1" d="M39.66,216.19a.57.57,0,1,1-.57-.56A.57.57,0,0,1,39.66,216.19Z"/><path class="cls-1" d="M66.11,216.19a.57.57,0,1,1-.57-.56A.57.57,0,0,1,66.11,216.19Z"/><path class="cls-1" d="M92.51,216.19a.57.57,0,1,1-.57-.56A.56.56,0,0,1,92.51,216.19Z"/><path class="cls-1" d="M118.23,216.19a.57.57,0,1,1-.56-.56A.56.56,0,0,1,118.23,216.19Z"/><path class="cls-1" d="M149.2,117.93a.58.58,0,0,1-.57.57.57.57,0,0,1-.57-.57.56.56,0,0,1,.57-.57A.57.57,0,0,1,149.2,117.93Z"/><path class="cls-1" d="M149.2,130.26a.58.58,0,0,1-.57.57.57.57,0,0,1-.57-.57.56.56,0,0,1,.57-.57A.57.57,0,0,1,149.2,130.26Z"/><path class="cls-1" d="M149.2,143.55a.58.58,0,0,1-.57.57.57.57,0,0,1,0-1.14A.58.58,0,0,1,149.2,143.55Z"/><path class="cls-1" d="M149.2,156.65a.57.57,0,0,1-.57.57.56.56,0,0,1-.57-.57.57.57,0,0,1,.57-.57A.58.58,0,0,1,149.2,156.65Z"/><path class="cls-1" d="M149.2,169.41a.58.58,0,0,1-.57.57.57.57,0,0,1-.57-.57.56.56,0,0,1,.57-.57A.57.57,0,0,1,149.2,169.41Z"/><path class="cls-1" d="M149.2,182a.57.57,0,0,1-.57.57.56.56,0,0,1-.57-.57.57.57,0,0,1,.57-.57A.58.58,0,0,1,149.2,182Z"/><path class="cls-1" d="M149.2,194.82a.57.57,0,0,1-.57.57.56.56,0,0,1-.57-.57.57.57,0,0,1,.57-.57A.58.58,0,0,1,149.2,194.82Z"/><path class="cls-1" d="M149.2,214.39a.57.57,0,0,1-.57.57.56.56,0,0,1-.57-.57.57.57,0,0,1,.57-.57A.58.58,0,0,1,149.2,214.39Z"/><path class="cls-3" d="M21.37,36a2.45,2.45,0,0,0-2.62-.46,1.91,1.91,0,0,0,.68-1.63.25.25,0,0,0,0-.08,2.24,2.24,0,0,0-4.48,0,2.22,2.22,0,0,0,0,.45,2,2,0,0,0,.68,1.26,2.45,2.45,0,0,0-2.62.46,2.31,2.31,0,0,0-.19,2.9,2.08,2.08,0,0,0,2,1.1,2.54,2.54,0,0,0,1.86-.81,4.56,4.56,0,0,1-1,2.58h3.06a4.38,4.38,0,0,1-1-2.56A2.56,2.56,0,0,0,19.6,40a2.08,2.08,0,0,0,2-1.1A2.32,2.32,0,0,0,21.37,36Z"/><path d="M14,27.62a2.86,2.86,0,0,1-1.23-1,2.58,2.58,0,0,1-.42-1.44,1.94,1.94,0,0,1,.46-1.4,1.48,1.48,0,0,1,1.09-.49,1,1,0,0,1,.82.33,1.12,1.12,0,0,1,.3.8,1,1,0,0,1-.19.61,1.19,1.19,0,0,1-.5.42,1.78,1.78,0,0,0-.43.27.47.47,0,0,0-.16.37,1.14,1.14,0,0,0,.49,1,2.93,2.93,0,0,0,1.65.35,2.15,2.15,0,0,0,2.07-1.24A6.81,6.81,0,0,0,18.57,23a4.92,4.92,0,0,0-.63-2.73,2.2,2.2,0,0,0-2-1,2.56,2.56,0,0,0-1,.16,2.64,2.64,0,0,0-.84.59,1.4,1.4,0,0,0-.32.52,1.6,1.6,0,0,0-.13.55.56.56,0,0,1-.1.35.34.34,0,0,1-.28.13c-.21,0-.31-.16-.31-.48v-6.7l.42-.33a3.19,3.19,0,0,0,1.2.59,5.32,5.32,0,0,0,1.46.23,7.3,7.3,0,0,0,1.69-.18,5.31,5.31,0,0,0,1.55-.64l.24.28a5.51,5.51,0,0,1-1.72,1.46,4.46,4.46,0,0,1-2.17.55,6.71,6.71,0,0,1-1.14-.08,3.38,3.38,0,0,1-.84-.3v3.7l.12,0a3.19,3.19,0,0,1,1.14-.84,3.33,3.33,0,0,1,1.38-.3,4.18,4.18,0,0,1,3.18,1.2A4.46,4.46,0,0,1,20.62,23,5,5,0,0,1,20,25.55a4.75,4.75,0,0,1-1.73,1.8,4.64,4.64,0,0,1-2.39.65A4.35,4.35,0,0,1,14,27.62Z"/><path class="cls-3" d="M143.42,201.67a2.45,2.45,0,0,0,2.62.46,1.91,1.91,0,0,0-.68,1.63v.08a2.24,2.24,0,1,0,4.43-.45,2,2,0,0,0-.69-1.26,2.45,2.45,0,0,0,2.62-.46,2.33,2.33,0,0,0,.2-2.9,2.11,2.11,0,0,0-2-1.1,2.54,2.54,0,0,0-1.86.81,4.56,4.56,0,0,1,1-2.58H146a4.38,4.38,0,0,1,1,2.56,2.56,2.56,0,0,0-1.85-.79,2.08,2.08,0,0,0-2,1.1A2.32,2.32,0,0,0,143.42,201.67Z"/><path d="M150.82,210a3,3,0,0,1,1.22,1,2.55,2.55,0,0,1,.43,1.45,2,2,0,0,1-.46,1.4,1.5,1.5,0,0,1-1.09.48,1.1,1.1,0,0,1-.83-.32,1.13,1.13,0,0,1-.3-.81,1.06,1.06,0,0,1,.2-.61,1.18,1.18,0,0,1,.5-.41,2.29,2.29,0,0,0,.43-.28.46.46,0,0,0,.15-.36,1.15,1.15,0,0,0-.48-1,3,3,0,0,0-1.65-.34,2.17,2.17,0,0,0-2.08,1.24,6.78,6.78,0,0,0-.64,3.14,5.08,5.08,0,0,0,.62,2.74,2.25,2.25,0,0,0,2,.95,2.55,2.55,0,0,0,1-.17,2.59,2.59,0,0,0,.84-.59,1.78,1.78,0,0,0,.32-.51,1.66,1.66,0,0,0,.12-.55.54.54,0,0,1,.11-.35.31.31,0,0,1,.28-.14c.21,0,.31.16.31.49v6.69l-.43.33a3.22,3.22,0,0,0-1.19-.58,5,5,0,0,0-1.47-.23,7.24,7.24,0,0,0-1.68.17,5.66,5.66,0,0,0-1.56.64l-.23-.27a5.41,5.41,0,0,1,1.72-1.47,4.56,4.56,0,0,1,2.16-.55,5.87,5.87,0,0,1,1.15.09,3.32,3.32,0,0,1,.83.3v-3.71l-.11,0a3.19,3.19,0,0,1-1.14.85,3.38,3.38,0,0,1-1.39.3,4.12,4.12,0,0,1-3.17-1.21,4.43,4.43,0,0,1-1.14-3.18,5.13,5.13,0,0,1,.65-2.56,5,5,0,0,1,1.74-1.8,4.6,4.6,0,0,1,2.39-.64A4.38,4.38,0,0,1,150.82,210Z"/><path class="cls-3" d="M69.22,46.89C65.64,43,60.14,45.3,60.14,45.3c1.54-1.64,2.57-2.94,2.37-5.64a2.44,2.44,0,0,0,0-.27,7.75,7.75,0,1,0-15.49,0A7.4,7.4,0,0,0,47.19,41c.17,1.86,1.09,3,2.36,4.34,0,0-5.5-2.32-9.07,1.59A8.11,8.11,0,0,0,39.81,57c1.13,1.52,2.82,4.08,6.79,3.78,3.52-.26,4-.86,6.46-2.79a16,16,0,0,1-3.51,8.94H60.14c-1.94-2-3.67-6.75-3.44-8.89,2.36,1.89,2.9,2.48,6.39,2.74,4,.3,5.66-2.26,6.79-3.78A8.12,8.12,0,0,0,69.22,46.89Z"/><path class="cls-3" d="M125.86,46.89c-3.57-3.91-9.07-1.59-9.07-1.59,1.53-1.64,2.56-2.94,2.37-5.64,0-.09,0-.18,0-.27a7.75,7.75,0,0,0-15.5,0,8.12,8.12,0,0,0,.16,1.57c.18,1.86,1.1,3,2.36,4.34,0,0-5.49-2.32-9.07,1.59A8.1,8.1,0,0,0,96.46,57c1.13,1.52,2.81,4.08,6.79,3.78,3.51-.26,4-.86,6.45-2.79a15.89,15.89,0,0,1-3.51,8.94h10.6c-2-2-3.67-6.75-3.45-8.89,2.37,1.89,2.91,2.48,6.4,2.74,4,.3,5.66-2.26,6.78-3.78A8.09,8.09,0,0,0,125.86,46.89Z"/><path class="cls-3" d="M95.74,116.93c-3.58-3.91-9.08-1.59-9.08-1.59,1.54-1.64,2.57-3,2.37-5.64a2.44,2.44,0,0,0,0-.27,7.75,7.75,0,0,0-15.5,0A8.2,8.2,0,0,0,73.7,111c.18,1.86,1.1,3,2.37,4.34,0,0-5.5-2.32-9.07,1.59A8.09,8.09,0,0,0,66.33,127c1.13,1.53,2.82,4.08,6.79,3.79,3.52-.26,4-.86,6.46-2.79a16,16,0,0,1-3.51,8.94H86.66c-1.94-2.05-3.67-6.75-3.44-8.89,2.36,1.89,2.9,2.48,6.39,2.74,4,.29,5.66-2.26,6.79-3.79A8.1,8.1,0,0,0,95.74,116.93Z"/><path class="cls-3" d="M69.22,191c-3.58,3.91-9.08,1.59-9.08,1.59,1.54,1.64,2.57,3,2.37,5.64a2.44,2.44,0,0,1,0,.27,7.75,7.75,0,1,1-15.49,0,7.4,7.4,0,0,1,.16-1.57c.17-1.86,1.09-3,2.36-4.34,0,0-5.5,2.32-9.07-1.59A8.09,8.09,0,0,1,39.81,181c1.13-1.53,2.82-4.08,6.79-3.79,3.52.26,4,.86,6.46,2.79A16,16,0,0,0,49.55,171H60.14c-1.94,2.05-3.67,6.75-3.44,8.89,2.36-1.89,2.9-2.48,6.39-2.74,4-.29,5.66,2.26,6.79,3.79A8.1,8.1,0,0,1,69.22,191Z"/><path class="cls-3" d="M125.86,191c-3.57,3.91-9.07,1.59-9.07,1.59,1.53,1.64,2.56,3,2.37,5.64,0,.09,0,.18,0,.27a7.75,7.75,0,0,1-15.5,0,8.12,8.12,0,0,1,.16-1.57c.18-1.86,1.1-3,2.36-4.34,0,0-5.49,2.32-9.07-1.59A8.09,8.09,0,0,1,96.46,181c1.13-1.53,2.81-4.08,6.79-3.79,3.51.26,4,.86,6.45,2.79a15.89,15.89,0,0,0-3.51-8.94h10.6c-2,2.05-3.67,6.75-3.45,8.89,2.37-1.89,2.91-2.48,6.4-2.74,4-.29,5.66,2.26,6.78,3.79A8.07,8.07,0,0,1,125.86,191Z"/></g></g></svg>