<svg xmlns="http://www.w3.org/2000/svg" viewBox="0 0 166.48 233.07"><defs><style>.cls-1{fill:#fff;}.cls-2{fill:#65a7dd;}.cls-3{fill:#af0f07;}.cls-4{fill:#a43e32;}</style></defs><g id="Calque_2" data-name="Calque 2"><g id="Objects"><rect class="cls-1" x="0.12" y="0.11" width="166.25" height="232.84" rx="5.94"/><path class="cls-2" d="M160.43,233.07H6.05a6.06,6.06,0,0,1-6-6V6.05A6.06,6.06,0,0,1,6.05,0H160.43a6.06,6.06,0,0,1,6,6.05V227A6.06,6.06,0,0,1,160.43,233.07ZM6.05.23A5.83,5.83,0,0,0,.23,6.05V227a5.83,5.83,0,0,0,5.82,5.82H160.43a5.83,5.83,0,0,0,5.82-5.82V6.05A5.83,5.83,0,0,0,160.43.23Z"/><circle class="cls-1" cx="148.53" cy="18.48" r="0.57"/><path class="cls-1" d="M122,18.48a.56.56,0,0,1-.57.56.57.57,0,1,1,.57-.56Z"/><circle class="cls-1" cx="96.48" cy="18.48" r="0.57"/><path class="cls-1" d="M72,18.66a.58.58,0,0,1-.57.57.57.57,0,0,1-.57-.57.56.56,0,0,1,.57-.57A.57.57,0,0,1,72,18.66Z"/><circle class="cls-1" cx="148.53" cy="39.61" r="0.57"/><circle class="cls-1" cx="148.53" cy="58.9" r="0.57"/><circle class="cls-1" cx="148.53" cy="79.11" r="0.57"/><circle class="cls-1" cx="148.53" cy="91.89" r="0.57"/><circle class="cls-1" cx="148.53" cy="104.72" r="0.57"/><path class="cls-1" d="M18.89,19a.56.56,0,0,1-.57.57.57.57,0,1,1,0-1.13A.56.56,0,0,1,18.89,19Z"/><circle class="cls-1" cx="45.74" cy="18.66" r="0.57"/><path class="cls-1" d="M18.89,39.16a.56.56,0,0,1-.57.57.57.57,0,0,1-.57-.57.58.58,0,0,1,.57-.57A.57.57,0,0,1,18.89,39.16Z"/><path class="cls-1" d="M18.89,59a.57.57,0,0,1-.57.57.57.57,0,1,1,0-1.14A.57.57,0,0,1,18.89,59Z"/><path class="cls-1" d="M18.89,79a.57.57,0,0,1-.57.57.57.57,0,1,1,0-1.14A.57.57,0,0,1,18.89,79Z"/><path class="cls-1" d="M18.89,91.89a.57.57,0,0,1-.57.57.57.57,0,0,1,0-1.14A.57.57,0,0,1,18.89,91.89Z"/><path class="cls-1" d="M18.89,105.28a.56.56,0,0,1-.57.57.57.57,0,1,1,0-1.13A.56.56,0,0,1,18.89,105.28Z"/><path class="cls-1" d="M18.89,118.21a.56.56,0,0,1-.57.57.57.57,0,0,1-.57-.57.58.58,0,0,1,.57-.57A.57.57,0,0,1,18.89,118.21Z"/><path class="cls-1" d="M18.89,131.13a.56.56,0,0,1-.57.57.57.57,0,1,1,0-1.13A.56.56,0,0,1,18.89,131.13Z"/><path class="cls-1" d="M18.89,144.53a.57.57,0,0,1-.57.57.58.58,0,0,1-.57-.57.57.57,0,0,1,.57-.57A.56.56,0,0,1,18.89,144.53Z"/><path class="cls-1" d="M18.89,158a.56.56,0,0,1-.57.57.57.57,0,1,1,0-1.13A.56.56,0,0,1,18.89,158Z"/><path class="cls-1" d="M18.89,170a.56.56,0,0,1-.57.57.57.57,0,0,1-.57-.57.58.58,0,0,1,.57-.57A.57.57,0,0,1,18.89,170Z"/><path class="cls-1" d="M18.89,183.35a.56.56,0,0,1-.57.56.57.57,0,1,1,.57-.56Z"/><path class="cls-1" d="M18.89,196.39a.57.57,0,0,1-.57.57.57.57,0,0,1,0-1.14A.57.57,0,0,1,18.89,196.39Z"/><path class="cls-1" d="M19.12,215.57a.57.57,0,0,1-.57.57.57.57,0,0,1,0-1.14A.57.57,0,0,1,19.12,215.57Z"/><path class="cls-1" d="M39.63,216.14a.57.57,0,1,1-.56-.57A.56.56,0,0,1,39.63,216.14Z"/><circle class="cls-1" cx="65.5" cy="216.14" r="0.57"/><path class="cls-1" d="M92.46,216.14a.58.58,0,0,1-.57.57.57.57,0,0,1-.57-.57.56.56,0,0,1,.57-.57A.57.57,0,0,1,92.46,216.14Z"/><path class="cls-1" d="M118.16,216.14a.57.57,0,0,1-.57.57.58.58,0,0,1-.57-.57.57.57,0,0,1,.57-.57A.56.56,0,0,1,118.16,216.14Z"/><circle class="cls-1" cx="148.53" cy="117.9" r="0.57"/><circle class="cls-1" cx="148.53" cy="130.22" r="0.57"/><circle class="cls-1" cx="148.53" cy="143.51" r="0.57"/><circle class="cls-1" cx="148.53" cy="156.61" r="0.57"/><circle class="cls-1" cx="148.53" cy="169.36" r="0.57"/><circle class="cls-1" cx="148.53" cy="181.94" r="0.57"/><circle class="cls-1" cx="148.53" cy="194.77" r="0.57"/><circle class="cls-1" cx="148.53" cy="214.34" r="0.57"/><polygon class="cls-3" points="15.73 28.37 11 33.58 15.21 39.31 20.05 34.05 15.73 28.37"/><polygon class="cls-3" points="148.16 193.14 143.44 198.36 147.65 204.08 152.49 198.83 148.16 193.14"/><path class="cls-4" d="M13.71,24.86a5,5,0,0,1-1.48-2.22,10,10,0,0,1-.53-3.41,12.15,12.15,0,0,1,.41-3.12,7.21,7.21,0,0,1,1.18-2.54,4.13,4.13,0,0,1,3.32-1.83,2.88,2.88,0,0,1,2.23.93,2.19,2.19,0,0,1,.42.78,2.83,2.83,0,0,1,.12.76,1.4,1.4,0,0,1-.48,1.1,1.14,1.14,0,0,1-.8.29.78.78,0,0,1-.69-.35.67.67,0,0,1-.13-.25,1.3,1.3,0,0,1,0-.31.93.93,0,0,1,.25-.58,2.25,2.25,0,0,1,.37-.33.68.68,0,0,0,.24-.24.6.6,0,0,0,.07-.3.74.74,0,0,0-.4-.62,2.24,2.24,0,0,0-1.21-.26,2.44,2.44,0,0,0-1.33.41,3,3,0,0,0-1.05,1.36,7.2,7.2,0,0,0-.51,1.8,12.78,12.78,0,0,0-.17,1.83v.87l.13.06a3,3,0,0,1,1.08-1.22A2.6,2.6,0,0,1,16.13,17a3.66,3.66,0,0,1,2.19.64,3.52,3.52,0,0,1,1.16,1.46,4.9,4.9,0,0,1,.41,2,5.24,5.24,0,0,1-.47,2.11,4.53,4.53,0,0,1-1.36,1.76,3.42,3.42,0,0,1-2.13.69A3.46,3.46,0,0,1,13.71,24.86Zm3.94-1a6,6,0,0,0,.53-2.56,6.24,6.24,0,0,0-.46-2.58,1.59,1.59,0,0,0-1.56-1,1.91,1.91,0,0,0-1.22.44,3.07,3.07,0,0,0-.86,1.27,5.33,5.33,0,0,0-.32,1.9,6.12,6.12,0,0,0,.5,2.64,1.72,1.72,0,0,0,1.67,1A1.79,1.79,0,0,0,17.65,23.89Z"/><path class="cls-4" d="M150,208a5,5,0,0,1,1.49,2.22,10,10,0,0,1,.52,3.41,12.15,12.15,0,0,1-.41,3.12,7,7,0,0,1-1.18,2.54,4.12,4.12,0,0,1-3.32,1.83,2.89,2.89,0,0,1-2.23-.94,2.32,2.32,0,0,1-.42-.77,2.89,2.89,0,0,1-.12-.76,1.43,1.43,0,0,1,.48-1.11,1.19,1.19,0,0,1,.8-.29.82.82,0,0,1,.7.35.85.85,0,0,1,.12.26,1.24,1.24,0,0,1,0,.31.9.9,0,0,1-.25.58,2.25,2.25,0,0,1-.37.33.78.78,0,0,0-.24.24.56.56,0,0,0-.07.3.73.73,0,0,0,.4.61,2.18,2.18,0,0,0,1.21.26,2.41,2.41,0,0,0,1.33-.4,3.1,3.1,0,0,0,1.06-1.36,7.19,7.19,0,0,0,.5-1.81,11.43,11.43,0,0,0,.18-1.82v-.87l-.14-.06a2.91,2.91,0,0,1-1.08,1.21,2.54,2.54,0,0,1-1.4.48,3.68,3.68,0,0,1-2.19-.64,3.49,3.49,0,0,1-1.17-1.47,4.83,4.83,0,0,1-.41-2,5.16,5.16,0,0,1,.47-2.1,4.48,4.48,0,0,1,1.37-1.76A3.55,3.55,0,0,1,150,208Zm-3.94,1a6,6,0,0,0-.53,2.56,6.29,6.29,0,0,0,.47,2.58,1.58,1.58,0,0,0,1.55,1,1.86,1.86,0,0,0,1.22-.45,3,3,0,0,0,.86-1.27,5.06,5.06,0,0,0,.32-1.89,6,6,0,0,0-.5-2.65,1.73,1.73,0,0,0-1.67-1A1.8,1.8,0,0,0,146.06,209Z"/><polygon class="cls-3" points="49.79 23.55 36.5 39.7 49.79 56.11 63.43 39.83 49.79 23.55"/><polygon class="cls-3" points="49.79 173.12 36.5 189.27 49.79 205.68 63.43 189.4 49.79 173.12"/><polygon class="cls-3" points="49.79 98.34 36.5 114.49 49.79 130.89 63.43 114.61 49.79 98.34"/><polygon class="cls-3" points="114.44 23.55 101.15 39.7 114.44 56.11 128.08 39.83 114.44 23.55"/><polygon class="cls-3" points="114.44 173.12 101.15 189.27 114.44 205.68 128.08 189.4 114.44 173.12"/><polygon class="cls-3" points="114.44 98.34 101.15 114.49 114.44 130.89 128.08 114.61 114.44 98.34"/></g></g></svg>