<svg xmlns="http://www.w3.org/2000/svg" viewBox="0 0 166.59 233.13"><defs><style>.cls-1{fill:#fff;}.cls-2{fill:#65a7dd;}.cls-3{fill:#af0f07;}.cls-4{fill:#a43e32;}</style></defs><g id="Calque_2" data-name="Calque 2"><g id="Objects"><rect class="cls-1" x="0.12" y="0.12" width="166.36" height="232.9" rx="5.94"/><path class="cls-2" d="M160.53,233.13H6.06a6.07,6.07,0,0,1-6.06-6V6.06A6.07,6.07,0,0,1,6.06,0H160.53a6.07,6.07,0,0,1,6.06,6.06v221A6.07,6.07,0,0,1,160.53,233.13ZM6.06.23A5.83,5.83,0,0,0,.23,6.06v221a5.83,5.83,0,0,0,5.83,5.82H160.53a5.83,5.83,0,0,0,5.83-5.82V6.06A5.84,5.84,0,0,0,160.53.23Z"/><path class="cls-1" d="M149.2,18.48a.58.58,0,0,1-.57.57.57.57,0,1,1,0-1.14A.58.58,0,0,1,149.2,18.48Z"/><path class="cls-1" d="M122.07,18.48a.58.58,0,0,1-.57.57.57.57,0,1,1,0-1.14A.58.58,0,0,1,122.07,18.48Z"/><path class="cls-1" d="M97.11,18.48a.57.57,0,1,1-.57-.57A.57.57,0,0,1,97.11,18.48Z"/><path class="cls-1" d="M72.06,18.66a.56.56,0,0,1-.57.57.57.57,0,1,1,0-1.13A.56.56,0,0,1,72.06,18.66Z"/><path class="cls-1" d="M149.2,39.62a.57.57,0,0,1-.57.57.56.56,0,0,1-.57-.57.57.57,0,0,1,.57-.57A.58.58,0,0,1,149.2,39.62Z"/><path class="cls-1" d="M149.2,58.91a.57.57,0,0,1-.57.57.57.57,0,1,1,.57-.57Z"/><path class="cls-1" d="M149.2,79.13a.57.57,0,0,1-.57.57.56.56,0,0,1-.57-.57.57.57,0,0,1,.57-.57A.58.58,0,0,1,149.2,79.13Z"/><path class="cls-1" d="M149.2,91.91a.57.57,0,0,1-.57.57.57.57,0,1,1,.57-.57Z"/><path class="cls-1" d="M149.2,104.74a.57.57,0,0,1-.57.57.57.57,0,1,1,.57-.57Z"/><path class="cls-1" d="M18.9,19.05a.57.57,0,0,1-.57.57.57.57,0,0,1,0-1.14A.57.57,0,0,1,18.9,19.05Z"/><path class="cls-1" d="M46.34,18.66a.56.56,0,0,1-.57.57.57.57,0,1,1,0-1.13A.56.56,0,0,1,46.34,18.66Z"/><path class="cls-1" d="M18.9,39.17a.56.56,0,0,1-.57.57.57.57,0,0,1-.57-.57.58.58,0,0,1,.57-.57A.57.57,0,0,1,18.9,39.17Z"/><path class="cls-1" d="M18.9,59.05a.56.56,0,0,1-.57.56.57.57,0,1,1,.57-.56Z"/><path class="cls-1" d="M18.9,79a.57.57,0,0,1-.57.57.57.57,0,1,1,0-1.14A.57.57,0,0,1,18.9,79Z"/><path class="cls-1" d="M18.9,91.91a.56.56,0,0,1-.57.57.57.57,0,1,1,0-1.13A.56.56,0,0,1,18.9,91.91Z"/><path class="cls-1" d="M18.9,105.31a.56.56,0,0,1-.57.57.57.57,0,0,1-.57-.57.58.58,0,0,1,.57-.57A.57.57,0,0,1,18.9,105.31Z"/><path class="cls-1" d="M18.9,118.24a.56.56,0,0,1-.57.57.57.57,0,1,1,0-1.13A.56.56,0,0,1,18.9,118.24Z"/><path class="cls-1" d="M18.9,131.17a.57.57,0,0,1-.57.57.58.58,0,0,1-.57-.57.57.57,0,0,1,.57-.57A.56.56,0,0,1,18.9,131.17Z"/><path class="cls-1" d="M18.9,144.57a.57.57,0,0,1-.57.57.58.58,0,0,1-.57-.57.57.57,0,0,1,.57-.57A.56.56,0,0,1,18.9,144.57Z"/><path class="cls-1" d="M18.9,158a.56.56,0,0,1-.57.56.57.57,0,1,1,.57-.56Z"/><path class="cls-1" d="M18.9,170a.56.56,0,0,1-.57.56.57.57,0,1,1,.57-.56Z"/><path class="cls-1" d="M18.9,183.39a.56.56,0,0,1-.57.57.57.57,0,0,1-.57-.57.58.58,0,0,1,.57-.57A.57.57,0,0,1,18.9,183.39Z"/><path class="cls-1" d="M18.9,196.44a.56.56,0,0,1-.57.57.57.57,0,0,1-.57-.57.58.58,0,0,1,.57-.57A.57.57,0,0,1,18.9,196.44Z"/><path class="cls-1" d="M19.13,215.63a.57.57,0,0,1-.57.57.58.58,0,0,1-.57-.57.57.57,0,0,1,.57-.57A.56.56,0,0,1,19.13,215.63Z"/><path class="cls-1" d="M39.66,216.2a.57.57,0,1,1-.57-.57A.57.57,0,0,1,39.66,216.2Z"/><path class="cls-1" d="M66.11,216.2a.57.57,0,1,1-.57-.57A.57.57,0,0,1,66.11,216.2Z"/><path class="cls-1" d="M92.51,216.2a.57.57,0,1,1-.57-.57A.56.56,0,0,1,92.51,216.2Z"/><path class="cls-1" d="M118.24,216.2a.57.57,0,0,1-.57.56.57.57,0,1,1,0-1.13A.57.57,0,0,1,118.24,216.2Z"/><path class="cls-1" d="M149.2,117.93a.58.58,0,0,1-.57.57.57.57,0,0,1-.57-.57.56.56,0,0,1,.57-.57A.57.57,0,0,1,149.2,117.93Z"/><path class="cls-1" d="M149.2,130.26a.58.58,0,0,1-.57.57.57.57,0,0,1-.57-.57.56.56,0,0,1,.57-.57A.57.57,0,0,1,149.2,130.26Z"/><path class="cls-1" d="M149.2,143.55a.58.58,0,0,1-.57.57.57.57,0,0,1,0-1.14A.58.58,0,0,1,149.2,143.55Z"/><path class="cls-1" d="M149.2,156.65a.57.57,0,0,1-.57.57.56.56,0,0,1-.57-.57.57.57,0,0,1,.57-.57A.58.58,0,0,1,149.2,156.65Z"/><path class="cls-1" d="M149.2,169.41a.58.58,0,0,1-.57.57.57.57,0,0,1-.57-.57.56.56,0,0,1,.57-.57A.57.57,0,0,1,149.2,169.41Z"/><path class="cls-1" d="M149.2,182a.57.57,0,0,1-.57.57.56.56,0,0,1-.57-.57.57.57,0,0,1,.57-.57A.58.58,0,0,1,149.2,182Z"/><path class="cls-1" d="M149.2,194.82a.57.57,0,0,1-.57.57.56.56,0,0,1-.57-.57.57.57,0,0,1,.57-.57A.58.58,0,0,1,149.2,194.82Z"/><path class="cls-1" d="M149.2,214.39a.57.57,0,0,1-.57.57.56.56,0,0,1-.57-.57.57.57,0,0,1,.57-.57A.58.58,0,0,1,149.2,214.39Z"/><path class="cls-3" d="M64.64,28.65c-5.48-.13-6.74,4.06-7,6.07-.3-2-1.56-6.2-7-6.07-7.21.18-8.16,8.25-5.65,12.34a38.18,38.18,0,0,0,6.34,8c2.38,2.45,5.21,5.21,6.26,6.9,0,0,0,.2.09.15s.08-.15.08-.15c1.05-1.69,3.88-4.45,6.26-6.9a38.18,38.18,0,0,0,6.34-8C72.8,36.9,71.85,28.83,64.64,28.65Z"/><path class="cls-3" d="M64.64,104.45c-5.48-.13-6.74,4-7,6.07-.3-2-1.56-6.2-7-6.07-7.21.17-8.16,8.25-5.65,12.33a37.91,37.91,0,0,0,6.34,8c2.38,2.46,5.21,5.22,6.26,6.91,0,0,0,.2.09.14s.08-.14.08-.14c1.05-1.69,3.88-4.45,6.26-6.91a37.91,37.91,0,0,0,6.34-8C72.8,112.7,71.85,104.62,64.64,104.45Z"/><path class="cls-3" d="M64.64,207.63c-5.48.13-6.74-4.06-7-6.07-.3,2-1.56,6.2-7,6.07-7.21-.18-8.16-8.26-5.65-12.34a38.18,38.18,0,0,1,6.34-8c2.38-2.45,5.21-5.21,6.26-6.91,0,0,0-.19.09-.14s.08.14.08.14c1.05,1.7,3.88,4.46,6.26,6.91a38.18,38.18,0,0,1,6.34,8C72.8,199.37,71.85,207.45,64.64,207.63Z"/><path class="cls-3" d="M116.4,28.65c-5.49-.13-6.75,4.06-7,6.07-.29-2-1.55-6.2-7-6.07-7.21.18-8.17,8.25-5.65,12.34A37.85,37.85,0,0,0,103,49c2.37,2.45,5.21,5.21,6.25,6.9,0,0,.06.2.09.15s.09-.15.09-.15c1-1.69,3.88-4.45,6.25-6.9A37.85,37.85,0,0,0,122,41C124.56,36.9,123.61,28.83,116.4,28.65Z"/><path class="cls-3" d="M116.4,104.45c-5.49-.13-6.75,4-7,6.07-.29-2-1.55-6.2-7-6.07-7.21.17-8.17,8.25-5.65,12.33a37.6,37.6,0,0,0,6.34,8c2.37,2.46,5.21,5.22,6.25,6.91,0,0,.06.2.09.14s.09-.14.09-.14c1-1.69,3.88-4.45,6.25-6.91a37.6,37.6,0,0,0,6.34-8C124.56,112.7,123.61,104.62,116.4,104.45Z"/><path class="cls-3" d="M116.4,207.63c-5.49.13-6.75-4.06-7-6.07-.29,2-1.55,6.2-7,6.07-7.21-.18-8.17-8.26-5.65-12.34a37.85,37.85,0,0,1,6.34-8c2.37-2.45,5.21-5.21,6.25-6.91,0,0,.06-.19.09-.14s.09.14.09.14c1,1.7,3.88,4.46,6.25,6.91a37.85,37.85,0,0,1,6.34,8C124.56,199.37,123.61,207.45,116.4,207.63Z"/><path class="cls-4" d="M14.19,28.36a4.9,4.9,0,0,1-1.49-2.22,10,10,0,0,1-.52-3.41,12.14,12.14,0,0,1,.4-3.12,7.18,7.18,0,0,1,1.19-2.55,4.13,4.13,0,0,1,3.32-1.82,2.88,2.88,0,0,1,2.23.93,2.27,2.27,0,0,1,.42.78,2.77,2.77,0,0,1,.12.75,1.42,1.42,0,0,1-.48,1.11,1.19,1.19,0,0,1-.8.29.82.82,0,0,1-.7-.35.81.81,0,0,1-.12-.25,1.3,1.3,0,0,1,0-.31A.9.9,0,0,1,18,17.6a2.73,2.73,0,0,1,.37-.32.63.63,0,0,0,.24-.25.56.56,0,0,0,.07-.3.74.74,0,0,0-.4-.61,2.27,2.27,0,0,0-1.21-.26,2.34,2.34,0,0,0-1.33.41,3.06,3.06,0,0,0-1.06,1.35,6.9,6.9,0,0,0-.5,1.81A11.43,11.43,0,0,0,14,21.25v.88l.14.06A2.92,2.92,0,0,1,15.19,21a2.66,2.66,0,0,1,1.41-.47,3.62,3.62,0,0,1,2.19.64A3.46,3.46,0,0,1,20,22.6a4.86,4.86,0,0,1,.41,2,5.24,5.24,0,0,1-.47,2.11,4.48,4.48,0,0,1-1.37,1.76,3.59,3.59,0,0,1-4.34-.08Zm3.93-1a5.87,5.87,0,0,0,.54-2.56,6.31,6.31,0,0,0-.47-2.59,1.6,1.6,0,0,0-1.55-1,1.85,1.85,0,0,0-1.22.44,3.11,3.11,0,0,0-.87,1.27,5.29,5.29,0,0,0-.32,1.9,6,6,0,0,0,.51,2.65,1.71,1.71,0,0,0,1.67,1A1.77,1.77,0,0,0,18.12,27.39Z"/><path class="cls-4" d="M150.56,211.53a4.85,4.85,0,0,1,1.48,2.22,10,10,0,0,1,.53,3.4,12.22,12.22,0,0,1-.41,3.13,7.21,7.21,0,0,1-1.18,2.54,4.15,4.15,0,0,1-3.32,1.83,2.91,2.91,0,0,1-2.24-.94,2.13,2.13,0,0,1-.41-.77,2.57,2.57,0,0,1-.13-.76,1.41,1.41,0,0,1,.49-1.11,1.17,1.17,0,0,1,.79-.29.82.82,0,0,1,.7.35.7.7,0,0,1,.13.26,1.24,1.24,0,0,1,0,.31.91.91,0,0,1-.26.58,1.91,1.91,0,0,1-.37.33.78.78,0,0,0-.24.24.7.7,0,0,0-.07.3.75.75,0,0,0,.4.61,2.21,2.21,0,0,0,1.22.26,2.4,2.4,0,0,0,1.32-.4,3,3,0,0,0,1.06-1.36,7.16,7.16,0,0,0,.51-1.81,12.53,12.53,0,0,0,.17-1.82v-.87l-.13-.06a3.05,3.05,0,0,1-1.08,1.21,2.57,2.57,0,0,1-1.41.48,3.68,3.68,0,0,1-2.19-.64,3.63,3.63,0,0,1-1.17-1.47,4.85,4.85,0,0,1-.4-2,5.22,5.22,0,0,1,.46-2.11,4.45,4.45,0,0,1,1.37-1.75,3.35,3.35,0,0,1,2.13-.7A3.42,3.42,0,0,1,150.56,211.53Zm-3.94,1a5.83,5.83,0,0,0-.54,2.56,6.29,6.29,0,0,0,.47,2.58,1.6,1.6,0,0,0,1.55,1,1.89,1.89,0,0,0,1.23-.45,3,3,0,0,0,.86-1.27,5.27,5.27,0,0,0,.32-1.89,6,6,0,0,0-.51-2.65,1.72,1.72,0,0,0-1.66-1A1.79,1.79,0,0,0,146.62,212.5Z"/><path class="cls-3" d="M19.55,34.67a2.26,2.26,0,0,0-2.44,2.11,2.27,2.27,0,0,0-2.45-2.11c-2.5.06-2.83,2.87-1.95,4.28a12.56,12.56,0,0,0,2.2,2.77,22.57,22.57,0,0,1,2.17,2.4s0,.07,0,.05,0-.05,0-.05a21.28,21.28,0,0,1,2.16-2.4A12.56,12.56,0,0,0,21.5,39C22.38,37.54,22.05,34.73,19.55,34.67Z"/><path class="cls-3" d="M150.78,206.83a2.25,2.25,0,0,1-2.44-2.1,2.25,2.25,0,0,1-2.44,2.1c-2.5-.06-2.83-2.86-2-4.28a13.72,13.72,0,0,1,2.2-2.77,20.6,20.6,0,0,0,2.17-2.39s0-.07,0,0,0,0,0,0a22.62,22.62,0,0,0,2.17,2.39,13.06,13.06,0,0,1,2.2,2.77C153.62,204,153.28,206.77,150.78,206.83Z"/></g></g></svg>