<svg xmlns="http://www.w3.org/2000/svg" viewBox="0 0 166.59 233.13"><defs><style>.cls-1{fill:#fff;}.cls-2{fill:#65a7dd;}.cls-3{fill:#151515;}</style></defs><g id="Calque_2" data-name="Calque 2"><g id="Objects"><rect class="cls-1" x="0.12" y="0.12" width="166.36" height="232.9" rx="5.94"/><path class="cls-2" d="M160.53,233.13H6.06a6.07,6.07,0,0,1-6.06-6V6.06A6.07,6.07,0,0,1,6.06,0H160.53a6.07,6.07,0,0,1,6.06,6.06v221A6.07,6.07,0,0,1,160.53,233.13ZM6.06.23A5.83,5.83,0,0,0,.23,6.06v221a5.83,5.83,0,0,0,5.83,5.82H160.53a5.83,5.83,0,0,0,5.83-5.82V6.06A5.84,5.84,0,0,0,160.53.23Z"/><path class="cls-1" d="M149.2,18.48a.58.58,0,0,1-.57.57.57.57,0,1,1,0-1.14A.58.58,0,0,1,149.2,18.48Z"/><path class="cls-1" d="M122.07,18.48a.58.58,0,0,1-.57.57.57.57,0,1,1,0-1.14A.58.58,0,0,1,122.07,18.48Z"/><path class="cls-1" d="M97.11,18.48a.57.57,0,1,1-.57-.57A.57.57,0,0,1,97.11,18.48Z"/><path class="cls-1" d="M72.06,18.66a.56.56,0,0,1-.57.57.57.57,0,1,1,0-1.13A.56.56,0,0,1,72.06,18.66Z"/><path class="cls-1" d="M149.2,39.62a.57.57,0,0,1-.57.57.56.56,0,0,1-.57-.57.57.57,0,0,1,.57-.57A.58.58,0,0,1,149.2,39.62Z"/><path class="cls-1" d="M149.2,58.91a.57.57,0,0,1-.57.57.57.57,0,1,1,.57-.57Z"/><path class="cls-1" d="M149.2,79.13a.57.57,0,0,1-.57.57.56.56,0,0,1-.57-.57.57.57,0,0,1,.57-.57A.58.58,0,0,1,149.2,79.13Z"/><path class="cls-1" d="M149.2,91.91a.57.57,0,0,1-.57.57.57.57,0,1,1,.57-.57Z"/><path class="cls-1" d="M149.2,104.74a.57.57,0,0,1-.57.57.57.57,0,1,1,.57-.57Z"/><path class="cls-1" d="M18.9,19.05a.57.57,0,0,1-.57.57.57.57,0,0,1,0-1.14A.57.57,0,0,1,18.9,19.05Z"/><path class="cls-1" d="M46.34,18.66a.56.56,0,0,1-.57.57.57.57,0,1,1,0-1.13A.56.56,0,0,1,46.34,18.66Z"/><path class="cls-1" d="M18.9,39.17a.56.56,0,0,1-.57.57.57.57,0,0,1-.57-.57.58.58,0,0,1,.57-.57A.57.57,0,0,1,18.9,39.17Z"/><path class="cls-1" d="M18.9,59.05a.56.56,0,0,1-.57.56.57.57,0,1,1,.57-.56Z"/><path class="cls-1" d="M18.9,79a.57.57,0,0,1-.57.57.57.57,0,1,1,0-1.14A.57.57,0,0,1,18.9,79Z"/><path class="cls-1" d="M18.9,91.91a.56.56,0,0,1-.57.57.57.57,0,1,1,0-1.13A.56.56,0,0,1,18.9,91.91Z"/><path class="cls-1" d="M18.9,105.31a.56.56,0,0,1-.57.57.57.57,0,0,1-.57-.57.58.58,0,0,1,.57-.57A.57.57,0,0,1,18.9,105.31Z"/><path class="cls-1" d="M18.9,118.24a.56.56,0,0,1-.57.57.57.57,0,1,1,0-1.13A.56.56,0,0,1,18.9,118.24Z"/><path class="cls-1" d="M18.9,131.17a.57.57,0,0,1-.57.57.58.58,0,0,1-.57-.57.57.57,0,0,1,.57-.57A.56.56,0,0,1,18.9,131.17Z"/><path class="cls-1" d="M18.9,144.57a.57.57,0,0,1-.57.57.58.58,0,0,1-.57-.57.57.57,0,0,1,.57-.57A.56.56,0,0,1,18.9,144.57Z"/><path class="cls-1" d="M18.9,158a.56.56,0,0,1-.57.56.57.57,0,1,1,.57-.56Z"/><path class="cls-1" d="M18.9,170a.56.56,0,0,1-.57.56.57.57,0,1,1,.57-.56Z"/><path class="cls-1" d="M18.9,183.39a.56.56,0,0,1-.57.57.57.57,0,0,1-.57-.57.58.58,0,0,1,.57-.57A.57.57,0,0,1,18.9,183.39Z"/><path class="cls-1" d="M18.9,196.44a.56.56,0,0,1-.57.57.57.57,0,0,1-.57-.57.58.58,0,0,1,.57-.57A.57.57,0,0,1,18.9,196.44Z"/><path class="cls-1" d="M19.13,215.63a.56.56,0,0,1-.57.56.57.57,0,1,1,.57-.56Z"/><path class="cls-1" d="M39.66,216.19a.57.57,0,1,1-.57-.56A.57.57,0,0,1,39.66,216.19Z"/><path class="cls-1" d="M66.11,216.19a.57.57,0,1,1-.57-.56A.57.57,0,0,1,66.11,216.19Z"/><path class="cls-1" d="M92.51,216.19a.57.57,0,1,1-.57-.56A.56.56,0,0,1,92.51,216.19Z"/><path class="cls-1" d="M118.23,216.19a.57.57,0,1,1-.56-.56A.56.56,0,0,1,118.23,216.19Z"/><path class="cls-1" d="M149.2,117.93a.58.58,0,0,1-.57.57.57.57,0,0,1-.57-.57.56.56,0,0,1,.57-.57A.57.57,0,0,1,149.2,117.93Z"/><path class="cls-1" d="M149.2,130.26a.58.58,0,0,1-.57.57.57.57,0,0,1-.57-.57.56.56,0,0,1,.57-.57A.57.57,0,0,1,149.2,130.26Z"/><path class="cls-1" d="M149.2,143.55a.58.58,0,0,1-.57.57.57.57,0,0,1,0-1.14A.58.58,0,0,1,149.2,143.55Z"/><path class="cls-1" d="M149.2,156.65a.57.57,0,0,1-.57.57.56.56,0,0,1-.57-.57.57.57,0,0,1,.57-.57A.58.58,0,0,1,149.2,156.65Z"/><path class="cls-1" d="M149.2,169.41a.58.58,0,0,1-.57.57.57.57,0,0,1-.57-.57.56.56,0,0,1,.57-.57A.57.57,0,0,1,149.2,169.41Z"/><path class="cls-1" d="M149.2,182a.57.57,0,0,1-.57.57.56.56,0,0,1-.57-.57.57.57,0,0,1,.57-.57A.58.58,0,0,1,149.2,182Z"/><path class="cls-1" d="M149.2,194.82a.57.57,0,0,1-.57.57.56.56,0,0,1-.57-.57.57.57,0,0,1,.57-.57A.58.58,0,0,1,149.2,194.82Z"/><path class="cls-1" d="M149.2,214.39a.57.57,0,0,1-.57.57.56.56,0,0,1-.57-.57.57.57,0,0,1,.57-.57A.58.58,0,0,1,149.2,214.39Z"/><path d="M14.56,22.48a4.86,4.86,0,0,1-1.48-2.23,10,10,0,0,1-.53-3.4A12.28,12.28,0,0,1,13,13.72a7.21,7.21,0,0,1,1.18-2.54,4.12,4.12,0,0,1,3.32-1.82,2.88,2.88,0,0,1,2.23.93,2,2,0,0,1,.42.77,3,3,0,0,1,.13.76,1.44,1.44,0,0,1-.49,1.11,1.17,1.17,0,0,1-.79.29.82.82,0,0,1-.7-.35.75.75,0,0,1-.13-.25,1.3,1.3,0,0,1,0-.31,1,1,0,0,1,.25-.59,2.25,2.25,0,0,1,.37-.33.64.64,0,0,0,.25-.24.67.67,0,0,0,.06-.3.74.74,0,0,0-.39-.61A2.21,2.21,0,0,0,17.42,10a2.43,2.43,0,0,0-1.33.4A3.07,3.07,0,0,0,15,11.74a7.16,7.16,0,0,0-.51,1.81,11.26,11.26,0,0,0-.17,1.82v.88l.13.05a3,3,0,0,1,1.08-1.21A2.52,2.52,0,0,1,17,14.62a3.66,3.66,0,0,1,2.19.64,3.52,3.52,0,0,1,1.16,1.46,4.7,4.7,0,0,1,.41,2,5.22,5.22,0,0,1-.46,2.11,4.45,4.45,0,0,1-1.37,1.75,3.35,3.35,0,0,1-2.13.7A3.46,3.46,0,0,1,14.56,22.48Zm3.94-1A5.88,5.88,0,0,0,19,18.94a6.3,6.3,0,0,0-.46-2.58,1.6,1.6,0,0,0-1.55-1,1.89,1.89,0,0,0-1.23.45,3,3,0,0,0-.86,1.27,5.27,5.27,0,0,0-.32,1.89,6.14,6.14,0,0,0,.5,2.65,1.72,1.72,0,0,0,1.67,1A1.79,1.79,0,0,0,18.5,21.51Z"/><path d="M150.93,205.64a5,5,0,0,1,1.49,2.23,10,10,0,0,1,.52,3.4,12.21,12.21,0,0,1-.4,3.13,7.21,7.21,0,0,1-1.19,2.54,4.11,4.11,0,0,1-3.32,1.82,2.88,2.88,0,0,1-2.23-.93,2.32,2.32,0,0,1-.42-.77,2.89,2.89,0,0,1-.12-.76,1.43,1.43,0,0,1,.48-1.11,1.19,1.19,0,0,1,.8-.29.82.82,0,0,1,.7.35.93.93,0,0,1,.12.25,1.3,1.3,0,0,1,0,.31.9.9,0,0,1-.25.59,2.25,2.25,0,0,1-.37.33.61.61,0,0,0-.24.24.56.56,0,0,0-.07.3.73.73,0,0,0,.4.61,2.18,2.18,0,0,0,1.21.26,2.41,2.41,0,0,0,1.33-.4,3.16,3.16,0,0,0,1.06-1.36,6.79,6.79,0,0,0,.5-1.81,11.43,11.43,0,0,0,.18-1.82v-.88l-.14-.05a2.91,2.91,0,0,1-1.08,1.21,2.52,2.52,0,0,1-1.4.47,3.67,3.67,0,0,1-2.2-.64,3.52,3.52,0,0,1-1.16-1.46,4.86,4.86,0,0,1-.41-2,5.24,5.24,0,0,1,.47-2.11,4.36,4.36,0,0,1,1.37-1.75,3.34,3.34,0,0,1,2.12-.7A3.46,3.46,0,0,1,150.93,205.64Zm-3.94,1a6,6,0,0,0-.53,2.56,6.29,6.29,0,0,0,.47,2.58,1.59,1.59,0,0,0,1.55,1,1.86,1.86,0,0,0,1.22-.45,3,3,0,0,0,.86-1.27,5.06,5.06,0,0,0,.33-1.89,6,6,0,0,0-.51-2.65,1.73,1.73,0,0,0-1.67-1A1.78,1.78,0,0,0,147,206.62Z"/><path class="cls-3" d="M66.22,35.17c-3.68-4-7.95-7.92-9.74-10-1.34-1.54-2.29-2.71-2.68-3.2v-.25a1,1,0,0,1-.1.13l-.1-.13V22c-.39.49-1.34,1.66-2.68,3.2-1.79,2.05-6.06,6-9.73,10a12.18,12.18,0,0,0-3.28,11.34c.69,3.32,4.17,6.45,9.63,5.77a6.12,6.12,0,0,0,3.89-2.07,12.74,12.74,0,0,1-3.16,7.16h10.6A13.57,13.57,0,0,1,56,50.24a6.13,6.13,0,0,0,3.86,2c5.46.68,8.94-2.45,9.64-5.77A12.23,12.23,0,0,0,66.22,35.17Z"/><path class="cls-3" d="M66.22,111.75c-3.68-4-7.95-7.92-9.74-10-1.34-1.54-2.29-2.71-2.68-3.2v-.25l-.1.12-.1-.12v.25c-.39.49-1.34,1.66-2.68,3.2-1.79,2-6.06,6-9.73,10a12.16,12.16,0,0,0-3.28,11.34c.69,3.32,4.17,6.45,9.63,5.76a6.07,6.07,0,0,0,3.89-2.06,12.74,12.74,0,0,1-3.16,7.15h10.6A13.54,13.54,0,0,1,56,126.82a6.08,6.08,0,0,0,3.86,2c5.46.69,8.94-2.44,9.64-5.76A12.22,12.22,0,0,0,66.22,111.75Z"/><path class="cls-3" d="M66.22,194.59c-3.68,4-7.95,7.92-9.74,10-1.34,1.54-2.29,2.71-2.68,3.2V208l-.1-.12-.1.12v-.25c-.39-.49-1.34-1.66-2.68-3.2-1.79-2.05-6.06-6-9.73-10a12.16,12.16,0,0,1-3.28-11.34c.69-3.32,4.17-6.45,9.63-5.76a6.07,6.07,0,0,1,3.89,2.06,12.69,12.69,0,0,0-3.16-7.15h10.6A13.54,13.54,0,0,0,56,179.52a6.08,6.08,0,0,1,3.86-2c5.46-.69,8.94,2.44,9.64,5.76A12.22,12.22,0,0,1,66.22,194.59Z"/><path class="cls-3" d="M126.29,35.17c-3.67-4-7.94-7.92-9.73-10-1.34-1.54-2.29-2.71-2.68-3.2v-.25l-.1.13a1,1,0,0,1-.1-.13V22c-.39.49-1.34,1.66-2.69,3.2-1.78,2.05-6,6-9.73,10A12.23,12.23,0,0,0,98,46.51c.7,3.32,4.17,6.45,9.64,5.77a6.1,6.1,0,0,0,3.88-2.07,12.67,12.67,0,0,1-3.16,7.16h10.6a13.66,13.66,0,0,1-2.87-7.13,6.16,6.16,0,0,0,3.86,2c5.47.68,8.94-2.45,9.64-5.77A12.2,12.2,0,0,0,126.29,35.17Z"/><path class="cls-3" d="M126.29,111.75c-3.67-4-7.94-7.92-9.73-10-1.34-1.54-2.29-2.71-2.68-3.2v-.25l-.1.12-.1-.12v.25c-.39.49-1.34,1.66-2.69,3.2-1.78,2-6,6-9.73,10A12.22,12.22,0,0,0,98,123.09c.7,3.32,4.17,6.45,9.64,5.76a6,6,0,0,0,3.88-2.06,12.66,12.66,0,0,1-3.16,7.15h10.6a13.63,13.63,0,0,1-2.87-7.12,6.1,6.1,0,0,0,3.86,2c5.47.69,8.94-2.44,9.64-5.76A12.19,12.19,0,0,0,126.29,111.75Z"/><path class="cls-3" d="M126.29,194.59c-3.67,4-7.94,7.92-9.73,10-1.34,1.54-2.29,2.71-2.68,3.2V208l-.1-.12-.1.12v-.25c-.39-.49-1.34-1.66-2.69-3.2-1.78-2.05-6-6-9.73-10A12.22,12.22,0,0,1,98,183.25c.7-3.32,4.17-6.45,9.64-5.76a6,6,0,0,1,3.88,2.06,12.61,12.61,0,0,0-3.16-7.15h10.6a13.63,13.63,0,0,0-2.87,7.12,6.1,6.1,0,0,1,3.86-2c5.47-.69,8.94,2.44,9.64,5.76A12.16,12.16,0,0,1,126.29,194.59Z"/><path class="cls-3" d="M151.56,197c-1.07,1.17-2.32,2.31-2.84,2.91s-.67.79-.78.94v.07l0,0,0,0v-.07c-.12-.15-.39-.49-.78-.94s-1.77-1.74-2.84-2.91a3.53,3.53,0,0,1-1-3.3,2.39,2.39,0,0,1,2.81-1.69,1.79,1.79,0,0,1,1.13.61,3.7,3.7,0,0,0-.92-2.09h3.09a4,4,0,0,0-.83,2.08,1.78,1.78,0,0,1,1.12-.6,2.38,2.38,0,0,1,2.81,1.69A3.52,3.52,0,0,1,151.56,197Z"/><path class="cls-3" d="M21.25,30.87c-1.08-1.17-2.32-2.31-2.84-2.91s-.67-.79-.79-.93V27l0,0,0,0V27l-.79.93c-.52.6-1.76,1.74-2.84,2.91A3.54,3.54,0,0,0,13,34.18a2.37,2.37,0,0,0,2.81,1.68,1.76,1.76,0,0,0,1.13-.6A3.69,3.69,0,0,1,16,37.34H19.1a4.06,4.06,0,0,1-.84-2.07,1.8,1.8,0,0,0,1.13.59,2.37,2.37,0,0,0,2.81-1.68A3.57,3.57,0,0,0,21.25,30.87Z"/></g></g></svg>