<svg xmlns="http://www.w3.org/2000/svg" viewBox="0 0 166.59 233.13"><defs><style>.cls-1{fill:#fff;}.cls-2{fill:#65a7dd;}.cls-3{fill:#151515;}</style></defs><g id="Calque_2" data-name="Calque 2"><g id="Objects"><rect class="cls-1" x="0.12" y="0.12" width="166.36" height="232.9" rx="5.94"/><path class="cls-2" d="M160.53,233.13H6.06a6.07,6.07,0,0,1-6.06-6V6.06A6.07,6.07,0,0,1,6.06,0H160.53a6.07,6.07,0,0,1,6.06,6.06v221A6.07,6.07,0,0,1,160.53,233.13ZM6.06.23A5.83,5.83,0,0,0,.23,6.06v221a5.83,5.83,0,0,0,5.83,5.82H160.53a5.83,5.83,0,0,0,5.83-5.82V6.06A5.84,5.84,0,0,0,160.53.23Z"/><path class="cls-1" d="M149.2,18.48a.58.58,0,0,1-.57.57.57.57,0,1,1,0-1.14A.58.58,0,0,1,149.2,18.48Z"/><path class="cls-1" d="M122.07,18.48a.58.58,0,0,1-.57.57.57.57,0,1,1,0-1.14A.58.58,0,0,1,122.07,18.48Z"/><path class="cls-1" d="M97.11,18.48a.57.57,0,1,1-.57-.57A.57.57,0,0,1,97.11,18.48Z"/><path class="cls-1" d="M72.06,18.66a.56.56,0,0,1-.57.57.57.57,0,1,1,0-1.13A.56.56,0,0,1,72.06,18.66Z"/><path class="cls-1" d="M149.2,39.62a.57.57,0,0,1-.57.57.56.56,0,0,1-.57-.57.57.57,0,0,1,.57-.57A.58.58,0,0,1,149.2,39.62Z"/><path class="cls-1" d="M149.2,58.91a.57.57,0,0,1-.57.57.57.57,0,1,1,.57-.57Z"/><path class="cls-1" d="M149.2,79.13a.57.57,0,0,1-.57.57.56.56,0,0,1-.57-.57.57.57,0,0,1,.57-.57A.58.58,0,0,1,149.2,79.13Z"/><path class="cls-1" d="M149.2,91.91a.57.57,0,0,1-.57.57.57.57,0,1,1,.57-.57Z"/><path class="cls-1" d="M149.2,104.74a.57.57,0,0,1-.57.57.57.57,0,1,1,.57-.57Z"/><path class="cls-1" d="M18.9,19.05a.57.57,0,0,1-.57.57.57.57,0,0,1,0-1.14A.57.57,0,0,1,18.9,19.05Z"/><path class="cls-1" d="M46.34,18.66a.56.56,0,0,1-.57.57.57.57,0,1,1,0-1.13A.56.56,0,0,1,46.34,18.66Z"/><path class="cls-1" d="M18.9,39.17a.56.56,0,0,1-.57.57.57.57,0,0,1-.57-.57.58.58,0,0,1,.57-.57A.57.57,0,0,1,18.9,39.17Z"/><path class="cls-1" d="M18.9,59.05a.56.56,0,0,1-.57.56.57.57,0,1,1,.57-.56Z"/><path class="cls-1" d="M18.9,79a.57.57,0,0,1-.57.57.57.57,0,1,1,0-1.14A.57.57,0,0,1,18.9,79Z"/><path class="cls-1" d="M18.9,91.91a.56.56,0,0,1-.57.57.57.57,0,1,1,0-1.13A.56.56,0,0,1,18.9,91.91Z"/><path class="cls-1" d="M18.9,105.31a.56.56,0,0,1-.57.57.57.57,0,0,1-.57-.57.58.58,0,0,1,.57-.57A.57.57,0,0,1,18.9,105.31Z"/><path class="cls-1" d="M18.9,118.24a.56.56,0,0,1-.57.57.57.57,0,1,1,0-1.13A.56.56,0,0,1,18.9,118.24Z"/><path class="cls-1" d="M18.9,131.17a.57.57,0,0,1-.57.57.58.58,0,0,1-.57-.57.57.57,0,0,1,.57-.57A.56.56,0,0,1,18.9,131.17Z"/><path class="cls-1" d="M18.9,144.57a.57.57,0,0,1-.57.57.58.58,0,0,1-.57-.57.57.57,0,0,1,.57-.57A.56.56,0,0,1,18.9,144.57Z"/><path class="cls-1" d="M18.9,158a.56.56,0,0,1-.57.56.57.57,0,1,1,.57-.56Z"/><path class="cls-1" d="M18.9,170a.56.56,0,0,1-.57.56.57.57,0,1,1,.57-.56Z"/><path class="cls-1" d="M18.9,183.39a.56.56,0,0,1-.57.57.57.57,0,0,1-.57-.57.58.58,0,0,1,.57-.57A.57.57,0,0,1,18.9,183.39Z"/><path class="cls-1" d="M18.9,196.44a.56.56,0,0,1-.57.57.57.57,0,0,1-.57-.57.58.58,0,0,1,.57-.57A.57.57,0,0,1,18.9,196.44Z"/><path class="cls-1" d="M19.13,215.63a.56.56,0,0,1-.57.56.57.57,0,1,1,.57-.56Z"/><path class="cls-1" d="M39.66,216.19a.57.57,0,1,1-.57-.56A.57.57,0,0,1,39.66,216.19Z"/><path class="cls-1" d="M66.11,216.19a.57.57,0,0,1-.57.57.57.57,0,1,1,.57-.57Z"/><path class="cls-1" d="M92.51,216.19a.57.57,0,1,1-.57-.56A.56.56,0,0,1,92.51,216.19Z"/><path class="cls-1" d="M118.23,216.19a.57.57,0,1,1-.56-.56A.56.56,0,0,1,118.23,216.19Z"/><path class="cls-1" d="M149.2,117.93a.58.58,0,0,1-.57.57.57.57,0,0,1-.57-.57.56.56,0,0,1,.57-.57A.57.57,0,0,1,149.2,117.93Z"/><path class="cls-1" d="M149.2,130.26a.58.58,0,0,1-.57.57.57.57,0,0,1-.57-.57.56.56,0,0,1,.57-.57A.57.57,0,0,1,149.2,130.26Z"/><path class="cls-1" d="M149.2,143.55a.58.58,0,0,1-.57.57.57.57,0,0,1,0-1.14A.58.58,0,0,1,149.2,143.55Z"/><path class="cls-1" d="M149.2,156.65a.57.57,0,0,1-.57.57.56.56,0,0,1-.57-.57.57.57,0,0,1,.57-.57A.58.58,0,0,1,149.2,156.65Z"/><path class="cls-1" d="M149.2,169.41a.58.58,0,0,1-.57.57.57.57,0,0,1-.57-.57.56.56,0,0,1,.57-.57A.57.57,0,0,1,149.2,169.41Z"/><path class="cls-1" d="M149.2,182a.57.57,0,0,1-.57.57.56.56,0,0,1-.57-.57.57.57,0,0,1,.57-.57A.58.58,0,0,1,149.2,182Z"/><path class="cls-1" d="M149.2,194.82a.57.57,0,0,1-.57.57.56.56,0,0,1-.57-.57.57.57,0,0,1,.57-.57A.58.58,0,0,1,149.2,194.82Z"/><path class="cls-1" d="M149.2,214.39a.57.57,0,0,1-.57.57.56.56,0,0,1-.57-.57.57.57,0,0,1,.57-.57A.58.58,0,0,1,149.2,214.39Z"/><path class="cls-3" d="M70,45c-3.57-3.91-9.07-1.59-9.07-1.59,1.54-1.64,2.56-3,2.37-5.64,0-.09,0-.18,0-.27a7.75,7.75,0,0,0-15.5,0A8.12,8.12,0,0,0,48,39.11c.18,1.86,1.1,3,2.36,4.34,0,0-5.49-2.32-9.07,1.59a8.09,8.09,0,0,0-.66,10.06c1.13,1.53,2.81,4.08,6.79,3.79,3.51-.26,4-.86,6.45-2.79A15.89,15.89,0,0,1,50.34,65h10.6C59,63,57.27,58.29,57.49,56.15c2.37,1.89,2.91,2.48,6.4,2.74,4,.29,5.66-2.26,6.78-3.79A8.07,8.07,0,0,0,70,45Z"/><path class="cls-3" d="M70,115.07c-3.57-3.9-9.07-1.58-9.07-1.58,1.54-1.65,2.56-2.95,2.37-5.64,0-.09,0-.19,0-.28a7.75,7.75,0,0,0-15.5,0,8.22,8.22,0,0,0,.16,1.58c.18,1.86,1.1,3,2.36,4.34,0,0-5.49-2.32-9.07,1.58a8.1,8.1,0,0,0-.66,10.07c1.13,1.52,2.81,4.08,6.79,3.79,3.51-.27,4-.87,6.45-2.8a15.85,15.85,0,0,1-3.51,8.94h10.6c-1.95-2-3.67-6.74-3.45-8.89,2.37,1.89,2.91,2.49,6.4,2.75,4,.29,5.66-2.27,6.78-3.79A8.09,8.09,0,0,0,70,115.07Z"/><path class="cls-3" d="M70,189.19c-3.57,3.91-9.07,1.59-9.07,1.59,1.54,1.64,2.56,2.94,2.37,5.64,0,.09,0,.18,0,.27a7.75,7.75,0,0,1-15.5,0,8.12,8.12,0,0,1,.16-1.57c.18-1.86,1.1-3,2.36-4.34,0,0-5.49,2.32-9.07-1.59a8.1,8.1,0,0,1-.66-10.07c1.13-1.52,2.81-4.08,6.79-3.78,3.51.26,4,.86,6.45,2.79a15.89,15.89,0,0,0-3.51-8.94h10.6c-1.95,2.05-3.67,6.75-3.45,8.89,2.37-1.89,2.91-2.48,6.4-2.74,4-.3,5.66,2.26,6.78,3.78A8.09,8.09,0,0,1,70,189.19Z"/><path class="cls-3" d="M129.78,45c-3.58-3.91-9.08-1.59-9.08-1.59,1.54-1.64,2.57-3,2.37-5.64a2.44,2.44,0,0,0,0-.27,7.75,7.75,0,1,0-15.49,0,7.4,7.4,0,0,0,.16,1.57c.17,1.86,1.09,3,2.36,4.34,0,0-5.5-2.32-9.07,1.59a8.09,8.09,0,0,0-.67,10.06c1.13,1.53,2.82,4.08,6.79,3.79,3.52-.26,4-.86,6.46-2.79A16,16,0,0,1,110.11,65H120.7c-1.94-2.05-3.67-6.75-3.44-8.89,2.36,1.89,2.91,2.48,6.39,2.74,4,.29,5.66-2.26,6.79-3.79A8.1,8.1,0,0,0,129.78,45Z"/><path class="cls-3" d="M129.78,115.07c-3.58-3.9-9.08-1.58-9.08-1.58,1.54-1.65,2.57-2.95,2.37-5.64a2.62,2.62,0,0,0,0-.28,7.75,7.75,0,0,0-15.49,0,7.5,7.5,0,0,0,.16,1.58c.17,1.86,1.09,3,2.36,4.34,0,0-5.5-2.32-9.07,1.58a8.11,8.11,0,0,0-.67,10.07c1.13,1.52,2.82,4.08,6.79,3.79,3.52-.27,4-.87,6.46-2.8a15.93,15.93,0,0,1-3.51,8.94H120.7c-1.94-2-3.67-6.74-3.44-8.89,2.36,1.89,2.91,2.49,6.39,2.75,4,.29,5.66-2.27,6.79-3.79A8.12,8.12,0,0,0,129.78,115.07Z"/><path class="cls-3" d="M129.78,189.19c-3.58,3.91-9.08,1.59-9.08,1.59,1.54,1.64,2.57,2.94,2.37,5.64a2.44,2.44,0,0,1,0,.27,7.75,7.75,0,1,1-15.49,0,7.4,7.4,0,0,1,.16-1.57c.17-1.86,1.09-3,2.36-4.34,0,0-5.5,2.32-9.07-1.59a8.11,8.11,0,0,1-.67-10.07c1.13-1.52,2.82-4.08,6.79-3.78,3.52.26,4,.86,6.46,2.79a16,16,0,0,0-3.51-8.94H120.7c-1.94,2.05-3.67,6.75-3.44,8.89,2.36-1.89,2.91-2.48,6.39-2.74,4-.3,5.66,2.26,6.79,3.78A8.12,8.12,0,0,1,129.78,189.19Z"/><path class="cls-3" d="M24.82,34.09a2.45,2.45,0,0,0-2.62-.46A1.89,1.89,0,0,0,22.88,32s0-.06,0-.08a2.24,2.24,0,0,0-4.48,0,2.28,2.28,0,0,0,0,.45,2,2,0,0,0,.69,1.25,2.45,2.45,0,0,0-2.62.46,2.34,2.34,0,0,0-.2,2.91,2.11,2.11,0,0,0,2,1.1,2.54,2.54,0,0,0,1.86-.81,4.6,4.6,0,0,1-1,2.58H22.2a4.4,4.4,0,0,1-1-2.57,2.53,2.53,0,0,0,1.85.8A2.08,2.08,0,0,0,25,37,2.34,2.34,0,0,0,24.82,34.09Z"/><path d="M17.66,25.37a5,5,0,0,1-1.49-2.22,10,10,0,0,1-.52-3.41,11.72,11.72,0,0,1,.41-3.12,7,7,0,0,1,1.18-2.54,4.12,4.12,0,0,1,3.32-1.83,2.88,2.88,0,0,1,2.23.93,2.46,2.46,0,0,1,.42.78,2.83,2.83,0,0,1,.12.76,1.4,1.4,0,0,1-.48,1.1,1.14,1.14,0,0,1-.8.29.83.83,0,0,1-.82-.6,1.24,1.24,0,0,1,0-.31.88.88,0,0,1,.25-.58,2.25,2.25,0,0,1,.37-.33.68.68,0,0,0,.24-.24.6.6,0,0,0,.07-.3.74.74,0,0,0-.4-.62,2.27,2.27,0,0,0-1.21-.26,2.42,2.42,0,0,0-1.33.41,3.1,3.1,0,0,0-1.06,1.36,6.82,6.82,0,0,0-.5,1.8,11.64,11.64,0,0,0-.18,1.83v.87l.14.06A2.85,2.85,0,0,1,18.67,18a2.54,2.54,0,0,1,1.4-.48,3.74,3.74,0,0,1,2.2.64,3.48,3.48,0,0,1,1.16,1.47,4.83,4.83,0,0,1,.41,2,5.16,5.16,0,0,1-.47,2.1A4.39,4.39,0,0,1,22,25.45a3.34,3.34,0,0,1-2.12.7A3.42,3.42,0,0,1,17.66,25.37Zm3.94-1a6,6,0,0,0,.53-2.56,6.24,6.24,0,0,0-.46-2.58,1.6,1.6,0,0,0-1.56-1,1.86,1.86,0,0,0-1.22.45A2.94,2.94,0,0,0,18,20a5.06,5.06,0,0,0-.32,1.89,6,6,0,0,0,.5,2.65,1.73,1.73,0,0,0,1.67,1A1.8,1.8,0,0,0,21.6,24.4Z"/><path class="cls-3" d="M146.87,199.82a2.45,2.45,0,0,0,2.62.46,1.91,1.91,0,0,0-.68,1.63.22.22,0,0,0,0,.08,2.24,2.24,0,1,0,4.48,0,1.75,1.75,0,0,0-.05-.46,2,2,0,0,0-.68-1.25,2.45,2.45,0,0,0,2.62-.46,2.32,2.32,0,0,0,.19-2.91,2.06,2.06,0,0,0-2-1.09,2.5,2.5,0,0,0-1.86.81,4.61,4.61,0,0,1,1-2.59h-3.06a4.4,4.4,0,0,1,1,2.57,2.52,2.52,0,0,0-1.85-.79,2.06,2.06,0,0,0-2,1.09A2.34,2.34,0,0,0,146.87,199.82Z"/><path d="M154,208.55a4.88,4.88,0,0,1,1.48,2.22,10,10,0,0,1,.53,3.41,12.15,12.15,0,0,1-.41,3.12,7,7,0,0,1-1.18,2.54,4.13,4.13,0,0,1-3.32,1.83,2.88,2.88,0,0,1-2.23-.93,2,2,0,0,1-.42-.78,2.88,2.88,0,0,1-.13-.76,1.4,1.4,0,0,1,.49-1.1,1.12,1.12,0,0,1,.79-.29.8.8,0,0,1,.7.35.67.67,0,0,1,.13.25,1.3,1.3,0,0,1,0,.31.93.93,0,0,1-.25.58,2.25,2.25,0,0,1-.37.33.83.83,0,0,0-.25.24.73.73,0,0,0-.06.3.75.75,0,0,0,.39.62,2.31,2.31,0,0,0,1.22.26,2.44,2.44,0,0,0,1.33-.41,3,3,0,0,0,1.05-1.36,7.2,7.2,0,0,0,.51-1.8,11.47,11.47,0,0,0,.17-1.83v-.87l-.13-.06a2.92,2.92,0,0,1-1.08,1.21,2.54,2.54,0,0,1-1.41.48,3.66,3.66,0,0,1-2.19-.64,3.48,3.48,0,0,1-1.16-1.47,4.67,4.67,0,0,1-.41-2,5.14,5.14,0,0,1,.46-2.1,4.48,4.48,0,0,1,1.37-1.76,3.57,3.57,0,0,1,4.35.08Zm-3.94,1a5.83,5.83,0,0,0-.53,2.56,6.24,6.24,0,0,0,.46,2.58,1.59,1.59,0,0,0,1.56,1,1.86,1.86,0,0,0,1.22-.45,2.94,2.94,0,0,0,.86-1.27,5.27,5.27,0,0,0,.32-1.89,6.17,6.17,0,0,0-.5-2.65,1.74,1.74,0,0,0-1.67-1A1.8,1.8,0,0,0,150.09,209.52Z"/></g></g></svg>