<svg xmlns="http://www.w3.org/2000/svg" viewBox="0 0 166.48 233.07"><defs><style>.cls-1{fill:#fff;}.cls-2{fill:#65a7dd;}.cls-3{fill:#af0f07;}.cls-4{fill:#a43e32;}</style></defs><g id="Calque_2" data-name="Calque 2"><g id="Objects"><rect class="cls-1" x="0.12" y="0.11" width="166.25" height="232.84" rx="5.94"/><path class="cls-2" d="M160.43,233.07H6.05a6.06,6.06,0,0,1-6-6V6.05A6.06,6.06,0,0,1,6.05,0H160.43a6.06,6.06,0,0,1,6,6.05V227A6.06,6.06,0,0,1,160.43,233.07ZM6.05.23A5.83,5.83,0,0,0,.23,6.05V227a5.83,5.83,0,0,0,5.82,5.82H160.43a5.83,5.83,0,0,0,5.82-5.82V6.05A5.83,5.83,0,0,0,160.43.23Z"/><path class="cls-1" d="M149.1,18.48a.56.56,0,0,1-.57.56.57.57,0,1,1,.57-.56Z"/><circle class="cls-1" cx="121.42" cy="18.48" r="0.57"/><path class="cls-1" d="M97.05,18.48a.57.57,0,1,1-.57-.57A.56.56,0,0,1,97.05,18.48Z"/><path class="cls-1" d="M72,18.66a.58.58,0,0,1-.57.57.57.57,0,0,1-.57-.57.56.56,0,0,1,.57-.57A.57.57,0,0,1,72,18.66Z"/><path class="cls-1" d="M149.1,39.61a.56.56,0,0,1-.57.57.57.57,0,0,1-.57-.57.58.58,0,0,1,.57-.57A.57.57,0,0,1,149.1,39.61Z"/><path class="cls-1" d="M149.1,58.9a.57.57,0,0,1-.57.57.58.58,0,0,1-.57-.57.57.57,0,0,1,.57-.57A.56.56,0,0,1,149.1,58.9Z"/><path class="cls-1" d="M149.1,79.11a.56.56,0,0,1-.57.57.57.57,0,0,1-.57-.57.58.58,0,0,1,.57-.57A.57.57,0,0,1,149.1,79.11Z"/><path class="cls-1" d="M149.1,91.89a.57.57,0,0,1-.57.57.57.57,0,0,1,0-1.14A.57.57,0,0,1,149.1,91.89Z"/><path class="cls-1" d="M149.1,104.72a.56.56,0,0,1-.57.56.57.57,0,1,1,.57-.56Z"/><circle class="cls-1" cx="18.32" cy="19.04" r="0.57"/><path class="cls-1" d="M46.31,18.66a.57.57,0,0,1-.57.57.58.58,0,0,1-.57-.57.57.57,0,0,1,.57-.57A.56.56,0,0,1,46.31,18.66Z"/><circle class="cls-1" cx="18.32" cy="39.16" r="0.57"/><circle class="cls-1" cx="18.32" cy="59.03" r="0.57"/><circle class="cls-1" cx="18.32" cy="78.97" r="0.57"/><circle class="cls-1" cx="18.32" cy="91.89" r="0.57"/><circle class="cls-1" cx="18.32" cy="105.29" r="0.57"/><circle class="cls-1" cx="18.32" cy="118.21" r="0.57"/><circle class="cls-1" cx="18.32" cy="131.13" r="0.57"/><circle class="cls-1" cx="18.32" cy="144.53" r="0.57"/><circle class="cls-1" cx="18.32" cy="157.95" r="0.57"/><circle class="cls-1" cx="18.32" cy="169.95" r="0.57"/><path class="cls-1" d="M18.89,183.35a.57.57,0,1,1-.57-.57A.57.57,0,0,1,18.89,183.35Z"/><circle class="cls-1" cx="18.32" cy="196.39" r="0.57"/><circle class="cls-1" cx="18.55" cy="215.57" r="0.57"/><path class="cls-1" d="M39.63,216.14a.57.57,0,1,1-.56-.57A.56.56,0,0,1,39.63,216.14Z"/><path class="cls-1" d="M66.07,216.14a.58.58,0,0,1-.57.57.57.57,0,0,1-.57-.57.56.56,0,0,1,.57-.57A.57.57,0,0,1,66.07,216.14Z"/><path class="cls-1" d="M92.46,216.14a.58.58,0,0,1-.57.57.57.57,0,0,1-.57-.57.56.56,0,0,1,.57-.57A.57.57,0,0,1,92.46,216.14Z"/><circle class="cls-1" cx="117.59" cy="216.14" r="0.57"/><path class="cls-1" d="M149.1,117.9a.57.57,0,0,1-.57.57.58.58,0,0,1-.57-.57.57.57,0,0,1,.57-.57A.56.56,0,0,1,149.1,117.9Z"/><path class="cls-1" d="M149.1,130.22a.56.56,0,0,1-.57.57.57.57,0,0,1-.57-.57.58.58,0,0,1,.57-.57A.57.57,0,0,1,149.1,130.22Z"/><path class="cls-1" d="M149.1,143.51a.56.56,0,0,1-.57.57.57.57,0,0,1-.57-.57.58.58,0,0,1,.57-.57A.57.57,0,0,1,149.1,143.51Z"/><path class="cls-1" d="M149.1,156.61a.56.56,0,0,1-.57.57.57.57,0,0,1-.57-.57.58.58,0,0,1,.57-.57A.57.57,0,0,1,149.1,156.61Z"/><path class="cls-1" d="M149.1,169.36a.56.56,0,0,1-.57.57.57.57,0,0,1-.57-.57.58.58,0,0,1,.57-.57A.57.57,0,0,1,149.1,169.36Z"/><path class="cls-1" d="M149.1,181.94a.56.56,0,0,1-.57.56.57.57,0,1,1,.57-.56Z"/><path class="cls-1" d="M149.1,194.77a.57.57,0,0,1-.57.57.57.57,0,0,1,0-1.14A.57.57,0,0,1,149.1,194.77Z"/><path class="cls-1" d="M149.1,214.34a.56.56,0,0,1-.57.56.57.57,0,1,1,.57-.56Z"/><polygon class="cls-3" points="16.26 28.37 11.54 33.58 15.74 39.31 20.59 34.05 16.26 28.37"/><polygon class="cls-3" points="148.63 193.14 143.9 198.36 148.11 204.08 152.95 198.83 148.63 193.14"/><path class="cls-4" d="M15.06,25.13a2.07,2.07,0,0,1-.42-1.36,5.76,5.76,0,0,1,.57-2.4,17.53,17.53,0,0,1,1.47-2.51l1.55-2.23a6.73,6.73,0,0,0,.71-1.29,3.21,3.21,0,0,0,.28-1.19.45.45,0,0,0-.15-.4.76.76,0,0,0-.45-.11h-4a1.48,1.48,0,0,0-1.09.34,1.87,1.87,0,0,0-.44,1l-.21,1.15h-.43l.27-4h7.45a10.46,10.46,0,0,1-.3,2.31,7,7,0,0,1-1,2.37l-1.1,1.67a4.36,4.36,0,0,0-.8,2.52,7.71,7.71,0,0,0,.12,1.45l.11.68a6.62,6.62,0,0,1,.16,1.36c0,.82-.38,1.22-1.15,1.22A1.36,1.36,0,0,1,15.06,25.13Z"/><path class="cls-4" d="M149.72,207.71a2,2,0,0,1,.41,1.36,5.68,5.68,0,0,1-.57,2.39A16.9,16.9,0,0,1,148.1,214l-1.55,2.24a6.22,6.22,0,0,0-.71,1.29,3.12,3.12,0,0,0-.28,1.19.49.49,0,0,0,.14.4.81.81,0,0,0,.46.1h4a1.45,1.45,0,0,0,1.1-.34,1.87,1.87,0,0,0,.44-1l.21-1.14h.43l-.28,4h-7.44a10.3,10.3,0,0,1,.3-2.3,7,7,0,0,1,1-2.37l1.1-1.67a4.4,4.4,0,0,0,.8-2.52,7.82,7.82,0,0,0-.12-1.46l-.12-.68a7.22,7.22,0,0,1-.15-1.36c0-.81.38-1.22,1.14-1.22A1.37,1.37,0,0,1,149.72,207.71Z"/><polygon class="cls-3" points="50.25 23.55 36.96 39.7 50.25 56.11 63.89 39.83 50.25 23.55"/><polygon class="cls-3" points="82.58 56 69.29 72.14 82.58 88.55 96.22 72.27 82.58 56"/><polygon class="cls-3" points="50.25 173.12 36.96 189.27 50.25 205.68 63.89 189.4 50.25 173.12"/><polygon class="cls-3" points="50.25 98.34 36.96 114.49 50.25 130.89 63.89 114.61 50.25 98.34"/><polygon class="cls-3" points="114.91 23.55 101.61 39.7 114.91 56.11 128.54 39.83 114.91 23.55"/><polygon class="cls-3" points="114.91 173.12 101.61 189.27 114.91 205.68 128.54 189.4 114.91 173.12"/><polygon class="cls-3" points="114.91 98.34 101.61 114.49 114.91 130.89 128.54 114.61 114.91 98.34"/></g></g></svg>