<svg xmlns="http://www.w3.org/2000/svg" viewBox="0 0 166.59 233.13"><defs><style>.cls-1{fill:#fff;}.cls-2{fill:#65a7dd;}.cls-3{fill:#a43e32;}.cls-4{fill:#af0f07;}</style></defs><g id="Calque_2" data-name="Calque 2"><g id="Objects"><rect class="cls-1" x="0.12" y="0.12" width="166.36" height="232.9" rx="5.94"/><path class="cls-2" d="M160.53,233.13H6.06a6.07,6.07,0,0,1-6.06-6V6.06A6.07,6.07,0,0,1,6.06,0H160.53a6.07,6.07,0,0,1,6.06,6.06v221A6.07,6.07,0,0,1,160.53,233.13ZM6.06.23A5.83,5.83,0,0,0,.23,6.06v221a5.83,5.83,0,0,0,5.83,5.82H160.53a5.83,5.83,0,0,0,5.83-5.82V6.06A5.84,5.84,0,0,0,160.53.23Z"/><path class="cls-1" d="M149.2,18.48a.58.58,0,0,1-.57.57.57.57,0,1,1,0-1.14A.58.58,0,0,1,149.2,18.48Z"/><path class="cls-1" d="M122.07,18.48a.58.58,0,0,1-.57.57.57.57,0,1,1,0-1.14A.58.58,0,0,1,122.07,18.48Z"/><path class="cls-1" d="M97.11,18.48a.57.57,0,1,1-.57-.57A.57.57,0,0,1,97.11,18.48Z"/><path class="cls-1" d="M72.06,18.66a.56.56,0,0,1-.57.57.57.57,0,1,1,0-1.13A.56.56,0,0,1,72.06,18.66Z"/><path class="cls-1" d="M149.2,39.62a.57.57,0,0,1-.57.57.56.56,0,0,1-.57-.57.57.57,0,0,1,.57-.57A.58.58,0,0,1,149.2,39.62Z"/><path class="cls-1" d="M149.2,58.91a.57.57,0,0,1-.57.57.57.57,0,1,1,.57-.57Z"/><path class="cls-1" d="M149.2,79.13a.57.57,0,0,1-.57.57.56.56,0,0,1-.57-.57.57.57,0,0,1,.57-.57A.58.58,0,0,1,149.2,79.13Z"/><path class="cls-1" d="M149.2,91.91a.57.57,0,0,1-.57.57.57.57,0,1,1,.57-.57Z"/><path class="cls-1" d="M149.2,104.74a.57.57,0,0,1-.57.57.57.57,0,1,1,.57-.57Z"/><path class="cls-1" d="M18.9,19.05a.57.57,0,0,1-.57.57.57.57,0,0,1,0-1.14A.57.57,0,0,1,18.9,19.05Z"/><path class="cls-1" d="M46.34,18.66a.56.56,0,0,1-.57.57.57.57,0,1,1,0-1.13A.56.56,0,0,1,46.34,18.66Z"/><path class="cls-1" d="M18.9,39.17a.56.56,0,0,1-.57.57.57.57,0,0,1-.57-.57.58.58,0,0,1,.57-.57A.57.57,0,0,1,18.9,39.17Z"/><path class="cls-1" d="M18.9,59.05a.56.56,0,0,1-.57.56.57.57,0,1,1,.57-.56Z"/><path class="cls-1" d="M18.9,79a.57.57,0,0,1-.57.57.57.57,0,1,1,0-1.14A.57.57,0,0,1,18.9,79Z"/><path class="cls-1" d="M18.9,91.91a.56.56,0,0,1-.57.57.57.57,0,1,1,0-1.13A.56.56,0,0,1,18.9,91.91Z"/><path class="cls-1" d="M18.9,105.31a.56.56,0,0,1-.57.57.57.57,0,0,1-.57-.57.58.58,0,0,1,.57-.57A.57.57,0,0,1,18.9,105.31Z"/><path class="cls-1" d="M18.9,118.24a.56.56,0,0,1-.57.57.57.57,0,1,1,0-1.13A.56.56,0,0,1,18.9,118.24Z"/><path class="cls-1" d="M18.9,131.17a.57.57,0,0,1-.57.57.58.58,0,0,1-.57-.57.57.57,0,0,1,.57-.57A.56.56,0,0,1,18.9,131.17Z"/><path class="cls-1" d="M18.9,144.57a.57.57,0,0,1-.57.57.58.58,0,0,1-.57-.57.57.57,0,0,1,.57-.57A.56.56,0,0,1,18.9,144.57Z"/><path class="cls-1" d="M18.9,158a.56.56,0,0,1-.57.56.57.57,0,1,1,.57-.56Z"/><path class="cls-1" d="M18.9,170a.56.56,0,0,1-.57.56.57.57,0,1,1,.57-.56Z"/><path class="cls-1" d="M18.9,183.39a.56.56,0,0,1-.57.57.57.57,0,0,1-.57-.57.58.58,0,0,1,.57-.57A.57.57,0,0,1,18.9,183.39Z"/><path class="cls-1" d="M18.9,196.44a.56.56,0,0,1-.57.57.57.57,0,0,1-.57-.57.58.58,0,0,1,.57-.57A.57.57,0,0,1,18.9,196.44Z"/><path class="cls-1" d="M19.13,215.63a.57.57,0,0,1-.57.57.58.58,0,0,1-.57-.57.57.57,0,0,1,.57-.57A.56.56,0,0,1,19.13,215.63Z"/><path class="cls-1" d="M39.66,216.2a.57.57,0,1,1-.57-.57A.57.57,0,0,1,39.66,216.2Z"/><path class="cls-1" d="M66.11,216.2a.57.57,0,0,1-.57.56.57.57,0,1,1,0-1.13A.57.57,0,0,1,66.11,216.2Z"/><path class="cls-1" d="M92.51,216.2a.57.57,0,1,1-.57-.57A.56.56,0,0,1,92.51,216.2Z"/><path class="cls-1" d="M118.23,216.2a.57.57,0,1,1-.56-.57A.56.56,0,0,1,118.23,216.2Z"/><path class="cls-1" d="M149.2,117.93a.58.58,0,0,1-.57.57.57.57,0,0,1-.57-.57.56.56,0,0,1,.57-.57A.57.57,0,0,1,149.2,117.93Z"/><path class="cls-1" d="M149.2,130.26a.58.58,0,0,1-.57.57.57.57,0,0,1-.57-.57.56.56,0,0,1,.57-.57A.57.57,0,0,1,149.2,130.26Z"/><path class="cls-1" d="M149.2,143.55a.58.58,0,0,1-.57.57.57.57,0,0,1,0-1.14A.58.58,0,0,1,149.2,143.55Z"/><path class="cls-1" d="M149.2,156.65a.57.57,0,0,1-.57.57.56.56,0,0,1-.57-.57.57.57,0,0,1,.57-.57A.58.58,0,0,1,149.2,156.65Z"/><path class="cls-1" d="M149.2,169.41a.58.58,0,0,1-.57.57.57.57,0,0,1-.57-.57.56.56,0,0,1,.57-.57A.57.57,0,0,1,149.2,169.41Z"/><path class="cls-1" d="M149.2,182a.57.57,0,0,1-.57.57.56.56,0,0,1-.57-.57.57.57,0,0,1,.57-.57A.58.58,0,0,1,149.2,182Z"/><path class="cls-1" d="M149.2,194.82a.57.57,0,0,1-.57.57.56.56,0,0,1-.57-.57.57.57,0,0,1,.57-.57A.58.58,0,0,1,149.2,194.82Z"/><path class="cls-1" d="M149.2,214.39a.57.57,0,0,1-.57.57.56.56,0,0,1-.57-.57.57.57,0,0,1,.57-.57A.58.58,0,0,1,149.2,214.39Z"/><path class="cls-3" d="M15.53,28.63a2.12,2.12,0,0,1-.41-1.36,5.72,5.72,0,0,1,.57-2.4,16.9,16.9,0,0,1,1.46-2.51l1.56-2.23a6.73,6.73,0,0,0,.71-1.29,3.42,3.42,0,0,0,.28-1.2.45.45,0,0,0-.15-.39.8.8,0,0,0-.46-.11h-4a1.45,1.45,0,0,0-1.1.34,2,2,0,0,0-.44,1l-.21,1.15H12.9l.27-4h7.46a10.46,10.46,0,0,1-.3,2.31,7.07,7.07,0,0,1-1,2.37L18.2,21.89a4.4,4.4,0,0,0-.79,2.53,7.78,7.78,0,0,0,.11,1.45l.12.68a7.3,7.3,0,0,1,.15,1.36c0,.82-.38,1.22-1.14,1.22A1.36,1.36,0,0,1,15.53,28.63Z"/><path class="cls-3" d="M150.28,211.25a2.12,2.12,0,0,1,.41,1.36,5.69,5.69,0,0,1-.57,2.4,16.9,16.9,0,0,1-1.46,2.51l-1.56,2.24a6.73,6.73,0,0,0-.71,1.29,3.32,3.32,0,0,0-.28,1.19.47.47,0,0,0,.15.4.79.79,0,0,0,.45.1h4a1.45,1.45,0,0,0,1.1-.34,1.87,1.87,0,0,0,.44-1l.21-1.14h.43l-.28,4h-7.45a10.3,10.3,0,0,1,.3-2.3,7,7,0,0,1,1-2.37l1.11-1.67a4.39,4.39,0,0,0,.79-2.52,8.78,8.78,0,0,0-.11-1.46l-.12-.68A7.3,7.3,0,0,1,148,212c0-.81.38-1.22,1.14-1.22A1.39,1.39,0,0,1,150.28,211.25Z"/><path class="cls-4" d="M19.7,34.67a2.26,2.26,0,0,0-2.44,2.11,2.26,2.26,0,0,0-2.44-2.11c-2.51.06-2.84,2.87-2,4.28a12.56,12.56,0,0,0,2.2,2.77,22.57,22.57,0,0,1,2.17,2.4s0,.07,0,.05,0-.05,0-.05a20.56,20.56,0,0,1,2.17-2.4A12.85,12.85,0,0,0,21.65,39C22.53,37.54,22.2,34.73,19.7,34.67Z"/><path class="cls-4" d="M150.93,206.83a2.25,2.25,0,0,1-2.44-2.1,2.25,2.25,0,0,1-2.44,2.1c-2.5-.06-2.83-2.86-2-4.28a13.72,13.72,0,0,1,2.2-2.77,20.6,20.6,0,0,0,2.17-2.39s0-.07,0,0,0,0,0,0a22.62,22.62,0,0,0,2.17,2.39,13.06,13.06,0,0,1,2.2,2.77C153.77,204,153.43,206.77,150.93,206.83Z"/><path class="cls-4" d="M64.18,28.65c-5.48-.13-6.75,4.06-7,6.07-.29-2-1.55-6.2-7-6.07-7.21.18-8.17,8.25-5.65,12.34a37.85,37.85,0,0,0,6.34,8c2.38,2.45,5.21,5.21,6.26,6.9,0,0,0,.2.08.15s.09-.15.09-.15c1.05-1.69,3.88-4.45,6.25-6.9a37.86,37.86,0,0,0,6.35-8C72.34,36.9,71.39,28.83,64.18,28.65Z"/><path class="cls-4" d="M64.18,104.45c-5.48-.13-6.75,4-7,6.07-.29-2-1.55-6.2-7-6.07-7.21.17-8.17,8.25-5.65,12.33a37.6,37.6,0,0,0,6.34,8c2.38,2.46,5.21,5.22,6.26,6.91,0,0,0,.2.08.14s.09-.14.09-.14c1.05-1.69,3.88-4.45,6.25-6.91a37.61,37.61,0,0,0,6.35-8C72.34,112.7,71.39,104.62,64.18,104.45Z"/><path class="cls-4" d="M64.18,207.63c-5.48.13-6.75-4.06-7-6.07-.29,2-1.55,6.2-7,6.07-7.21-.18-8.17-8.26-5.65-12.34a37.85,37.85,0,0,1,6.34-8c2.38-2.45,5.21-5.21,6.26-6.91,0,0,0-.19.08-.14s.09.14.09.14c1.05,1.7,3.88,4.46,6.25,6.91a37.86,37.86,0,0,1,6.35,8C72.34,199.37,71.39,207.45,64.18,207.63Z"/><path class="cls-4" d="M116.86,28.65c-5.48-.13-6.75,4.06-7,6.07-.29-2-1.55-6.2-7-6.07-7.21.18-8.17,8.25-5.65,12.34a37.85,37.85,0,0,0,6.34,8c2.38,2.45,5.21,5.21,6.26,6.9,0,0,.05.2.08.15s.09-.15.09-.15c1-1.69,3.88-4.45,6.25-6.9a37.54,37.54,0,0,0,6.34-8C125,36.9,124.07,28.83,116.86,28.65Z"/><path class="cls-4" d="M116.86,104.45c-5.48-.13-6.75,4-7,6.07-.29-2-1.55-6.2-7-6.07-7.21.17-8.17,8.25-5.65,12.33a37.6,37.6,0,0,0,6.34,8c2.38,2.46,5.21,5.22,6.26,6.91,0,0,.05.2.08.14s.09-.14.09-.14c1-1.69,3.88-4.45,6.25-6.91a37.29,37.29,0,0,0,6.34-8C125,112.7,124.07,104.62,116.86,104.45Z"/><path class="cls-4" d="M116.86,207.63c-5.48.13-6.75-4.06-7-6.07-.29,2-1.55,6.2-7,6.07-7.21-.18-8.17-8.26-5.65-12.34a37.85,37.85,0,0,1,6.34-8c2.38-2.45,5.21-5.21,6.26-6.91,0,0,.05-.19.08-.14s.09.14.09.14c1,1.7,3.88,4.46,6.25,6.91a37.54,37.54,0,0,1,6.34,8C125,199.37,124.07,207.45,116.86,207.63Z"/><path class="cls-4" d="M90.06,67.47c-5.48-.13-6.75,4.06-7,6.07-.29-2-1.55-6.2-7-6.07-7.21.18-8.17,8.26-5.65,12.34a37.85,37.85,0,0,0,6.34,8c2.37,2.45,5.21,5.21,6.26,6.91,0,0,0,.19.08.14s.09-.14.09-.14c1-1.7,3.88-4.46,6.25-6.91a37.85,37.85,0,0,0,6.34-8C98.22,75.73,97.27,67.65,90.06,67.47Z"/></g></g></svg>