<svg xmlns="http://www.w3.org/2000/svg" viewBox="0 0 166.59 233.13"><defs><style>.cls-1{fill:#fff;}.cls-2{fill:#65a7dd;}.cls-3{fill:#151515;}</style></defs><g id="Calque_2" data-name="Calque 2"><g id="Objects"><rect class="cls-1" x="0.12" y="0.12" width="166.36" height="232.9" rx="5.94"/><path class="cls-2" d="M160.53,233.13H6.06a6.07,6.07,0,0,1-6.06-6V6.06A6.07,6.07,0,0,1,6.06,0H160.53a6.07,6.07,0,0,1,6.06,6.06v221A6.07,6.07,0,0,1,160.53,233.13ZM6.06.23A5.83,5.83,0,0,0,.23,6.06v221a5.83,5.83,0,0,0,5.83,5.82H160.53a5.83,5.83,0,0,0,5.83-5.82V6.06A5.84,5.84,0,0,0,160.53.23Z"/><path class="cls-1" d="M149.2,18.48a.58.58,0,0,1-.57.57.57.57,0,1,1,0-1.14A.58.58,0,0,1,149.2,18.48Z"/><path class="cls-1" d="M122.07,18.48a.58.58,0,0,1-.57.57.57.57,0,1,1,0-1.14A.58.58,0,0,1,122.07,18.48Z"/><path class="cls-1" d="M97.11,18.48a.57.57,0,1,1-.57-.57A.57.57,0,0,1,97.11,18.48Z"/><path class="cls-1" d="M72.06,18.66a.56.56,0,0,1-.57.57.57.57,0,1,1,0-1.13A.56.56,0,0,1,72.06,18.66Z"/><path class="cls-1" d="M149.2,39.62a.57.57,0,0,1-.57.57.56.56,0,0,1-.57-.57.57.57,0,0,1,.57-.57A.58.58,0,0,1,149.2,39.62Z"/><path class="cls-1" d="M149.2,58.91a.57.57,0,0,1-.57.57.57.57,0,1,1,.57-.57Z"/><path class="cls-1" d="M149.2,79.13a.57.57,0,0,1-.57.57.56.56,0,0,1-.57-.57.57.57,0,0,1,.57-.57A.58.58,0,0,1,149.2,79.13Z"/><path class="cls-1" d="M149.2,91.91a.57.57,0,0,1-.57.57.57.57,0,1,1,.57-.57Z"/><path class="cls-1" d="M149.2,104.74a.57.57,0,0,1-.57.57.57.57,0,1,1,.57-.57Z"/><path class="cls-1" d="M18.9,19.05a.57.57,0,0,1-.57.57.57.57,0,0,1,0-1.14A.57.57,0,0,1,18.9,19.05Z"/><path class="cls-1" d="M46.34,18.66a.56.56,0,0,1-.57.57.57.57,0,1,1,0-1.13A.56.56,0,0,1,46.34,18.66Z"/><path class="cls-1" d="M18.9,39.17a.56.56,0,0,1-.57.57.57.57,0,0,1-.57-.57.58.58,0,0,1,.57-.57A.57.57,0,0,1,18.9,39.17Z"/><path class="cls-1" d="M18.9,59.05a.56.56,0,0,1-.57.56.57.57,0,1,1,.57-.56Z"/><path class="cls-1" d="M18.9,79a.57.57,0,0,1-.57.57.57.57,0,1,1,0-1.14A.57.57,0,0,1,18.9,79Z"/><path class="cls-1" d="M18.9,91.91a.56.56,0,0,1-.57.57.57.57,0,1,1,0-1.13A.56.56,0,0,1,18.9,91.91Z"/><path class="cls-1" d="M18.9,105.31a.56.56,0,0,1-.57.57.57.57,0,0,1-.57-.57.58.58,0,0,1,.57-.57A.57.57,0,0,1,18.9,105.31Z"/><path class="cls-1" d="M18.9,118.24a.56.56,0,0,1-.57.57.57.57,0,1,1,0-1.13A.56.56,0,0,1,18.9,118.24Z"/><path class="cls-1" d="M18.9,131.17a.57.57,0,0,1-.57.57.58.58,0,0,1-.57-.57.57.57,0,0,1,.57-.57A.56.56,0,0,1,18.9,131.17Z"/><path class="cls-1" d="M18.9,144.57a.57.57,0,0,1-.57.57.58.58,0,0,1-.57-.57.57.57,0,0,1,.57-.57A.56.56,0,0,1,18.9,144.57Z"/><path class="cls-1" d="M18.9,158a.56.56,0,0,1-.57.56.57.57,0,1,1,.57-.56Z"/><path class="cls-1" d="M18.9,170a.56.56,0,0,1-.57.56.57.57,0,1,1,.57-.56Z"/><path class="cls-1" d="M18.9,183.39a.56.56,0,0,1-.57.57.57.57,0,0,1-.57-.57.58.58,0,0,1,.57-.57A.57.57,0,0,1,18.9,183.39Z"/><path class="cls-1" d="M18.9,196.44a.56.56,0,0,1-.57.57.57.57,0,0,1-.57-.57.58.58,0,0,1,.57-.57A.57.57,0,0,1,18.9,196.44Z"/><path class="cls-1" d="M19.13,215.63a.56.56,0,0,1-.57.56.57.57,0,1,1,.57-.56Z"/><path class="cls-1" d="M39.66,216.19a.57.57,0,1,1-.57-.56A.57.57,0,0,1,39.66,216.19Z"/><path class="cls-1" d="M66.11,216.19a.57.57,0,0,1-.57.57.57.57,0,1,1,.57-.57Z"/><path class="cls-1" d="M92.51,216.19a.57.57,0,1,1-.57-.56A.56.56,0,0,1,92.51,216.19Z"/><path class="cls-1" d="M118.23,216.19a.57.57,0,1,1-.56-.56A.56.56,0,0,1,118.23,216.19Z"/><path class="cls-1" d="M149.2,117.93a.58.58,0,0,1-.57.57.57.57,0,0,1-.57-.57.56.56,0,0,1,.57-.57A.57.57,0,0,1,149.2,117.93Z"/><path class="cls-1" d="M149.2,130.26a.58.58,0,0,1-.57.57.57.57,0,0,1-.57-.57.56.56,0,0,1,.57-.57A.57.57,0,0,1,149.2,130.26Z"/><path class="cls-1" d="M149.2,143.55a.58.58,0,0,1-.57.57.57.57,0,0,1,0-1.14A.58.58,0,0,1,149.2,143.55Z"/><path class="cls-1" d="M149.2,156.65a.57.57,0,0,1-.57.57.56.56,0,0,1-.57-.57.57.57,0,0,1,.57-.57A.58.58,0,0,1,149.2,156.65Z"/><path class="cls-1" d="M149.2,169.41a.58.58,0,0,1-.57.57.57.57,0,0,1-.57-.57.56.56,0,0,1,.57-.57A.57.57,0,0,1,149.2,169.41Z"/><path class="cls-1" d="M149.2,182a.57.57,0,0,1-.57.57.56.56,0,0,1-.57-.57.57.57,0,0,1,.57-.57A.58.58,0,0,1,149.2,182Z"/><path class="cls-1" d="M149.2,194.82a.57.57,0,0,1-.57.57.56.56,0,0,1-.57-.57.57.57,0,0,1,.57-.57A.58.58,0,0,1,149.2,194.82Z"/><path class="cls-1" d="M149.2,214.39a.57.57,0,0,1-.57.57.56.56,0,0,1-.57-.57.57.57,0,0,1,.57-.57A.58.58,0,0,1,149.2,214.39Z"/><path d="M15.91,22.75a2.07,2.07,0,0,1-.42-1.36,5.69,5.69,0,0,1,.57-2.4,16.16,16.16,0,0,1,1.47-2.51l1.55-2.23A6.73,6.73,0,0,0,19.79,13a3.21,3.21,0,0,0,.28-1.2.48.48,0,0,0-.15-.4.75.75,0,0,0-.45-.1h-4a1.46,1.46,0,0,0-1.1.34,1.86,1.86,0,0,0-.43,1L13.7,13.7h-.42l.27-4H21A10.46,10.46,0,0,1,20.7,12a7,7,0,0,1-1,2.36L18.58,16a4.41,4.41,0,0,0-.8,2.53A7.71,7.71,0,0,0,17.9,20l.11.68A6.62,6.62,0,0,1,18.17,22c0,.82-.38,1.22-1.15,1.22A1.39,1.39,0,0,1,15.91,22.75Z"/><path d="M150.65,205.37a2.07,2.07,0,0,1,.42,1.36,5.56,5.56,0,0,1-.58,2.4,16.9,16.9,0,0,1-1.46,2.51l-1.55,2.23a6.49,6.49,0,0,0-.71,1.29,3.21,3.21,0,0,0-.28,1.2.48.48,0,0,0,.14.4.81.81,0,0,0,.46.1h4a1.45,1.45,0,0,0,1.1-.34,1.79,1.79,0,0,0,.44-1l.21-1.14h.43l-.27,4h-7.46a10.3,10.3,0,0,1,.3-2.3,7.4,7.4,0,0,1,1-2.37l1.11-1.67a4.41,4.41,0,0,0,.8-2.53,7.71,7.71,0,0,0-.12-1.45l-.12-.68a7.3,7.3,0,0,1-.15-1.36c0-.81.38-1.22,1.14-1.22A1.39,1.39,0,0,1,150.65,205.37Z"/><path class="cls-3" d="M96.26,73.22c-3.68-4-8-7.91-9.74-10-1.34-1.54-2.29-2.71-2.68-3.2V59.8l-.1.13-.1-.13v.25c-.39.49-1.34,1.66-2.68,3.2-1.79,2.06-6.06,6-9.74,10A12.19,12.19,0,0,0,68,84.56c.69,3.33,4.17,6.45,9.63,5.77a6.06,6.06,0,0,0,3.88-2.06,12.69,12.69,0,0,1-3.15,7.15H88.9A13.52,13.52,0,0,1,86,88.29a6,6,0,0,0,3.86,2c5.46.68,8.94-2.44,9.63-5.77A12.19,12.19,0,0,0,96.26,73.22Z"/><path class="cls-3" d="M66.68,35.17c-3.67-4-8-7.92-9.73-10-1.34-1.54-2.29-2.71-2.69-3.2v-.25l-.09.13a1,1,0,0,1-.1-.13V22c-.4.49-1.35,1.66-2.69,3.2-1.78,2.05-6.06,6-9.73,10a12.2,12.2,0,0,0-3.28,11.34c.7,3.32,4.17,6.45,9.64,5.77a6.1,6.1,0,0,0,3.88-2.07,12.67,12.67,0,0,1-3.16,7.16h10.6a13.57,13.57,0,0,1-2.87-7.13,6.16,6.16,0,0,0,3.86,2c5.47.68,8.94-2.45,9.64-5.77A12.2,12.2,0,0,0,66.68,35.17Z"/><path class="cls-3" d="M66.68,111.75c-3.67-4-8-7.92-9.73-10-1.34-1.54-2.29-2.71-2.69-3.2v-.25l-.09.12-.1-.12v.25c-.4.49-1.35,1.66-2.69,3.2-1.78,2-6.06,6-9.73,10a12.19,12.19,0,0,0-3.28,11.34c.7,3.32,4.17,6.45,9.64,5.76a6,6,0,0,0,3.88-2.06,12.66,12.66,0,0,1-3.16,7.15h10.6a13.54,13.54,0,0,1-2.87-7.12,6.1,6.1,0,0,0,3.86,2c5.47.69,8.94-2.44,9.64-5.76A12.19,12.19,0,0,0,66.68,111.75Z"/><path class="cls-3" d="M66.68,194.59c-3.67,4-8,7.92-9.73,10-1.34,1.54-2.29,2.71-2.69,3.2V208l-.09-.12-.1.12v-.25c-.4-.49-1.35-1.66-2.69-3.2-1.78-2.05-6.06-6-9.73-10a12.19,12.19,0,0,1-3.28-11.34c.7-3.32,4.17-6.45,9.64-5.76a6,6,0,0,1,3.88,2.06,12.61,12.61,0,0,0-3.16-7.15h10.6a13.54,13.54,0,0,0-2.87,7.12,6.1,6.1,0,0,1,3.86-2c5.47-.69,8.94,2.44,9.64,5.76A12.19,12.19,0,0,1,66.68,194.59Z"/><path class="cls-3" d="M126.75,35.17c-3.67-4-7.94-7.92-9.73-10-1.34-1.54-2.29-2.71-2.68-3.2v-.25l-.1.13a1,1,0,0,1-.1-.13V22c-.39.49-1.34,1.66-2.68,3.2-1.79,2.05-6.06,6-9.74,10a12.23,12.23,0,0,0-3.28,11.34c.7,3.32,4.18,6.45,9.64,5.77A6.07,6.07,0,0,0,112,50.21a12.7,12.7,0,0,1-3.15,7.16H119.4a13.55,13.55,0,0,1-2.86-7.13,6.13,6.13,0,0,0,3.86,2c5.46.68,8.94-2.45,9.63-5.77A12.18,12.18,0,0,0,126.75,35.17Z"/><path class="cls-3" d="M126.75,111.75c-3.67-4-7.94-7.92-9.73-10-1.34-1.54-2.29-2.71-2.68-3.2v-.25l-.1.12-.1-.12v.25c-.39.49-1.34,1.66-2.68,3.2-1.79,2-6.06,6-9.74,10a12.22,12.22,0,0,0-3.28,11.34c.7,3.32,4.18,6.45,9.64,5.76a6,6,0,0,0,3.88-2.06,12.69,12.69,0,0,1-3.15,7.15H119.4a13.52,13.52,0,0,1-2.86-7.12,6.08,6.08,0,0,0,3.86,2c5.46.69,8.94-2.44,9.63-5.76A12.16,12.16,0,0,0,126.75,111.75Z"/><path class="cls-3" d="M126.75,194.59c-3.67,4-7.94,7.92-9.73,10-1.34,1.54-2.29,2.71-2.68,3.2V208l-.1-.12-.1.12v-.25c-.39-.49-1.34-1.66-2.68-3.2-1.79-2.05-6.06-6-9.74-10a12.22,12.22,0,0,1-3.28-11.34c.7-3.32,4.18-6.45,9.64-5.76a6,6,0,0,1,3.88,2.06,12.64,12.64,0,0,0-3.15-7.15H119.4a13.52,13.52,0,0,0-2.86,7.12,6.08,6.08,0,0,1,3.86-2c5.46-.69,8.94,2.44,9.63,5.76A12.16,12.16,0,0,1,126.75,194.59Z"/><path class="cls-3" d="M152.11,197c-1.07,1.17-2.31,2.31-2.84,2.91s-.66.79-.78.94v.07l0,0,0,0v-.07c-.11-.15-.39-.49-.78-.94s-1.77-1.74-2.84-2.91a3.52,3.52,0,0,1-.95-3.3,2.38,2.38,0,0,1,2.81-1.69,1.82,1.82,0,0,1,1.13.61,3.7,3.7,0,0,0-.92-2.09H150a4,4,0,0,0-.84,2.08,1.81,1.81,0,0,1,1.13-.6,2.39,2.39,0,0,1,2.81,1.69A3.53,3.53,0,0,1,152.11,197Z"/><path class="cls-3" d="M21.8,30.87C20.73,29.7,19.48,28.56,19,28s-.67-.79-.78-.93V27l0,0,0,0V27c-.11.14-.39.48-.78.93s-1.77,1.74-2.84,2.91a3.58,3.58,0,0,0-1,3.31,2.38,2.38,0,0,0,2.81,1.68,1.79,1.79,0,0,0,1.14-.6,3.69,3.69,0,0,1-.92,2.08h3.09a3.89,3.89,0,0,1-.84-2.07,1.8,1.8,0,0,0,1.13.59,2.38,2.38,0,0,0,2.81-1.68A3.58,3.58,0,0,0,21.8,30.87Z"/></g></g></svg>