<svg xmlns="http://www.w3.org/2000/svg" viewBox="0 0 166.59 233.13"><defs><style>.cls-1{fill:#fff;}.cls-2{fill:#65a7dd;}.cls-3{fill:#151515;}</style></defs><g id="Calque_2" data-name="Calque 2"><g id="Objects"><rect class="cls-1" x="0.12" y="0.12" width="166.36" height="232.9" rx="5.94"/><path class="cls-2" d="M160.53,233.13H6.06a6.07,6.07,0,0,1-6.06-6V6.06A6.07,6.07,0,0,1,6.06,0H160.53a6.07,6.07,0,0,1,6.06,6.06v221A6.07,6.07,0,0,1,160.53,233.13ZM6.06.23A5.83,5.83,0,0,0,.23,6.06v221a5.83,5.83,0,0,0,5.83,5.82H160.53a5.83,5.83,0,0,0,5.83-5.82V6.06A5.84,5.84,0,0,0,160.53.23Z"/><path class="cls-1" d="M149.2,18.48a.58.58,0,0,1-.57.57.57.57,0,1,1,0-1.14A.58.58,0,0,1,149.2,18.48Z"/><path class="cls-1" d="M122.07,18.48a.58.58,0,0,1-.57.57.57.57,0,1,1,0-1.14A.58.58,0,0,1,122.07,18.48Z"/><path class="cls-1" d="M97.11,18.48a.57.57,0,1,1-.57-.57A.57.57,0,0,1,97.11,18.48Z"/><path class="cls-1" d="M72.06,18.66a.56.56,0,0,1-.57.57.57.57,0,1,1,0-1.13A.56.56,0,0,1,72.06,18.66Z"/><path class="cls-1" d="M149.2,39.62a.57.57,0,0,1-.57.57.56.56,0,0,1-.57-.57.57.57,0,0,1,.57-.57A.58.58,0,0,1,149.2,39.62Z"/><path class="cls-1" d="M149.2,58.91a.57.57,0,0,1-.57.57.57.57,0,1,1,.57-.57Z"/><path class="cls-1" d="M149.2,79.13a.57.57,0,0,1-.57.57.56.56,0,0,1-.57-.57.57.57,0,0,1,.57-.57A.58.58,0,0,1,149.2,79.13Z"/><path class="cls-1" d="M149.2,91.91a.57.57,0,0,1-.57.57.57.57,0,1,1,.57-.57Z"/><path class="cls-1" d="M149.2,104.74a.57.57,0,0,1-.57.57.57.57,0,1,1,.57-.57Z"/><path class="cls-1" d="M18.9,19.05a.57.57,0,0,1-.57.57.57.57,0,0,1,0-1.14A.57.57,0,0,1,18.9,19.05Z"/><path class="cls-1" d="M46.34,18.66a.56.56,0,0,1-.57.57.57.57,0,1,1,0-1.13A.56.56,0,0,1,46.34,18.66Z"/><path class="cls-1" d="M18.9,39.17a.56.56,0,0,1-.57.57.57.57,0,0,1-.57-.57.58.58,0,0,1,.57-.57A.57.57,0,0,1,18.9,39.17Z"/><path class="cls-1" d="M18.9,59.05a.56.56,0,0,1-.57.56.57.57,0,1,1,.57-.56Z"/><path class="cls-1" d="M18.9,79a.57.57,0,0,1-.57.57.57.57,0,1,1,0-1.14A.57.57,0,0,1,18.9,79Z"/><path class="cls-1" d="M18.9,91.91a.56.56,0,0,1-.57.57.57.57,0,1,1,0-1.13A.56.56,0,0,1,18.9,91.91Z"/><path class="cls-1" d="M18.9,105.31a.56.56,0,0,1-.57.57.57.57,0,0,1-.57-.57.58.58,0,0,1,.57-.57A.57.57,0,0,1,18.9,105.31Z"/><path class="cls-1" d="M18.9,118.24a.56.56,0,0,1-.57.57.57.57,0,1,1,0-1.13A.56.56,0,0,1,18.9,118.24Z"/><path class="cls-1" d="M18.9,131.17a.57.57,0,0,1-.57.57.58.58,0,0,1-.57-.57.57.57,0,0,1,.57-.57A.56.56,0,0,1,18.9,131.17Z"/><path class="cls-1" d="M18.9,144.57a.57.57,0,0,1-.57.57.58.58,0,0,1-.57-.57.57.57,0,0,1,.57-.57A.56.56,0,0,1,18.9,144.57Z"/><path class="cls-1" d="M18.9,158a.56.56,0,0,1-.57.56.57.57,0,1,1,.57-.56Z"/><path class="cls-1" d="M18.9,170a.56.56,0,0,1-.57.56.57.57,0,1,1,.57-.56Z"/><path class="cls-1" d="M18.9,183.39a.56.56,0,0,1-.57.57.57.57,0,0,1-.57-.57.58.58,0,0,1,.57-.57A.57.57,0,0,1,18.9,183.39Z"/><path class="cls-1" d="M18.9,196.44a.56.56,0,0,1-.57.57.57.57,0,0,1-.57-.57.58.58,0,0,1,.57-.57A.57.57,0,0,1,18.9,196.44Z"/><path class="cls-1" d="M19.13,215.63a.56.56,0,0,1-.57.56.57.57,0,1,1,.57-.56Z"/><path class="cls-1" d="M39.66,216.19a.57.57,0,1,1-.57-.56A.57.57,0,0,1,39.66,216.19Z"/><path class="cls-1" d="M66.11,216.19a.57.57,0,1,1-.57-.56A.57.57,0,0,1,66.11,216.19Z"/><path class="cls-1" d="M92.51,216.19a.57.57,0,1,1-.57-.56A.56.56,0,0,1,92.51,216.19Z"/><path class="cls-1" d="M118.24,216.19a.57.57,0,0,1-.57.57.57.57,0,1,1,.57-.57Z"/><path class="cls-1" d="M149.2,117.93a.58.58,0,0,1-.57.57.57.57,0,0,1-.57-.57.56.56,0,0,1,.57-.57A.57.57,0,0,1,149.2,117.93Z"/><path class="cls-1" d="M149.2,130.26a.58.58,0,0,1-.57.57.57.57,0,0,1-.57-.57.56.56,0,0,1,.57-.57A.57.57,0,0,1,149.2,130.26Z"/><path class="cls-1" d="M149.2,143.55a.58.58,0,0,1-.57.57.57.57,0,0,1,0-1.14A.58.58,0,0,1,149.2,143.55Z"/><path class="cls-1" d="M149.2,156.65a.57.57,0,0,1-.57.57.56.56,0,0,1-.57-.57.57.57,0,0,1,.57-.57A.58.58,0,0,1,149.2,156.65Z"/><path class="cls-1" d="M149.2,169.41a.58.58,0,0,1-.57.57.57.57,0,0,1-.57-.57.56.56,0,0,1,.57-.57A.57.57,0,0,1,149.2,169.41Z"/><path class="cls-1" d="M149.2,182a.57.57,0,0,1-.57.57.56.56,0,0,1-.57-.57.57.57,0,0,1,.57-.57A.58.58,0,0,1,149.2,182Z"/><path class="cls-1" d="M149.2,194.82a.57.57,0,0,1-.57.57.56.56,0,0,1-.57-.57.57.57,0,0,1,.57-.57A.58.58,0,0,1,149.2,194.82Z"/><path class="cls-1" d="M149.2,214.39a.57.57,0,0,1-.57.57.56.56,0,0,1-.57-.57.57.57,0,0,1,.57-.57A.58.58,0,0,1,149.2,214.39Z"/><path class="cls-3" d="M100,80c-3.58-3.9-9.07-1.59-9.07-1.59,1.53-1.64,2.56-2.94,2.37-5.63,0-.1,0-.19,0-.28a7.75,7.75,0,0,0-15.5,0A7.33,7.33,0,0,0,78,74.05c.18,1.87,1.1,3,2.36,4.34,0,0-5.49-2.31-9.07,1.59a8.09,8.09,0,0,0-.66,10.07c1.12,1.52,2.81,4.08,6.79,3.78,3.51-.26,4-.86,6.45-2.79A16,16,0,0,1,80.31,100h10.6c-2-2-3.67-6.75-3.45-8.89,2.37,1.89,2.91,2.48,6.39,2.74,4,.3,5.67-2.26,6.79-3.78A8.09,8.09,0,0,0,100,80Z"/><path class="cls-3" d="M62.81,45c-3.57-3.91-9.07-1.59-9.07-1.59,1.54-1.64,2.56-3,2.37-5.64,0-.09,0-.18,0-.27a7.75,7.75,0,0,0-15.5,0,8.12,8.12,0,0,0,.16,1.57c.18,1.86,1.1,3,2.37,4.34,0,0-5.5-2.32-9.08,1.59a8.1,8.1,0,0,0-.66,10.06c1.13,1.53,2.82,4.08,6.79,3.79,3.52-.26,4-.86,6.46-2.79A16,16,0,0,1,43.15,65H53.74c-2-2.05-3.67-6.75-3.45-8.89,2.37,1.89,2.91,2.48,6.4,2.74,4,.29,5.66-2.26,6.79-3.79A8.09,8.09,0,0,0,62.81,45Z"/><path class="cls-3" d="M62.81,115.07c-3.57-3.9-9.07-1.58-9.07-1.58,1.54-1.65,2.56-2.95,2.37-5.64,0-.09,0-.19,0-.28a7.75,7.75,0,0,0-15.5,0,8.22,8.22,0,0,0,.16,1.58c.18,1.86,1.1,3,2.37,4.34,0,0-5.5-2.32-9.08,1.58a8.12,8.12,0,0,0-.66,10.07c1.13,1.52,2.82,4.08,6.79,3.79,3.52-.27,4-.87,6.46-2.8a15.93,15.93,0,0,1-3.51,8.94H53.74c-2-2-3.67-6.74-3.45-8.89,2.37,1.89,2.91,2.49,6.4,2.75,4,.29,5.66-2.27,6.79-3.79A8.11,8.11,0,0,0,62.81,115.07Z"/><path class="cls-3" d="M62.81,189.19c-3.57,3.91-9.07,1.59-9.07,1.59,1.54,1.64,2.56,2.94,2.37,5.64,0,.09,0,.18,0,.27a7.75,7.75,0,0,1-15.5,0,8.12,8.12,0,0,1,.16-1.57c.18-1.86,1.1-3,2.37-4.34,0,0-5.5,2.32-9.08-1.59a8.12,8.12,0,0,1-.66-10.07c1.13-1.52,2.82-4.08,6.79-3.78,3.52.26,4,.86,6.46,2.79a16,16,0,0,0-3.51-8.94H53.74c-2,2.05-3.67,6.75-3.45,8.89,2.37-1.89,2.91-2.48,6.4-2.74,4-.3,5.66,2.26,6.79,3.78A8.11,8.11,0,0,1,62.81,189.19Z"/><path class="cls-3" d="M141.06,45c-3.57-3.91-9.07-1.59-9.07-1.59,1.54-1.64,2.56-3,2.37-5.64,0-.09,0-.18,0-.27a7.75,7.75,0,1,0-15.5,0,8.12,8.12,0,0,0,.16,1.57c.18,1.86,1.1,3,2.37,4.34,0,0-5.5-2.32-9.08,1.59a8.1,8.1,0,0,0-.66,10.06c1.13,1.53,2.81,4.08,6.79,3.79,3.52-.26,4-.86,6.46-2.79A16,16,0,0,1,121.4,65H132c-2-2.05-3.67-6.75-3.45-8.89,2.37,1.89,2.91,2.48,6.4,2.74,4,.29,5.66-2.26,6.79-3.79A8.09,8.09,0,0,0,141.06,45Z"/><path class="cls-3" d="M141.06,115.07c-3.57-3.9-9.07-1.58-9.07-1.58,1.54-1.65,2.56-2.95,2.37-5.64,0-.09,0-.19,0-.28a7.75,7.75,0,0,0-15.5,0,8.22,8.22,0,0,0,.16,1.58c.18,1.86,1.1,3,2.37,4.34,0,0-5.5-2.32-9.08,1.58a8.12,8.12,0,0,0-.66,10.07c1.13,1.52,2.81,4.08,6.79,3.79,3.52-.27,4-.87,6.46-2.8a15.93,15.93,0,0,1-3.51,8.94H132c-2-2-3.67-6.74-3.45-8.89,2.37,1.89,2.91,2.49,6.4,2.75,4,.29,5.66-2.27,6.79-3.79A8.11,8.11,0,0,0,141.06,115.07Z"/><path class="cls-3" d="M141.06,189.19c-3.57,3.91-9.07,1.59-9.07,1.59,1.54,1.64,2.56,2.94,2.37,5.64,0,.09,0,.18,0,.27a7.75,7.75,0,0,1-15.5,0,8.12,8.12,0,0,1,.16-1.57c.18-1.86,1.1-3,2.37-4.34,0,0-5.5,2.32-9.08-1.59a8.12,8.12,0,0,1-.66-10.07c1.13-1.52,2.81-4.08,6.79-3.78,3.52.26,4,.86,6.46,2.79a16,16,0,0,0-3.51-8.94H132c-2,2.05-3.67,6.75-3.45,8.89,2.37-1.89,2.91-2.48,6.4-2.74,4-.3,5.66,2.26,6.79,3.78A8.11,8.11,0,0,1,141.06,189.19Z"/><path class="cls-3" d="M24.47,34.09a2.45,2.45,0,0,0-2.62-.46A1.9,1.9,0,0,0,22.53,32s0-.05,0-.07a2.24,2.24,0,0,0-4.48,0,2.28,2.28,0,0,0,0,.45,2,2,0,0,0,.69,1.25,2.45,2.45,0,0,0-2.62.46A2.34,2.34,0,0,0,16,37a2.11,2.11,0,0,0,2,1.1,2.54,2.54,0,0,0,1.86-.81,4.6,4.6,0,0,1-1,2.58h3.06a4.4,4.4,0,0,1-1-2.57,2.53,2.53,0,0,0,1.85.8,2.08,2.08,0,0,0,2-1.1A2.34,2.34,0,0,0,24.47,34.09Z"/><path d="M18.12,25.64a2,2,0,0,1-.41-1.36,5.68,5.68,0,0,1,.57-2.39,17.5,17.5,0,0,1,1.46-2.52l1.56-2.23a6.18,6.18,0,0,0,.7-1.29,3.24,3.24,0,0,0,.29-1.19.45.45,0,0,0-.15-.4.8.8,0,0,0-.46-.11h-4a1.49,1.49,0,0,0-1.1.34,2,2,0,0,0-.44,1l-.21,1.15h-.43l.27-4h7.46a10.46,10.46,0,0,1-.3,2.31,7,7,0,0,1-1,2.37l-1.11,1.67a4.38,4.38,0,0,0-.8,2.52,7.82,7.82,0,0,0,.12,1.46l.12.68a7.22,7.22,0,0,1,.15,1.36c0,.81-.38,1.22-1.14,1.22A1.37,1.37,0,0,1,18.12,25.64Z"/><path class="cls-3" d="M146.52,199.82a2.45,2.45,0,0,0,2.62.46,1.91,1.91,0,0,0-.68,1.63.22.22,0,0,0,0,.08,2.24,2.24,0,1,0,4.48,0,2.31,2.31,0,0,0-.05-.46,2,2,0,0,0-.68-1.25,2.45,2.45,0,0,0,2.62-.46,2.32,2.32,0,0,0,.19-2.91,2.06,2.06,0,0,0-2-1.09,2.54,2.54,0,0,0-1.86.81,4.61,4.61,0,0,1,1-2.59h-3.06a4.43,4.43,0,0,1,1,2.57,2.52,2.52,0,0,0-1.85-.79,2.06,2.06,0,0,0-2,1.09A2.34,2.34,0,0,0,146.52,199.82Z"/><path d="M152.86,208.28a2,2,0,0,1,.42,1.36,5.68,5.68,0,0,1-.57,2.39,16.71,16.71,0,0,1-1.47,2.52l-1.55,2.23a6.73,6.73,0,0,0-.71,1.29,3.21,3.21,0,0,0-.28,1.19.45.45,0,0,0,.15.4.76.76,0,0,0,.45.11h4a1.51,1.51,0,0,0,1.1-.34,1.86,1.86,0,0,0,.43-1l.22-1.15h.42l-.27,4h-7.45a10.39,10.39,0,0,1,.3-2.31,7,7,0,0,1,1-2.37L150.2,215a4.37,4.37,0,0,0,.79-2.52,7.82,7.82,0,0,0-.12-1.46l-.11-.68a6.54,6.54,0,0,1-.16-1.35c0-.82.39-1.23,1.15-1.23A1.35,1.35,0,0,1,152.86,208.28Z"/></g></g></svg>