<svg xmlns="http://www.w3.org/2000/svg" viewBox="0 0 166.48 233.07"><defs><style>.cls-1{fill:#fff;}.cls-2{fill:#65a7dd;}.cls-3{fill:#af0f07;}.cls-4{fill:#a43e32;}</style></defs><g id="Calque_2" data-name="Calque 2"><g id="Objects"><rect class="cls-1" x="0.11" y="0.11" width="166.25" height="232.84" rx="5.94"/><path class="cls-2" d="M160.43,233.07H6.05a6.06,6.06,0,0,1-6-6V6.05A6.06,6.06,0,0,1,6.05,0H160.43a6.06,6.06,0,0,1,6,6.05V227A6.06,6.06,0,0,1,160.43,233.07ZM6.05.23A5.83,5.83,0,0,0,.23,6.05V227a5.83,5.83,0,0,0,5.82,5.82H160.43a5.83,5.83,0,0,0,5.82-5.82V6.05A5.83,5.83,0,0,0,160.43.23Z"/><path class="cls-1" d="M149.1,18.48a.56.56,0,0,1-.57.56.57.57,0,1,1,.57-.56Z"/><circle class="cls-1" cx="121.42" cy="18.48" r="0.57"/><path class="cls-1" d="M97.05,18.48a.57.57,0,1,1-.57-.57A.56.56,0,0,1,97.05,18.48Z"/><circle class="cls-1" cx="71.45" cy="18.66" r="0.57"/><path class="cls-1" d="M149.1,39.61a.56.56,0,0,1-.57.57.57.57,0,0,1-.57-.57.58.58,0,0,1,.57-.57A.57.57,0,0,1,149.1,39.61Z"/><path class="cls-1" d="M149.1,58.9a.57.57,0,0,1-.57.57.58.58,0,0,1-.57-.57.57.57,0,0,1,.57-.57A.56.56,0,0,1,149.1,58.9Z"/><path class="cls-1" d="M149.1,79.11a.56.56,0,0,1-.57.57.57.57,0,0,1-.57-.57.58.58,0,0,1,.57-.57A.57.57,0,0,1,149.1,79.11Z"/><path class="cls-1" d="M149.1,91.89a.57.57,0,0,1-.57.57.57.57,0,0,1,0-1.14A.57.57,0,0,1,149.1,91.89Z"/><path class="cls-1" d="M149.1,104.72a.56.56,0,0,1-.57.56.57.57,0,1,1,.57-.56Z"/><circle class="cls-1" cx="18.32" cy="19.04" r="0.57"/><circle class="cls-1" cx="45.74" cy="18.66" r="0.57"/><circle class="cls-1" cx="18.32" cy="39.16" r="0.57"/><circle class="cls-1" cx="18.32" cy="59.03" r="0.57"/><circle class="cls-1" cx="18.32" cy="78.97" r="0.57"/><circle class="cls-1" cx="18.32" cy="91.89" r="0.57"/><circle class="cls-1" cx="18.32" cy="105.29" r="0.57"/><circle class="cls-1" cx="18.32" cy="118.21" r="0.57"/><circle class="cls-1" cx="18.32" cy="131.13" r="0.57"/><circle class="cls-1" cx="18.32" cy="144.53" r="0.57"/><circle class="cls-1" cx="18.32" cy="157.95" r="0.57"/><circle class="cls-1" cx="18.32" cy="169.95" r="0.57"/><path class="cls-1" d="M18.89,183.35a.57.57,0,1,1-.57-.57A.57.57,0,0,1,18.89,183.35Z"/><circle class="cls-1" cx="18.32" cy="196.39" r="0.57"/><circle class="cls-1" cx="18.55" cy="215.57" r="0.57"/><circle class="cls-1" cx="39.07" cy="216.14" r="0.57"/><circle class="cls-1" cx="65.5" cy="216.14" r="0.57"/><circle class="cls-1" cx="91.89" cy="216.14" r="0.57"/><circle class="cls-1" cx="117.59" cy="216.14" r="0.57"/><path class="cls-1" d="M149.1,117.9a.57.57,0,0,1-.57.57.58.58,0,0,1-.57-.57.57.57,0,0,1,.57-.57A.56.56,0,0,1,149.1,117.9Z"/><path class="cls-1" d="M149.1,130.22a.56.56,0,0,1-.57.57.57.57,0,0,1-.57-.57.58.58,0,0,1,.57-.57A.57.57,0,0,1,149.1,130.22Z"/><path class="cls-1" d="M149.1,143.51a.56.56,0,0,1-.57.57.57.57,0,0,1-.57-.57.58.58,0,0,1,.57-.57A.57.57,0,0,1,149.1,143.51Z"/><path class="cls-1" d="M149.1,156.61a.56.56,0,0,1-.57.57.57.57,0,0,1-.57-.57.58.58,0,0,1,.57-.57A.57.57,0,0,1,149.1,156.61Z"/><path class="cls-1" d="M149.1,169.36a.56.56,0,0,1-.57.57.57.57,0,0,1-.57-.57.58.58,0,0,1,.57-.57A.57.57,0,0,1,149.1,169.36Z"/><path class="cls-1" d="M149.1,181.94a.56.56,0,0,1-.57.56.57.57,0,1,1,.57-.56Z"/><path class="cls-1" d="M149.1,194.77a.57.57,0,0,1-.57.57.57.57,0,0,1,0-1.14A.57.57,0,0,1,149.1,194.77Z"/><path class="cls-1" d="M149.1,214.34a.56.56,0,0,1-.57.56.57.57,0,1,1,.57-.56Z"/><polygon class="cls-3" points="16.79 28.37 12.07 33.58 16.27 39.31 21.12 34.05 16.79 28.37"/><polygon class="cls-3" points="149.49 193.14 144.76 198.36 148.97 204.08 153.81 198.83 149.49 193.14"/><path class="cls-4" d="M14.54,25.19A4,4,0,0,1,13,23.91a3.34,3.34,0,0,1-.59-2,2.94,2.94,0,0,1,.8-2.21,3.84,3.84,0,0,1,1.68-1v-.08l-.21-.1a3.26,3.26,0,0,1-1.57-1.26,3.47,3.47,0,0,1-.54-1.94,2.93,2.93,0,0,1,.62-1.83,4.08,4.08,0,0,1,1.61-1.28,4.72,4.72,0,0,1,2.05-.46,4.78,4.78,0,0,1,2.24.48,3.31,3.31,0,0,1,1.39,1.24,3.06,3.06,0,0,1,.46,1.62,2.68,2.68,0,0,1-.66,1.81,4.74,4.74,0,0,1-1.57,1.18v.07l.45.18a3.1,3.1,0,0,1,2.29,2.93,4.57,4.57,0,0,1-.55,2.2A4,4,0,0,1,19.24,25a5.22,5.22,0,0,1-2.57.59A5,5,0,0,1,14.54,25.19Zm4.09-.62a2.68,2.68,0,0,0,1-1.08,2.81,2.81,0,0,0,.31-1.19,2.31,2.31,0,0,0-.48-1.61,3.8,3.8,0,0,0-1.39-.9l-2.62-.95a2.65,2.65,0,0,0-1.24,1.05,4.11,4.11,0,0,0-.44,2.1,2.74,2.74,0,0,0,.94,2.29,3.45,3.45,0,0,0,2.2.73A3.22,3.22,0,0,0,18.63,24.57Zm.69-7.78a3.4,3.4,0,0,0,.35-1.6,2.75,2.75,0,0,0-.39-1.44,2.8,2.8,0,0,0-1-1,2.93,2.93,0,0,0-1.43-.37,3.11,3.11,0,0,0-2,.68A2.25,2.25,0,0,0,14,14.85a2,2,0,0,0,.4,1.3,3.06,3.06,0,0,0,1.25.83l2.5.95A2.77,2.77,0,0,0,19.32,16.79Z"/><path class="cls-4" d="M151.3,207.65a3.81,3.81,0,0,1,1.57,1.28,3.34,3.34,0,0,1,.59,2,3,3,0,0,1-.79,2.21,4,4,0,0,1-1.69,1.05v.08l.21.09a3.37,3.37,0,0,1,1.57,1.26,3.52,3.52,0,0,1,.55,1.94,3,3,0,0,1-.63,1.84,4.12,4.12,0,0,1-1.6,1.28,5,5,0,0,1-2.06.46,4.78,4.78,0,0,1-2.24-.48,3.38,3.38,0,0,1-1.39-1.24,3.06,3.06,0,0,1-.46-1.62,2.66,2.66,0,0,1,.67-1.82,4.45,4.45,0,0,1,1.56-1.17v-.08l-.45-.17a3.11,3.11,0,0,1-2.29-2.93,4.54,4.54,0,0,1,.55-2.2,4.12,4.12,0,0,1,1.63-1.6,5.33,5.33,0,0,1,2.57-.59A5,5,0,0,1,151.3,207.65Zm-4.08.62a2.64,2.64,0,0,0-1,1.08,2.77,2.77,0,0,0-.31,1.19,2.33,2.33,0,0,0,.48,1.61,3.67,3.67,0,0,0,1.39.89l2.62,1a2.64,2.64,0,0,0,1.24-1,4.11,4.11,0,0,0,.44-2.1,2.73,2.73,0,0,0-.94-2.29,3.46,3.46,0,0,0-2.2-.74A3.08,3.08,0,0,0,147.22,208.27Zm-.7,7.78a3.33,3.33,0,0,0-.35,1.59,2.83,2.83,0,0,0,1.42,2.47,2.92,2.92,0,0,0,1.43.36,3.1,3.1,0,0,0,2-.67,2.24,2.24,0,0,0,.82-1.81,2,2,0,0,0-.4-1.3,3.06,3.06,0,0,0-1.25-.83l-2.5-1A2.77,2.77,0,0,0,146.52,216.05Z"/><polygon class="cls-3" points="50.71 23.55 37.42 39.7 50.71 56.11 64.35 39.83 50.71 23.55"/><polygon class="cls-3" points="83.04 56 69.75 72.14 83.04 88.55 96.68 72.27 83.04 56"/><polygon class="cls-3" points="83.04 140.46 69.75 156.61 83.04 173.01 96.68 156.74 83.04 140.46"/><polygon class="cls-3" points="50.71 173.12 37.42 189.27 50.71 205.68 64.35 189.4 50.71 173.12"/><polygon class="cls-3" points="50.71 98.34 37.42 114.49 50.71 130.89 64.35 114.61 50.71 98.34"/><polygon class="cls-3" points="115.37 23.55 102.08 39.7 115.37 56.11 129.01 39.83 115.37 23.55"/><polygon class="cls-3" points="115.37 173.12 102.08 189.27 115.37 205.68 129.01 189.4 115.37 173.12"/><polygon class="cls-3" points="115.37 98.34 102.08 114.49 115.37 130.89 129.01 114.61 115.37 98.34"/></g></g></svg>