<svg xmlns="http://www.w3.org/2000/svg" viewBox="0 0 166.59 233.13"><defs><style>.cls-1{fill:#fff;}.cls-2{fill:#65a7dd;}.cls-3{fill:#a43e32;}.cls-4{fill:#af0f07;}</style></defs><g id="Calque_2" data-name="Calque 2"><g id="Objects"><rect class="cls-1" x="0.12" y="0.12" width="166.36" height="232.9" rx="5.94"/><path class="cls-2" d="M160.53,233.13H6.06a6.07,6.07,0,0,1-6.06-6V6.06A6.07,6.07,0,0,1,6.06,0H160.53a6.07,6.07,0,0,1,6.06,6.06v221A6.07,6.07,0,0,1,160.53,233.13ZM6.06.23A5.83,5.83,0,0,0,.23,6.06v221a5.83,5.83,0,0,0,5.83,5.82H160.53a5.83,5.83,0,0,0,5.83-5.82V6.06A5.84,5.84,0,0,0,160.53.23Z"/><path class="cls-1" d="M149.2,18.48a.58.58,0,0,1-.57.57.57.57,0,1,1,0-1.14A.58.58,0,0,1,149.2,18.48Z"/><path class="cls-1" d="M122.07,18.48a.58.58,0,0,1-.57.57.57.57,0,1,1,0-1.14A.58.58,0,0,1,122.07,18.48Z"/><path class="cls-1" d="M97.11,18.48a.57.57,0,1,1-.57-.57A.57.57,0,0,1,97.11,18.48Z"/><path class="cls-1" d="M72.06,18.66a.56.56,0,0,1-.57.57.57.57,0,1,1,0-1.13A.56.56,0,0,1,72.06,18.66Z"/><path class="cls-1" d="M149.2,39.62a.57.57,0,0,1-.57.57.56.56,0,0,1-.57-.57.57.57,0,0,1,.57-.57A.58.58,0,0,1,149.2,39.62Z"/><path class="cls-1" d="M149.2,58.91a.57.57,0,0,1-.57.57.57.57,0,1,1,.57-.57Z"/><path class="cls-1" d="M149.2,79.13a.57.57,0,0,1-.57.57.56.56,0,0,1-.57-.57.57.57,0,0,1,.57-.57A.58.58,0,0,1,149.2,79.13Z"/><path class="cls-1" d="M149.2,91.91a.57.57,0,0,1-.57.57.57.57,0,1,1,.57-.57Z"/><path class="cls-1" d="M149.2,104.74a.57.57,0,0,1-.57.57.57.57,0,1,1,.57-.57Z"/><path class="cls-1" d="M18.9,19.05a.57.57,0,0,1-.57.57.57.57,0,0,1,0-1.14A.57.57,0,0,1,18.9,19.05Z"/><path class="cls-1" d="M46.34,18.66a.56.56,0,0,1-.57.57.57.57,0,1,1,0-1.13A.56.56,0,0,1,46.34,18.66Z"/><path class="cls-1" d="M18.9,39.17a.56.56,0,0,1-.57.57.57.57,0,0,1-.57-.57.58.58,0,0,1,.57-.57A.57.57,0,0,1,18.9,39.17Z"/><path class="cls-1" d="M18.9,59.05a.56.56,0,0,1-.57.56.57.57,0,1,1,.57-.56Z"/><path class="cls-1" d="M18.9,79a.57.57,0,0,1-.57.57.57.57,0,1,1,0-1.14A.57.57,0,0,1,18.9,79Z"/><path class="cls-1" d="M18.9,91.91a.56.56,0,0,1-.57.57.57.57,0,1,1,0-1.13A.56.56,0,0,1,18.9,91.91Z"/><path class="cls-1" d="M18.9,105.31a.56.56,0,0,1-.57.57.57.57,0,0,1-.57-.57.58.58,0,0,1,.57-.57A.57.57,0,0,1,18.9,105.31Z"/><path class="cls-1" d="M18.9,118.24a.56.56,0,0,1-.57.57.57.57,0,1,1,0-1.13A.56.56,0,0,1,18.9,118.24Z"/><path class="cls-1" d="M18.9,131.17a.57.57,0,0,1-.57.57.58.58,0,0,1-.57-.57.57.57,0,0,1,.57-.57A.56.56,0,0,1,18.9,131.17Z"/><path class="cls-1" d="M18.9,144.57a.57.57,0,0,1-.57.57.58.58,0,0,1-.57-.57.57.57,0,0,1,.57-.57A.56.56,0,0,1,18.9,144.57Z"/><path class="cls-1" d="M18.9,158a.56.56,0,0,1-.57.56.57.57,0,1,1,.57-.56Z"/><path class="cls-1" d="M18.9,170a.56.56,0,0,1-.57.56.57.57,0,1,1,.57-.56Z"/><path class="cls-1" d="M18.9,183.39a.56.56,0,0,1-.57.57.57.57,0,0,1-.57-.57.58.58,0,0,1,.57-.57A.57.57,0,0,1,18.9,183.39Z"/><path class="cls-1" d="M18.9,196.44a.56.56,0,0,1-.57.57.57.57,0,0,1-.57-.57.58.58,0,0,1,.57-.57A.57.57,0,0,1,18.9,196.44Z"/><path class="cls-1" d="M19.13,215.63a.57.57,0,0,1-.57.57.58.58,0,0,1-.57-.57.57.57,0,0,1,.57-.57A.56.56,0,0,1,19.13,215.63Z"/><path class="cls-1" d="M39.66,216.2a.57.57,0,1,1-.57-.57A.57.57,0,0,1,39.66,216.2Z"/><path class="cls-1" d="M66.11,216.2a.57.57,0,1,1-.57-.57A.57.57,0,0,1,66.11,216.2Z"/><path class="cls-1" d="M92.51,216.2a.57.57,0,1,1-.57-.57A.56.56,0,0,1,92.51,216.2Z"/><path class="cls-1" d="M118.24,216.2a.57.57,0,0,1-.57.56.57.57,0,1,1,0-1.13A.57.57,0,0,1,118.24,216.2Z"/><path class="cls-1" d="M149.2,117.93a.58.58,0,0,1-.57.57.57.57,0,0,1-.57-.57.56.56,0,0,1,.57-.57A.57.57,0,0,1,149.2,117.93Z"/><path class="cls-1" d="M149.2,130.26a.58.58,0,0,1-.57.57.57.57,0,0,1-.57-.57.56.56,0,0,1,.57-.57A.57.57,0,0,1,149.2,130.26Z"/><path class="cls-1" d="M149.2,143.55a.58.58,0,0,1-.57.57.57.57,0,0,1,0-1.14A.58.58,0,0,1,149.2,143.55Z"/><path class="cls-1" d="M149.2,156.65a.57.57,0,0,1-.57.57.56.56,0,0,1-.57-.57.57.57,0,0,1,.57-.57A.58.58,0,0,1,149.2,156.65Z"/><path class="cls-1" d="M149.2,169.41a.58.58,0,0,1-.57.57.57.57,0,0,1-.57-.57.56.56,0,0,1,.57-.57A.57.57,0,0,1,149.2,169.41Z"/><path class="cls-1" d="M149.2,182a.57.57,0,0,1-.57.57.56.56,0,0,1-.57-.57.57.57,0,0,1,.57-.57A.58.58,0,0,1,149.2,182Z"/><path class="cls-1" d="M149.2,194.82a.57.57,0,0,1-.57.57.56.56,0,0,1-.57-.57.57.57,0,0,1,.57-.57A.58.58,0,0,1,149.2,194.82Z"/><path class="cls-1" d="M149.2,214.39a.57.57,0,0,1-.57.57.56.56,0,0,1-.57-.57.57.57,0,0,1,.57-.57A.58.58,0,0,1,149.2,214.39Z"/><path class="cls-3" d="M15,28.69a3.92,3.92,0,0,1-1.58-1.28,3.34,3.34,0,0,1-.59-2,3,3,0,0,1,.8-2.22,3.79,3.79,0,0,1,1.69-1v-.08l-.22-.1a3.3,3.3,0,0,1-1.57-1.26A3.49,3.49,0,0,1,13,18.81,2.93,2.93,0,0,1,13.63,17a4.1,4.1,0,0,1,1.61-1.29,5.25,5.25,0,0,1,4.3,0A3.4,3.4,0,0,1,20.93,17a3.06,3.06,0,0,1,.46,1.62,2.65,2.65,0,0,1-.67,1.81,4.71,4.71,0,0,1-1.56,1.18v.07l.45.18a3.11,3.11,0,0,1,2.29,2.93,4.47,4.47,0,0,1-.56,2.2,4,4,0,0,1-1.63,1.59,5.19,5.19,0,0,1-2.57.59A5,5,0,0,1,15,28.69Zm4.08-.62a2.71,2.71,0,0,0,1-1.08,2.79,2.79,0,0,0,.3-1.19,2.39,2.39,0,0,0-.47-1.62,3.92,3.92,0,0,0-1.39-.89l-2.62-.95a2.56,2.56,0,0,0-1.24,1.05,4,4,0,0,0-.45,2.1,2.74,2.74,0,0,0,.94,2.29,3.47,3.47,0,0,0,2.2.73A3.09,3.09,0,0,0,19.1,28.07Zm.7-7.79a3.45,3.45,0,0,0,.35-1.59,2.73,2.73,0,0,0-.39-1.44,2.68,2.68,0,0,0-1-1,2.79,2.79,0,0,0-1.42-.37,3.09,3.09,0,0,0-2,.68,2.21,2.21,0,0,0-.83,1.8,2,2,0,0,0,.4,1.3,3.14,3.14,0,0,0,1.25.84l2.51.95A2.73,2.73,0,0,0,19.8,20.28Z"/><path class="cls-3" d="M151.86,211.2a3.73,3.73,0,0,1,1.57,1.28,3.32,3.32,0,0,1,.59,2,3,3,0,0,1-.79,2.21,4,4,0,0,1-1.69,1v.08l.21.09a3.37,3.37,0,0,1,1.57,1.26,3.52,3.52,0,0,1,.55,1.94,3,3,0,0,1-.62,1.84,4.18,4.18,0,0,1-1.62,1.28,4.9,4.9,0,0,1-2,.46,4.78,4.78,0,0,1-2.24-.48,3.38,3.38,0,0,1-1.39-1.24,3.07,3.07,0,0,1-.47-1.62,2.66,2.66,0,0,1,.67-1.82,4.64,4.64,0,0,1,1.56-1.17v-.08l-.44-.17a3.11,3.11,0,0,1-2.29-2.93,4.47,4.47,0,0,1,.55-2.21,4.09,4.09,0,0,1,1.63-1.59,5.33,5.33,0,0,1,2.57-.59A5.05,5.05,0,0,1,151.86,211.2Zm-4.09.62a2.63,2.63,0,0,0-1,1.07,2.79,2.79,0,0,0-.3,1.2,2.33,2.33,0,0,0,.48,1.61,3.62,3.62,0,0,0,1.38.89l2.62.95a2.58,2.58,0,0,0,1.25-1,4,4,0,0,0,.44-2.09,2.71,2.71,0,0,0-.94-2.29,3.48,3.48,0,0,0-2.2-.74A3.11,3.11,0,0,0,147.77,211.82Zm-.7,7.78a3.45,3.45,0,0,0-.35,1.59,2.79,2.79,0,0,0,.39,1.45,2.8,2.8,0,0,0,2.47,1.38,3.12,3.12,0,0,0,2-.67,2.24,2.24,0,0,0,.82-1.81,2,2,0,0,0-.4-1.3,3.06,3.06,0,0,0-1.25-.83l-2.5-1A2.88,2.88,0,0,0,147.07,219.6Z"/><path class="cls-4" d="M19.85,34.67a2.26,2.26,0,0,0-2.44,2.11A2.27,2.27,0,0,0,15,34.67c-2.51.06-2.84,2.87-2,4.28a12.56,12.56,0,0,0,2.2,2.77,22.57,22.57,0,0,1,2.17,2.4s0,.07,0,.05,0-.05,0-.05a20.56,20.56,0,0,1,2.17-2.4A12.85,12.85,0,0,0,21.8,39C22.68,37.54,22.35,34.73,19.85,34.67Z"/><path class="cls-4" d="M151.08,206.83a2.25,2.25,0,0,1-2.44-2.1,2.25,2.25,0,0,1-2.44,2.1c-2.5-.06-2.83-2.86-2-4.28a13.72,13.72,0,0,1,2.2-2.77,20.6,20.6,0,0,0,2.17-2.39s0-.07,0,0,0,0,0,0a22.62,22.62,0,0,0,2.17,2.39,13.06,13.06,0,0,1,2.2,2.77C153.92,204,153.58,206.77,151.08,206.83Z"/><path class="cls-4" d="M64.64,28.65c-5.48-.13-6.74,4.06-7,6.07-.29-2-1.56-6.2-7-6.07-7.21.18-8.16,8.25-5.64,12.34a37.54,37.54,0,0,0,6.34,8c2.37,2.45,5.2,5.21,6.25,6.9,0,0,.06.2.09.15s.08-.15.08-.15c1.05-1.69,3.88-4.45,6.26-6.9a37.85,37.85,0,0,0,6.34-8C72.81,36.9,71.85,28.83,64.64,28.65Z"/><path class="cls-4" d="M64.64,104.45c-5.48-.13-6.74,4-7,6.07-.29-2-1.56-6.2-7-6.07-7.21.17-8.16,8.25-5.64,12.33a37.29,37.29,0,0,0,6.34,8c2.37,2.46,5.2,5.22,6.25,6.91,0,0,.06.2.09.14s.08-.14.08-.14c1.05-1.69,3.88-4.45,6.26-6.91a37.6,37.6,0,0,0,6.34-8C72.81,112.7,71.85,104.62,64.64,104.45Z"/><path class="cls-4" d="M64.64,207.63c-5.48.13-6.74-4.06-7-6.07-.29,2-1.56,6.2-7,6.07-7.21-.18-8.16-8.26-5.64-12.34a37.54,37.54,0,0,1,6.34-8c2.37-2.45,5.2-5.21,6.25-6.91,0,0,.06-.19.09-.14s.08.14.08.14c1.05,1.7,3.88,4.46,6.26,6.91a37.85,37.85,0,0,1,6.34,8C72.81,199.37,71.85,207.45,64.64,207.63Z"/><path class="cls-4" d="M117.32,28.65c-5.48-.13-6.74,4.06-7,6.07-.29-2-1.56-6.2-7-6.07C96,28.83,95.09,36.9,97.6,41A37.86,37.86,0,0,0,104,49c2.37,2.45,5.2,5.21,6.25,6.9,0,0,0,.2.09.15s.08-.15.08-.15c1-1.69,3.88-4.45,6.26-6.9A37.85,37.85,0,0,0,123,41C125.49,36.9,124.53,28.83,117.32,28.65Z"/><path class="cls-4" d="M117.32,104.45c-5.48-.13-6.74,4-7,6.07-.29-2-1.56-6.2-7-6.07-7.21.17-8.16,8.25-5.65,12.33a37.61,37.61,0,0,0,6.35,8c2.37,2.46,5.2,5.22,6.25,6.91,0,0,0,.2.09.14s.08-.14.08-.14c1-1.69,3.88-4.45,6.26-6.91a37.6,37.6,0,0,0,6.34-8C125.49,112.7,124.53,104.62,117.32,104.45Z"/><path class="cls-4" d="M117.32,207.63c-5.48.13-6.74-4.06-7-6.07-.29,2-1.56,6.2-7,6.07-7.21-.18-8.16-8.26-5.65-12.34a37.86,37.86,0,0,1,6.35-8c2.37-2.45,5.2-5.21,6.25-6.91,0,0,0-.19.09-.14s.08.14.08.14c1,1.7,3.88,4.46,6.26,6.91a37.85,37.85,0,0,1,6.34,8C125.49,199.37,124.53,207.45,117.32,207.63Z"/><path class="cls-4" d="M90.52,67.47c-5.48-.13-6.75,4.06-7,6.07-.29-2-1.55-6.2-7-6.07-7.21.18-8.17,8.26-5.65,12.34a37.85,37.85,0,0,0,6.34,8c2.38,2.45,5.21,5.21,6.26,6.91,0,0,0,.19.08.14s.09-.14.09-.14c1.05-1.7,3.88-4.46,6.25-6.91a37.54,37.54,0,0,0,6.34-8C98.68,75.73,97.73,67.65,90.52,67.47Z"/><path class="cls-4" d="M90.52,167.87c-5.48.13-6.75-4.06-7-6.07-.29,2-1.55,6.2-7,6.07-7.21-.18-8.17-8.25-5.65-12.34a37.85,37.85,0,0,1,6.34-8c2.38-2.45,5.21-5.21,6.26-6.9,0,0,0-.2.08-.15s.09.15.09.15c1.05,1.69,3.88,4.45,6.25,6.9a37.54,37.54,0,0,1,6.34,8C98.68,159.62,97.73,167.69,90.52,167.87Z"/></g></g></svg>