<svg xmlns="http://www.w3.org/2000/svg" viewBox="0 0 166.59 233.13"><defs><style>.cls-1{fill:#fff;}.cls-2{fill:#65a7dd;}.cls-3{fill:#151515;}</style></defs><g id="Calque_2" data-name="Calque 2"><g id="Objects"><rect class="cls-1" x="0.12" y="0.12" width="166.36" height="232.9" rx="5.94"/><path class="cls-2" d="M160.53,233.13H6.06a6.07,6.07,0,0,1-6.06-6V6.06A6.07,6.07,0,0,1,6.06,0H160.53a6.07,6.07,0,0,1,6.06,6.06v221A6.07,6.07,0,0,1,160.53,233.13ZM6.06.23A5.83,5.83,0,0,0,.23,6.06v221a5.83,5.83,0,0,0,5.83,5.82H160.53a5.83,5.83,0,0,0,5.83-5.82V6.06A5.84,5.84,0,0,0,160.53.23Z"/><path class="cls-1" d="M149.2,18.48a.58.58,0,0,1-.57.57.57.57,0,1,1,0-1.14A.58.58,0,0,1,149.2,18.48Z"/><path class="cls-1" d="M122.07,18.48a.58.58,0,0,1-.57.57.57.57,0,1,1,0-1.14A.58.58,0,0,1,122.07,18.48Z"/><path class="cls-1" d="M97.11,18.48a.57.57,0,1,1-.57-.57A.57.57,0,0,1,97.11,18.48Z"/><path class="cls-1" d="M72.06,18.66a.56.56,0,0,1-.57.57.57.57,0,1,1,0-1.13A.56.56,0,0,1,72.06,18.66Z"/><path class="cls-1" d="M149.2,39.62a.57.57,0,0,1-.57.57.56.56,0,0,1-.57-.57.57.57,0,0,1,.57-.57A.58.58,0,0,1,149.2,39.62Z"/><path class="cls-1" d="M149.2,58.91a.57.57,0,0,1-.57.57.57.57,0,1,1,.57-.57Z"/><path class="cls-1" d="M149.2,79.13a.57.57,0,0,1-.57.57.56.56,0,0,1-.57-.57.57.57,0,0,1,.57-.57A.58.58,0,0,1,149.2,79.13Z"/><path class="cls-1" d="M149.2,91.91a.57.57,0,0,1-.57.57.57.57,0,1,1,.57-.57Z"/><path class="cls-1" d="M149.2,104.74a.57.57,0,0,1-.57.57.57.57,0,1,1,.57-.57Z"/><path class="cls-1" d="M18.9,19.05a.57.57,0,0,1-.57.57.57.57,0,0,1,0-1.14A.57.57,0,0,1,18.9,19.05Z"/><path class="cls-1" d="M46.34,18.66a.56.56,0,0,1-.57.57.57.57,0,1,1,0-1.13A.56.56,0,0,1,46.34,18.66Z"/><path class="cls-1" d="M18.9,39.17a.56.56,0,0,1-.57.57.57.57,0,0,1-.57-.57.58.58,0,0,1,.57-.57A.57.57,0,0,1,18.9,39.17Z"/><path class="cls-1" d="M18.9,59.05a.56.56,0,0,1-.57.56.57.57,0,1,1,.57-.56Z"/><path class="cls-1" d="M18.9,79a.57.57,0,0,1-.57.57.57.57,0,1,1,0-1.14A.57.57,0,0,1,18.9,79Z"/><path class="cls-1" d="M18.9,91.91a.56.56,0,0,1-.57.57.57.57,0,1,1,0-1.13A.56.56,0,0,1,18.9,91.91Z"/><path class="cls-1" d="M18.9,105.31a.56.56,0,0,1-.57.57.57.57,0,0,1-.57-.57.58.58,0,0,1,.57-.57A.57.57,0,0,1,18.9,105.31Z"/><path class="cls-1" d="M18.9,118.24a.56.56,0,0,1-.57.57.57.57,0,1,1,0-1.13A.56.56,0,0,1,18.9,118.24Z"/><path class="cls-1" d="M18.9,131.17a.57.57,0,0,1-.57.57.58.58,0,0,1-.57-.57.57.57,0,0,1,.57-.57A.56.56,0,0,1,18.9,131.17Z"/><path class="cls-1" d="M18.9,144.57a.57.57,0,0,1-.57.57.58.58,0,0,1-.57-.57.57.57,0,0,1,.57-.57A.56.56,0,0,1,18.9,144.57Z"/><path class="cls-1" d="M18.9,158a.56.56,0,0,1-.57.56.57.57,0,1,1,.57-.56Z"/><path class="cls-1" d="M18.9,170a.56.56,0,0,1-.57.56.57.57,0,1,1,.57-.56Z"/><path class="cls-1" d="M18.9,183.39a.56.56,0,0,1-.57.57.57.57,0,0,1-.57-.57.58.58,0,0,1,.57-.57A.57.57,0,0,1,18.9,183.39Z"/><path class="cls-1" d="M18.9,196.44a.56.56,0,0,1-.57.57.57.57,0,0,1-.57-.57.58.58,0,0,1,.57-.57A.57.57,0,0,1,18.9,196.44Z"/><path class="cls-1" d="M19.13,215.63a.56.56,0,0,1-.57.56.57.57,0,1,1,.57-.56Z"/><path class="cls-1" d="M39.66,216.19a.57.57,0,1,1-.57-.56A.57.57,0,0,1,39.66,216.19Z"/><path class="cls-1" d="M66.11,216.19a.57.57,0,1,1-.57-.56A.57.57,0,0,1,66.11,216.19Z"/><path class="cls-1" d="M92.51,216.19a.57.57,0,1,1-.57-.56A.56.56,0,0,1,92.51,216.19Z"/><path class="cls-1" d="M118.24,216.19a.57.57,0,0,1-.57.57.57.57,0,1,1,.57-.57Z"/><path class="cls-1" d="M149.2,117.93a.58.58,0,0,1-.57.57.57.57,0,0,1-.57-.57.56.56,0,0,1,.57-.57A.57.57,0,0,1,149.2,117.93Z"/><path class="cls-1" d="M149.2,130.26a.58.58,0,0,1-.57.57.57.57,0,0,1-.57-.57.56.56,0,0,1,.57-.57A.57.57,0,0,1,149.2,130.26Z"/><path class="cls-1" d="M149.2,143.55a.58.58,0,0,1-.57.57.57.57,0,0,1,0-1.14A.58.58,0,0,1,149.2,143.55Z"/><path class="cls-1" d="M149.2,156.65a.57.57,0,0,1-.57.57.56.56,0,0,1-.57-.57.57.57,0,0,1,.57-.57A.58.58,0,0,1,149.2,156.65Z"/><path class="cls-1" d="M149.2,169.41a.58.58,0,0,1-.57.57.57.57,0,0,1-.57-.57.56.56,0,0,1,.57-.57A.57.57,0,0,1,149.2,169.41Z"/><path class="cls-1" d="M149.2,182a.57.57,0,0,1-.57.57.56.56,0,0,1-.57-.57.57.57,0,0,1,.57-.57A.58.58,0,0,1,149.2,182Z"/><path class="cls-1" d="M149.2,194.82a.57.57,0,0,1-.57.57.56.56,0,0,1-.57-.57.57.57,0,0,1,.57-.57A.58.58,0,0,1,149.2,194.82Z"/><path class="cls-1" d="M149.2,214.39a.57.57,0,0,1-.57.57.56.56,0,0,1-.57-.57.57.57,0,0,1,.57-.57A.58.58,0,0,1,149.2,214.39Z"/><path d="M15.39,22.81a3.83,3.83,0,0,1-1.57-1.29,3.22,3.22,0,0,1-.59-1.95A3,3,0,0,1,14,17.35a4,4,0,0,1,1.69-1.05v-.07l-.21-.1a3.31,3.31,0,0,1-1.57-1.26,3.44,3.44,0,0,1-.55-1.94A3,3,0,0,1,14,11.09a4.24,4.24,0,0,1,1.61-1.28,4.94,4.94,0,0,1,2.06-.45,4.79,4.79,0,0,1,2.24.47,3.38,3.38,0,0,1,1.39,1.24,3.1,3.1,0,0,1,.47,1.62,2.71,2.71,0,0,1-.67,1.82,4.64,4.64,0,0,1-1.56,1.17v.08l.44.18a3.09,3.09,0,0,1,2.29,2.93,4.46,4.46,0,0,1-.55,2.2,4,4,0,0,1-1.63,1.59,5.22,5.22,0,0,1-2.57.59A5.2,5.2,0,0,1,15.39,22.81Zm4.09-.62a2.71,2.71,0,0,0,1-1.08,2.79,2.79,0,0,0,.3-1.2,2.33,2.33,0,0,0-.48-1.61,3.79,3.79,0,0,0-1.39-.89l-2.62-.95A2.6,2.6,0,0,0,15,17.51a4,4,0,0,0-.44,2.09,2.71,2.71,0,0,0,.94,2.29,3.42,3.42,0,0,0,2.2.74A3.22,3.22,0,0,0,19.48,22.19Zm.7-7.79a3.45,3.45,0,0,0,.35-1.59A2.83,2.83,0,0,0,17.67,10a3.06,3.06,0,0,0-2,.68,2.2,2.2,0,0,0-.82,1.8,2,2,0,0,0,.4,1.3,3.07,3.07,0,0,0,1.25.84l2.5,1A2.88,2.88,0,0,0,20.18,14.4Z"/><path d="M152.23,205.31a3.83,3.83,0,0,1,1.57,1.29,3.25,3.25,0,0,1,.59,2,3,3,0,0,1-.79,2.21,3.91,3.91,0,0,1-1.69,1v.07l.21.1a3.39,3.39,0,0,1,1.58,1.26,3.52,3.52,0,0,1,.54,1.94,3,3,0,0,1-.62,1.84,4.24,4.24,0,0,1-1.61,1.28,4.94,4.94,0,0,1-2.06.45,4.79,4.79,0,0,1-2.24-.47,3.38,3.38,0,0,1-1.39-1.24,3.1,3.1,0,0,1-.47-1.62,2.71,2.71,0,0,1,.67-1.82,4.58,4.58,0,0,1,1.57-1.17v-.08l-.45-.18a3.09,3.09,0,0,1-2.29-2.92,4.47,4.47,0,0,1,.55-2.21,4,4,0,0,1,1.63-1.59,5.34,5.34,0,0,1,2.58-.59A5.16,5.16,0,0,1,152.23,205.31Zm-4.09.63a2.6,2.6,0,0,0-1,1.07,2.68,2.68,0,0,0-.31,1.2,2.33,2.33,0,0,0,.48,1.61,3.79,3.79,0,0,0,1.39.89l2.62.95a2.6,2.6,0,0,0,1.24-1,4,4,0,0,0,.45-2.09,2.74,2.74,0,0,0-.94-2.29,3.51,3.51,0,0,0-2.21-.74A3.14,3.14,0,0,0,148.14,205.94Zm-.69,7.78a3.33,3.33,0,0,0-.35,1.59,2.78,2.78,0,0,0,1.42,2.47,2.92,2.92,0,0,0,1.43.36,3.06,3.06,0,0,0,2-.68,2.2,2.2,0,0,0,.82-1.8,2,2,0,0,0-.39-1.3,3.18,3.18,0,0,0-1.26-.84l-2.5-1A2.79,2.79,0,0,0,147.45,213.72Z"/><path class="cls-3" d="M95.79,73.22c-3.67-4-7.94-7.91-9.73-10-1.34-1.54-2.29-2.71-2.68-3.2V59.8l-.1.13a1,1,0,0,1-.1-.13v.25c-.39.49-1.34,1.66-2.68,3.2-1.79,2.06-6.06,6-9.74,10a12.19,12.19,0,0,0-3.27,11.34c.69,3.33,4.17,6.45,9.63,5.77A6.06,6.06,0,0,0,81,88.27a12.69,12.69,0,0,1-3.15,7.15H88.44a13.52,13.52,0,0,1-2.86-7.13,6,6,0,0,0,3.86,2c5.46.68,8.94-2.44,9.63-5.77A12.18,12.18,0,0,0,95.79,73.22Z"/><path class="cls-3" d="M66.22,35.17c-3.68-4-7.95-7.92-9.73-10-1.35-1.54-2.3-2.71-2.69-3.2v-.25a1,1,0,0,1-.1.13l-.1-.13V22c-.39.49-1.34,1.66-2.68,3.2-1.79,2.05-6.06,6-9.73,10a12.2,12.2,0,0,0-3.28,11.34c.7,3.32,4.17,6.45,9.64,5.77a6.12,6.12,0,0,0,3.88-2.07,12.74,12.74,0,0,1-3.16,7.16h10.6A13.57,13.57,0,0,1,56,50.24a6.16,6.16,0,0,0,3.86,2c5.47.68,8.94-2.45,9.64-5.77A12.23,12.23,0,0,0,66.22,35.17Z"/><path class="cls-3" d="M66.22,111.75c-3.68-4-7.95-7.92-9.73-10-1.35-1.54-2.3-2.71-2.69-3.2v-.25l-.1.12-.1-.12v.25c-.39.49-1.34,1.66-2.68,3.2-1.79,2-6.06,6-9.73,10a12.19,12.19,0,0,0-3.28,11.34c.7,3.32,4.17,6.45,9.64,5.76a6.07,6.07,0,0,0,3.88-2.06,12.74,12.74,0,0,1-3.16,7.15h10.6A13.54,13.54,0,0,1,56,126.82a6.1,6.1,0,0,0,3.86,2c5.47.69,8.94-2.44,9.64-5.76A12.22,12.22,0,0,0,66.22,111.75Z"/><path class="cls-3" d="M66.22,194.59c-3.68,4-7.95,7.92-9.73,10-1.35,1.54-2.3,2.71-2.69,3.2V208l-.1-.12-.1.12v-.25c-.39-.49-1.34-1.66-2.68-3.2-1.79-2.05-6.06-6-9.73-10a12.19,12.19,0,0,1-3.28-11.34c.7-3.32,4.17-6.45,9.64-5.76a6.07,6.07,0,0,1,3.88,2.06,12.69,12.69,0,0,0-3.16-7.15h10.6A13.54,13.54,0,0,0,56,179.52a6.1,6.1,0,0,1,3.86-2c5.47-.69,8.94,2.44,9.64,5.76A12.19,12.19,0,0,1,66.22,194.59Z"/><path class="cls-3" d="M126.29,35.17c-3.67-4-7.94-7.92-9.73-10-1.34-1.54-2.29-2.71-2.68-3.2v-.25l-.1.13a1,1,0,0,1-.1-.13V22c-.39.49-1.34,1.66-2.68,3.2-1.79,2.05-6.06,6-9.74,10A12.23,12.23,0,0,0,98,46.51c.7,3.32,4.18,6.45,9.64,5.77a6.1,6.1,0,0,0,3.88-2.07,12.7,12.7,0,0,1-3.15,7.16h10.59a13.55,13.55,0,0,1-2.86-7.13,6.13,6.13,0,0,0,3.86,2c5.46.68,8.94-2.45,9.63-5.77A12.18,12.18,0,0,0,126.29,35.17Z"/><path class="cls-3" d="M126.29,111.75c-3.67-4-7.94-7.92-9.73-10-1.34-1.54-2.29-2.71-2.68-3.2v-.25l-.1.12-.1-.12v.25c-.39.49-1.34,1.66-2.68,3.2-1.79,2-6.06,6-9.74,10A12.22,12.22,0,0,0,98,123.09c.7,3.32,4.18,6.45,9.64,5.76a6,6,0,0,0,3.88-2.06,12.69,12.69,0,0,1-3.15,7.15h10.59a13.52,13.52,0,0,1-2.86-7.12,6.08,6.08,0,0,0,3.86,2c5.46.69,8.94-2.44,9.63-5.76A12.16,12.16,0,0,0,126.29,111.75Z"/><path class="cls-3" d="M126.29,194.59c-3.67,4-7.94,7.92-9.73,10-1.34,1.54-2.29,2.71-2.68,3.2V208l-.1-.12-.1.12v-.25c-.39-.49-1.34-1.66-2.68-3.2-1.79-2.05-6.06-6-9.74-10A12.22,12.22,0,0,1,98,183.25c.7-3.32,4.18-6.45,9.64-5.76a6,6,0,0,1,3.88,2.06,12.64,12.64,0,0,0-3.15-7.15h10.59a13.52,13.52,0,0,0-2.86,7.12,6.08,6.08,0,0,1,3.86-2c5.46-.69,8.94,2.44,9.63,5.76A12.16,12.16,0,0,1,126.29,194.59Z"/><path class="cls-3" d="M95.79,158.71c-3.67,4-7.94,7.92-9.73,10-1.34,1.54-2.29,2.71-2.68,3.2v.25l-.1-.13a1,1,0,0,0-.1.13v-.25c-.39-.49-1.34-1.66-2.68-3.2-1.79-2.05-6.06-6-9.74-10a12.19,12.19,0,0,1-3.27-11.34c.69-3.32,4.17-6.45,9.63-5.77A6.07,6.07,0,0,1,81,143.67a12.7,12.7,0,0,0-3.15-7.16H88.44a13.55,13.55,0,0,0-2.86,7.13,6.13,6.13,0,0,1,3.86-2c5.46-.68,8.94,2.45,9.63,5.77A12.18,12.18,0,0,1,95.79,158.71Z"/><path class="cls-3" d="M152.67,197c-1.07,1.17-2.32,2.31-2.84,2.91s-.67.79-.78.94v.07l0,0,0,0v-.07c-.11-.15-.39-.49-.78-.94s-1.77-1.74-2.84-2.91a3.55,3.55,0,0,1-1-3.3,2.39,2.39,0,0,1,2.81-1.69,1.79,1.79,0,0,1,1.13.61,3.62,3.62,0,0,0-.92-2.09h3.09a4,4,0,0,0-.83,2.08,1.81,1.81,0,0,1,1.12-.6,2.4,2.4,0,0,1,2.82,1.69A3.55,3.55,0,0,1,152.67,197Z"/><path class="cls-3" d="M22.36,30.87C21.28,29.7,20,28.56,19.52,28L18.73,27V27l0,0,0,0V27c-.12.14-.39.48-.79.93s-1.76,1.74-2.84,2.91a3.57,3.57,0,0,0-1,3.31,2.37,2.37,0,0,0,2.81,1.68,1.76,1.76,0,0,0,1.13-.6,3.69,3.69,0,0,1-.92,2.08h3.09a4,4,0,0,1-.83-2.07,1.77,1.77,0,0,0,1.12.59,2.37,2.37,0,0,0,2.81-1.68A3.54,3.54,0,0,0,22.36,30.87Z"/></g></g></svg>