<svg xmlns="http://www.w3.org/2000/svg" viewBox="0 0 166.59 233.13"><defs><style>.cls-1{fill:#fff;}.cls-2{fill:#65a7dd;}.cls-3{fill:#151515;}</style></defs><g id="Calque_2" data-name="Calque 2"><g id="Objects"><rect class="cls-1" x="0.12" y="0.12" width="166.36" height="232.9" rx="5.94"/><path class="cls-2" d="M160.53,233.13H6.06a6.07,6.07,0,0,1-6.06-6V6.06A6.07,6.07,0,0,1,6.06,0H160.53a6.07,6.07,0,0,1,6.06,6.06v221A6.07,6.07,0,0,1,160.53,233.13ZM6.06.23A5.83,5.83,0,0,0,.23,6.06v221a5.83,5.83,0,0,0,5.83,5.82H160.53a5.83,5.83,0,0,0,5.83-5.82V6.06A5.84,5.84,0,0,0,160.53.23Z"/><path class="cls-1" d="M149.2,18.48a.58.58,0,0,1-.57.57.57.57,0,1,1,0-1.14A.58.58,0,0,1,149.2,18.48Z"/><path class="cls-1" d="M122.07,18.48a.58.58,0,0,1-.57.57.57.57,0,1,1,0-1.14A.58.58,0,0,1,122.07,18.48Z"/><path class="cls-1" d="M97.11,18.48a.57.57,0,1,1-.57-.57A.57.57,0,0,1,97.11,18.48Z"/><path class="cls-1" d="M72.06,18.66a.56.56,0,0,1-.57.57.57.57,0,1,1,0-1.13A.56.56,0,0,1,72.06,18.66Z"/><path class="cls-1" d="M149.2,39.62a.57.57,0,0,1-.57.57.56.56,0,0,1-.57-.57.57.57,0,0,1,.57-.57A.58.58,0,0,1,149.2,39.62Z"/><path class="cls-1" d="M149.2,58.91a.57.57,0,0,1-.57.57.57.57,0,1,1,.57-.57Z"/><path class="cls-1" d="M149.2,79.13a.57.57,0,0,1-.57.57.56.56,0,0,1-.57-.57.57.57,0,0,1,.57-.57A.58.58,0,0,1,149.2,79.13Z"/><path class="cls-1" d="M149.2,91.91a.57.57,0,0,1-.57.57.57.57,0,1,1,.57-.57Z"/><path class="cls-1" d="M149.2,104.74a.57.57,0,0,1-.57.57.57.57,0,1,1,.57-.57Z"/><path class="cls-1" d="M18.9,19.05a.57.57,0,0,1-.57.57.57.57,0,0,1,0-1.14A.57.57,0,0,1,18.9,19.05Z"/><path class="cls-1" d="M46.34,18.66a.56.56,0,0,1-.57.57.57.57,0,1,1,0-1.13A.56.56,0,0,1,46.34,18.66Z"/><path class="cls-1" d="M18.9,39.17a.56.56,0,0,1-.57.57.57.57,0,0,1-.57-.57.58.58,0,0,1,.57-.57A.57.57,0,0,1,18.9,39.17Z"/><path class="cls-1" d="M18.9,59.05a.56.56,0,0,1-.57.56.57.57,0,1,1,.57-.56Z"/><path class="cls-1" d="M18.9,79a.57.57,0,0,1-.57.57.57.57,0,1,1,0-1.14A.57.57,0,0,1,18.9,79Z"/><path class="cls-1" d="M18.9,91.91a.56.56,0,0,1-.57.57.57.57,0,1,1,0-1.13A.56.56,0,0,1,18.9,91.91Z"/><path class="cls-1" d="M18.9,105.31a.56.56,0,0,1-.57.57.57.57,0,0,1-.57-.57.58.58,0,0,1,.57-.57A.57.57,0,0,1,18.9,105.31Z"/><path class="cls-1" d="M18.9,118.24a.56.56,0,0,1-.57.57.57.57,0,1,1,0-1.13A.56.56,0,0,1,18.9,118.24Z"/><path class="cls-1" d="M18.9,131.17a.57.57,0,0,1-.57.57.58.58,0,0,1-.57-.57.57.57,0,0,1,.57-.57A.56.56,0,0,1,18.9,131.17Z"/><path class="cls-1" d="M18.9,144.57a.57.57,0,0,1-.57.57.58.58,0,0,1-.57-.57.57.57,0,0,1,.57-.57A.56.56,0,0,1,18.9,144.57Z"/><path class="cls-1" d="M18.9,158a.56.56,0,0,1-.57.56.57.57,0,1,1,.57-.56Z"/><path class="cls-1" d="M18.9,170a.56.56,0,0,1-.57.56.57.57,0,1,1,.57-.56Z"/><path class="cls-1" d="M18.9,183.39a.56.56,0,0,1-.57.57.57.57,0,0,1-.57-.57.58.58,0,0,1,.57-.57A.57.57,0,0,1,18.9,183.39Z"/><path class="cls-1" d="M18.9,196.44a.56.56,0,0,1-.57.57.57.57,0,0,1-.57-.57.58.58,0,0,1,.57-.57A.57.57,0,0,1,18.9,196.44Z"/><path class="cls-1" d="M19.13,215.63a.56.56,0,0,1-.57.56.57.57,0,1,1,.57-.56Z"/><path class="cls-1" d="M39.66,216.19a.57.57,0,1,1-.57-.56A.57.57,0,0,1,39.66,216.19Z"/><path class="cls-1" d="M66.11,216.19a.57.57,0,1,1-.57-.56A.57.57,0,0,1,66.11,216.19Z"/><path class="cls-1" d="M92.51,216.19a.57.57,0,1,1-.57-.56A.56.56,0,0,1,92.51,216.19Z"/><path class="cls-1" d="M118.24,216.19a.57.57,0,0,1-.57.57.57.57,0,1,1,.57-.57Z"/><path class="cls-1" d="M149.2,117.93a.58.58,0,0,1-.57.57.57.57,0,0,1-.57-.57.56.56,0,0,1,.57-.57A.57.57,0,0,1,149.2,117.93Z"/><path class="cls-1" d="M149.2,130.26a.58.58,0,0,1-.57.57.57.57,0,0,1-.57-.57.56.56,0,0,1,.57-.57A.57.57,0,0,1,149.2,130.26Z"/><path class="cls-1" d="M149.2,143.55a.58.58,0,0,1-.57.57.57.57,0,0,1,0-1.14A.58.58,0,0,1,149.2,143.55Z"/><path class="cls-1" d="M149.2,156.65a.57.57,0,0,1-.57.57.56.56,0,0,1-.57-.57.57.57,0,0,1,.57-.57A.58.58,0,0,1,149.2,156.65Z"/><path class="cls-1" d="M149.2,169.41a.58.58,0,0,1-.57.57.57.57,0,0,1-.57-.57.56.56,0,0,1,.57-.57A.57.57,0,0,1,149.2,169.41Z"/><path class="cls-1" d="M149.2,182a.57.57,0,0,1-.57.57.56.56,0,0,1-.57-.57.57.57,0,0,1,.57-.57A.58.58,0,0,1,149.2,182Z"/><path class="cls-1" d="M149.2,194.82a.57.57,0,0,1-.57.57.56.56,0,0,1-.57-.57.57.57,0,0,1,.57-.57A.58.58,0,0,1,149.2,194.82Z"/><path class="cls-1" d="M149.2,214.39a.57.57,0,0,1-.57.57.56.56,0,0,1-.57-.57.57.57,0,0,1,.57-.57A.58.58,0,0,1,149.2,214.39Z"/><path class="cls-3" d="M24.12,34.09a2.45,2.45,0,0,0-2.62-.46A1.9,1.9,0,0,0,22.18,32v-.07a2.24,2.24,0,1,0-4.47,0,2.28,2.28,0,0,0,0,.45,2,2,0,0,0,.69,1.25,2.45,2.45,0,0,0-2.62.46,2.34,2.34,0,0,0-.2,2.91,2.11,2.11,0,0,0,2,1.1,2.54,2.54,0,0,0,1.86-.81,4.6,4.6,0,0,1-1,2.58H21.5a4.4,4.4,0,0,1-1-2.57,2.53,2.53,0,0,0,1.85.8,2.08,2.08,0,0,0,2-1.1A2.34,2.34,0,0,0,24.12,34.09Z"/><path d="M16.72,25.7a3.87,3.87,0,0,1-1.57-1.28,3.34,3.34,0,0,1-.59-2,3,3,0,0,1,.8-2.21A3.93,3.93,0,0,1,17,19.2v-.08l-.21-.1a3.26,3.26,0,0,1-1.57-1.26,3.48,3.48,0,0,1-.55-1.94A2.94,2.94,0,0,1,15.34,14,4.08,4.08,0,0,1,17,12.71,4.75,4.75,0,0,1,19,12.25a4.86,4.86,0,0,1,2.25.48A3.35,3.35,0,0,1,22.63,14a3.07,3.07,0,0,1,.47,1.62,2.64,2.64,0,0,1-.67,1.81,4.55,4.55,0,0,1-1.56,1.18v.08l.44.17a3.1,3.1,0,0,1,2.29,2.93,4.44,4.44,0,0,1-.55,2.2,4.05,4.05,0,0,1-1.63,1.6,5.33,5.33,0,0,1-2.57.59A5.09,5.09,0,0,1,16.72,25.7Zm4.09-.62a2.71,2.71,0,0,0,1-1.08,2.79,2.79,0,0,0,.3-1.19,2.31,2.31,0,0,0-.48-1.61,3.62,3.62,0,0,0-1.38-.89l-2.62-1a2.62,2.62,0,0,0-1.25,1,4.11,4.11,0,0,0-.44,2.1,2.73,2.73,0,0,0,.94,2.29,3.48,3.48,0,0,0,2.2.74A3.11,3.11,0,0,0,20.81,25.08Zm.7-7.78a3.51,3.51,0,0,0,.35-1.59,2.76,2.76,0,0,0-.39-1.45,2.9,2.9,0,0,0-1-1A2.8,2.8,0,0,0,19,12.87a3.08,3.08,0,0,0-2,.68,2.23,2.23,0,0,0-.83,1.81,2,2,0,0,0,.4,1.3,3.06,3.06,0,0,0,1.25.83l2.5,1A2.86,2.86,0,0,0,21.51,17.3Z"/><path class="cls-3" d="M146.17,199.82a2.45,2.45,0,0,0,2.62.46,1.9,1.9,0,0,0-.68,1.63.22.22,0,0,0,0,.08,2.24,2.24,0,1,0,4.48,0,2.31,2.31,0,0,0-.05-.46,2,2,0,0,0-.68-1.25,2.45,2.45,0,0,0,2.62-.46,2.32,2.32,0,0,0,.19-2.91,2.06,2.06,0,0,0-2-1.09,2.5,2.5,0,0,0-1.86.81,4.61,4.61,0,0,1,1-2.59h-3.06a4.4,4.4,0,0,1,1,2.57,2.48,2.48,0,0,0-1.85-.79,2.06,2.06,0,0,0-2,1.09A2.34,2.34,0,0,0,146.17,199.82Z"/><path d="M153.56,208.22a3.81,3.81,0,0,1,1.57,1.28,3.28,3.28,0,0,1,.6,2,3,3,0,0,1-.8,2.21,3.91,3.91,0,0,1-1.69,1.05v.08l.21.1a3.33,3.33,0,0,1,1.58,1.26,3.47,3.47,0,0,1,.54,1.94,3,3,0,0,1-.62,1.83,4.15,4.15,0,0,1-1.61,1.28,5.15,5.15,0,0,1-4.3,0,3.31,3.31,0,0,1-1.39-1.24,3.06,3.06,0,0,1-.46-1.62,2.68,2.68,0,0,1,.66-1.81,4.49,4.49,0,0,1,1.57-1.18v-.08l-.45-.17a3.1,3.1,0,0,1-2.29-2.93,4.44,4.44,0,0,1,.55-2.2,4,4,0,0,1,1.63-1.59,5.23,5.23,0,0,1,2.58-.6A5,5,0,0,1,153.56,208.22Zm-4.08.62a2.64,2.64,0,0,0-1,1.08,2.67,2.67,0,0,0-.31,1.19,2.31,2.31,0,0,0,.48,1.61,3.67,3.67,0,0,0,1.39.89l2.62,1a2.6,2.6,0,0,0,1.24-1,4,4,0,0,0,.45-2.1,2.75,2.75,0,0,0-.94-2.29,3.51,3.51,0,0,0-2.21-.74A3.08,3.08,0,0,0,149.48,208.84Zm-.7,7.78a3.39,3.39,0,0,0-.35,1.59,2.76,2.76,0,0,0,.39,1.45,2.81,2.81,0,0,0,2.46,1.39,3.11,3.11,0,0,0,2-.68,2.22,2.22,0,0,0,.82-1.81,2,2,0,0,0-.39-1.3,3.17,3.17,0,0,0-1.26-.83l-2.5-1A2.77,2.77,0,0,0,148.78,216.62Z"/><path class="cls-3" d="M97.71,80c-3.57-3.91-9.07-1.59-9.07-1.59,1.54-1.64,2.56-2.94,2.37-5.64,0-.09,0-.18,0-.27a7.75,7.75,0,0,0-15.5,0,8.12,8.12,0,0,0,.16,1.57c.18,1.86,1.1,3,2.37,4.34,0,0-5.5-2.32-9.08,1.59a8.1,8.1,0,0,0-.66,10.07c1.13,1.52,2.81,4.08,6.79,3.78,3.52-.26,4-.86,6.45-2.79a15.92,15.92,0,0,1-3.5,8.94H88.64c-2-2-3.67-6.75-3.45-8.89,2.37,1.89,2.91,2.48,6.4,2.74,4,.3,5.66-2.26,6.78-3.78A8.09,8.09,0,0,0,97.71,80Z"/><path class="cls-3" d="M60.55,45c-3.58-3.91-9.08-1.59-9.08-1.59,1.54-1.64,2.57-3,2.37-5.64a2.44,2.44,0,0,0,0-.27,7.75,7.75,0,1,0-15.49,0,7.4,7.4,0,0,0,.16,1.57c.17,1.86,1.09,3,2.36,4.34,0,0-5.5-2.32-9.07,1.59a8.09,8.09,0,0,0-.67,10.06c1.13,1.53,2.82,4.08,6.79,3.79,3.52-.26,4-.86,6.46-2.79A16,16,0,0,1,40.88,65H51.47C49.53,63,47.8,58.29,48,56.15c2.36,1.89,2.9,2.48,6.39,2.74,4,.29,5.66-2.26,6.79-3.79A8.1,8.1,0,0,0,60.55,45Z"/><path class="cls-3" d="M60.55,115.07c-3.58-3.9-9.08-1.59-9.08-1.59,1.54-1.64,2.57-2.94,2.37-5.63a2.62,2.62,0,0,0,0-.28,7.75,7.75,0,1,0-15.49,0,7.5,7.5,0,0,0,.16,1.58c.17,1.86,1.09,3,2.36,4.33,0,0-5.5-2.31-9.07,1.59a8.11,8.11,0,0,0-.67,10.07c1.13,1.52,2.82,4.08,6.79,3.78,3.52-.26,4-.86,6.46-2.79a16,16,0,0,1-3.51,8.94H51.47c-1.94-2-3.67-6.74-3.44-8.89,2.36,1.89,2.9,2.49,6.39,2.74,4,.3,5.66-2.26,6.79-3.78A8.12,8.12,0,0,0,60.55,115.07Z"/><path class="cls-3" d="M60.55,189.19c-3.58,3.91-9.08,1.59-9.08,1.59,1.54,1.64,2.57,2.94,2.37,5.64a2.44,2.44,0,0,1,0,.27,7.75,7.75,0,1,1-15.49,0,7.4,7.4,0,0,1,.16-1.57c.17-1.86,1.09-3,2.36-4.34,0,0-5.5,2.32-9.07-1.59a8.11,8.11,0,0,1-.67-10.07c1.13-1.52,2.82-4.08,6.79-3.78,3.52.26,4,.86,6.46,2.79a16,16,0,0,0-3.51-8.94H51.47c-1.94,2.05-3.67,6.75-3.44,8.89,2.36-1.89,2.9-2.48,6.39-2.74,4-.3,5.66,2.26,6.79,3.78A8.12,8.12,0,0,1,60.55,189.19Z"/><path class="cls-3" d="M138.8,45c-3.58-3.91-9.08-1.59-9.08-1.59,1.54-1.64,2.57-3,2.37-5.64a2.44,2.44,0,0,0,0-.27,7.75,7.75,0,1,0-15.5,0,8.12,8.12,0,0,0,.16,1.57c.18,1.86,1.1,3,2.37,4.34,0,0-5.5-2.32-9.07,1.59a8.09,8.09,0,0,0-.67,10.06c1.13,1.53,2.82,4.08,6.79,3.79,3.52-.26,4-.86,6.46-2.79A16,16,0,0,1,119.13,65h10.59c-1.94-2.05-3.67-6.75-3.44-8.89,2.36,1.89,2.9,2.48,6.39,2.74,4,.29,5.66-2.26,6.79-3.79A8.1,8.1,0,0,0,138.8,45Z"/><path class="cls-3" d="M138.8,115.07c-3.58-3.9-9.08-1.59-9.08-1.59,1.54-1.64,2.57-2.94,2.37-5.63a2.62,2.62,0,0,0,0-.28,7.75,7.75,0,0,0-15.5,0,8.22,8.22,0,0,0,.16,1.58c.18,1.86,1.1,3,2.37,4.33,0,0-5.5-2.31-9.07,1.59a8.11,8.11,0,0,0-.67,10.07c1.13,1.52,2.82,4.08,6.79,3.78,3.52-.26,4-.86,6.46-2.79a16,16,0,0,1-3.51,8.94h10.59c-1.94-2-3.67-6.74-3.44-8.89,2.36,1.89,2.9,2.49,6.39,2.74,4,.3,5.66-2.26,6.79-3.78A8.12,8.12,0,0,0,138.8,115.07Z"/><path class="cls-3" d="M138.8,189.19c-3.58,3.91-9.08,1.59-9.08,1.59,1.54,1.64,2.57,2.94,2.37,5.64a2.44,2.44,0,0,1,0,.27,7.75,7.75,0,0,1-15.5,0,8.12,8.12,0,0,1,.16-1.57c.18-1.86,1.1-3,2.37-4.34,0,0-5.5,2.32-9.07-1.59a8.11,8.11,0,0,1-.67-10.07c1.13-1.52,2.82-4.08,6.79-3.78,3.52.26,4,.86,6.46,2.79a16,16,0,0,0-3.51-8.94h10.59c-1.94,2.05-3.67,6.75-3.44,8.89,2.36-1.89,2.9-2.48,6.39-2.74,4-.3,5.66,2.26,6.79,3.78A8.12,8.12,0,0,1,138.8,189.19Z"/><path class="cls-3" d="M97.71,152.2c-3.57,3.9-9.07,1.59-9.07,1.59,1.54,1.64,2.56,2.94,2.37,5.64,0,.09,0,.18,0,.27a7.75,7.75,0,0,1-15.5,0,8,8,0,0,1,.16-1.57c.18-1.87,1.1-3,2.37-4.34,0,0-5.5,2.31-9.08-1.59a8.1,8.1,0,0,1-.66-10.07c1.13-1.52,2.81-4.08,6.79-3.78,3.52.26,4,.86,6.45,2.79a15.92,15.92,0,0,0-3.5-8.94H88.64c-2,2.05-3.67,6.75-3.45,8.89,2.37-1.89,2.91-2.48,6.4-2.74,4-.3,5.66,2.26,6.78,3.78A8.09,8.09,0,0,1,97.71,152.2Z"/></g></g></svg>