<svg xmlns="http://www.w3.org/2000/svg" viewBox="0 0 166.48 233.07"><defs><style>.cls-1{fill:#fff;}.cls-2{fill:#65a7dd;}.cls-3{fill:#af0f07;}.cls-4{fill:#a43e32;}</style></defs><g id="Calque_2" data-name="Calque 2"><g id="Objects"><rect class="cls-1" x="0.12" y="0.11" width="166.25" height="232.84" rx="5.94"/><path class="cls-2" d="M160.43,233.07H6.05a6.06,6.06,0,0,1-6-6V6.05A6.06,6.06,0,0,1,6.05,0H160.43a6.06,6.06,0,0,1,6,6.05V227A6.06,6.06,0,0,1,160.43,233.07ZM6.05.23A5.83,5.83,0,0,0,.23,6.05V227a5.83,5.83,0,0,0,5.82,5.82H160.43a5.83,5.83,0,0,0,5.82-5.82V6.05A5.83,5.83,0,0,0,160.43.23Z"/><circle class="cls-1" cx="148.53" cy="18.48" r="0.57"/><circle class="cls-1" cx="121.42" cy="18.48" r="0.57"/><circle class="cls-1" cx="96.48" cy="18.48" r="0.57"/><path class="cls-1" d="M72,18.66a.58.58,0,0,1-.57.57.57.57,0,0,1-.57-.57.56.56,0,0,1,.57-.57A.57.57,0,0,1,72,18.66Z"/><circle class="cls-1" cx="148.53" cy="39.61" r="0.57"/><circle class="cls-1" cx="148.53" cy="58.9" r="0.57"/><circle class="cls-1" cx="148.53" cy="79.11" r="0.57"/><circle class="cls-1" cx="148.53" cy="91.89" r="0.57"/><circle class="cls-1" cx="148.53" cy="104.72" r="0.57"/><circle class="cls-1" cx="18.32" cy="19.04" r="0.57"/><circle class="cls-1" cx="45.74" cy="18.66" r="0.57"/><circle class="cls-1" cx="18.32" cy="39.16" r="0.57"/><circle class="cls-1" cx="18.32" cy="59.03" r="0.57"/><circle class="cls-1" cx="18.32" cy="78.97" r="0.57"/><circle class="cls-1" cx="18.32" cy="91.89" r="0.57"/><circle class="cls-1" cx="18.32" cy="105.28" r="0.57"/><circle class="cls-1" cx="18.32" cy="118.21" r="0.57"/><circle class="cls-1" cx="18.32" cy="131.13" r="0.57"/><circle class="cls-1" cx="18.32" cy="144.53" r="0.57"/><circle class="cls-1" cx="18.32" cy="157.95" r="0.57"/><circle class="cls-1" cx="18.32" cy="169.95" r="0.57"/><circle class="cls-1" cx="18.32" cy="183.35" r="0.57"/><circle class="cls-1" cx="18.32" cy="196.39" r="0.57"/><circle class="cls-1" cx="18.55" cy="215.57" r="0.57"/><path class="cls-1" d="M39.63,216.14a.57.57,0,1,1-.56-.57A.56.56,0,0,1,39.63,216.14Z"/><circle class="cls-1" cx="65.5" cy="216.14" r="0.57"/><circle class="cls-1" cx="91.89" cy="216.14" r="0.57"/><path class="cls-1" d="M118.16,216.14a.57.57,0,0,1-.57.57.58.58,0,0,1-.57-.57.57.57,0,0,1,.57-.57A.56.56,0,0,1,118.16,216.14Z"/><circle class="cls-1" cx="148.53" cy="117.9" r="0.57"/><circle class="cls-1" cx="148.53" cy="130.22" r="0.57"/><circle class="cls-1" cx="148.53" cy="143.51" r="0.57"/><circle class="cls-1" cx="148.53" cy="156.61" r="0.57"/><circle class="cls-1" cx="148.53" cy="169.36" r="0.57"/><circle class="cls-1" cx="148.53" cy="181.94" r="0.57"/><circle class="cls-1" cx="148.53" cy="194.77" r="0.57"/><path class="cls-1" d="M149.1,214.34a.57.57,0,1,1-.57-.57A.56.56,0,0,1,149.1,214.34Z"/><polygon class="cls-3" points="148.29 193.01 143.57 198.22 147.77 203.95 152.62 198.69 148.29 193.01"/><polygon class="cls-3" points="15.39 30.07 10.66 35.28 14.87 41.01 19.71 35.75 15.39 30.07"/><path class="cls-4" d="M12.69,24.93a2.09,2.09,0,0,1-.41-.78,2.46,2.46,0,0,1-.13-.75,1.41,1.41,0,0,1,.49-1.11,1.2,1.2,0,0,1,.79-.29.82.82,0,0,1,.7.35.86.86,0,0,1,.13.25,2.41,2.41,0,0,1,0,.31.86.86,0,0,1-.25.58,1.91,1.91,0,0,1-.37.33.8.8,0,0,0-.24.25.66.66,0,0,0-.07.3.74.74,0,0,0,.4.61,2.29,2.29,0,0,0,1.21.26,2.34,2.34,0,0,0,1.33-.41,3,3,0,0,0,1.06-1.36,6.69,6.69,0,0,0,.5-1.81A11.53,11.53,0,0,0,18,19.85V19l-.14,0a2.91,2.91,0,0,1-1.08,1.21,2.6,2.6,0,0,1-1.4.47A3.62,3.62,0,0,1,13.22,20a3.46,3.46,0,0,1-1.17-1.46,4.85,4.85,0,0,1-.4-2,5.22,5.22,0,0,1,.46-2.11,4.45,4.45,0,0,1,1.37-1.75A3.34,3.34,0,0,1,15.6,12a3.42,3.42,0,0,1,2.22.78A4.87,4.87,0,0,1,19.31,15a10,10,0,0,1,.52,3.4,11.85,11.85,0,0,1-.41,3.13A7,7,0,0,1,18.24,24a4.13,4.13,0,0,1-3.32,1.82A2.9,2.9,0,0,1,12.69,24.93Zm3.9-5.49a3.11,3.11,0,0,0,.87-1.27,5.27,5.27,0,0,0,.32-1.89,6,6,0,0,0-.51-2.65,1.73,1.73,0,0,0-1.67-1,1.78,1.78,0,0,0-1.71,1.13,5.83,5.83,0,0,0-.54,2.56,6.29,6.29,0,0,0,.47,2.58,1.6,1.6,0,0,0,1.55,1A1.86,1.86,0,0,0,16.59,19.44Z"/><path class="cls-3" d="M151,208.38a2.09,2.09,0,0,1,.41.78,2.46,2.46,0,0,1,.13.75A1.42,1.42,0,0,1,151,211a1.25,1.25,0,0,1-.8.29.82.82,0,0,1-.7-.35.81.81,0,0,1-.12-.25,1.3,1.3,0,0,1,0-.31.86.86,0,0,1,.25-.58,2.25,2.25,0,0,1,.37-.33.8.8,0,0,0,.24-.25.56.56,0,0,0,.07-.3.74.74,0,0,0-.4-.61,2.27,2.27,0,0,0-1.21-.26,2.42,2.42,0,0,0-1.33.41,3,3,0,0,0-1.06,1.36,6.69,6.69,0,0,0-.5,1.81,11.64,11.64,0,0,0-.18,1.81v.88l.14.06a2.88,2.88,0,0,1,1.08-1.22,2.6,2.6,0,0,1,1.4-.47,3.62,3.62,0,0,1,2.19.64,3.46,3.46,0,0,1,1.17,1.46,4.86,4.86,0,0,1,.41,2,5.24,5.24,0,0,1-.47,2.11,4.45,4.45,0,0,1-1.37,1.75,3.34,3.34,0,0,1-2.12.7,3.46,3.46,0,0,1-2.22-.77,5,5,0,0,1-1.49-2.23,9.92,9.92,0,0,1-.52-3.4,12.15,12.15,0,0,1,.41-3.12,7.09,7.09,0,0,1,1.18-2.55,4.13,4.13,0,0,1,3.32-1.82A2.88,2.88,0,0,1,151,208.38Zm-3.9,5.49a3,3,0,0,0-.86,1.27,5.06,5.06,0,0,0-.32,1.89,6,6,0,0,0,.5,2.65,1.73,1.73,0,0,0,1.67,1,1.77,1.77,0,0,0,1.71-1.12,5.88,5.88,0,0,0,.54-2.57,6.29,6.29,0,0,0-.47-2.58,1.59,1.59,0,0,0-1.55-1A1.86,1.86,0,0,0,147.08,213.87Z"/><polygon class="cls-3" points="48.63 24.91 35.34 41.06 48.63 57.47 62.27 41.19 48.63 24.91"/><polygon class="cls-3" points="83.39 101.84 70.1 117.99 83.39 134.4 97.03 118.12 83.39 101.84"/><polygon class="cls-3" points="48.63 74.77 35.34 90.92 48.63 107.32 62.27 91.05 48.63 74.77"/><polygon class="cls-3" points="48.63 124.63 35.34 140.77 48.63 157.18 62.27 140.9 48.63 124.63"/><polygon class="cls-3" points="48.63 174.48 35.34 190.63 48.63 207.04 62.27 190.76 48.63 174.48"/><polygon class="cls-3" points="117.91 24.91 104.61 41.06 117.91 57.47 131.54 41.19 117.91 24.91"/><polygon class="cls-3" points="117.91 74.77 104.61 90.92 117.91 107.32 131.54 91.05 117.91 74.77"/><polygon class="cls-3" points="117.91 124.63 104.61 140.77 117.91 157.18 131.54 140.9 117.91 124.63"/><polygon class="cls-3" points="117.91 174.48 104.61 190.63 117.91 207.04 131.54 190.76 117.91 174.48"/></g></g></svg>