<svg xmlns="http://www.w3.org/2000/svg" viewBox="0 0 166.48 233.07"><defs><style>.cls-1{fill:#fff;}.cls-2{fill:#65a7dd;}.cls-3{fill:#a43e32;}.cls-4{fill:#af0f07;}</style></defs><g id="Calque_2" data-name="Calque 2"><g id="Objects"><rect class="cls-1" x="0.12" y="0.12" width="166.25" height="232.84" rx="5.94"/><path class="cls-2" d="M160.43,233.07H6.05a6.06,6.06,0,0,1-6-6V6.05A6.05,6.05,0,0,1,6.05,0H160.43a6.05,6.05,0,0,1,6,6.05V227A6.06,6.06,0,0,1,160.43,233.07ZM6.05.23A5.83,5.83,0,0,0,.23,6.05V227a5.83,5.83,0,0,0,5.82,5.82H160.43a5.83,5.83,0,0,0,5.82-5.82V6.05A5.83,5.83,0,0,0,160.43.23Z"/><path class="cls-3" d="M14,23.45a2,2,0,0,1-.42-.78,2.46,2.46,0,0,1-.13-.75,1.39,1.39,0,0,1,.49-1.11,1.2,1.2,0,0,1,.79-.29.82.82,0,0,1,.7.35.67.67,0,0,1,.13.25,1.3,1.3,0,0,1,0,.31.87.87,0,0,1-.26.58,1.91,1.91,0,0,1-.37.33.8.8,0,0,0-.24.25.66.66,0,0,0-.07.3.76.76,0,0,0,.4.61,2.29,2.29,0,0,0,1.21.26,2.42,2.42,0,0,0,1.33-.41A3,3,0,0,0,18.64,22a7,7,0,0,0,.51-1.81,12.66,12.66,0,0,0,.17-1.81v-.88l-.14-.06a2.92,2.92,0,0,1-1.07,1.22,2.66,2.66,0,0,1-1.41.47,3.62,3.62,0,0,1-2.19-.64A3.44,3.44,0,0,1,13.35,17a4.7,4.7,0,0,1-.41-2,5.22,5.22,0,0,1,.46-2.11,4.45,4.45,0,0,1,1.37-1.75,3.34,3.34,0,0,1,2.12-.7,3.45,3.45,0,0,1,2.22.77,4.88,4.88,0,0,1,1.49,2.23,10,10,0,0,1,.52,3.4,12.27,12.27,0,0,1-.4,3.13,7.21,7.21,0,0,1-1.19,2.54,4.13,4.13,0,0,1-3.31,1.82A2.87,2.87,0,0,1,14,23.45ZM17.88,18a3,3,0,0,0,.87-1.27,5.27,5.27,0,0,0,.32-1.89,6,6,0,0,0-.51-2.65,1.72,1.72,0,0,0-1.67-1,1.79,1.79,0,0,0-1.71,1.12,5.91,5.91,0,0,0-.54,2.57,6.29,6.29,0,0,0,.47,2.58,1.6,1.6,0,0,0,1.55,1A1.86,1.86,0,0,0,17.88,18Z"/><path class="cls-4" d="M152.27,206.9a2.15,2.15,0,0,1,.42.77,2.89,2.89,0,0,1,.12.76,1.43,1.43,0,0,1-.48,1.11,1.23,1.23,0,0,1-.8.29.81.81,0,0,1-.69-.35.75.75,0,0,1-.13-.25,1.39,1.39,0,0,1,0-.32.9.9,0,0,1,.25-.58,2.25,2.25,0,0,1,.37-.33.61.61,0,0,0,.24-.24.56.56,0,0,0,.07-.3.73.73,0,0,0-.4-.61,2.18,2.18,0,0,0-1.21-.26,2.43,2.43,0,0,0-1.33.4,3.07,3.07,0,0,0-1,1.36,7.25,7.25,0,0,0-.51,1.82,11.35,11.35,0,0,0-.17,1.81v.87l.13.06a2.91,2.91,0,0,1,1.08-1.21,2.54,2.54,0,0,1,1.41-.48,3.73,3.73,0,0,1,2.19.64,3.55,3.55,0,0,1,1.16,1.47,4.83,4.83,0,0,1,.41,2,5.16,5.16,0,0,1-.47,2.1,4.45,4.45,0,0,1-1.36,1.76,3.37,3.37,0,0,1-2.13.7,3.42,3.42,0,0,1-2.22-.78,4.91,4.91,0,0,1-1.48-2.22,10,10,0,0,1-.53-3.4,12.22,12.22,0,0,1,.41-3.13,7.21,7.21,0,0,1,1.18-2.54A4.12,4.12,0,0,1,150,206,2.88,2.88,0,0,1,152.27,206.9Zm-3.9,5.49a3,3,0,0,0-.86,1.27,5.27,5.27,0,0,0-.32,1.89,6.17,6.17,0,0,0,.5,2.65,1.74,1.74,0,0,0,1.67,1,1.8,1.8,0,0,0,1.72-1.13,6,6,0,0,0,.53-2.56,6.3,6.3,0,0,0-.46-2.58,1.61,1.61,0,0,0-1.56-1A1.86,1.86,0,0,0,148.37,212.39Z"/><path class="cls-4" d="M151.82,201.75a2.26,2.26,0,0,1-2.44-2.11,2.26,2.26,0,0,1-2.44,2.11c-2.5-.06-2.83-2.86-2-4.28a13.18,13.18,0,0,1,2.2-2.77,20.67,20.67,0,0,0,2.17-2.4s0-.07,0-.05,0,.05,0,.05a20.67,20.67,0,0,0,2.17,2.4,13.18,13.18,0,0,1,2.2,2.77C154.65,198.89,154.32,201.69,151.82,201.75Z"/><path class="cls-4" d="M19.54,29.31a2.26,2.26,0,0,0-2.44,2.1,2.25,2.25,0,0,0-2.43-2.1c-2.5.06-2.84,2.86-2,4.28a13.06,13.06,0,0,0,2.2,2.77,21.32,21.32,0,0,1,2.16,2.39s0,.07,0,0,0,0,0,0a22.62,22.62,0,0,1,2.17-2.39,13.06,13.06,0,0,0,2.2-2.77C22.37,32.17,22,29.37,19.54,29.31Z"/><path class="cls-4" d="M51.78,27.18c-5.48-.13-6.74,4.05-7,6.06-.29-2-1.56-6.19-7-6.06-7.2.17-8.15,8.25-5.64,12.33a37.85,37.85,0,0,0,6.34,8c2.37,2.45,5.2,5.21,6.25,6.9,0,0,.05.2.09.15s.08-.15.08-.15c1.05-1.69,3.88-4.45,6.25-6.9a37.85,37.85,0,0,0,6.34-8C59.94,35.43,59,27.35,51.78,27.18Z"/><path class="cls-4" d="M86.83,103c-5.48-.13-6.74,4.06-7,6.07-.29-2-1.55-6.2-7-6.07-7.2.18-8.16,8.25-5.64,12.33a37.33,37.33,0,0,0,6.33,8c2.37,2.46,5.21,5.22,6.25,6.91,0,0,.06.2.09.14s.09-.14.09-.14c1-1.69,3.88-4.45,6.25-6.91a37.33,37.33,0,0,0,6.33-8C95,111.2,94,103.13,86.83,103Z"/><path class="cls-4" d="M51.78,77.7c-5.48-.14-6.74,4-7,6.06-.29-2-1.56-6.2-7-6.06-7.2.17-8.15,8.24-5.64,12.33a37.51,37.51,0,0,0,6.34,8c2.37,2.46,5.2,5.22,6.25,6.91,0,0,.05.2.09.14s.08-.14.08-.14c1.05-1.69,3.88-4.45,6.25-6.91a37.51,37.51,0,0,0,6.34-8C59.94,85.94,59,77.87,51.78,77.7Z"/><path class="cls-4" d="M51.78,206.11c-5.48.13-6.74-4.06-7-6.07-.29,2-1.56,6.2-7,6.07-7.2-.18-8.15-8.25-5.64-12.33a37.34,37.34,0,0,1,6.34-8c2.37-2.46,5.2-5.22,6.25-6.91,0,0,.05-.2.09-.14s.08.14.08.14c1.05,1.69,3.88,4.45,6.25,6.91a37.34,37.34,0,0,1,6.34,8C59.94,197.86,59,205.93,51.78,206.11Z"/><path class="cls-4" d="M51.78,155.59c-5.48.13-6.74-4.06-7-6.07-.29,2-1.56,6.2-7,6.07-7.2-.18-8.15-8.25-5.64-12.33a37.6,37.6,0,0,1,6.34-8c2.37-2.45,5.2-5.22,6.25-6.91,0,0,.05-.19.09-.14s.08.14.08.14c1.05,1.69,3.88,4.46,6.25,6.91a37.6,37.6,0,0,1,6.34,8C59.94,147.34,59,155.41,51.78,155.59Z"/><path class="cls-4" d="M125.67,27.18c-5.48-.13-6.74,4.05-7,6.06-.29-2-1.56-6.19-7-6.06-7.2.17-8.15,8.25-5.64,12.33a37.85,37.85,0,0,0,6.34,8c2.37,2.45,5.2,5.21,6.25,6.9,0,0,.06.2.09.15s.08-.15.08-.15c1-1.69,3.88-4.45,6.25-6.9a37.85,37.85,0,0,0,6.34-8C133.83,35.43,132.87,27.35,125.67,27.18Z"/><path class="cls-4" d="M125.67,77.7c-5.48-.14-6.74,4-7,6.06-.29-2-1.56-6.2-7-6.06-7.2.17-8.15,8.24-5.64,12.33a37.51,37.51,0,0,0,6.34,8c2.37,2.46,5.2,5.22,6.25,6.91,0,0,.06.2.09.14s.08-.14.08-.14c1-1.69,3.88-4.45,6.25-6.91a37.51,37.51,0,0,0,6.34-8C133.83,85.94,132.87,77.87,125.67,77.7Z"/><path class="cls-4" d="M125.67,206.11c-5.48.13-6.74-4.06-7-6.07-.29,2-1.56,6.2-7,6.07-7.2-.18-8.15-8.25-5.64-12.33a37.34,37.34,0,0,1,6.34-8c2.37-2.46,5.2-5.22,6.25-6.91,0,0,.06-.2.09-.14s.08.14.08.14c1,1.69,3.88,4.45,6.25,6.91a37.34,37.34,0,0,1,6.34,8C133.83,197.86,132.87,205.93,125.67,206.11Z"/><path class="cls-4" d="M125.67,155.59c-5.48.13-6.74-4.06-7-6.07-.29,2-1.56,6.2-7,6.07-7.2-.18-8.15-8.25-5.64-12.33a37.6,37.6,0,0,1,6.34-8c2.37-2.45,5.2-5.22,6.25-6.91,0,0,.06-.19.09-.14s.08.14.08.14c1,1.69,3.88,4.46,6.25,6.91a37.6,37.6,0,0,1,6.34,8C133.83,147.34,132.87,155.41,125.67,155.59Z"/><path class="cls-1" d="M148.75,18.48a.57.57,0,1,1-.57-.57A.57.57,0,0,1,148.75,18.48Z"/><circle class="cls-1" cx="121.07" cy="18.48" r="0.57"/><path class="cls-1" d="M96.7,18.48a.57.57,0,1,1-.57-.57A.57.57,0,0,1,96.7,18.48Z"/><circle class="cls-1" cx="71.09" cy="18.66" r="0.57"/><path class="cls-1" d="M148.75,39.61a.57.57,0,0,1-1.14,0,.57.57,0,1,1,1.14,0Z"/><path class="cls-1" d="M148.75,58.9a.57.57,0,0,1-1.14,0,.57.57,0,1,1,1.14,0Z"/><path class="cls-1" d="M148.75,79.11a.57.57,0,1,1-1.14,0,.57.57,0,0,1,1.14,0Z"/><path class="cls-1" d="M148.75,91.89a.57.57,0,1,1-.57-.57A.58.58,0,0,1,148.75,91.89Z"/><path class="cls-1" d="M148.75,104.72a.57.57,0,0,1-1.14,0,.57.57,0,0,1,1.14,0Z"/><circle class="cls-1" cx="17.97" cy="19.04" r="0.57"/><circle class="cls-1" cx="45.39" cy="18.66" r="0.57"/><path class="cls-1" d="M18.54,39.16a.57.57,0,0,1-.57.57.56.56,0,0,1-.57-.57.57.57,0,0,1,.57-.57A.58.58,0,0,1,18.54,39.16Z"/><circle class="cls-1" cx="17.97" cy="59.03" r="0.57"/><circle class="cls-1" cx="17.97" cy="78.97" r="0.57"/><circle class="cls-1" cx="17.97" cy="91.89" r="0.57"/><circle class="cls-1" cx="17.97" cy="105.29" r="0.57"/><circle class="cls-1" cx="17.97" cy="118.21" r="0.57"/><circle class="cls-1" cx="17.97" cy="131.13" r="0.57"/><circle class="cls-1" cx="17.97" cy="144.53" r="0.57"/><circle class="cls-1" cx="17.97" cy="157.95" r="0.57"/><circle class="cls-1" cx="17.97" cy="169.95" r="0.57"/><circle class="cls-1" cx="17.97" cy="183.35" r="0.57"/><circle class="cls-1" cx="17.97" cy="196.39" r="0.57"/><circle class="cls-1" cx="18.2" cy="215.57" r="0.57"/><circle class="cls-1" cx="38.71" cy="216.14" r="0.57"/><circle class="cls-1" cx="65.14" cy="216.14" r="0.57"/><circle class="cls-1" cx="91.53" cy="216.14" r="0.57"/><circle class="cls-1" cx="117.24" cy="216.14" r="0.57"/><path class="cls-1" d="M148.75,117.9a.57.57,0,1,1-1.14,0,.57.57,0,1,1,1.14,0Z"/><path class="cls-1" d="M148.75,130.22a.57.57,0,0,1-1.14,0,.57.57,0,1,1,1.14,0Z"/><path class="cls-1" d="M148.75,143.51a.57.57,0,1,1-1.14,0,.57.57,0,0,1,1.14,0Z"/><path class="cls-1" d="M148.75,156.61a.57.57,0,0,1-1.14,0,.57.57,0,0,1,1.14,0Z"/><path class="cls-1" d="M148.75,169.36a.57.57,0,1,1-.57-.56A.57.57,0,0,1,148.75,169.36Z"/><path class="cls-1" d="M148.75,181.94a.57.57,0,1,1-.57-.57A.57.57,0,0,1,148.75,181.94Z"/><path class="cls-1" d="M148.75,194.77a.57.57,0,1,1-1.14,0,.57.57,0,0,1,1.14,0Z"/><path class="cls-1" d="M148.75,214.34a.57.57,0,1,1-.57-.57A.57.57,0,0,1,148.75,214.34Z"/></g></g></svg>