<svg xmlns="http://www.w3.org/2000/svg" viewBox="0 0 166.55 233.13"><defs><style>.cls-1{fill:#fff;}.cls-2{fill:#65a7dd;}.cls-3{fill:#151515;}</style></defs><g id="Calque_2" data-name="Calque 2"><g id="Objects"><rect class="cls-1" x="0.12" y="0.12" width="166.32" height="232.9" rx="5.94"/><path class="cls-2" d="M160.5,233.13H6.05a6.06,6.06,0,0,1-6-6V6.06A6.07,6.07,0,0,1,6.05,0H160.5a6.06,6.06,0,0,1,6.05,6.06v221A6.06,6.06,0,0,1,160.5,233.13ZM6.05.23A5.83,5.83,0,0,0,.23,6.06v221a5.83,5.83,0,0,0,5.82,5.82H160.5a5.83,5.83,0,0,0,5.82-5.82V6.06A5.83,5.83,0,0,0,160.5.23Z"/><path d="M12.82,26.18a2.36,2.36,0,0,1-.42-.78,2.83,2.83,0,0,1-.12-.76,1.4,1.4,0,0,1,.48-1.1,1.2,1.2,0,0,1,.8-.29.8.8,0,0,1,.7.35.81.81,0,0,1,.12.25,1.3,1.3,0,0,1,0,.31.88.88,0,0,1-.25.58,2.25,2.25,0,0,1-.37.33.78.78,0,0,0-.24.24.6.6,0,0,0-.07.3.74.74,0,0,0,.4.62,2.27,2.27,0,0,0,1.21.26,2.42,2.42,0,0,0,1.33-.41,3,3,0,0,0,1.06-1.36,6.79,6.79,0,0,0,.5-1.81,11.64,11.64,0,0,0,.18-1.82v-.87L18,20.16a2.85,2.85,0,0,1-1.08,1.21,2.54,2.54,0,0,1-1.4.48,3.62,3.62,0,0,1-2.19-.64,3.43,3.43,0,0,1-1.17-1.47,4.83,4.83,0,0,1-.41-2,5.16,5.16,0,0,1,.47-2.1,4.48,4.48,0,0,1,1.37-1.76A3.55,3.55,0,0,1,18,14a5,5,0,0,1,1.49,2.22A10,10,0,0,1,20,19.62a11.72,11.72,0,0,1-.41,3.12,7,7,0,0,1-1.18,2.54,4.12,4.12,0,0,1-3.32,1.83A2.88,2.88,0,0,1,12.82,26.18Zm3.9-5.5a3,3,0,0,0,.87-1.27,5.27,5.27,0,0,0,.32-1.89,6,6,0,0,0-.51-2.65,1.73,1.73,0,0,0-1.67-1A1.8,1.8,0,0,0,14,15a6,6,0,0,0-.53,2.56A6.23,6.23,0,0,0,14,20.1a1.58,1.58,0,0,0,1.55,1A1.86,1.86,0,0,0,16.72,20.68Z"/><path d="M151.16,209.67a2.12,2.12,0,0,1,.42.78,3,3,0,0,1,.13.76,1.4,1.4,0,0,1-.49,1.1,1.18,1.18,0,0,1-.79.3.82.82,0,0,1-.7-.35.7.7,0,0,1-.13-.26,1.24,1.24,0,0,1,0-.31.93.93,0,0,1,.25-.58,2.25,2.25,0,0,1,.37-.33.68.68,0,0,0,.24-.24.6.6,0,0,0,.07-.3.72.72,0,0,0-.39-.61,2.21,2.21,0,0,0-1.22-.27,2.44,2.44,0,0,0-1.33.41,3,3,0,0,0-1.05,1.36A7.13,7.13,0,0,0,146,213a11.35,11.35,0,0,0-.17,1.81v.87l.13.06a3,3,0,0,1,1.08-1.21,2.54,2.54,0,0,1,1.41-.48,3.73,3.73,0,0,1,2.19.64,3.55,3.55,0,0,1,1.16,1.47,4.83,4.83,0,0,1,.41,2,5,5,0,0,1-.47,2.1,4.45,4.45,0,0,1-1.36,1.76,3.35,3.35,0,0,1-2.13.7,3.42,3.42,0,0,1-2.22-.78,4.91,4.91,0,0,1-1.48-2.22,10,10,0,0,1-.53-3.41,12.15,12.15,0,0,1,.41-3.12,7.21,7.21,0,0,1,1.18-2.54,4.13,4.13,0,0,1,3.32-1.83A2.88,2.88,0,0,1,151.16,209.67Zm-3.9,5.5a3,3,0,0,0-.86,1.27,5.27,5.27,0,0,0-.32,1.89,6.17,6.17,0,0,0,.5,2.65,1.74,1.74,0,0,0,1.67,1,1.8,1.8,0,0,0,1.72-1.13,5.83,5.83,0,0,0,.53-2.56,6.3,6.3,0,0,0-.46-2.58,1.59,1.59,0,0,0-1.56-1A1.86,1.86,0,0,0,147.26,215.17Z"/><path class="cls-3" d="M90.51,114c-3.64-4-7.86-7.82-9.63-9.85-1.32-1.53-2.26-2.68-2.65-3.17v-.24l-.09.12-.1-.12V101c-.39.49-1.33,1.64-2.65,3.17-1.77,2-6,5.89-9.62,9.85a12,12,0,0,0-3.24,11.21c.68,3.29,4.12,6.38,9.52,5.7a6,6,0,0,0,3.84-2A12.58,12.58,0,0,1,72.77,136H83.24a13.42,13.42,0,0,1-2.83-7.05,6,6,0,0,0,3.81,2c5.4.68,8.84-2.41,9.53-5.7A12.08,12.08,0,0,0,90.51,114Z"/><path class="cls-3" d="M59,42.57c-3.63-4-7.85-7.83-9.62-9.86C48,31.19,47.09,30,46.7,29.55V29.3l-.1.13-.1-.13v.25c-.38.49-1.32,1.64-2.65,3.16-1.76,2-6,5.9-9.62,9.86A12.05,12.05,0,0,0,31,53.78c.69,3.29,4.13,6.38,9.52,5.7a6,6,0,0,0,3.84-2,12.49,12.49,0,0,1-3.12,7.07H51.71a13.38,13.38,0,0,1-2.84-7,6,6,0,0,0,3.82,2c5.4.68,8.83-2.41,9.52-5.7A12.05,12.05,0,0,0,59,42.57Z"/><path class="cls-3" d="M59,93.14c-3.63-4-7.85-7.83-9.62-9.86C48,81.76,47.09,80.6,46.7,80.12v-.25l-.1.12-.1-.12v.25c-.38.48-1.32,1.64-2.65,3.16-1.76,2-6,5.89-9.62,9.86A12.05,12.05,0,0,0,31,104.35c.69,3.28,4.13,6.37,9.52,5.7a6.06,6.06,0,0,0,3.84-2,12.49,12.49,0,0,1-3.12,7.07H51.71a13.41,13.41,0,0,1-2.84-7,6,6,0,0,0,3.82,2c5.4.67,8.83-2.42,9.52-5.7A12.05,12.05,0,0,0,59,93.14Z"/><path class="cls-3" d="M59,202.94c-3.63,4-7.85,7.83-9.62,9.86-1.33,1.52-2.26,2.68-2.65,3.16v.25l-.1-.13-.1.13V216c-.38-.48-1.32-1.64-2.65-3.16-1.76-2-6-5.9-9.62-9.86A12.05,12.05,0,0,1,31,191.73c.69-3.28,4.13-6.37,9.52-5.7a6,6,0,0,1,3.84,2A12.49,12.49,0,0,0,41.23,181H51.71a13.41,13.41,0,0,0-2.84,7,6,6,0,0,1,3.82-2c5.4-.67,8.83,2.42,9.52,5.7A12.05,12.05,0,0,1,59,202.94Z"/><path class="cls-3" d="M127.56,42.57c-3.63-4-7.85-7.83-9.62-9.86-1.32-1.52-2.26-2.67-2.65-3.16V29.3a1,1,0,0,1-.1.13l-.09-.13v.25c-.39.49-1.33,1.64-2.66,3.16-1.76,2-6,5.9-9.62,9.86a12.08,12.08,0,0,0-3.24,11.21c.69,3.29,4.13,6.38,9.53,5.7a6,6,0,0,0,3.83-2,12.52,12.52,0,0,1-3.11,7.07H120.3a13.36,13.36,0,0,1-2.83-7,6,6,0,0,0,3.81,2c5.4.68,8.84-2.41,9.52-5.7A12,12,0,0,0,127.56,42.57Z"/><path class="cls-3" d="M127.56,93.14c-3.63-4-7.85-7.83-9.62-9.86-1.32-1.52-2.26-2.68-2.65-3.16v-.25l-.1.12-.09-.12v.25c-.39.48-1.33,1.64-2.66,3.16-1.76,2-6,5.89-9.62,9.86a12.08,12.08,0,0,0-3.24,11.21c.69,3.28,4.13,6.37,9.53,5.7a6.06,6.06,0,0,0,3.83-2,12.52,12.52,0,0,1-3.11,7.07H120.3a13.39,13.39,0,0,1-2.83-7,6,6,0,0,0,3.81,2c5.4.67,8.84-2.42,9.52-5.7A12,12,0,0,0,127.56,93.14Z"/><path class="cls-3" d="M127.56,202.94c-3.63,4-7.85,7.83-9.62,9.86-1.32,1.52-2.26,2.68-2.65,3.16v.25a1,1,0,0,0-.1-.13l-.09.13V216c-.39-.48-1.33-1.64-2.66-3.16-1.76-2-6-5.9-9.62-9.86a12.08,12.08,0,0,1-3.24-11.21c.69-3.28,4.13-6.37,9.53-5.7a6,6,0,0,1,3.83,2,12.52,12.52,0,0,0-3.11-7.07H120.3a13.39,13.39,0,0,0-2.83,7,6,6,0,0,1,3.81-2c5.4-.67,8.84,2.42,9.52,5.7A12,12,0,0,1,127.56,202.94Z"/><path class="cls-3" d="M59,152.38c-3.63,4-7.85,7.83-9.62,9.85-1.33,1.53-2.26,2.68-2.65,3.17v.24l-.1-.12-.1.12v-.24c-.38-.49-1.32-1.64-2.65-3.17-1.76-2-6-5.89-9.62-9.85A12.06,12.06,0,0,1,31,141.17c.69-3.29,4.13-6.38,9.52-5.7a6,6,0,0,1,3.84,2,12.55,12.55,0,0,0-3.12-7.08H51.71a13.44,13.44,0,0,0-2.84,7,6,6,0,0,1,3.82-2c5.4-.68,8.83,2.41,9.52,5.7A12.06,12.06,0,0,1,59,152.38Z"/><path class="cls-3" d="M127.56,152.38c-3.63,4-7.85,7.83-9.62,9.85-1.32,1.53-2.26,2.68-2.65,3.17v.24l-.1-.12-.09.12v-.24c-.39-.49-1.33-1.64-2.66-3.17-1.76-2-6-5.89-9.62-9.85a12.08,12.08,0,0,1-3.24-11.21c.69-3.29,4.13-6.38,9.53-5.7a6,6,0,0,1,3.83,2,12.58,12.58,0,0,0-3.11-7.08H120.3a13.42,13.42,0,0,0-2.83,7,6,6,0,0,1,3.81-2c5.4-.68,8.84,2.41,9.52,5.7A12,12,0,0,1,127.56,152.38Z"/><path class="cls-3" d="M20.22,34.73c-1.08-1.17-2.32-2.31-2.84-2.91l-.79-.93v-.08l0,0,0,0v.08c-.12.14-.39.48-.79.93-.52.6-1.76,1.74-2.83,2.91A3.55,3.55,0,0,0,12,38a2.38,2.38,0,0,0,2.81,1.68,1.83,1.83,0,0,0,1.13-.6A3.69,3.69,0,0,1,15,41.2h3.09a4,4,0,0,1-.83-2.08,1.74,1.74,0,0,0,1.12.6A2.38,2.38,0,0,0,21.17,38,3.57,3.57,0,0,0,20.22,34.73Z"/><path class="cls-3" d="M150.5,200.87c-1.07,1.17-2.32,2.31-2.84,2.91-.39.45-.67.79-.78.93v.08l0,0,0,0v-.08c-.11-.14-.39-.48-.78-.93-.52-.6-1.77-1.74-2.84-2.91a3.58,3.58,0,0,1-1-3.31,2.39,2.39,0,0,1,2.81-1.68,1.83,1.83,0,0,1,1.14.6,3.69,3.69,0,0,0-.92-2.08h3.09a3.89,3.89,0,0,0-.84,2.08,1.76,1.76,0,0,1,1.13-.6,2.39,2.39,0,0,1,2.81,1.68A3.58,3.58,0,0,1,150.5,200.87Z"/><path class="cls-1" d="M149.16,18.48a.57.57,0,1,1-.57-.57A.57.57,0,0,1,149.16,18.48Z"/><path class="cls-1" d="M122,18.48a.57.57,0,0,1-.57.57.57.57,0,1,1,0-1.14A.57.57,0,0,1,122,18.48Z"/><path class="cls-1" d="M97.09,18.48a.57.57,0,0,1-.57.57.57.57,0,0,1,0-1.14A.57.57,0,0,1,97.09,18.48Z"/><path class="cls-1" d="M72.05,18.66a.57.57,0,0,1-.57.57.57.57,0,1,1,.57-.57Z"/><path class="cls-1" d="M149.16,39.62a.57.57,0,1,1-.57-.57A.57.57,0,0,1,149.16,39.62Z"/><path class="cls-1" d="M149.16,58.91a.57.57,0,1,1-.57-.56A.56.56,0,0,1,149.16,58.91Z"/><path class="cls-1" d="M149.16,79.13a.57.57,0,1,1-.57-.57A.57.57,0,0,1,149.16,79.13Z"/><path class="cls-1" d="M149.16,91.91a.57.57,0,1,1-.57-.56A.56.56,0,0,1,149.16,91.91Z"/><path class="cls-1" d="M149.16,104.74a.57.57,0,1,1-.57-.56A.56.56,0,0,1,149.16,104.74Z"/><path class="cls-1" d="M18.9,19.05a.58.58,0,0,1-.57.57.57.57,0,0,1,0-1.14A.58.58,0,0,1,18.9,19.05Z"/><path class="cls-1" d="M46.33,18.66a.56.56,0,0,1-.57.57.57.57,0,1,1,0-1.13A.56.56,0,0,1,46.33,18.66Z"/><path class="cls-1" d="M18.9,39.17a.57.57,0,0,1-.57.57.56.56,0,0,1-.57-.57.57.57,0,0,1,.57-.57A.58.58,0,0,1,18.9,39.17Z"/><path class="cls-1" d="M18.9,59.05a.57.57,0,0,1-.57.56.57.57,0,1,1,0-1.13A.57.57,0,0,1,18.9,59.05Z"/><path class="cls-1" d="M18.9,79a.58.58,0,0,1-.57.57.57.57,0,1,1,0-1.14A.58.58,0,0,1,18.9,79Z"/><path class="cls-1" d="M18.9,91.91a.57.57,0,0,1-.57.57.57.57,0,1,1,.57-.57Z"/><path class="cls-1" d="M18.9,105.31a.57.57,0,0,1-.57.57.56.56,0,0,1-.57-.57.57.57,0,0,1,.57-.57A.58.58,0,0,1,18.9,105.31Z"/><path class="cls-1" d="M18.9,118.24a.57.57,0,0,1-.57.57.57.57,0,1,1,.57-.57Z"/><path class="cls-1" d="M18.9,131.17a.58.58,0,0,1-.57.57.57.57,0,0,1-.57-.57.56.56,0,0,1,.57-.57A.57.57,0,0,1,18.9,131.17Z"/><path class="cls-1" d="M18.9,144.57a.58.58,0,0,1-.57.57.57.57,0,0,1-.57-.57.56.56,0,0,1,.57-.57A.57.57,0,0,1,18.9,144.57Z"/><path class="cls-1" d="M18.9,158a.57.57,0,0,1-.57.56.57.57,0,1,1,0-1.13A.57.57,0,0,1,18.9,158Z"/><path class="cls-1" d="M18.9,170a.57.57,0,0,1-.57.56.57.57,0,1,1,0-1.13A.57.57,0,0,1,18.9,170Z"/><path class="cls-1" d="M18.9,183.39a.57.57,0,0,1-.57.57.56.56,0,0,1-.57-.57.57.57,0,0,1,.57-.57A.58.58,0,0,1,18.9,183.39Z"/><path class="cls-1" d="M18.9,196.44a.57.57,0,0,1-.57.57.56.56,0,0,1-.57-.57.57.57,0,0,1,.57-.57A.58.58,0,0,1,18.9,196.44Z"/><path class="cls-1" d="M19.13,215.63a.57.57,0,0,1-1.14,0,.57.57,0,0,1,1.14,0Z"/><path class="cls-1" d="M39.65,216.2a.56.56,0,0,1-.57.56.57.57,0,1,1,.57-.56Z"/><path class="cls-1" d="M66.09,216.2a.57.57,0,1,1-.57-.57A.56.56,0,0,1,66.09,216.2Z"/><path class="cls-1" d="M92.49,216.2a.57.57,0,1,1-.57-.57A.56.56,0,0,1,92.49,216.2Z"/><path class="cls-1" d="M118.21,216.2a.57.57,0,1,1-.57-.57A.57.57,0,0,1,118.21,216.2Z"/><path class="cls-1" d="M149.16,117.93a.57.57,0,1,1-1.13,0,.57.57,0,1,1,1.13,0Z"/><path class="cls-1" d="M149.16,130.26a.57.57,0,1,1-1.13,0,.57.57,0,1,1,1.13,0Z"/><path class="cls-1" d="M149.16,143.55a.57.57,0,1,1-.57-.57A.57.57,0,0,1,149.16,143.55Z"/><path class="cls-1" d="M149.16,156.65a.57.57,0,1,1-.57-.57A.57.57,0,0,1,149.16,156.65Z"/><path class="cls-1" d="M149.16,169.41a.57.57,0,1,1-1.13,0,.57.57,0,1,1,1.13,0Z"/><path class="cls-1" d="M149.16,182a.57.57,0,1,1-.57-.57A.57.57,0,0,1,149.16,182Z"/><path class="cls-1" d="M149.16,194.82a.57.57,0,1,1-.57-.57A.57.57,0,0,1,149.16,194.82Z"/><path class="cls-1" d="M149.16,214.39a.57.57,0,1,1-.57-.57A.57.57,0,0,1,149.16,214.39Z"/></g></g></svg>