<svg xmlns="http://www.w3.org/2000/svg" viewBox="0 0 166.55 233.13"><defs><style>.cls-1{fill:#fff;}.cls-2{fill:#65a7dd;}.cls-3{fill:#151515;}</style></defs><g id="Calque_2" data-name="Calque 2"><g id="Objects"><rect class="cls-1" x="0.12" y="0.12" width="166.32" height="232.9" rx="5.94"/><path class="cls-2" d="M160.5,233.13H6.05a6.06,6.06,0,0,1-6-6V6.06A6.07,6.07,0,0,1,6.05,0H160.5a6.06,6.06,0,0,1,6.05,6.06v221A6.06,6.06,0,0,1,160.5,233.13ZM6.05.23A5.83,5.83,0,0,0,.23,6.06v221a5.83,5.83,0,0,0,5.82,5.82H160.5a5.83,5.83,0,0,0,5.82-5.82V6.06A5.83,5.83,0,0,0,160.5.23Z"/><path class="cls-3" d="M21.64,33.44A2.45,2.45,0,0,0,19,33a1.91,1.91,0,0,0,.68-1.63s0-.05,0-.08a2.24,2.24,0,0,0-4.48,0,2.22,2.22,0,0,0,0,.45A2,2,0,0,0,16,33a2.45,2.45,0,0,0-2.62.46,2.33,2.33,0,0,0-.19,2.91,2.07,2.07,0,0,0,2,1.09A2.54,2.54,0,0,0,17,36.63a4.61,4.61,0,0,1-1,2.59H19a4.43,4.43,0,0,1-1-2.57,2.56,2.56,0,0,0,1.85.79,2.07,2.07,0,0,0,2-1.09A2.34,2.34,0,0,0,21.64,33.44Z"/><path d="M13.48,24.56a2.11,2.11,0,0,1-.42-.78,2.77,2.77,0,0,1-.12-.75,1.4,1.4,0,0,1,.48-1.11,1.23,1.23,0,0,1,.8-.29.83.83,0,0,1,.82.6,1.3,1.3,0,0,1,0,.31.88.88,0,0,1-.25.58,2.25,2.25,0,0,1-.37.33.63.63,0,0,0-.24.25.56.56,0,0,0-.07.3.74.74,0,0,0,.4.61,2.27,2.27,0,0,0,1.21.26,2.42,2.42,0,0,0,1.33-.41,3,3,0,0,0,1.06-1.36,7.19,7.19,0,0,0,.5-1.81,11.64,11.64,0,0,0,.18-1.82V18.6l-.14-.06a2.94,2.94,0,0,1-1.08,1.22,2.6,2.6,0,0,1-1.4.47,3.67,3.67,0,0,1-2.2-.64,3.52,3.52,0,0,1-1.16-1.46,4.9,4.9,0,0,1-.41-2,5.2,5.2,0,0,1,.47-2.11,4.45,4.45,0,0,1,1.36-1.76,3.57,3.57,0,0,1,4.35.08,5,5,0,0,1,1.49,2.22A10,10,0,0,1,20.62,18a12.15,12.15,0,0,1-.41,3.12A7.09,7.09,0,0,1,19,23.67a4.15,4.15,0,0,1-3.32,1.82A2.88,2.88,0,0,1,13.48,24.56Zm3.9-5.49a3,3,0,0,0,.86-1.27,5.12,5.12,0,0,0,.32-1.9,6.2,6.2,0,0,0-.5-2.65,1.72,1.72,0,0,0-1.67-1,1.79,1.79,0,0,0-1.72,1.12,6,6,0,0,0-.53,2.56,6.24,6.24,0,0,0,.46,2.58,1.6,1.6,0,0,0,1.56,1A1.91,1.91,0,0,0,17.38,19.07Z"/><path class="cls-3" d="M143.66,199.16a2.45,2.45,0,0,0,2.62.46,1.92,1.92,0,0,0-.68,1.63v.08a2.24,2.24,0,1,0,4.43-.45,2,2,0,0,0-.69-1.26,2.46,2.46,0,0,0,2.63-.46,2.34,2.34,0,0,0,.19-2.9,2.1,2.1,0,0,0-2-1.1,2.54,2.54,0,0,0-1.87.81,4.56,4.56,0,0,1,1-2.58h-3.06a4.34,4.34,0,0,1,1,2.56,2.54,2.54,0,0,0-1.85-.79,2.09,2.09,0,0,0-2,1.1A2.34,2.34,0,0,0,143.66,199.16Z"/><path d="M151.82,208.05a2.11,2.11,0,0,1,.42.78,2.77,2.77,0,0,1,.12.75,1.4,1.4,0,0,1-.48,1.11,1.23,1.23,0,0,1-.8.29.81.81,0,0,1-.69-.35.67.67,0,0,1-.13-.25,1.3,1.3,0,0,1,0-.31.86.86,0,0,1,.25-.58,2.25,2.25,0,0,1,.37-.33.63.63,0,0,0,.24-.25.56.56,0,0,0,.07-.3.74.74,0,0,0-.4-.61,2.27,2.27,0,0,0-1.21-.26,2.44,2.44,0,0,0-1.33.41,3,3,0,0,0-1.06,1.36,7.07,7.07,0,0,0-.5,1.81,11.46,11.46,0,0,0-.17,1.82V214l.13.06a2.94,2.94,0,0,1,1.08-1.22,2.6,2.6,0,0,1,1.4-.47,3.67,3.67,0,0,1,2.2.64,3.52,3.52,0,0,1,1.16,1.46,4.9,4.9,0,0,1,.41,2,5.24,5.24,0,0,1-.47,2.11,4.45,4.45,0,0,1-1.36,1.76,3.57,3.57,0,0,1-4.35-.08A5,5,0,0,1,145.2,218a10.27,10.27,0,0,1-.52-3.41,12.15,12.15,0,0,1,.41-3.12,7.09,7.09,0,0,1,1.18-2.55,4.15,4.15,0,0,1,3.32-1.82A2.88,2.88,0,0,1,151.82,208.05Zm-3.9,5.49a3,3,0,0,0-.86,1.27,5.08,5.08,0,0,0-.32,1.9,6.2,6.2,0,0,0,.5,2.65,1.72,1.72,0,0,0,1.67,1,1.79,1.79,0,0,0,1.72-1.12,6,6,0,0,0,.53-2.56,6.24,6.24,0,0,0-.46-2.58,1.59,1.59,0,0,0-1.56-1A1.91,1.91,0,0,0,147.92,213.54Z"/><path class="cls-3" d="M96.35,116.29c-3.58-3.9-9.07-1.59-9.07-1.59,1.53-1.64,2.56-2.94,2.37-5.63,0-.09,0-.19,0-.28a7.75,7.75,0,1,0-15.5,0,8.22,8.22,0,0,0,.16,1.58c.18,1.86,1.1,3,2.37,4.33,0,0-5.5-2.31-9.07,1.59A8.11,8.11,0,0,0,67,126.36c1.13,1.52,2.82,4.08,6.79,3.78,3.52-.26,4-.86,6.46-2.79a16,16,0,0,1-3.51,8.94H87.28c-2-2-3.67-6.74-3.45-8.89,2.37,1.89,2.91,2.49,6.4,2.74,4,.3,5.66-2.26,6.78-3.78A8.1,8.1,0,0,0,96.35,116.29Z"/><path class="cls-3" d="M58.27,40.69c-3.58-3.91-9.07-1.59-9.07-1.59,1.53-1.65,2.56-3,2.37-5.64v-.28a7.75,7.75,0,0,0-15.49,0,8.22,8.22,0,0,0,.16,1.58c.18,1.86,1.1,3,2.36,4.34,0,0-5.49-2.32-9.07,1.59a8.1,8.1,0,0,0-.66,10.06c1.13,1.52,2.81,4.08,6.79,3.79,3.51-.27,4-.86,6.45-2.8a15.93,15.93,0,0,1-3.51,8.94H49.2c-2-2-3.67-6.74-3.45-8.89,2.37,1.9,2.91,2.49,6.39,2.75,4,.29,5.66-2.27,6.79-3.79A8.1,8.1,0,0,0,58.27,40.69Z"/><path class="cls-3" d="M58.27,90.85c-3.58-3.91-9.07-1.59-9.07-1.59,1.53-1.64,2.56-3,2.37-5.64v-.27a7.75,7.75,0,1,0-15.49,0,8.12,8.12,0,0,0,.16,1.57c.18,1.86,1.1,3,2.36,4.34,0,0-5.49-2.32-9.07,1.59a8.1,8.1,0,0,0-.66,10.06c1.13,1.53,2.81,4.09,6.79,3.79,3.51-.26,4-.86,6.45-2.79a16,16,0,0,1-3.51,8.94H49.2c-2-2-3.67-6.75-3.45-8.89,2.37,1.89,2.91,2.48,6.39,2.74,4,.3,5.66-2.26,6.79-3.79A8.1,8.1,0,0,0,58.27,90.85Z"/><path class="cls-3" d="M58.27,195.93c-3.58,3.9-9.07,1.59-9.07,1.59,1.53,1.64,2.56,2.94,2.37,5.63v.28a7.75,7.75,0,1,1-15.49,0,8.22,8.22,0,0,1,.16-1.58c.18-1.86,1.1-3,2.36-4.33,0,0-5.49,2.31-9.07-1.59a8.12,8.12,0,0,1-.66-10.07c1.13-1.52,2.81-4.08,6.79-3.78,3.51.26,4,.86,6.45,2.79a16,16,0,0,0-3.51-8.94H49.2c-2,2-3.67,6.74-3.45,8.89,2.37-1.89,2.91-2.49,6.39-2.74,4-.3,5.66,2.26,6.79,3.78A8.12,8.12,0,0,1,58.27,195.93Z"/><path class="cls-3" d="M136.5,40.69c-3.58-3.91-9.07-1.59-9.07-1.59,1.53-1.65,2.56-3,2.37-5.64,0-.09,0-.18,0-.28a7.75,7.75,0,0,0-15.5,0,8.22,8.22,0,0,0,.16,1.58c.18,1.86,1.1,3,2.37,4.34,0,0-5.5-2.32-9.07,1.59a8.09,8.09,0,0,0-.67,10.06c1.13,1.52,2.82,4.08,6.79,3.79,3.52-.27,4-.86,6.46-2.8a15.93,15.93,0,0,1-3.51,8.94h10.59c-2-2-3.67-6.74-3.45-8.89,2.37,1.9,2.91,2.49,6.4,2.75,4,.29,5.66-2.27,6.78-3.79A8.09,8.09,0,0,0,136.5,40.69Z"/><path class="cls-3" d="M136.5,90.85c-3.58-3.91-9.07-1.59-9.07-1.59,1.53-1.64,2.56-3,2.37-5.64,0-.09,0-.18,0-.27a7.75,7.75,0,0,0-15.5,0,8.12,8.12,0,0,0,.16,1.57c.18,1.86,1.1,3,2.37,4.34,0,0-5.5-2.32-9.07,1.59a8.09,8.09,0,0,0-.67,10.06c1.13,1.53,2.82,4.09,6.79,3.79,3.52-.26,4-.86,6.46-2.79a16,16,0,0,1-3.51,8.94h10.59c-2-2-3.67-6.75-3.45-8.89,2.37,1.89,2.91,2.48,6.4,2.74,4,.3,5.66-2.26,6.78-3.79A8.09,8.09,0,0,0,136.5,90.85Z"/><path class="cls-3" d="M136.5,195.93c-3.58,3.9-9.07,1.59-9.07,1.59,1.53,1.64,2.56,2.94,2.37,5.63,0,.09,0,.19,0,.28a7.75,7.75,0,0,1-15.5,0,8.22,8.22,0,0,1,.16-1.58c.18-1.86,1.1-3,2.37-4.33,0,0-5.5,2.31-9.07-1.59a8.11,8.11,0,0,1-.67-10.07c1.13-1.52,2.82-4.08,6.79-3.78,3.52.26,4,.86,6.46,2.79a16,16,0,0,0-3.51-8.94h10.59c-2,2-3.67,6.74-3.45,8.89,2.37-1.89,2.91-2.49,6.4-2.74,4-.3,5.66,2.26,6.78,3.78A8.1,8.1,0,0,1,136.5,195.93Z"/><path class="cls-3" d="M58.27,145.76c-3.58,3.91-9.07,1.59-9.07,1.59,1.53,1.64,2.56,3,2.37,5.64v.27a7.75,7.75,0,1,1-15.49,0,8.2,8.2,0,0,1,.16-1.57c.18-1.86,1.1-3,2.36-4.34,0,0-5.49,2.32-9.07-1.59a8.1,8.1,0,0,1-.66-10.06c1.13-1.53,2.81-4.08,6.79-3.79,3.51.26,4,.86,6.45,2.79a16,16,0,0,0-3.51-8.94H49.2c-2,2-3.67,6.75-3.45,8.89,2.37-1.89,2.91-2.48,6.39-2.74,4-.29,5.66,2.26,6.79,3.79A8.1,8.1,0,0,1,58.27,145.76Z"/><path class="cls-3" d="M136.5,145.76c-3.58,3.91-9.07,1.59-9.07,1.59,1.53,1.64,2.56,3,2.37,5.64,0,.09,0,.18,0,.27a7.75,7.75,0,0,1-15.5,0,8.2,8.2,0,0,1,.16-1.57c.18-1.86,1.1-3,2.37-4.34,0,0-5.5,2.32-9.07-1.59a8.09,8.09,0,0,1-.67-10.06c1.13-1.53,2.82-4.08,6.79-3.79,3.52.26,4,.86,6.46,2.79a16,16,0,0,0-3.51-8.94h10.59c-2,2-3.67,6.75-3.45,8.89,2.37-1.89,2.91-2.48,6.4-2.74,4-.29,5.66,2.26,6.78,3.79A8.09,8.09,0,0,1,136.5,145.76Z"/></g></g></svg>