<svg xmlns="http://www.w3.org/2000/svg" xmlns:xlink="http://www.w3.org/1999/xlink" viewBox="0 0 231.98 309.91"><defs><style>.cls-1{mask:url(#mask);}.cls-12,.cls-2,.cls-22,.cls-23,.cls-5,.cls-6,.cls-9{mix-blend-mode:multiply;}.cls-2{fill:url(#radial-gradient);}.cls-3{isolation:isolate;}.cls-4{fill:#ec1e2a;}.cls-5{fill:url(#radial-gradient-2);}.cls-6{fill:url(#radial-gradient-3);}.cls-7{fill:url(#radial-gradient-4);}.cls-8{fill:url(#radial-gradient-5);}.cls-9{fill:url(#radial-gradient-6);}.cls-10{fill:#fff;}.cls-11{fill:url(#radial-gradient-7);}.cls-12{fill:url(#linear-gradient);}.cls-13{opacity:0.75;fill:url(#radial-gradient-8);}.cls-14,.cls-15,.cls-16,.cls-18{opacity:0.9;}.cls-14{fill:url(#linear-gradient-2);}.cls-15{fill:url(#linear-gradient-3);}.cls-16{fill:url(#linear-gradient-4);}.cls-17{mask:url(#mask-2);}.cls-18{mix-blend-mode:screen;fill:url(#radial-gradient-9);}.cls-19{fill:url(#radial-gradient-10);}.cls-20{fill:url(#radial-gradient-11);}.cls-21{fill:url(#radial-gradient-12);}.cls-22{fill:url(#linear-gradient-5);}.cls-23{fill:url(#linear-gradient-6);}.cls-24{fill:url(#radial-gradient-13);}.cls-25{fill:url(#radial-gradient-14);}.cls-26{fill:url(#radial-gradient-15);}.cls-27{fill:url(#radial-gradient-16);}.cls-28{filter:url(#luminosity-noclip);}</style><filter id="luminosity-noclip" x="10.7" y="-8160.36" width="214.21" height="32766" filterUnits="userSpaceOnUse" color-interpolation-filters="sRGB"><feFlood flood-color="#fff" result="bg"/><feBlend in="SourceGraphic" in2="bg"/></filter><mask id="mask" x="10.7" y="-8160.36" width="214.21" height="32766" maskUnits="userSpaceOnUse"><g class="cls-28"/></mask><radialGradient id="radial-gradient" cx="130" cy="238.09" r="341.69" gradientTransform="translate(0.28 -3.49) rotate(-0.14)" gradientUnits="userSpaceOnUse"><stop offset="0" stop-color="#fff"/><stop offset="0.55"/></radialGradient><radialGradient id="radial-gradient-2" cx="158" cy="118.09" r="267.39" gradientTransform="translate(0.28 -3.49) rotate(-0.14)" gradientUnits="userSpaceOnUse"><stop offset="0" stop-color="#ef5660"/><stop offset="0.1" stop-color="#ee4853"/><stop offset="0.37" stop-color="#ed2a35"/><stop offset="0.51" stop-color="#ec1e2a"/><stop offset="0.55" stop-color="#e51d28"/><stop offset="0.61" stop-color="#d01a24"/><stop offset="0.68" stop-color="#ae151e"/><stop offset="0.76" stop-color="#7f0e14"/><stop offset="0.85" stop-color="#440608"/><stop offset="0.9" stop-color="#1c0000"/></radialGradient><radialGradient id="radial-gradient-3" cx="123.99" cy="244.09" r="360.22" xlink:href="#radial-gradient-2"/><radialGradient id="radial-gradient-4" cx="154.28" cy="98.44" fx="53.34890973252507" fy="176.23985636909345" r="260.79" gradientTransform="translate(0.28 -3.49) rotate(-0.14)" gradientUnits="userSpaceOnUse"><stop offset="0" stop-color="#fff"/><stop offset="0.31" stop-color="#ec1e2a"/><stop offset="0.45" stop-color="#ea1e2a"/><stop offset="0.53" stop-color="#e21e28"/><stop offset="0.58" stop-color="#d51e26"/><stop offset="0.63" stop-color="#c21e22"/><stop offset="0.68" stop-color="#aa1e1e"/><stop offset="0.68" stop-color="#a51e1d"/><stop offset="0.8" stop-color="#a01d1c"/><stop offset="0.93" stop-color="#921a1b"/><stop offset="0.99" stop-color="#89181a"/></radialGradient><radialGradient id="radial-gradient-5" cx="161.39" cy="-719.19" fx="135.47636977737136" r="82.85" gradientTransform="translate(-326.51 -401.12) rotate(119.97)" gradientUnits="userSpaceOnUse"><stop offset="0" stop-color="#fbd2c7"/><stop offset="0.29" stop-color="#ee434b"/><stop offset="0.41" stop-color="#ee3b44"/><stop offset="0.59" stop-color="#ec2631"/><stop offset="0.64" stop-color="#ec1e2a"/></radialGradient><radialGradient id="radial-gradient-6" cx="64.93" cy="135.44" r="260.67" xlink:href="#radial-gradient-2"/><radialGradient id="radial-gradient-7" cx="448.7" cy="-774.02" fx="464.7309781427687" fy="-765.3876449793453" r="18.24" gradientTransform="matrix(-0.39, 0.94, -0.95, -0.41, -494.28, -489.92)" gradientUnits="userSpaceOnUse"><stop offset="0.04" stop-color="#b9b9ba"/><stop offset="0.24" stop-color="#c4c4c5"/><stop offset="0.58" stop-color="#e0e0e1"/><stop offset="0.89" stop-color="#fff"/></radialGradient><linearGradient id="linear-gradient" x1="224.48" y1="51.06" x2="205.15" y2="65.73" gradientTransform="translate(0.28 -3.49) rotate(-0.14)" gradientUnits="userSpaceOnUse"><stop offset="0" stop-color="#ef5660"/><stop offset="0.1" stop-color="#ee4853"/><stop offset="0.37" stop-color="#ed2a35"/><stop offset="0.51" stop-color="#ec1e2a"/><stop offset="0.6" stop-color="#e51e29"/><stop offset="0.73" stop-color="#d01e27"/><stop offset="0.88" stop-color="#ae1e23"/><stop offset="0.9" stop-color="#aa1e23"/></linearGradient><radialGradient id="radial-gradient-8" cx="286.89" cy="-657.36" r="62.84" gradientTransform="translate(-326.51 -401.12) rotate(119.97)" gradientUnits="userSpaceOnUse"><stop offset="0.29" stop-color="#ee434b"/><stop offset="0.41" stop-color="#ee3b44"/><stop offset="0.59" stop-color="#ec2631"/><stop offset="0.64" stop-color="#ec1e2a"/></radialGradient><linearGradient id="linear-gradient-2" x1="784.66" y1="-515.56" x2="786.74" y2="-501.74" gradientTransform="matrix(-0.49, 0.87, -0.8, -0.45, 151.61, -712.33)" gradientUnits="userSpaceOnUse"><stop offset="0.04" stop-color="#b9b9ba"/><stop offset="0.28" stop-color="#dadadb"/><stop offset="0.52" stop-color="#f5f5f5"/><stop offset="0.66" stop-color="#fff"/></linearGradient><linearGradient id="linear-gradient-3" x1="768.51" y1="-514.13" x2="770.58" y2="-500.31" gradientTransform="matrix(-0.51, 0.86, -0.79, -0.47, 182.61, -700.33)" gradientUnits="userSpaceOnUse"><stop offset="0.04" stop-color="#b9b9ba"/><stop offset="0.16" stop-color="#cdcdce"/><stop offset="0.36" stop-color="#e9e9e9"/><stop offset="0.53" stop-color="#f9f9f9"/><stop offset="0.66" stop-color="#fff"/></linearGradient><linearGradient id="linear-gradient-4" x1="756.59" y1="-530.18" x2="758.58" y2="-516.9" gradientTransform="matrix(-0.51, 0.86, -0.79, -0.47, 181.71, -698.41)" xlink:href="#linear-gradient-2"/><mask id="mask-2" x="10.7" y="77.45" width="214.21" height="128.06" maskUnits="userSpaceOnUse"><g class="cls-1"><path class="cls-2" d="M152.14,94.68c-47.31,11.12-94.67,22.25-141.44,35.5,1,11.31,13.62,17.09,13.62,17.09l93.57,53.94c26,15,42.08-13.94,42.08-13.94L223,84.89a14.06,14.06,0,0,0,1.85-7.44C200.67,83.31,176.4,89,152.14,94.68Z"/></g></mask><radialGradient id="radial-gradient-9" cx="130" cy="238.09" r="341.69" gradientTransform="translate(0.28 -3.49) rotate(-0.14)" gradientUnits="userSpaceOnUse"><stop offset="0" stop-color="#fff"/><stop offset="0.55" stop-color="#e52521"/></radialGradient><radialGradient id="radial-gradient-10" cx="200.82" cy="-618.69" fx="175.36640965183392" fy="-587.2614975703152" r="40.45" gradientTransform="translate(-326.51 -401.12) rotate(119.97)" xlink:href="#radial-gradient-7"/><radialGradient id="radial-gradient-11" cx="440.68" cy="-778.36" r="50.15" gradientTransform="matrix(-0.49, 0.73, -0.9, -0.39, -319.84, -414.88)" gradientUnits="userSpaceOnUse"><stop offset="0.01" stop-color="#fff"/><stop offset="0.05" stop-color="#fce2e4"/><stop offset="0.13" stop-color="#f8b0b5"/><stop offset="0.21" stop-color="#f48990"/><stop offset="0.28" stop-color="#f16d76"/><stop offset="0.34" stop-color="#f05c66"/><stop offset="0.38" stop-color="#ef5660"/><stop offset="0.41" stop-color="#ee4c57"/><stop offset="0.53" stop-color="#ed2b36"/><stop offset="0.6" stop-color="#ec1e2a"/></radialGradient><radialGradient id="radial-gradient-12" cx="2474.18" cy="1264.88" r="50.15" gradientTransform="matrix(0.77, 0.43, 0.63, -0.76, -2592.38, 110.85)" xlink:href="#radial-gradient-11"/><linearGradient id="linear-gradient-5" x1="-17.28" y1="114.4" x2="12.71" y2="122.4" xlink:href="#linear-gradient"/><linearGradient id="linear-gradient-6" x1="121.11" y1="265.54" x2="134.97" y2="269.23" xlink:href="#linear-gradient"/><radialGradient id="radial-gradient-13" cx="700" cy="-319.68" fx="674.5472425516596" fy="-288.2468373307921" r="40.45" gradientTransform="matrix(-0.5, 0.87, -0.87, -0.5, 170.92, -734.4)" xlink:href="#radial-gradient-7"/><radialGradient id="radial-gradient-14" cx="774.33" cy="-390.01" fx="748.878978406945" fy="-358.57815642587093" r="40.45" gradientTransform="matrix(-0.5, 0.87, -0.87, -0.5, 170.92, -734.4)" xlink:href="#radial-gradient-7"/><radialGradient id="radial-gradient-15" cx="777.11" cy="-312.3" fx="751.6562530395246" fy="-280.8641705628273" r="40.45" gradientTransform="matrix(-0.5, 0.87, -0.87, -0.5, 170.92, -734.4)" xlink:href="#radial-gradient-7"/><radialGradient id="radial-gradient-16" cx="696.42" cy="-397.9" fx="670.9664913114605" fy="-366.46797406294377" r="40.45" gradientTransform="matrix(-0.5, 0.87, -0.87, -0.5, 170.92, -734.4)" xlink:href="#radial-gradient-7"/></defs><g class="cls-3"><g id="Calque_2" data-name="Calque 2"><g id="Layer_1" data-name="Layer 1"><path class="cls-4" d="M9.14,227l.47,4.1a26,26,0,0,0,11.7,16.63l1.2.69,0,0,4.34,2.5h0l93.56,53.94h0l0,0,4.22,2.44c14.33,7,23.85-2.22,26.88-5.86l64-99.45a52.87,52.87,0,0,0,6-18l.1,0,9.7-85.56h0a1.29,1.29,0,0,1,0-.17l.56-5c.23-6.94-1.47-19.29-14.86-27L104.56,1.41c-5.48-2-17.94-4.25-26.81,11.14a6.94,6.94,0,0,1-.87,1.18l-70.53,110c-2.91,5.68-6.68,15-6.33,24.38l.54,4.68.09.49s0,0,0,0L9.1,226.69h0C9.12,226.81,9.13,226.92,9.14,227Z"/><path class="cls-5" d="M120.43,304.91l0,0s14.55,6.71,17.95-8.19l1.1-55s1.47-16.57-21.87-31.15l-95.38-57.8s-17.33-10-18,9.26l7.51,70.06S13.47,242.82,25.09,250l1.78,1L27,251l93.47,53.89Z"/><path class="cls-6" d="M83.16,8.17,15.63,115.29c-15,21.1,8.69,32,8.69,32l93.57,53.94c26,15,42.08-13.94,42.08-13.94L223,84.89c5-9.4-1.17-15.39-4.88-18l-1.06-.64L104.56,1.41A24.74,24.74,0,0,0,99.43.17,19,19,0,0,0,83.16,8.17Z"/><path class="cls-7" d="M11.75,232.14,4.24,162.08c.7-19.25,18-9.26,18-9.26l95.38,57.8c23.34,14.58,21.87,31.15,21.87,31.15l-1.1,55c-3.4,14.9-17.95,8.19-17.95,8.19l4.22,2.44c14.33,7,23.85-2.22,26.88-5.86l64-99.45a52.87,52.87,0,0,0,6-18l.1,0,9.7-85.56h0a1.29,1.29,0,0,1,0-.17l.56-5c.23-6.75-1.39-18.62-13.8-26.4,3.71,2.56,9.88,8.55,4.88,18L160,187.27s-16.09,28.92-42.08,13.94L24.32,147.27s-23.74-10.88-8.69-32L83.16,8.17a19,19,0,0,1,16.27-8c-6.24-.78-15,.76-21.68,12.38a6.94,6.94,0,0,1-.87,1.18l-70.53,110c-2.91,5.68-6.68,15-6.33,24.38l.54,4.68.09.49s0,0,0,0L9.1,226.69h0c0,.12,0,.23,0,.34l.47,4.1a26,26,0,0,0,11.7,16.63l1.2.69,0,0L25.09,250C13.47,242.82,11.75,232.14,11.75,232.14Zm145.88-28.8s56.22-92.89,66.23-107.87c9.76-14.59,5.51,8.8,5.51,8.8l-.35,2.6s-6.91,67.73-8.36,77.57a43,43,0,0,1-6.73,18l-58.18,90.22c-10.21,17.71-9.81,5-9.81,5l.1-57.24C145.47,223.1,157.63,203.34,157.63,203.34Z"/><path class="cls-8" d="M189.08,151.59c14.7-24.07,30-49,34.78-56.12,9.76-14.59,5.51,8.8,5.51,8.8l-.35,2.6s-2.75,27-5.14,49.33l1-.1,6.53-57.61h0a1.29,1.29,0,0,1,0-.17l.56-5c.23-6.75-1.39-18.62-13.8-26.4,3.71,2.56,9.88,8.55,4.88,18l-39.42,64A53.31,53.31,0,0,0,189.08,151.59Z"/><path class="cls-9" d="M145.94,297.71s-.4,12.69,9.81-5l58.18-90.22a43,43,0,0,0,6.73-18c1.45-9.84,8.36-77.57,8.36-77.57l.35-2.6s4.25-23.39-5.51-8.8c-10,15-66.23,107.87-66.23,107.87S145.47,223.1,146,240.47Z"/><path class="cls-10" d="M64.51,245.2c-7.79-7.14-11-16.24-7.08-20.33s13.34-1.62,21.13,5.52,11,16.23,7.08,20.32S72.3,252.33,64.51,245.2Z"/><path class="cls-11" d="M65.11,245c-7.37-6.74-10.4-15.3-6.79-19.11s12.52-1.43,19.88,5.31S88.6,246.49,85,250.3,72.47,251.73,65.11,245Z"/><path class="cls-12" d="M230.52,93.27,227,137.41l4.41-38.92h0a1.29,1.29,0,0,1,0-.17l.56-5c.23-6.94-1.47-19.29-14.86-27L138.44,21c2.67,1.57,66.84,39.33,79.19,48C231.75,78.78,230.52,93.27,230.52,93.27Z"/><path class="cls-13" d="M110.4,199.62c9.2,4.95,33.56,16,2.64-1.19L44.34,158.9S60,172.51,110.4,199.62Z"/><path class="cls-10" d="M162.19,219.87c-2.44-1.3-.33-10.05,4.71-19.55s11.1-16.14,13.54-14.84.33,10.05-4.71,19.55S164.63,221.17,162.19,219.87Z"/><path class="cls-14" d="M162.49,219.57c-2.16-1.15.11-9.65,5.07-19s10.71-16,12.87-14.83-.12,9.65-5.07,19S164.64,220.72,162.49,219.57Z"/><path class="cls-10" d="M178.34,217.33c-2.41-1.36-.1-10.06,5.17-19.43S195,182,197.39,183.37s.09,10.06-5.17,19.43S180.74,218.68,178.34,217.33Z"/><path class="cls-15" d="M178.65,217c-2.13-1.2.34-9.64,5.51-18.86s11.09-15.71,13.21-14.51-.34,9.64-5.51,18.85S180.77,218.23,178.65,217Z"/><path class="cls-10" d="M194.41,216c-2.31-1.3-.06-9.66,5-18.67s11.08-15.23,13.38-13.92.07,9.66-5,18.66S196.72,217.34,194.41,216Z"/><path class="cls-10" d="M194.41,216c-2.31-1.3-.06-9.66,5-18.67s11.08-15.23,13.38-13.92.07,9.66-5,18.66S196.72,217.34,194.41,216Z"/><path class="cls-16" d="M194.71,215.75c-2-1.16.35-9.27,5.35-18.12s10.7-15.08,12.74-13.92-.35,9.27-5.35,18.11S196.75,216.91,194.71,215.75Z"/><g class="cls-17"><path class="cls-18" d="M152.14,94.68c-47.31,11.12-94.67,22.25-141.44,35.5,1,11.31,13.62,17.09,13.62,17.09l93.57,53.94c26,15,42.08-13.94,42.08-13.94L223,84.89a14.06,14.06,0,0,0,1.85-7.44C200.67,83.31,176.4,89,152.14,94.68Z"/></g><path class="cls-10" d="M106.22,117.92c-8.39-6.46-9.71-18.71-3-27.37s19-10.43,27.44-4,9.71,18.71,2.95,27.37S114.61,124.38,106.22,117.92Z"/><path class="cls-19" d="M106.75,117.39c-8.07-6.22-9.34-18-2.83-26.34s18.33-10,26.41-3.83,9.34,18,2.83,26.34S114.83,123.6,106.75,117.39Z"/><path class="cls-20" d="M146.49,232s-2.54-16.19,24.43-49.87C170.92,182.13,137.59,211.88,146.49,232Z"/><path class="cls-21" d="M136.66,229.12s-5.07-15.58-44.37-33.39C92.29,195.73,135.48,207.16,136.66,229.12Z"/><path class="cls-22" d="M1.85,146.48,5.63,190.6,1,151.7H1s0-.07,0-.17l-.59-5c-.27-6.93,1.2-16.7,13.28-33.35L51,55.1c-2.66,1.59-29.53,49.35-39.83,64.48C1.51,133.82,1.85,146.48,1.85,146.48Z"/><path class="cls-23" d="M139.26,240.25l-.74,51.88S137.72,271.51,139.26,240.25Z"/><path class="cls-10" d="M94.26,67.65c-8.38-6.47-9.68-18.73-2.91-27.37s19.06-10.41,27.45-3.94,9.69,18.72,2.91,27.37S102.65,74.12,94.26,67.65Z"/><path class="cls-24" d="M94.8,67.12c-8.07-6.23-9.32-18-2.8-26.34s18.34-10,26.41-3.79,9.33,18,2.81,26.34S102.87,73.35,94.8,67.12Z"/><path class="cls-10" d="M117.94,167.21c-8.38-6.47-9.69-18.73-2.91-27.38s19.06-10.4,27.44-3.93,9.69,18.72,2.92,27.37S126.33,173.68,117.94,167.21Z"/><path class="cls-25" d="M118.48,166.68c-8.07-6.23-9.33-18-2.81-26.35s18.35-10,26.42-3.79,9.32,18,2.8,26.35S126.55,172.9,118.48,166.68Z"/><path class="cls-10" d="M49.27,130.71c-8.38-6.47-9.68-18.73-2.91-27.38s19.06-10.4,27.45-3.93,9.69,18.72,2.91,27.37S57.66,137.18,49.27,130.71Z"/><path class="cls-26" d="M49.81,130.18c-8.07-6.23-9.32-18-2.8-26.35s18.34-10,26.41-3.79,9.33,18,2.8,26.35S57.88,136.4,49.81,130.18Z"/><path class="cls-10" d="M163.77,103.71c-8.38-6.47-9.68-18.73-2.91-27.38s19.06-10.4,27.45-3.93,9.69,18.72,2.91,27.37S172.16,110.18,163.77,103.71Z"/><path class="cls-27" d="M164.31,103.18c-8.07-6.23-9.32-18-2.8-26.35s18.34-10,26.41-3.79,9.33,18,2.8,26.35S172.38,109.4,164.31,103.18Z"/></g></g></g></svg>