<svg xmlns="http://www.w3.org/2000/svg" xmlns:xlink="http://www.w3.org/1999/xlink" viewBox="0 0 231.98 309.91"><defs><style>.cls-1{mask:url(#mask);}.cls-10,.cls-2,.cls-25,.cls-26,.cls-5,.cls-6,.cls-9{mix-blend-mode:multiply;}.cls-2{fill:url(#radial-gradient);}.cls-3{isolation:isolate;}.cls-4{fill:#ec1e2a;}.cls-5{fill:url(#radial-gradient-2);}.cls-6{fill:url(#radial-gradient-3);}.cls-7{fill:url(#radial-gradient-4);}.cls-8{fill:url(#radial-gradient-5);}.cls-9{fill:url(#radial-gradient-6);}.cls-10{fill:url(#linear-gradient);}.cls-11{opacity:0.75;fill:url(#radial-gradient-7);}.cls-12{fill:#fff;}.cls-13{fill:url(#radial-gradient-8);}.cls-14{fill:url(#radial-gradient-9);}.cls-15{fill:url(#radial-gradient-10);}.cls-16{fill:url(#radial-gradient-11);}.cls-17{fill:url(#radial-gradient-12);}.cls-18{fill:url(#radial-gradient-13);}.cls-19,.cls-20,.cls-22{opacity:0.9;}.cls-19{fill:url(#linear-gradient-2);}.cls-20{fill:url(#linear-gradient-3);}.cls-21{mask:url(#mask-2);}.cls-22{mix-blend-mode:screen;fill:url(#radial-gradient-14);}.cls-23{fill:url(#radial-gradient-15);}.cls-24{fill:url(#radial-gradient-16);}.cls-25{fill:url(#linear-gradient-4);}.cls-26{fill:url(#linear-gradient-5);}.cls-27{fill:url(#radial-gradient-17);}.cls-28{fill:url(#radial-gradient-18);}.cls-29{fill:url(#radial-gradient-19);}.cls-30{fill:url(#radial-gradient-20);}.cls-31{filter:url(#luminosity-noclip);}</style><filter id="luminosity-noclip" x="10.7" y="-8160.36" width="214.21" height="32766" filterUnits="userSpaceOnUse" color-interpolation-filters="sRGB"><feFlood flood-color="#fff" result="bg"/><feBlend in="SourceGraphic" in2="bg"/></filter><mask id="mask" x="10.7" y="-8160.36" width="214.21" height="32766" maskUnits="userSpaceOnUse"><g class="cls-31"/></mask><radialGradient id="radial-gradient" cx="130" cy="237.4" r="341.69" gradientTransform="translate(0.28 -2.8) rotate(-0.14)" gradientUnits="userSpaceOnUse"><stop offset="0" stop-color="#fff"/><stop offset="0.55"/></radialGradient><radialGradient id="radial-gradient-2" cx="158" cy="117.4" r="267.39" gradientTransform="translate(0.28 -2.8) rotate(-0.14)" gradientUnits="userSpaceOnUse"><stop offset="0" stop-color="#ef5660"/><stop offset="0.1" stop-color="#ee4853"/><stop offset="0.37" stop-color="#ed2a35"/><stop offset="0.51" stop-color="#ec1e2a"/><stop offset="0.55" stop-color="#e51d28"/><stop offset="0.61" stop-color="#d01a24"/><stop offset="0.68" stop-color="#ae151e"/><stop offset="0.76" stop-color="#7f0e14"/><stop offset="0.85" stop-color="#440608"/><stop offset="0.9" stop-color="#1c0000"/></radialGradient><radialGradient id="radial-gradient-3" cx="124" cy="243.4" r="360.22" xlink:href="#radial-gradient-2"/><radialGradient id="radial-gradient-4" cx="154.28" cy="97.75" fx="53.35064421387494" fy="175.54965462849415" r="260.79" gradientTransform="translate(0.28 -2.8) rotate(-0.14)" gradientUnits="userSpaceOnUse"><stop offset="0" stop-color="#fff"/><stop offset="0.31" stop-color="#ec1e2a"/><stop offset="0.45" stop-color="#ea1e2a"/><stop offset="0.53" stop-color="#e21e28"/><stop offset="0.58" stop-color="#d51e26"/><stop offset="0.63" stop-color="#c21e22"/><stop offset="0.68" stop-color="#aa1e1e"/><stop offset="0.68" stop-color="#a51e1d"/><stop offset="0.8" stop-color="#a01d1c"/><stop offset="0.93" stop-color="#921a1b"/><stop offset="0.99" stop-color="#89181a"/></radialGradient><radialGradient id="radial-gradient-5" cx="575.38" cy="-480.01" fx="549.4655302606462" r="82.85" gradientTransform="translate(87.47 -640.29) rotate(119.97)" gradientUnits="userSpaceOnUse"><stop offset="0" stop-color="#fbd2c7"/><stop offset="0.29" stop-color="#ee434b"/><stop offset="0.41" stop-color="#ee3b44"/><stop offset="0.59" stop-color="#ec2631"/><stop offset="0.64" stop-color="#ec1e2a"/></radialGradient><radialGradient id="radial-gradient-6" cx="64.93" cy="134.75" r="260.66" xlink:href="#radial-gradient-2"/><linearGradient id="linear-gradient" x1="224.48" y1="50.37" x2="205.15" y2="65.04" gradientTransform="translate(0.28 -2.8) rotate(-0.14)" gradientUnits="userSpaceOnUse"><stop offset="0" stop-color="#ef5660"/><stop offset="0.1" stop-color="#ee4853"/><stop offset="0.37" stop-color="#ed2a35"/><stop offset="0.51" stop-color="#ec1e2a"/><stop offset="0.6" stop-color="#e51e29"/><stop offset="0.73" stop-color="#d01e27"/><stop offset="0.88" stop-color="#ae1e23"/><stop offset="0.9" stop-color="#aa1e23"/></linearGradient><radialGradient id="radial-gradient-7" cx="700.88" cy="-418.19" r="62.84" gradientTransform="translate(87.47 -640.29) rotate(119.97)" gradientUnits="userSpaceOnUse"><stop offset="0.29" stop-color="#ee434b"/><stop offset="0.41" stop-color="#ee3b44"/><stop offset="0.59" stop-color="#ec2631"/><stop offset="0.64" stop-color="#ec1e2a"/></radialGradient><radialGradient id="radial-gradient-8" cx="852.65" cy="-573.95" fx="868.6796404559891" fy="-565.3227735848396" r="18.24" gradientTransform="matrix(-0.39, 0.94, -0.95, -0.41, -109.95, -749.66)" gradientUnits="userSpaceOnUse"><stop offset="0.04" stop-color="#b9b9ba"/><stop offset="0.24" stop-color="#c4c4c5"/><stop offset="0.58" stop-color="#e0e0e1"/><stop offset="0.89" stop-color="#fff"/></radialGradient><radialGradient id="radial-gradient-9" cx="827.87" cy="-560.53" fx="843.8999808629927" fy="-551.9006663208238" r="18.24" xlink:href="#radial-gradient-8"/><radialGradient id="radial-gradient-10" cx="802.19" cy="-548.58" fx="818.2193817413113" fy="-539.9529350591298" r="18.24" xlink:href="#radial-gradient-8"/><radialGradient id="radial-gradient-11" cx="845.96" cy="-503.1" fx="861.9853338058048" fy="-494.4711429367455" r="18.24" xlink:href="#radial-gradient-8"/><radialGradient id="radial-gradient-12" cx="821.63" cy="-488.02" fx="837.6548704862514" fy="-479.38787042206764" r="18.24" xlink:href="#radial-gradient-8"/><radialGradient id="radial-gradient-13" cx="795.82" cy="-473.9" fx="811.8439570729513" fy="-465.2750784459344" r="18.24" xlink:href="#radial-gradient-8"/><linearGradient id="linear-gradient-2" x1="1219.8" y1="-264.88" x2="1221.87" y2="-251.06" gradientTransform="matrix(-0.51, 0.86, -0.79, -0.47, 599.58, -937.76)" gradientUnits="userSpaceOnUse"><stop offset="0.04" stop-color="#b9b9ba"/><stop offset="0.16" stop-color="#cdcdce"/><stop offset="0.36" stop-color="#e9e9e9"/><stop offset="0.53" stop-color="#f9f9f9"/><stop offset="0.66" stop-color="#fff"/></linearGradient><linearGradient id="linear-gradient-3" x1="1131.31" y1="-248.32" x2="1133.38" y2="-234.5" gradientTransform="matrix(-0.51, 0.86, -0.79, -0.47, 599.31, -935.45)" gradientUnits="userSpaceOnUse"><stop offset="0.04" stop-color="#b9b9ba"/><stop offset="0.28" stop-color="#dadadb"/><stop offset="0.52" stop-color="#f5f5f5"/><stop offset="0.66" stop-color="#fff"/></linearGradient><mask id="mask-2" x="10.7" y="77.45" width="214.21" height="128.06" maskUnits="userSpaceOnUse"><g class="cls-1"><path class="cls-2" d="M152.14,94.68c-47.31,11.12-94.67,22.25-141.44,35.5,1,11.31,13.62,17.09,13.62,17.09l93.57,53.94c26,15,42.08-13.94,42.08-13.94L223,84.89a14.06,14.06,0,0,0,1.85-7.44C200.67,83.31,176.4,89,152.14,94.68Z"/></g></mask><radialGradient id="radial-gradient-14" cx="130" cy="237.4" r="341.69" gradientTransform="translate(0.28 -2.8) rotate(-0.14)" gradientUnits="userSpaceOnUse"><stop offset="0" stop-color="#fff"/><stop offset="0.55" stop-color="#e52521"/></radialGradient><radialGradient id="radial-gradient-15" cx="842.68" cy="-541.34" r="50.15" gradientTransform="matrix(-0.49, 0.73, -0.9, -0.39, 91.88, -617.25)" gradientUnits="userSpaceOnUse"><stop offset="0.01" stop-color="#fff"/><stop offset="0.05" stop-color="#fce2e4"/><stop offset="0.13" stop-color="#f8b0b5"/><stop offset="0.21" stop-color="#f48990"/><stop offset="0.28" stop-color="#f16d76"/><stop offset="0.34" stop-color="#f05c66"/><stop offset="0.38" stop-color="#ef5660"/><stop offset="0.41" stop-color="#ee4c57"/><stop offset="0.53" stop-color="#ed2b36"/><stop offset="0.6" stop-color="#ec1e2a"/></radialGradient><radialGradient id="radial-gradient-16" cx="2505.6" cy="1125.55" r="50.15" gradientTransform="matrix(0.77, 0.43, 0.63, -0.76, -2528.88, -8.12)" xlink:href="#radial-gradient-15"/><linearGradient id="linear-gradient-4" x1="-17.28" y1="113.71" x2="12.71" y2="121.71" xlink:href="#linear-gradient"/><linearGradient id="linear-gradient-5" x1="121.11" y1="264.85" x2="134.97" y2="268.54" xlink:href="#linear-gradient"/><radialGradient id="radial-gradient-17" cx="1114.29" cy="-80.68" fx="1088.8321785525889" fy="-49.25079740256731" r="40.45" gradientTransform="matrix(-0.5, 0.87, -0.87, -0.5, 585.21, -973.41)" xlink:href="#radial-gradient-8"/><radialGradient id="radial-gradient-18" cx="1188.62" cy="-151.01" fx="1163.1643109335146" fy="-119.58219004232446" r="40.45" gradientTransform="matrix(-0.5, 0.87, -0.87, -0.5, 585.21, -973.41)" xlink:href="#radial-gradient-8"/><radialGradient id="radial-gradient-19" cx="1191.39" cy="-73.3" fx="1165.9408575247958" fy="-41.86813499605887" r="40.45" gradientTransform="matrix(-0.5, 0.87, -0.87, -0.5, 585.21, -973.41)" xlink:href="#radial-gradient-8"/><radialGradient id="radial-gradient-20" cx="1110.71" cy="-158.9" fx="1085.251234198713" fy="-127.47142722462935" r="40.45" gradientTransform="matrix(-0.5, 0.87, -0.87, -0.5, 585.21, -973.41)" xlink:href="#radial-gradient-8"/></defs><g class="cls-3"><g id="Calque_2" data-name="Calque 2"><g id="Layer_1" data-name="Layer 1"><path class="cls-4" d="M9.14,227l.47,4.1A26,26,0,0,0,21.3,247.76l1.21.69,0,0,4.33,2.5h0l93.56,53.94h0l0,0,4.22,2.44c14.34,7,23.85-2.22,26.88-5.86l64-99.45a52.87,52.87,0,0,0,6-18l.1,0,9.7-85.56h0s0-.07,0-.17l.56-5c.23-6.94-1.48-19.29-14.86-27L104.56,1.41c-5.48-2-17.94-4.25-26.81,11.14a6.94,6.94,0,0,1-.87,1.18l-70.53,110c-2.91,5.68-6.68,15-6.33,24.38l.54,4.68.09.49s0,0,0,0L9.1,226.69h0C9.12,226.81,9.13,226.92,9.14,227Z"/><path class="cls-5" d="M120.43,304.91l0,0s14.55,6.71,17.94-8.19l1.11-55s1.47-16.57-21.87-31.15l-95.38-57.8s-17.32-10-18,9.26l7.51,70.06S13.47,242.82,25.1,250l1.77,1L27,251l93.47,53.89Z"/><path class="cls-6" d="M83.16,8.17,15.63,115.29c-15,21.1,8.69,32,8.69,32l93.57,53.94c26,15,42.08-13.94,42.08-13.94L223,84.89c5-9.4-1.17-15.39-4.88-18l-1.06-.64L104.56,1.41A24.85,24.85,0,0,0,99.42.17,19,19,0,0,0,83.16,8.17Z"/><path class="cls-7" d="M11.75,232.14,4.24,162.08c.71-19.25,18-9.26,18-9.26l95.38,57.8c23.34,14.58,21.87,31.15,21.87,31.15l-1.11,55c-3.39,14.9-17.94,8.19-17.94,8.19l4.22,2.44c14.34,7,23.85-2.22,26.88-5.86l64-99.45a52.87,52.87,0,0,0,6-18l.1,0,9.7-85.56h0s0-.07,0-.17l.56-5c.23-6.75-1.39-18.62-13.8-26.4,3.71,2.56,9.88,8.55,4.88,18L160,187.27s-16.09,28.92-42.08,13.94L24.32,147.27s-23.74-10.88-8.69-32L83.16,8.17a19,19,0,0,1,16.26-8c-6.23-.78-15,.76-21.67,12.38a6.94,6.94,0,0,1-.87,1.18l-70.53,110c-2.91,5.68-6.68,15-6.33,24.38l.54,4.68.09.49s0,0,0,0L9.1,226.69h0c0,.12,0,.23,0,.34l.47,4.1A26,26,0,0,0,21.3,247.76l1.21.69,0,0L25.1,250C13.47,242.82,11.75,232.14,11.75,232.14Zm145.88-28.8s56.22-92.89,66.23-107.87c9.76-14.59,5.51,8.8,5.51,8.8l-.35,2.6s-6.91,67.73-8.36,77.57a43,43,0,0,1-6.73,18l-58.18,90.22c-10.2,17.71-9.81,5-9.81,5l.1-57.24C145.47,223.1,157.63,203.34,157.63,203.34Z"/><path class="cls-8" d="M189.08,151.59c14.7-24.07,30-49,34.78-56.12,9.76-14.59,5.51,8.8,5.51,8.8l-.35,2.6s-2.75,27-5.14,49.33l1-.1,6.53-57.61h0s0-.07,0-.17l.56-5c.23-6.75-1.39-18.62-13.8-26.4,3.71,2.56,9.88,8.55,4.88,18l-39.42,64A53.31,53.31,0,0,0,189.08,151.59Z"/><path class="cls-9" d="M145.94,297.71s-.39,12.69,9.81-5l58.18-90.22a43,43,0,0,0,6.73-18c1.45-9.84,8.36-77.57,8.36-77.57l.35-2.6s4.25-23.39-5.51-8.8c-10,15-66.23,107.87-66.23,107.87S145.47,223.1,146,240.47Z"/><path class="cls-10" d="M230.52,93.27,227,137.41l4.41-38.92h0s0-.07,0-.17l.56-5c.23-6.94-1.48-19.29-14.86-27L138.44,21c2.67,1.57,66.84,39.33,79.19,48C231.75,78.78,230.52,93.27,230.52,93.27Z"/><path class="cls-11" d="M110.4,199.62c9.2,4.95,33.56,16,2.64-1.19L44.35,158.9S60,172.51,110.4,199.62Z"/><path class="cls-12" d="M100.92,284.45c-7.79-7.14-11-16.24-7.08-20.33s13.33-1.62,21.12,5.52,11,16.23,7.08,20.32S108.7,291.58,100.92,284.45Z"/><path class="cls-13" d="M101.51,284.23c-7.36-6.74-10.4-15.3-6.78-19.11s12.51-1.43,19.88,5.31,10.4,15.31,6.78,19.12S108.88,291,101.51,284.23Z"/><path class="cls-12" d="M97.92,255.7c-7.79-7.14-11-16.24-7.08-20.33s13.33-1.62,21.12,5.52,11,16.23,7.08,20.32S105.7,262.83,97.92,255.7Z"/><path class="cls-14" d="M98.51,255.48c-7.36-6.74-10.4-15.3-6.78-19.11s12.51-1.43,19.88,5.31S122,257,118.39,260.8,105.88,262.23,98.51,255.48Z"/><path class="cls-12" d="M96.67,226.7c-7.79-7.14-11-16.24-7.08-20.33s13.33-1.62,21.12,5.52,11,16.23,7.08,20.32S104.45,233.83,96.67,226.7Z"/><path class="cls-15" d="M97.26,226.48c-7.36-6.74-10.4-15.3-6.78-19.11s12.51-1.43,19.88,5.31,10.4,15.31,6.78,19.12S104.63,233.23,97.26,226.48Z"/><path class="cls-12" d="M36.42,249.45c-7.79-7.14-11-16.24-7.08-20.33s13.33-1.62,21.12,5.52,11,16.23,7.08,20.32S44.2,256.58,36.42,249.45Z"/><path class="cls-16" d="M37,249.23c-7.36-6.74-10.4-15.3-6.78-19.11s12.51-1.43,19.88,5.31,10.4,15.31,6.78,19.12S44.38,256,37,249.23Z"/><path class="cls-12" d="M31.67,220.45c-7.79-7.14-11-16.24-7.08-20.33s13.33-1.62,21.12,5.52,11,16.23,7.08,20.32S39.45,227.58,31.67,220.45Z"/><path class="cls-17" d="M32.26,220.23c-7.36-6.74-10.4-15.3-6.78-19.11s12.51-1.43,19.88,5.31,10.4,15.31,6.78,19.12S39.63,227,32.26,220.23Z"/><path class="cls-12" d="M28.42,190.45c-7.79-7.14-11-16.24-7.08-20.33s13.33-1.62,21.12,5.52,11,16.23,7.08,20.32S36.2,197.58,28.42,190.45Z"/><path class="cls-18" d="M29,190.23c-7.36-6.74-10.4-15.3-6.78-19.11s12.51-1.43,19.88,5.31,10.4,15.31,6.78,19.12S36.38,197,29,190.23Z"/><path class="cls-12" d="M168.71,250.36c-2.41-1.36-.1-10.05,5.16-19.43s11.48-15.88,13.89-14.53.09,10.06-5.17,19.43S171.11,251.71,168.71,250.36Z"/><path class="cls-12" d="M168.71,250.36c-2.41-1.36-.1-10.05,5.16-19.43s11.48-15.88,13.89-14.53.09,10.06-5.17,19.43S171.11,251.71,168.71,250.36Z"/><path class="cls-19" d="M169,250.06c-2.12-1.2.34-9.64,5.52-18.86s11.08-15.71,13.21-14.51-.34,9.64-5.51,18.86S171.14,251.26,169,250.06Z"/><path class="cls-12" d="M197.62,167.63c-2.41-1.36-.07-10.06,5.22-19.42s11.52-15.84,13.92-14.48.06,10.05-5.22,19.41S200,169,197.62,167.63Z"/><path class="cls-12" d="M197.62,167.63c-2.41-1.36-.07-10.06,5.22-19.42s11.52-15.84,13.92-14.48.06,10.05-5.22,19.41S200,169,197.62,167.63Z"/><path class="cls-20" d="M197.93,167.33c-2.13-1.2.36-9.64,5.56-18.84s11.13-15.68,13.25-14.48-.36,9.64-5.56,18.84S200.05,168.54,197.93,167.33Z"/><g class="cls-21"><path class="cls-22" d="M152.14,94.68c-47.31,11.12-94.67,22.25-141.44,35.5,1,11.31,13.62,17.09,13.62,17.09l93.57,53.94c26,15,42.08-13.94,42.08-13.94L223,84.89a14.06,14.06,0,0,0,1.85-7.44C200.67,83.31,176.4,89,152.14,94.68Z"/></g><path class="cls-23" d="M146.49,232s-2.53-16.19,24.43-49.87C170.92,182.13,137.59,211.88,146.49,232Z"/><path class="cls-24" d="M136.66,229.12s-5.08-15.58-44.37-33.39C92.29,195.73,135.48,207.16,136.66,229.12Z"/><path class="cls-25" d="M1.85,146.48,5.63,190.6,1,151.7H1l0-.17-.59-5c-.27-6.93,1.2-16.7,13.28-33.35L51,55.1c-2.66,1.59-29.53,49.35-39.83,64.48C1.51,133.82,1.85,146.48,1.85,146.48Z"/><path class="cls-26" d="M139.27,240.25l-.75,51.88S137.72,271.51,139.27,240.25Z"/><path class="cls-12" d="M94.26,67.65c-8.38-6.47-9.68-18.73-2.91-27.37s19.06-10.41,27.45-3.94,9.69,18.72,2.91,27.37S102.65,74.12,94.26,67.65Z"/><path class="cls-27" d="M94.8,67.12c-8.07-6.23-9.32-18-2.8-26.34s18.34-10,26.41-3.79,9.33,18,2.81,26.34S102.87,73.35,94.8,67.12Z"/><path class="cls-12" d="M117.94,167.21c-8.38-6.47-9.69-18.73-2.91-27.38s19.06-10.4,27.44-3.93,9.69,18.72,2.92,27.37S126.33,173.68,117.94,167.21Z"/><path class="cls-28" d="M118.48,166.68c-8.07-6.23-9.33-18-2.81-26.35s18.35-10,26.42-3.79,9.32,18,2.8,26.35S126.55,172.9,118.48,166.68Z"/><path class="cls-12" d="M49.27,130.71c-8.38-6.47-9.68-18.73-2.91-27.38s19.06-10.4,27.45-3.93,9.69,18.72,2.91,27.37S57.66,137.18,49.27,130.71Z"/><path class="cls-29" d="M49.81,130.18c-8.07-6.23-9.32-18-2.8-26.35s18.34-10,26.41-3.79,9.33,18,2.8,26.35S57.88,136.4,49.81,130.18Z"/><path class="cls-12" d="M163.77,103.71c-8.38-6.47-9.68-18.73-2.91-27.38s19.06-10.4,27.45-3.93,9.69,18.72,2.91,27.37S172.16,110.18,163.77,103.71Z"/><path class="cls-30" d="M164.31,103.18c-8.07-6.23-9.32-18-2.8-26.35s18.34-10,26.41-3.79,9.33,18,2.8,26.35S172.38,109.4,164.31,103.18Z"/></g></g></g></svg>