<svg xmlns="http://www.w3.org/2000/svg" xmlns:xlink="http://www.w3.org/1999/xlink" viewBox="0 0 231.98 309.91"><defs><style>.cls-1{mask:url(#mask);}.cls-11,.cls-14,.cls-2,.cls-21,.cls-22,.cls-5,.cls-6{mix-blend-mode:multiply;}.cls-2{fill:url(#radial-gradient);}.cls-3{isolation:isolate;}.cls-4{fill:#ec1e2a;}.cls-5{fill:url(#radial-gradient-2);}.cls-6{fill:url(#radial-gradient-3);}.cls-7{mask:url(#mask-2);}.cls-8{mix-blend-mode:screen;fill:url(#radial-gradient-4);}.cls-16,.cls-17,.cls-18,.cls-8{opacity:0.9;}.cls-9{fill:url(#radial-gradient-5);}.cls-10{fill:url(#radial-gradient-6);}.cls-11{fill:url(#radial-gradient-7);}.cls-12{fill:#fff;}.cls-13{fill:url(#radial-gradient-8);}.cls-14{fill:url(#linear-gradient);}.cls-15{opacity:0.75;fill:url(#radial-gradient-9);}.cls-16{fill:url(#linear-gradient-2);}.cls-17{fill:url(#linear-gradient-3);}.cls-18{fill:url(#linear-gradient-4);}.cls-19{fill:url(#radial-gradient-10);}.cls-20{fill:url(#radial-gradient-11);}.cls-21{fill:url(#linear-gradient-5);}.cls-22{fill:url(#linear-gradient-6);}.cls-23{fill:url(#radial-gradient-12);}.cls-24{fill:url(#radial-gradient-13);}.cls-25{filter:url(#luminosity-noclip);}</style><filter id="luminosity-noclip" x="10.7" y="-8538.39" width="214.21" height="32766" filterUnits="userSpaceOnUse" color-interpolation-filters="sRGB"><feFlood flood-color="#fff" result="bg"/><feBlend in="SourceGraphic" in2="bg"/></filter><mask id="mask" x="10.7" y="-8538.39" width="214.21" height="32766" maskUnits="userSpaceOnUse"><g class="cls-25"/></mask><radialGradient id="radial-gradient" cx="130.94" cy="238.09" r="341.69" gradientTransform="translate(-0.66 -3.49) rotate(-0.14)" gradientUnits="userSpaceOnUse"><stop offset="0" stop-color="#fff"/><stop offset="0.55"/></radialGradient><radialGradient id="radial-gradient-2" cx="158.95" cy="118.1" r="267.39" gradientTransform="translate(-0.66 -3.49) rotate(-0.14)" gradientUnits="userSpaceOnUse"><stop offset="0" stop-color="#ef5660"/><stop offset="0.1" stop-color="#ee4853"/><stop offset="0.37" stop-color="#ed2a35"/><stop offset="0.51" stop-color="#ec1e2a"/><stop offset="0.55" stop-color="#e51d28"/><stop offset="0.61" stop-color="#d01a24"/><stop offset="0.68" stop-color="#ae151e"/><stop offset="0.76" stop-color="#7f0e14"/><stop offset="0.85" stop-color="#440608"/><stop offset="0.9" stop-color="#1c0000"/></radialGradient><radialGradient id="radial-gradient-3" cx="124.94" cy="244.09" r="360.22" xlink:href="#radial-gradient-2"/><mask id="mask-2" x="10.7" y="77.45" width="214.21" height="128.06" maskUnits="userSpaceOnUse"><g class="cls-1"><path class="cls-2" d="M152.14,94.68c-47.31,11.11-94.67,22.25-141.44,35.5,1,11.31,13.62,17.09,13.62,17.09l93.57,53.94c26,15,42.08-13.94,42.08-13.94L223,84.89a14.06,14.06,0,0,0,1.85-7.44C200.67,83.31,176.4,89,152.14,94.68Z"/></g></mask><radialGradient id="radial-gradient-4" cx="130.94" cy="238.09" r="341.69" gradientTransform="translate(-0.66 -3.49) rotate(-0.14)" gradientUnits="userSpaceOnUse"><stop offset="0" stop-color="#fff"/><stop offset="0.55" stop-color="#e52521"/></radialGradient><radialGradient id="radial-gradient-5" cx="155.22" cy="98.44" fx="54.29392602727266" fy="176.24181044132513" r="260.79" gradientTransform="translate(-0.66 -3.49) rotate(-0.14)" gradientUnits="userSpaceOnUse"><stop offset="0" stop-color="#fff"/><stop offset="0.31" stop-color="#ec1e2a"/><stop offset="0.45" stop-color="#ea1e2a"/><stop offset="0.53" stop-color="#e21e28"/><stop offset="0.58" stop-color="#d51e26"/><stop offset="0.63" stop-color="#c21e22"/><stop offset="0.68" stop-color="#aa1e1e"/><stop offset="0.68" stop-color="#a51e1d"/><stop offset="0.8" stop-color="#a01d1c"/><stop offset="0.93" stop-color="#921a1b"/><stop offset="0.99" stop-color="#89181a"/></radialGradient><radialGradient id="radial-gradient-6" cx="-166.11" cy="-152.32" fx="-192.02515002334442" r="82.85" gradientTransform="translate(0.98 165.74) rotate(119.97)" gradientUnits="userSpaceOnUse"><stop offset="0" stop-color="#fbd2c7"/><stop offset="0.29" stop-color="#ee434b"/><stop offset="0.41" stop-color="#ee3b44"/><stop offset="0.59" stop-color="#ec2631"/><stop offset="0.64" stop-color="#ec1e2a"/></radialGradient><radialGradient id="radial-gradient-7" cx="65.88" cy="135.44" r="260.66" xlink:href="#radial-gradient-2"/><radialGradient id="radial-gradient-8" cx="99.63" cy="-250.71" fx="115.13281354271861" fy="-242.36624682439245" r="17.65" gradientTransform="matrix(-0.39, 0.94, -0.95, -0.41, -136.13, 41.26)" gradientUnits="userSpaceOnUse"><stop offset="0.04" stop-color="#b9b9ba"/><stop offset="0.24" stop-color="#c4c4c5"/><stop offset="0.58" stop-color="#e0e0e1"/><stop offset="0.89" stop-color="#fff"/></radialGradient><linearGradient id="linear-gradient" x1="225.43" y1="51.06" x2="206.1" y2="65.73" gradientTransform="translate(-0.66 -3.49) rotate(-0.14)" gradientUnits="userSpaceOnUse"><stop offset="0" stop-color="#ef5660"/><stop offset="0.1" stop-color="#ee4853"/><stop offset="0.37" stop-color="#ed2a35"/><stop offset="0.51" stop-color="#ec1e2a"/><stop offset="0.6" stop-color="#e51e29"/><stop offset="0.73" stop-color="#d01e27"/><stop offset="0.88" stop-color="#ae1e23"/><stop offset="0.9" stop-color="#aa1e23"/></linearGradient><radialGradient id="radial-gradient-9" cx="-40.61" cy="-90.49" r="62.84" gradientTransform="translate(0.98 165.74) rotate(119.97)" gradientUnits="userSpaceOnUse"><stop offset="0.29" stop-color="#ee434b"/><stop offset="0.41" stop-color="#ee3b44"/><stop offset="0.59" stop-color="#ec2631"/><stop offset="0.64" stop-color="#ec1e2a"/></radialGradient><linearGradient id="linear-gradient-2" x1="-84.26" y1="905.36" x2="-82.19" y2="919.17" gradientTransform="matrix(-0.49, 0.87, -0.8, -0.45, 896.4, 680)" gradientUnits="userSpaceOnUse"><stop offset="0.04" stop-color="#b9b9ba"/><stop offset="0.28" stop-color="#dadadb"/><stop offset="0.52" stop-color="#f5f5f5"/><stop offset="0.66" stop-color="#fff"/></linearGradient><linearGradient id="linear-gradient-3" x1="-6.72" y1="909.31" x2="-4.65" y2="923.13" gradientTransform="matrix(-0.49, 0.87, -0.8, -0.45, 896.4, 680)" gradientUnits="userSpaceOnUse"><stop offset="0.04" stop-color="#b9b9ba"/><stop offset="0.16" stop-color="#cdcdce"/><stop offset="0.36" stop-color="#e9e9e9"/><stop offset="0.53" stop-color="#f9f9f9"/><stop offset="0.66" stop-color="#fff"/></linearGradient><linearGradient id="linear-gradient-4" x1="-136.68" y1="929.78" x2="-134.61" y2="943.6" xlink:href="#linear-gradient-2"/><radialGradient id="radial-gradient-10" cx="40.51" cy="-182.79" r="50.15" gradientTransform="matrix(-0.49, 0.73, -0.9, -0.39, 21.83, 110.36)" gradientUnits="userSpaceOnUse"><stop offset="0.01" stop-color="#fff"/><stop offset="0.05" stop-color="#fce2e4"/><stop offset="0.13" stop-color="#f8b0b5"/><stop offset="0.21" stop-color="#f48990"/><stop offset="0.28" stop-color="#f16d76"/><stop offset="0.34" stop-color="#f05c66"/><stop offset="0.38" stop-color="#ef5660"/><stop offset="0.41" stop-color="#ee4c57"/><stop offset="0.53" stop-color="#ed2b36"/><stop offset="0.6" stop-color="#ec1e2a"/></radialGradient><radialGradient id="radial-gradient-11" cx="2195.49" cy="1983.86" r="50.15" gradientTransform="matrix(0.77, 0.43, 0.63, -0.76, -2830.32, 774.91)" xlink:href="#radial-gradient-10"/><linearGradient id="linear-gradient-5" x1="-16.34" y1="114.4" x2="13.66" y2="122.4" xlink:href="#linear-gradient"/><linearGradient id="linear-gradient-6" x1="122.05" y1="265.54" x2="135.91" y2="269.23" xlink:href="#linear-gradient"/><radialGradient id="radial-gradient-12" cx="370.58" cy="248.85" fx="345.1301566431702" fy="280.2806332518809" r="40.44" gradientTransform="matrix(-0.5, 0.87, -0.87, -0.5, 498.19, -167.12)" xlink:href="#radial-gradient-8"/><radialGradient id="radial-gradient-13" cx="444.91" cy="178.52" fx="419.46116396072256" fy="209.94929098182956" r="40.45" gradientTransform="matrix(-0.5, 0.87, -0.87, -0.5, 498.19, -167.12)" xlink:href="#radial-gradient-8"/></defs><g class="cls-3"><g id="Calque_2" data-name="Calque 2"><g id="Layer_1" data-name="Layer 1"><path class="cls-4" d="M9.14,227l.47,4.1a26,26,0,0,0,11.7,16.63l1.2.69,0,0,4.33,2.5h0l93.56,53.94h0l0,0,4.22,2.44c14.34,7,23.85-2.22,26.88-5.86l64-99.45a52.87,52.87,0,0,0,6-18l.1,0,9.7-85.56h0s0-.07,0-.17l.56-5c.23-6.94-1.47-19.29-14.86-27L104.56,1.41c-5.48-2-17.94-4.25-26.81,11.14a6.94,6.94,0,0,1-.87,1.18l-70.53,110c-2.91,5.68-6.68,15-6.33,24.38l.54,4.68c0,.16.06.33.09.49s0,0,0,0L9.1,226.69h0C9.12,226.81,9.13,226.92,9.14,227Z"/><path class="cls-5" d="M120.43,304.91l0,0s14.55,6.7,17.95-8.19l1.1-55s1.47-16.57-21.87-31.15l-95.38-57.8s-17.32-10-18,9.27l7.51,70S13.47,242.82,25.1,250l1.77,1L27,251l93.47,53.89Z"/><path class="cls-6" d="M83.16,8.17,15.63,115.29c-15,21.1,8.69,32,8.69,32l93.57,53.94c26,15,42.08-13.94,42.08-13.94L223,84.89c5-9.41-1.17-15.39-4.88-18l-1.06-.64L104.56,1.41A24.74,24.74,0,0,0,99.43.17,19,19,0,0,0,83.16,8.17Z"/><g class="cls-7"><path class="cls-8" d="M152.14,94.68c-47.31,11.11-94.67,22.25-141.44,35.5,1,11.31,13.62,17.09,13.62,17.09l93.57,53.94c26,15,42.08-13.94,42.08-13.94L223,84.89a14.06,14.06,0,0,0,1.85-7.44C200.67,83.31,176.4,89,152.14,94.68Z"/></g><path class="cls-9" d="M11.75,232.14l-7.51-70c.71-19.25,18-9.27,18-9.27l95.38,57.8c23.34,14.58,21.87,31.15,21.87,31.15l-1.1,55c-3.4,14.89-17.95,8.19-17.95,8.19l4.22,2.44c14.34,7,23.85-2.22,26.88-5.86l64-99.45a52.87,52.87,0,0,0,6-18l.1,0,9.7-85.56h0s0-.07,0-.17l.56-5c.23-6.75-1.39-18.62-13.8-26.4,3.71,2.56,9.88,8.54,4.88,18L160,187.27s-16.09,28.92-42.08,13.94L24.32,147.27s-23.74-10.88-8.69-32L83.16,8.17a19,19,0,0,1,16.27-8c-6.24-.78-15,.76-21.68,12.38a6.94,6.94,0,0,1-.87,1.18l-70.53,110c-2.91,5.68-6.68,15-6.33,24.38l.54,4.68c0,.16.06.33.09.49s0,0,0,0L9.1,226.69h0c0,.12,0,.23,0,.34l.47,4.1a26,26,0,0,0,11.7,16.63l1.2.69,0,0L25.1,250C13.47,242.82,11.75,232.14,11.75,232.14Zm145.88-28.8s56.22-92.89,66.23-107.87c9.76-14.59,5.51,8.8,5.51,8.8l-.35,2.6s-6.91,67.73-8.36,77.57a43,43,0,0,1-6.73,18l-58.18,90.22c-10.21,17.71-9.81,5-9.81,5l.1-57.24C145.47,223.1,157.63,203.34,157.63,203.34Z"/><path class="cls-10" d="M189.08,151.59c14.7-24.07,30-49,34.78-56.12,9.76-14.59,5.51,8.8,5.51,8.8l-.35,2.6s-2.75,27-5.14,49.33l1-.1,6.53-57.61h0s0-.07,0-.17l.56-5c.23-6.75-1.39-18.62-13.8-26.4,3.71,2.56,9.88,8.54,4.88,18l-39.41,64A50.33,50.33,0,0,0,189.08,151.59Z"/><path class="cls-11" d="M145.94,297.71s-.4,12.69,9.81-5l58.18-90.22a43,43,0,0,0,6.73-18c1.45-9.84,8.36-77.57,8.36-77.57l.35-2.6s4.25-23.39-5.51-8.8c-10,15-66.23,107.87-66.23,107.87S145.47,223.1,146,240.47Z"/><path class="cls-12" d="M63.37,236.35c-7.79-7.13-11-16.23-7.08-20.32s13.34-1.62,21.12,5.51,11,16.23,7.08,20.32S71.16,243.48,63.37,236.35Z"/><path class="cls-13" d="M64.29,235.79c-7.12-6.53-10.06-14.81-6.56-18.49s12.1-1.39,19.23,5.13,10.06,14.81,6.56,18.5S71.42,242.32,64.29,235.79Z"/><path class="cls-14" d="M230.52,93.27,227,137.41l4.41-38.92h0s0-.07,0-.17l.56-5c.23-6.94-1.47-19.29-14.86-27L138.44,21c2.67,1.57,66.84,39.33,79.19,48C231.75,78.78,230.52,93.27,230.52,93.27Z"/><path class="cls-15" d="M110.4,199.62c9.2,4.95,33.56,16,2.64-1.19L44.35,158.9S60,172.51,110.4,199.62Z"/><path class="cls-12" d="M195.69,214.11c-2.44-1.29-.38-10.05,4.61-19.57s11-16.2,13.46-14.92.38,10-4.61,19.57S198.14,215.39,195.69,214.11Z"/><path class="cls-12" d="M195.69,214.11c-2.44-1.29-.38-10.05,4.61-19.57s11-16.2,13.46-14.92.38,10-4.61,19.57S198.14,215.39,195.69,214.11Z"/><path class="cls-16" d="M196,213.8c-2.16-1.13.06-9.64,5-19s10.63-16,12.8-14.89-.07,9.65-5,19S198.15,214.94,196,213.8Z"/><path class="cls-12" d="M154.88,280.12c-2.45-1.29-.38-10.05,4.61-19.57s11-16.2,13.46-14.92.38,10.05-4.61,19.57S157.32,281.4,154.88,280.12Z"/><path class="cls-12" d="M154.88,280.12c-2.45-1.29-.38-10.05,4.61-19.57s11-16.2,13.46-14.92.38,10.05-4.61,19.57S157.32,281.4,154.88,280.12Z"/><path class="cls-17" d="M155.18,279.81c-2.16-1.13.06-9.64,5-19s10.63-16,12.79-14.89-.06,9.64-5,19S157.34,281,155.18,279.81Z"/><path class="cls-12" d="M201.58,157.31c-2.44-1.29-.38-10.05,4.61-19.57s11-16.2,13.46-14.91.38,10-4.61,19.56S204,158.59,201.58,157.31Z"/><path class="cls-12" d="M201.58,157.31c-2.44-1.29-.38-10.05,4.61-19.57s11-16.2,13.46-14.91.38,10-4.61,19.56S204,158.59,201.58,157.31Z"/><path class="cls-18" d="M201.88,157c-2.16-1.13.06-9.64,5-19s10.64-16,12.8-14.89-.07,9.65-5,19S204,158.14,201.88,157Z"/><path class="cls-12" d="M156.9,230.06c-2.45-1.29-.38-10.05,4.61-19.57s11-16.2,13.46-14.92.38,10.05-4.61,19.57S159.34,231.34,156.9,230.06Z"/><path class="cls-12" d="M156.9,230.06c-2.45-1.29-.38-10.05,4.61-19.57s11-16.2,13.46-14.92.38,10.05-4.61,19.57S159.34,231.34,156.9,230.06Z"/><path class="cls-19" d="M146.49,232s-2.53-16.19,24.43-49.87C170.92,182.13,137.59,211.88,146.49,232Z"/><path class="cls-20" d="M136.66,229.12s-5.07-15.58-44.37-33.39C92.29,195.73,135.48,207.16,136.66,229.12Z"/><path class="cls-21" d="M1.86,146.48,5.63,190.6,1,151.7H1s0-.07,0-.17l-.59-5c-.27-6.93,1.2-16.7,13.28-33.35L51,55.1c-2.66,1.59-29.53,49.35-39.83,64.48C1.51,133.82,1.86,146.48,1.86,146.48Z"/><path class="cls-22" d="M139.27,240.25l-.75,51.88S137.72,271.51,139.27,240.25Z"/><path class="cls-12" d="M94.26,65.15c-8.38-6.47-9.68-18.73-2.91-27.37s19.06-10.41,27.45-3.94,9.69,18.72,2.91,27.37S102.65,71.62,94.26,65.15Z"/><path class="cls-23" d="M94.8,64.62c-8.07-6.23-9.32-18-2.8-26.34s18.34-10,26.41-3.79,9.33,18,2.81,26.34S102.87,70.85,94.8,64.62Z"/><path class="cls-12" d="M117.94,164.71c-8.38-6.48-9.69-18.73-2.91-27.37s19.06-10.41,27.44-3.94,9.69,18.72,2.92,27.37S126.33,171.18,117.94,164.71Z"/><path class="cls-24" d="M118.48,164.18c-8.07-6.23-9.33-18-2.81-26.35s18.35-10,26.42-3.79,9.32,18,2.8,26.35S126.55,170.4,118.48,164.18Z"/></g></g></g></svg>