<svg xmlns="http://www.w3.org/2000/svg" xmlns:xlink="http://www.w3.org/1999/xlink" viewBox="0 0 231.98 309.91"><defs><style>.cls-1{mask:url(#mask);}.cls-11,.cls-15,.cls-2,.cls-26,.cls-27,.cls-5,.cls-6{mix-blend-mode:multiply;}.cls-2{fill:url(#radial-gradient);}.cls-3{isolation:isolate;}.cls-4{fill:#ec1e2a;}.cls-5{fill:url(#radial-gradient-2);}.cls-6{fill:url(#radial-gradient-3);}.cls-7{mask:url(#mask-2);}.cls-8{mix-blend-mode:screen;fill:url(#radial-gradient-4);}.cls-17,.cls-18,.cls-19,.cls-20,.cls-21,.cls-22,.cls-8{opacity:0.9;}.cls-9{fill:url(#radial-gradient-5);}.cls-10{fill:url(#radial-gradient-6);}.cls-11{fill:url(#radial-gradient-7);}.cls-12{fill:#fff;}.cls-13{fill:url(#radial-gradient-8);}.cls-14{fill:url(#radial-gradient-9);}.cls-15{fill:url(#linear-gradient);}.cls-16{opacity:0.75;fill:url(#radial-gradient-10);}.cls-17{fill:url(#linear-gradient-2);}.cls-18{fill:url(#linear-gradient-3);}.cls-19{fill:url(#linear-gradient-4);}.cls-20{fill:url(#linear-gradient-5);}.cls-21{fill:url(#linear-gradient-6);}.cls-22{fill:url(#linear-gradient-7);}.cls-23{fill:url(#radial-gradient-11);}.cls-24{fill:url(#radial-gradient-12);}.cls-25{fill:url(#radial-gradient-13);}.cls-26{fill:url(#linear-gradient-8);}.cls-27{fill:url(#linear-gradient-9);}.cls-28{fill:url(#radial-gradient-14);}.cls-29{fill:url(#radial-gradient-15);}.cls-30{filter:url(#luminosity-noclip);}</style><filter id="luminosity-noclip" x="10.7" y="-8538.39" width="214.21" height="32766" filterUnits="userSpaceOnUse" color-interpolation-filters="sRGB"><feFlood flood-color="#fff" result="bg"/><feBlend in="SourceGraphic" in2="bg"/></filter><mask id="mask" x="10.7" y="-8538.39" width="214.21" height="32766" maskUnits="userSpaceOnUse"><g class="cls-30"/></mask><radialGradient id="radial-gradient" cx="130.94" cy="238.78" r="341.69" gradientTransform="translate(-0.66 -4.18) rotate(-0.14)" gradientUnits="userSpaceOnUse"><stop offset="0" stop-color="#fff"/><stop offset="0.55"/></radialGradient><radialGradient id="radial-gradient-2" cx="158.94" cy="118.79" r="267.39" gradientTransform="translate(-0.66 -4.18) rotate(-0.14)" gradientUnits="userSpaceOnUse"><stop offset="0" stop-color="#ef5660"/><stop offset="0.1" stop-color="#ee4853"/><stop offset="0.37" stop-color="#ed2a35"/><stop offset="0.51" stop-color="#ec1e2a"/><stop offset="0.55" stop-color="#e51d28"/><stop offset="0.61" stop-color="#d01a24"/><stop offset="0.68" stop-color="#ae151e"/><stop offset="0.76" stop-color="#7f0e14"/><stop offset="0.85" stop-color="#440608"/><stop offset="0.9" stop-color="#1c0000"/></radialGradient><radialGradient id="radial-gradient-3" cx="124.94" cy="244.78" r="360.22" xlink:href="#radial-gradient-2"/><mask id="mask-2" x="10.7" y="77.45" width="214.21" height="128.06" maskUnits="userSpaceOnUse"><g class="cls-1"><path class="cls-2" d="M152.14,94.68c-47.31,11.11-94.67,22.25-141.44,35.5,1,11.31,13.62,17.09,13.62,17.09l93.57,53.94c26,15,42.08-13.94,42.08-13.94L223,84.89a14.06,14.06,0,0,0,1.85-7.44C200.67,83.31,176.4,89,152.14,94.68Z"/></g></mask><radialGradient id="radial-gradient-4" cx="130.94" cy="238.78" r="341.69" gradientTransform="translate(-0.66 -4.18) rotate(-0.14)" gradientUnits="userSpaceOnUse"><stop offset="0" stop-color="#fff"/><stop offset="0.55" stop-color="#e52521"/></radialGradient><radialGradient id="radial-gradient-5" cx="155.22" cy="99.13" fx="54.292198851381414" fy="176.93201100902442" r="260.79" gradientTransform="translate(-0.66 -4.18) rotate(-0.14)" gradientUnits="userSpaceOnUse"><stop offset="0" stop-color="#fff"/><stop offset="0.31" stop-color="#ec1e2a"/><stop offset="0.45" stop-color="#ea1e2a"/><stop offset="0.53" stop-color="#e21e28"/><stop offset="0.58" stop-color="#d51e26"/><stop offset="0.63" stop-color="#c21e22"/><stop offset="0.68" stop-color="#aa1e1e"/><stop offset="0.68" stop-color="#a51e1d"/><stop offset="0.8" stop-color="#a01d1c"/><stop offset="0.93" stop-color="#921a1b"/><stop offset="0.99" stop-color="#89181a"/></radialGradient><radialGradient id="radial-gradient-6" cx="-580.1" cy="-391.49" fx="-606.0148920208125" r="82.85" gradientTransform="translate(-413 404.91) rotate(119.97)" gradientUnits="userSpaceOnUse"><stop offset="0" stop-color="#fbd2c7"/><stop offset="0.29" stop-color="#ee434b"/><stop offset="0.41" stop-color="#ee3b44"/><stop offset="0.59" stop-color="#ec2631"/><stop offset="0.64" stop-color="#ec1e2a"/></radialGradient><radialGradient id="radial-gradient-7" cx="65.87" cy="136.13" r="260.66" xlink:href="#radial-gradient-2"/><radialGradient id="radial-gradient-8" cx="-309.76" cy="-448.04" fx="-293.7305768821763" fy="-439.4105257432982" r="18.24" gradientTransform="matrix(-0.39, 0.94, -0.95, -0.41, -520.46, 300.99)" gradientUnits="userSpaceOnUse"><stop offset="0.04" stop-color="#b9b9ba"/><stop offset="0.24" stop-color="#c4c4c5"/><stop offset="0.58" stop-color="#e0e0e1"/><stop offset="0.89" stop-color="#fff"/></radialGradient><radialGradient id="radial-gradient-9" cx="-255.18" cy="-547.63" fx="-239.14878710520816" fy="-539.0021308880254" r="18.24" xlink:href="#radial-gradient-8"/><linearGradient id="linear-gradient" x1="225.43" y1="51.76" x2="206.09" y2="66.42" gradientTransform="translate(-0.66 -4.18) rotate(-0.14)" gradientUnits="userSpaceOnUse"><stop offset="0" stop-color="#ef5660"/><stop offset="0.1" stop-color="#ee4853"/><stop offset="0.37" stop-color="#ed2a35"/><stop offset="0.51" stop-color="#ec1e2a"/><stop offset="0.6" stop-color="#e51e29"/><stop offset="0.73" stop-color="#d01e27"/><stop offset="0.88" stop-color="#ae1e23"/><stop offset="0.9" stop-color="#aa1e23"/></linearGradient><radialGradient id="radial-gradient-10" cx="-454.6" cy="-329.67" r="62.84" gradientTransform="translate(-413 404.91) rotate(119.97)" gradientUnits="userSpaceOnUse"><stop offset="0.29" stop-color="#ee434b"/><stop offset="0.41" stop-color="#ee3b44"/><stop offset="0.59" stop-color="#ec2631"/><stop offset="0.64" stop-color="#ec1e2a"/></radialGradient><linearGradient id="linear-gradient-2" x1="43.49" y1="-197.93" x2="45.56" y2="-184.11" gradientTransform="matrix(-0.49, 0.87, -0.8, -0.45, 42.14, 77.77)" gradientUnits="userSpaceOnUse"><stop offset="0.04" stop-color="#b9b9ba"/><stop offset="0.28" stop-color="#dadadb"/><stop offset="0.52" stop-color="#f5f5f5"/><stop offset="0.66" stop-color="#fff"/></linearGradient><linearGradient id="linear-gradient-3" x1="82.6" y1="-196.71" x2="84.67" y2="-182.89" gradientTransform="matrix(-0.51, 0.86, -0.79, -0.47, 63.38, 93.58)" gradientUnits="userSpaceOnUse"><stop offset="0.04" stop-color="#b9b9ba"/><stop offset="0.16" stop-color="#cdcdce"/><stop offset="0.36" stop-color="#e9e9e9"/><stop offset="0.53" stop-color="#f9f9f9"/><stop offset="0.66" stop-color="#fff"/></linearGradient><linearGradient id="linear-gradient-4" x1="61" y1="-183.39" x2="63.07" y2="-169.58" xlink:href="#linear-gradient-3"/><linearGradient id="linear-gradient-5" x1="14.19" y1="-199.26" x2="16.18" y2="-185.98" gradientTransform="matrix(-0.51, 0.86, -0.79, -0.47, 61.39, 95.9)" xlink:href="#linear-gradient-2"/><linearGradient id="linear-gradient-6" x1="-12.67" y1="-184.92" x2="-10.68" y2="-171.64" gradientTransform="matrix(-0.51, 0.86, -0.79, -0.47, 61.39, 95.9)" xlink:href="#linear-gradient-2"/><linearGradient id="linear-gradient-7" x1="-42.88" y1="-171.96" x2="-40.81" y2="-158.15" gradientTransform="matrix(-0.51, 0.86, -0.79, -0.47, 61.39, 95.9)" xlink:href="#linear-gradient-2"/><radialGradient id="radial-gradient-11" cx="-540.67" cy="-291" fx="-566.1230960555258" fy="-259.5659238030489" r="40.45" gradientTransform="translate(-413 404.91) rotate(119.97)" xlink:href="#radial-gradient-8"/><radialGradient id="radial-gradient-12" cx="-361.49" cy="-419.81" r="50.15" gradientTransform="matrix(-0.49, 0.73, -0.9, -0.39, -389.89, 312.73)" gradientUnits="userSpaceOnUse"><stop offset="0.01" stop-color="#fff"/><stop offset="0.05" stop-color="#fce2e4"/><stop offset="0.13" stop-color="#f8b0b5"/><stop offset="0.21" stop-color="#f48990"/><stop offset="0.28" stop-color="#f16d76"/><stop offset="0.34" stop-color="#f05c66"/><stop offset="0.38" stop-color="#ef5660"/><stop offset="0.41" stop-color="#ee4c57"/><stop offset="0.53" stop-color="#ed2b36"/><stop offset="0.6" stop-color="#ec1e2a"/></radialGradient><radialGradient id="radial-gradient-13" cx="2164.07" cy="2123.19" r="50.15" gradientTransform="matrix(0.77, 0.43, 0.63, -0.76, -2893.82, 893.87)" xlink:href="#radial-gradient-12"/><linearGradient id="linear-gradient-8" x1="-16.34" y1="115.1" x2="13.66" y2="123.09" xlink:href="#linear-gradient"/><linearGradient id="linear-gradient-9" x1="122.05" y1="266.23" x2="135.91" y2="269.92" xlink:href="#linear-gradient"/><radialGradient id="radial-gradient-14" cx="-41.54" cy="8.6" fx="-66.9909032135242" fy="40.033279036797786" r="40.45" gradientTransform="matrix(-0.5, 0.87, -0.87, -0.5, 83.9, 71.89)" xlink:href="#radial-gradient-8"/><radialGradient id="radial-gradient-15" cx="32.79" cy="-61.73" fx="7.340645606625664" fy="-30.298176190356656" r="40.45" gradientTransform="matrix(-0.5, 0.87, -0.87, -0.5, 83.9, 71.89)" xlink:href="#radial-gradient-8"/></defs><g class="cls-3"><g id="Calque_2" data-name="Calque 2"><g id="Layer_1" data-name="Layer 1"><path class="cls-4" d="M9.14,227l.47,4.1A26,26,0,0,0,21.3,247.76l1.2.69,0,0,4.34,2.5h0l93.56,53.94h0l0,0,4.22,2.44c14.33,7,23.85-2.22,26.88-5.86l64-99.45a52.7,52.7,0,0,0,6-18l.11,0,9.7-85.56h0a1.29,1.29,0,0,1,0-.17l.56-5c.23-6.94-1.48-19.29-14.86-27L104.56,1.41c-5.48-2-17.94-4.25-26.81,11.14a6.94,6.94,0,0,1-.87,1.18l-70.53,110c-2.91,5.68-6.68,15-6.33,24.38l.54,4.68.09.49s0,0,0,0L9.1,226.69h0C9.12,226.81,9.13,226.92,9.14,227Z"/><path class="cls-5" d="M120.43,304.91l0,0s14.55,6.7,17.94-8.19l1.11-55s1.47-16.57-21.87-31.15l-95.38-57.8s-17.32-10-18,9.27l7.52,70S13.47,242.82,25.09,250l1.78,1L27,251l93.47,53.89Z"/><path class="cls-6" d="M83.16,8.17,15.63,115.29c-15,21.1,8.69,32,8.69,32l93.57,53.94c26,15,42.08-13.94,42.08-13.94L223,84.89c5-9.41-1.17-15.39-4.88-18l-1.06-.64L104.56,1.41A24.85,24.85,0,0,0,99.42.17,19,19,0,0,0,83.16,8.17Z"/><g class="cls-7"><path class="cls-8" d="M152.14,94.68c-47.31,11.11-94.67,22.25-141.44,35.5,1,11.31,13.62,17.09,13.62,17.09l93.57,53.94c26,15,42.08-13.94,42.08-13.94L223,84.89a14.06,14.06,0,0,0,1.85-7.44C200.67,83.31,176.4,89,152.14,94.68Z"/></g><path class="cls-9" d="M11.75,232.14l-7.52-70c.72-19.25,18-9.27,18-9.27l95.38,57.8c23.34,14.58,21.87,31.15,21.87,31.15l-1.11,55c-3.39,14.89-17.94,8.19-17.94,8.19l4.22,2.44c14.33,7,23.85-2.22,26.88-5.86l64-99.45a52.7,52.7,0,0,0,6-18l.11,0,9.7-85.56h0a1.29,1.29,0,0,1,0-.17l.56-5c.23-6.75-1.39-18.62-13.8-26.4,3.71,2.56,9.88,8.54,4.88,18L160,187.27s-16.09,28.92-42.08,13.94L24.32,147.27s-23.74-10.88-8.69-32L83.16,8.17a19,19,0,0,1,16.26-8c-6.23-.78-15,.76-21.67,12.38a6.94,6.94,0,0,1-.87,1.18l-70.53,110c-2.91,5.68-6.68,15-6.33,24.38l.54,4.68.09.49s0,0,0,0L9.1,226.69h0c0,.12,0,.23,0,.34l.47,4.1A26,26,0,0,0,21.3,247.76l1.2.69,0,0L25.09,250C13.47,242.82,11.75,232.14,11.75,232.14Zm145.88-28.8s56.22-92.89,66.23-107.87c9.76-14.59,5.51,8.8,5.51,8.8l-.35,2.6s-6.91,67.73-8.36,77.57a43,43,0,0,1-6.73,18l-58.18,90.22c-10.21,17.71-9.81,5-9.81,5l.1-57.24C145.47,223.1,157.63,203.34,157.63,203.34Z"/><path class="cls-10" d="M189.08,151.59c14.7-24.07,30-49,34.78-56.12,9.76-14.59,5.51,8.8,5.51,8.8l-.35,2.6s-2.75,27-5.14,49.33l1-.1,6.53-57.61h0a1.29,1.29,0,0,1,0-.17l.56-5c.23-6.75-1.39-18.62-13.8-26.4,3.71,2.56,9.88,8.54,4.88,18l-39.42,64A51.41,51.41,0,0,0,189.08,151.59Z"/><path class="cls-11" d="M145.94,297.71s-.4,12.69,9.81-5l58.18-90.22a43,43,0,0,0,6.73-18c1.45-9.84,8.36-77.57,8.36-77.57l.35-2.6s4.25-23.39-5.51-8.8c-10,15-66.23,107.87-66.23,107.87S145.47,223.1,146,240.47Z"/><path class="cls-12" d="M26.89,190.5c-7.79-7.13-11-16.23-7.08-20.32s13.34-1.62,21.13,5.51S51.9,191.93,48,196,34.68,197.64,26.89,190.5Z"/><path class="cls-13" d="M27.49,190.29c-7.37-6.75-10.4-15.3-6.79-19.12s12.52-1.43,19.88,5.32,10.4,15.3,6.79,19.11S34.85,197,27.49,190.29Z"/><path class="cls-12" d="M99.84,282.2c-7.79-7.14-11-16.24-7.08-20.33s13.34-1.62,21.13,5.52,11,16.23,7.08,20.32S107.63,289.33,99.84,282.2Z"/><path class="cls-14" d="M100.44,282c-7.37-6.74-10.4-15.3-6.79-19.11s12.52-1.43,19.89,5.31,10.4,15.31,6.78,19.12S107.8,288.73,100.44,282Z"/><path class="cls-15" d="M230.52,93.27,227,137.41l4.41-38.92h0a1.29,1.29,0,0,1,0-.17l.56-5c.23-6.94-1.48-19.29-14.86-27L138.44,21c2.67,1.57,66.84,39.33,79.19,48C231.75,78.78,230.52,93.27,230.52,93.27Z"/><path class="cls-16" d="M110.4,199.62c9.2,4.95,33.56,16,2.64-1.19L44.34,158.9S60,172.51,110.4,199.62Z"/><path class="cls-12" d="M162.19,219.87c-2.44-1.3-.33-10.05,4.71-19.54s11.1-16.15,13.54-14.85.33,10.05-4.71,19.55S164.63,221.17,162.19,219.87Z"/><path class="cls-17" d="M162.49,219.57c-2.16-1.15.11-9.65,5.07-19s10.71-16,12.87-14.83-.12,9.65-5.07,19S164.64,220.71,162.49,219.57Z"/><path class="cls-12" d="M159.13,271.52c-2.4-1.35-.09-10,5.17-19.42s11.48-15.88,13.88-14.53.1,10.05-5.16,19.43S161.54,272.88,159.13,271.52Z"/><path class="cls-12" d="M159.13,271.52c-2.4-1.35-.09-10,5.17-19.42s11.48-15.88,13.88-14.53.1,10.05-5.16,19.43S161.54,272.88,159.13,271.52Z"/><path class="cls-18" d="M159.44,271.23c-2.13-1.2.34-9.64,5.51-18.86s11.09-15.71,13.22-14.52-.34,9.65-5.51,18.86S161.57,272.43,159.44,271.23Z"/><path class="cls-12" d="M159.67,246.66c-2.41-1.35-.09-10,5.17-19.43s11.47-15.88,13.88-14.52.09,10-5.17,19.43S162.08,248,159.67,246.66Z"/><path class="cls-19" d="M160,246.36c-2.13-1.19.34-9.64,5.51-18.85S176.58,211.79,178.7,213s-.34,9.64-5.51,18.86S162.1,247.56,160,246.36Z"/><path class="cls-12" d="M201.55,154.63c-2.41-1.36-.07-10,5.21-19.42s11.52-15.84,13.92-14.48.07,10-5.21,19.41S204,156,201.55,154.63Z"/><path class="cls-12" d="M201.55,154.63c-2.41-1.36-.07-10,5.21-19.42s11.52-15.84,13.92-14.48.07,10-5.21,19.41S204,156,201.55,154.63Z"/><path class="cls-12" d="M194.41,216c-2.31-1.31-.06-9.66,5-18.67s11.07-15.23,13.39-13.92.06,9.66-5,18.66S196.72,217.34,194.41,216Z"/><path class="cls-12" d="M194.41,216c-2.31-1.31-.06-9.66,5-18.67s11.07-15.23,13.39-13.92.06,9.66-5,18.66S196.72,217.34,194.41,216Z"/><path class="cls-20" d="M194.71,215.75c-2-1.16.35-9.27,5.35-18.12s10.7-15.08,12.74-13.92-.35,9.27-5.35,18.11S196.75,216.91,194.71,215.75Z"/><path class="cls-12" d="M196.91,186.17c-2.31-1.3-.06-9.66,5-18.66s11.07-15.24,13.38-13.93.07,9.66-5,18.66S199.22,187.48,196.91,186.17Z"/><path class="cls-12" d="M196.91,186.17c-2.31-1.3-.06-9.66,5-18.66s11.07-15.24,13.38-13.93.07,9.66-5,18.66S199.22,187.48,196.91,186.17Z"/><path class="cls-21" d="M197.21,185.89c-2.05-1.16.35-9.27,5.34-18.12s10.7-15.08,12.75-13.92S215,163.12,210,172,199.25,187.05,197.21,185.89Z"/><path class="cls-22" d="M201.85,154.33c-2.12-1.2.37-9.64,5.56-18.84s11.13-15.68,13.26-14.48-.37,9.64-5.56,18.84S204,155.54,201.85,154.33Z"/><path class="cls-12" d="M106.22,117.92c-8.39-6.46-9.71-18.72-3-27.37s19-10.43,27.44-4,9.71,18.71,2.95,27.37S114.61,124.38,106.22,117.92Z"/><path class="cls-23" d="M106.75,117.39c-8.07-6.22-9.34-18-2.83-26.34s18.33-10,26.4-3.83,9.35,18,2.84,26.34S114.83,123.6,106.75,117.39Z"/><path class="cls-24" d="M146.49,232s-2.54-16.19,24.43-49.87C170.92,182.13,137.59,211.88,146.49,232Z"/><path class="cls-25" d="M136.66,229.12s-5.08-15.58-44.37-33.39C92.29,195.73,135.47,207.16,136.66,229.12Z"/><path class="cls-26" d="M1.85,146.48,5.63,190.6,1,151.7H1s0-.07,0-.17l-.59-5c-.27-6.93,1.2-16.7,13.28-33.35L51,55.1c-2.66,1.59-29.53,49.35-39.83,64.48C1.51,133.82,1.85,146.48,1.85,146.48Z"/><path class="cls-27" d="M139.27,240.25l-.75,51.88S137.72,271.51,139.27,240.25Z"/><path class="cls-12" d="M94.26,67.65c-8.38-6.47-9.68-18.73-2.91-27.37s19.06-10.41,27.45-3.94,9.69,18.72,2.91,27.37S102.65,74.12,94.26,67.65Z"/><path class="cls-28" d="M94.8,67.12c-8.07-6.23-9.32-18-2.8-26.34s18.34-10,26.41-3.79,9.33,18,2.81,26.34S102.87,73.35,94.8,67.12Z"/><path class="cls-12" d="M117.94,167.21c-8.38-6.48-9.69-18.73-2.91-27.37s19.06-10.41,27.44-3.94,9.69,18.72,2.92,27.37S126.33,173.68,117.94,167.21Z"/><path class="cls-29" d="M118.48,166.68c-8.07-6.23-9.33-18-2.81-26.35s18.35-10,26.42-3.79,9.32,18,2.8,26.35S126.55,172.9,118.48,166.68Z"/></g></g></g></svg>